<svg width="36" height="36" viewBox="0 0 36 36" fill="none" xmlns="http://www.w3.org/2000/svg">
<path d="M22.641 33.0469H12.0941C11.4488 33.0469 10.8863 32.6077 10.7298 31.9817L8.21875 21.9375" stroke="white" stroke-miterlimit="10" stroke-linecap="round" stroke-linejoin="round"/>
<path d="M27.7812 21.9375L26.8672 25.5938" stroke="white" stroke-miterlimit="10" stroke-linecap="round" stroke-linejoin="round"/>
<path d="M28.5469 21.7969H7.45312C6.67645 21.7969 6.04688 21.1673 6.04688 20.3906C6.04688 19.614 6.67645 18.9844 7.45312 18.9844H28.5469C29.3235 18.9844 29.9531 19.614 29.9531 20.3906C29.9531 21.1673 29.3235 21.7969 28.5469 21.7969Z" stroke="white" stroke-miterlimit="10" stroke-linecap="round" stroke-linejoin="round"/>
<path d="M19.4062 29.6719V24.0469H25.0312L30.6562 29.6719L25.0312 35.2969L19.4062 29.6719Z" stroke="white" stroke-miterlimit="10" stroke-linecap="round" stroke-linejoin="round"/>
<path d="M22.6406 27.2812L17.2969 21.9375" stroke="white" stroke-miterlimit="10" stroke-linecap="round" stroke-linejoin="round"/>
<path d="M12.8398 14.625L15.1115 18.8438" stroke="white" stroke-miterlimit="10" stroke-linecap="round" stroke-linejoin="round"/>
<path d="M23.0629 14.8058L20.8887 18.8438" stroke="white" stroke-miterlimit="10" stroke-linecap="round" stroke-linejoin="round"/>
<path d="M12.375 4.6812C11.9186 3.97814 11.1444 3.51562 10.2657 3.51562C9.09805 3.51562 8.11501 4.33223 7.81674 5.44458C6.73871 5.1563 5.56527 5.63098 4.98146 6.67969C4.39766 7.7284 4.58799 9.01969 5.36776 9.84375C4.58806 10.6678 4.39766 11.9591 4.98146 13.0078C5.56527 14.0565 6.73871 14.5312 7.81667 14.2429C8.11501 15.3553 9.09805 16.1719 10.2657 16.1719C11.4333 16.1719 12.4163 15.3553 12.7146 14.2429C13.7925 14.5312 14.966 14.0565 15.5498 13.0078C15.6875 12.7604 15.7822 12.4995 15.8362 12.2344" stroke="white" stroke-miterlimit="10" stroke-linecap="round" stroke-linejoin="round"/>
<path d="M11.875 9.84375C11.875 10.7326 11.1545 11.4531 10.2656 11.4531C9.37679 11.4531 8.65625 10.7326 8.65625 9.84375C8.65625 8.95492 9.37679 8.23438 10.2656 8.23438C11.1545 8.23438 11.875 8.95492 11.875 9.84375Z" stroke="white"/>
<path d="M27.3438 9.84375C27.3438 10.7326 26.6232 11.4531 25.7344 11.4531C24.8455 11.4531 24.125 10.7326 24.125 9.84375C24.125 8.95492 24.8455 8.23438 25.7344 8.23438C26.6232 8.23438 27.3438 8.95492 27.3438 9.84375Z" stroke="white"/>
<path d="M23.2842 3.86719C22.7004 2.81848 21.5269 2.3438 20.4489 2.63208C20.1506 1.51973 19.1676 0.703125 18 0.703125C16.8324 0.703125 15.8493 1.51973 15.551 2.63208C14.4731 2.3438 13.2996 2.81848 12.7158 3.86719C12.132 4.9159 12.3224 6.20719 13.1021 7.03125C12.3224 7.85531 12.132 9.1466 12.7158 10.1953C13.2996 11.244 14.4731 11.7187 15.551 11.4304C15.8493 12.5428 16.8324 13.3594 18 13.3594C19.1676 13.3594 20.1506 12.5428 20.4489 11.4304C21.5268 11.7187 22.7003 11.244 23.2841 10.1953C23.8679 9.1466 23.6776 7.85531 22.8978 7.03125C23.6776 6.20719 23.868 4.9159 23.2842 3.86719Z" stroke="white" stroke-miterlimit="10" stroke-linecap="round" stroke-linejoin="round"/>
<path d="M19.6094 7.03125C19.6094 7.92008 18.8888 8.64062 18 8.64062C17.1112 8.64062 16.3906 7.92008 16.3906 7.03125C16.3906 6.14242 17.1112 5.42188 18 5.42188C18.8888 5.42188 19.6094 6.14242 19.6094 7.03125Z" stroke="white"/>
<path d="M20.1641 12.2344C20.2181 12.4995 20.3127 12.7604 20.4504 13.0078C21.0342 14.0565 22.2077 14.5312 23.2857 14.2429C23.5839 15.3553 24.567 16.1719 25.7346 16.1719C26.9022 16.1719 27.8852 15.3553 28.1835 14.2429C29.2614 14.5312 30.4349 14.0565 31.0187 13.0078C31.6025 11.9591 31.4122 10.6678 30.6324 9.84375C31.4121 9.01969 31.6025 7.7284 31.0187 6.67969C30.4349 5.63098 29.2614 5.1563 28.1835 5.44458C27.8852 4.33223 26.9022 3.51562 25.7346 3.51562C24.8558 3.51562 24.0816 3.97814 23.6252 4.6812" stroke="white" stroke-miterlimit="10" stroke-linecap="round" stroke-linejoin="round"/>
</svg>
