<svg width="36" height="36" viewBox="0 0 36 36" fill="none" xmlns="http://www.w3.org/2000/svg">
<path d="M19.2861 7.31836C19.2925 6.55786 19.825 5.82345 20.6946 5.69709C21.2972 4.47598 23.0385 4.47598 23.6412 5.69709C24.0623 5.75834 24.4044 5.9621 24.6459 6.24237" stroke="white" stroke-miterlimit="10" stroke-linecap="round" stroke-linejoin="round"/>
<path d="M14.157 26.898L12.1394 33.672C11.8979 34.4824 12.5051 35.2969 13.3509 35.2969H18.1476" stroke="white" stroke-miterlimit="10" stroke-linecap="round" stroke-linejoin="round"/>
<path d="M6.27441 12.7199C6.68096 17.4882 9.24139 21.6413 12.9784 24.2039" stroke="white" stroke-miterlimit="10" stroke-linecap="round" stroke-linejoin="round"/>
<path d="M23.3379 24.2021C26.2701 22.1905 28.4776 19.1995 29.488 15.7005" stroke="white" stroke-miterlimit="10" stroke-linecap="round" stroke-linejoin="round"/>
<path d="M18.1475 35.2969H22.9442C23.7899 35.2969 24.3971 34.4825 24.1557 33.672L22.138 26.898" stroke="white" stroke-miterlimit="10" stroke-linecap="round" stroke-linejoin="round"/>
<path d="M22.2263 26.8594H14.0879C13.2336 26.8594 12.541 26.1668 12.541 25.3125C12.541 24.4582 13.2336 23.7656 14.0879 23.7656H22.2263C23.0806 23.7656 23.7732 24.4582 23.7732 25.3125C23.7732 26.1668 23.0806 26.8594 22.2263 26.8594Z" stroke="white" stroke-miterlimit="10" stroke-linecap="round" stroke-linejoin="round"/>
<path d="M12.9005 17.9026C11.4586 18.6606 9.77344 17.4363 10.0488 15.8307C8.8823 14.6937 9.52601 12.7125 11.1381 12.4783C11.859 11.0175 13.9421 11.0175 14.663 12.4783C16.275 12.7125 16.9187 14.6937 15.7523 15.8307C16.0276 17.4363 14.3424 18.6606 12.9005 17.9026Z" stroke="white" stroke-miterlimit="10" stroke-linecap="round" stroke-linejoin="round"/>
<path d="M13.7451 14.8515C13.7451 14.3855 13.3673 14.0077 12.9014 14.0077C12.4354 14.0077 12.0576 14.3855 12.0576 14.8515C12.0576 15.3174 12.4354 15.6952 12.9014 15.6952C13.3673 15.6952 13.7451 15.3174 13.7451 14.8515Z" fill="white"/>
<path d="M9.97376 11.7064C8.53186 12.4644 6.84668 11.2401 7.12203 9.63446C5.95554 8.49744 6.59925 6.51632 8.21131 6.28211C8.93222 4.82129 11.0153 4.82129 11.7362 6.28211C13.3483 6.51632 13.992 8.49744 12.8255 9.63446C13.1008 11.2401 11.4157 12.4644 9.97376 11.7064Z" stroke="white" stroke-miterlimit="10" stroke-linecap="round" stroke-linejoin="round"/>
<path d="M10.8174 8.65524C10.8174 8.18928 10.4396 7.81149 9.97363 7.81149C9.50767 7.81149 9.12988 8.18928 9.12988 8.65524C9.12988 9.1212 9.50767 9.49899 9.97363 9.49899C10.4396 9.49899 10.8174 9.1212 10.8174 8.65524Z" fill="white"/>
<path d="M22.7335 15.9807C21.2916 16.7388 19.6064 15.5144 19.8818 13.9088C18.7153 12.7718 19.359 10.7907 20.9711 10.5565C21.692 9.09565 23.7751 9.09565 24.496 10.5565C26.108 10.7907 26.7517 12.7718 25.5853 13.9088C25.8606 15.5144 24.1754 16.7388 22.7335 15.9807Z" stroke="white" stroke-miterlimit="10" stroke-linecap="round" stroke-linejoin="round"/>
<path d="M23.5771 12.9296C23.5771 12.4636 23.1994 12.0858 22.7334 12.0858C22.2674 12.0858 21.8896 12.4636 21.8896 12.9296C21.8896 13.3956 22.2674 13.7733 22.7334 13.7733C23.1994 13.7733 23.5771 13.3956 23.5771 12.9296Z" fill="white"/>
<path d="M27.5783 11.1526C26.1364 11.9106 24.4512 10.6863 24.7265 9.08069C23.56 7.94367 24.2037 5.96254 25.8158 5.72833C26.5367 4.26752 28.6198 4.26752 29.3407 5.72833C30.9528 5.96254 31.5965 7.94367 30.43 9.08069C30.7053 10.6863 29.0202 11.9106 27.5783 11.1526Z" stroke="white" stroke-miterlimit="10" stroke-linecap="round" stroke-linejoin="round"/>
<path d="M28.4219 8.10147C28.4219 7.63551 28.0441 7.25772 27.5781 7.25772C27.1122 7.25772 26.7344 7.63551 26.7344 8.10147C26.7344 8.56743 27.1122 8.94522 27.5781 8.94522C28.0441 8.94522 28.4219 8.56743 28.4219 8.10147Z" fill="white"/>
<path d="M16.7911 12.512C15.3492 13.27 13.6641 12.0457 13.9394 10.4401C12.7729 9.30304 13.4166 7.32192 15.0287 7.08771C15.7496 5.6269 17.8327 5.6269 18.5536 7.08771C20.1657 7.32192 20.8094 9.30304 19.6429 10.4401C19.9182 12.0457 18.233 13.27 16.7911 12.512Z" stroke="white" stroke-miterlimit="10" stroke-linecap="round" stroke-linejoin="round"/>
<path d="M17.6357 9.46085C17.6357 8.99488 17.258 8.6171 16.792 8.6171C16.326 8.6171 15.9482 8.99488 15.9482 9.46085C15.9482 9.92681 16.326 10.3046 16.792 10.3046C17.258 10.3046 17.6357 9.92681 17.6357 9.46085Z" fill="white"/>
<path d="M30.4704 14.3814V15.6715H29.1803C27.5242 15.6715 26.1816 14.3289 26.1816 12.6729V11.3827H27.4717C29.1279 11.3827 30.4704 12.7252 30.4704 14.3814Z" stroke="white" stroke-miterlimit="10" stroke-linecap="round" stroke-linejoin="round"/>
<path d="M33.0944 8.45328H34.3846V9.74338C34.3846 11.3995 33.0419 12.7421 31.3859 12.7421H30.0957V11.452C30.0957 9.79583 31.4382 8.45328 33.0944 8.45328Z" stroke="white" stroke-miterlimit="10" stroke-linecap="round" stroke-linejoin="round"/>
<path d="M14.6843 6.82946L13.772 7.7417L12.8597 6.82946C11.6887 5.65841 11.6887 3.75976 12.8597 2.58871L13.772 1.67647L14.6843 2.58871C15.8553 3.75976 15.8553 5.65841 14.6843 6.82946Z" stroke="white" stroke-miterlimit="10" stroke-linecap="round" stroke-linejoin="round"/>
<path d="M6.76823 10.4704L7.68046 11.3827L6.76823 12.295C5.59717 13.466 3.69852 13.466 2.52747 12.295L1.61523 11.3827L2.52747 10.4704C3.69852 9.29939 5.59717 9.29939 6.76823 10.4704Z" stroke="white" stroke-miterlimit="10" stroke-linecap="round" stroke-linejoin="round"/>
<path d="M25.5218 5.4124L24.6881 6.24609L23.8544 5.4124C22.7842 4.34217 22.7842 2.60707 23.8544 1.53684L24.6881 0.703149L25.5218 1.53684C26.592 2.60707 26.592 4.34217 25.5218 5.4124Z" stroke="white" stroke-miterlimit="10" stroke-linecap="round" stroke-linejoin="round"/>
</svg>
