<svg width="180" height="101" viewBox="0 0 180 101" fill="none" xmlns="http://www.w3.org/2000/svg">
<path d="M77.0391 66.0834V69.3395H80.5618V69.8086H77.0391V73.3682H76.4795V65.6235H81.1031V66.0926H77.0391V66.0834Z" fill="#ADB4A4"/>
<path d="M88.1672 72.8806V73.3589H83.9473V65.6143H84.5069V72.8806H88.1672Z" fill="#ADB4A4"/>
<path d="M97.1758 69.4866C97.1758 70.0845 97.084 70.6272 96.9097 71.1146C96.7262 71.6021 96.4785 72.016 96.1575 72.3656C95.8364 72.7059 95.4419 72.9726 94.9924 73.1658C94.5429 73.3497 94.0383 73.4509 93.4971 73.4509C92.9558 73.4509 92.4512 73.3589 92.0017 73.1658C91.5522 72.9818 91.1669 72.7151 90.8367 72.3656C90.5156 72.016 90.2587 71.6021 90.0844 71.1146C89.9101 70.6272 89.8184 70.0845 89.8184 69.4866C89.8184 68.8887 89.9101 68.3553 90.0844 67.8678C90.2679 67.3803 90.5156 66.9664 90.8367 66.6169C91.1577 66.2673 91.5522 66.0006 92.0017 65.8166C92.4512 65.6327 92.9558 65.5315 93.4971 65.5315C94.0383 65.5315 94.5429 65.6235 94.9924 65.8166C95.4419 66.0098 95.8364 66.2673 96.1575 66.6169C96.4785 66.9664 96.7354 67.3803 96.9097 67.8678C97.084 68.3553 97.1758 68.8979 97.1758 69.4866ZM96.5978 69.4866C96.5978 68.9439 96.5244 68.4656 96.3776 68.0333C96.2309 67.601 96.0199 67.2423 95.7446 66.9388C95.4694 66.6352 95.1483 66.4145 94.763 66.2489C94.3777 66.0926 93.9557 66.0098 93.4971 66.0098C93.0384 66.0098 92.6164 66.0926 92.2402 66.2489C91.8549 66.4053 91.5339 66.6352 91.2586 66.9388C90.9834 67.2423 90.7724 67.601 90.6165 68.0333C90.4697 68.4656 90.3871 68.9531 90.3871 69.4866C90.3871 70.0201 90.4605 70.5168 90.6165 70.9491C90.7724 71.3814 90.9834 71.7401 91.2586 72.0436C91.5339 72.3472 91.8641 72.5679 92.2402 72.7243C92.6255 72.8806 93.0384 72.9634 93.4971 72.9634C93.9557 72.9634 94.3777 72.8898 94.763 72.7243C95.1483 72.5679 95.4694 72.338 95.7446 72.0436C96.0199 71.7493 96.2309 71.3814 96.3776 70.9491C96.5244 70.5168 96.5978 70.0385 96.5978 69.4866Z" fill="#ADB4A4"/>
<path d="M109.908 65.6143L107.477 73.3589H106.973L104.689 66.6352C104.661 66.5433 104.634 66.4513 104.615 66.3501C104.597 66.4513 104.569 66.5433 104.542 66.6352L102.257 73.3589H101.762L99.3311 65.6143H99.7989C99.909 65.6143 99.9732 65.6602 100.001 65.7614L101.946 72.1264C101.982 72.2736 102.019 72.4391 102.056 72.6231C102.074 72.5311 102.092 72.4391 102.111 72.3563C102.129 72.2736 102.147 72.2 102.175 72.1264L104.358 65.7614C104.358 65.7614 104.395 65.6878 104.432 65.6602C104.468 65.6326 104.514 65.6143 104.56 65.6143H104.716C104.771 65.6143 104.808 65.6326 104.845 65.651C104.881 65.6694 104.9 65.7154 104.918 65.7614L107.101 72.1264C107.129 72.2 107.147 72.2736 107.165 72.3563C107.184 72.4391 107.202 72.5311 107.221 72.6231C107.239 72.5311 107.257 72.4483 107.276 72.3655C107.294 72.2828 107.312 72.2092 107.331 72.1356L109.275 65.7706C109.275 65.7706 109.312 65.697 109.349 65.6694C109.386 65.6418 109.431 65.6235 109.486 65.6235H109.908V65.6143Z" fill="#ADB4A4"/>
<path d="M117.257 72.8898V73.3589H112.615V65.6143H117.239V66.0833H113.175V69.2106H116.56V69.6613H113.175V72.8898H117.248H117.257Z" fill="#ADB4A4"/>
<path d="M125.586 73.3588H125.109C125.045 73.3588 124.999 73.3496 124.953 73.3312C124.908 73.3129 124.871 73.2761 124.834 73.2209L122.357 70.0844C122.357 70.0844 122.302 70.0108 122.266 69.9832C122.238 69.9556 122.201 69.928 122.165 69.9188C122.128 69.9004 122.082 69.8912 122.027 69.882C121.972 69.8728 121.908 69.8728 121.834 69.8728H120.825V73.3772H120.266V65.6326H122.238C123.128 65.6326 123.788 65.8073 124.229 66.1477C124.669 66.488 124.889 66.9939 124.889 67.6653C124.889 67.9596 124.834 68.2264 124.733 68.4747C124.632 68.7231 124.486 68.9346 124.293 69.1186C124.1 69.3025 123.871 69.4497 123.596 69.5693C123.33 69.6889 123.018 69.7624 122.678 69.8084C122.77 69.8636 122.843 69.9372 122.917 70.0292L125.577 73.3772L125.586 73.3588ZM122.155 69.4405C122.495 69.4405 122.807 69.4037 123.073 69.3209C123.339 69.2382 123.568 69.1186 123.761 68.9714C123.944 68.8151 124.091 68.6311 124.192 68.4195C124.293 68.208 124.339 67.9596 124.339 67.6929C124.339 67.141 124.155 66.7363 123.798 66.4696C123.44 66.2028 122.917 66.0741 122.229 66.0741H120.816V69.4589H122.155V69.4405Z" fill="#ADB4A4"/>
<path d="M138.43 65.6143V73.3589H137.871V69.6522H133.036V73.3589H132.477V65.6143H133.036V69.229H137.871V65.6143H138.43Z" fill="#ADB4A4"/>
<path d="M148.879 69.4866C148.879 70.0845 148.787 70.6272 148.613 71.1146C148.439 71.6021 148.182 72.016 147.861 72.3656C147.54 72.7059 147.145 72.9726 146.696 73.1658C146.246 73.3497 145.741 73.4509 145.2 73.4509C144.659 73.4509 144.154 73.3589 143.705 73.1658C143.255 72.9818 142.87 72.7151 142.54 72.3656C142.219 72.016 141.962 71.6021 141.788 71.1146C141.613 70.6272 141.521 70.0845 141.521 69.4866C141.521 68.8887 141.613 68.3553 141.788 67.8678C141.962 67.3803 142.219 66.9664 142.54 66.6169C142.861 66.2673 143.255 66.0006 143.705 65.8166C144.154 65.6235 144.659 65.5315 145.2 65.5315C145.741 65.5315 146.246 65.6235 146.696 65.8166C147.145 66.0006 147.54 66.2673 147.861 66.6169C148.182 66.9664 148.439 67.3803 148.613 67.8678C148.787 68.3553 148.879 68.8979 148.879 69.4866ZM148.301 69.4866C148.301 68.9439 148.228 68.4656 148.081 68.0333C147.934 67.601 147.723 67.2423 147.448 66.9388C147.173 66.6352 146.851 66.4145 146.466 66.2489C146.081 66.0926 145.659 66.0098 145.2 66.0098C144.741 66.0098 144.319 66.0926 143.934 66.2489C143.549 66.4053 143.228 66.6352 142.953 66.9388C142.677 67.2423 142.466 67.601 142.31 68.0333C142.164 68.4656 142.081 68.9531 142.081 69.4866C142.081 70.0201 142.154 70.5168 142.31 70.9491C142.466 71.3814 142.677 71.7401 142.953 72.0436C143.228 72.3472 143.558 72.5679 143.934 72.7243C144.319 72.8806 144.741 72.9634 145.2 72.9634C145.659 72.9634 146.081 72.8898 146.466 72.7243C146.851 72.5679 147.173 72.338 147.448 72.0436C147.723 71.7401 147.934 71.3814 148.081 70.9491C148.228 70.5168 148.301 70.0385 148.301 69.4866Z" fill="#ADB4A4"/>
<path d="M154.796 72.9541C155.163 72.9541 155.503 72.8897 155.787 72.761C156.081 72.6322 156.328 72.4482 156.53 72.2183C156.732 71.9884 156.888 71.7216 156.998 71.4089C157.108 71.0961 157.163 70.7558 157.163 70.3971V65.605H157.723V70.3971C157.723 70.8202 157.658 71.2249 157.521 71.5928C157.383 71.9608 157.191 72.2827 156.943 72.5586C156.686 72.8346 156.383 73.0461 156.016 73.2117C155.649 73.3772 155.246 73.4508 154.796 73.4508C154.347 73.4508 153.934 73.368 153.576 73.2117C153.218 73.0553 152.906 72.8346 152.659 72.5586C152.402 72.2827 152.209 71.9608 152.081 71.5928C151.952 71.2249 151.879 70.8202 151.879 70.3971V65.605H152.439V70.3879C152.439 70.7466 152.494 71.0869 152.604 71.3997C152.714 71.7124 152.87 71.9792 153.062 72.2091C153.264 72.439 153.512 72.623 153.805 72.7518C154.099 72.8805 154.429 72.9449 154.805 72.9449L154.796 72.9541Z" fill="#ADB4A4"/>
<path d="M164.961 66.5525C164.924 66.6169 164.878 66.6445 164.823 66.6445C164.777 66.6445 164.713 66.6077 164.64 66.5433C164.566 66.479 164.465 66.4054 164.337 66.3226C164.209 66.2398 164.053 66.1662 163.86 66.0926C163.667 66.0191 163.429 65.9915 163.154 65.9915C162.878 65.9915 162.631 66.0283 162.411 66.111C162.2 66.1938 162.016 66.3042 161.878 66.4422C161.732 66.5801 161.622 66.7457 161.548 66.9205C161.475 67.0952 161.438 67.2976 161.438 67.4907C161.438 67.7575 161.493 67.969 161.603 68.1438C161.713 68.3185 161.86 68.4657 162.044 68.5853C162.227 68.7049 162.429 68.806 162.667 68.8888C162.897 68.9716 163.135 69.0544 163.383 69.128C163.631 69.2107 163.86 69.2935 164.099 69.3947C164.328 69.4959 164.539 69.6155 164.722 69.7626C164.906 69.9098 165.053 70.0845 165.163 70.3053C165.273 70.5169 165.328 70.7836 165.328 71.1055C165.328 71.4274 165.273 71.7402 165.163 72.0253C165.053 72.3104 164.887 72.5588 164.676 72.7703C164.465 72.9819 164.209 73.1475 163.906 73.267C163.603 73.3866 163.255 73.451 162.86 73.451C162.346 73.451 161.915 73.359 161.548 73.1843C161.181 73.0003 160.86 72.7611 160.585 72.4392L160.741 72.2001C160.787 72.1449 160.833 72.1173 160.897 72.1173C160.934 72.1173 160.97 72.1357 161.025 72.1817C161.08 72.2277 161.135 72.2829 161.209 72.3472C161.282 72.4116 161.365 72.476 161.475 72.5588C161.576 72.6324 161.695 72.706 161.833 72.7703C161.97 72.8347 162.126 72.8899 162.3 72.9359C162.475 72.9819 162.677 73.0003 162.897 73.0003C163.199 73.0003 163.475 72.9543 163.713 72.8623C163.952 72.7703 164.154 72.6416 164.319 72.4852C164.484 72.3288 164.612 72.1357 164.695 71.9149C164.787 71.6942 164.823 71.455 164.823 71.2067C164.823 70.9308 164.768 70.71 164.658 70.5352C164.548 70.3605 164.401 70.2133 164.218 70.0937C164.034 69.9742 163.832 69.873 163.603 69.7994C163.374 69.7166 163.135 69.643 162.888 69.5603C162.64 69.4867 162.411 69.3947 162.172 69.3027C161.934 69.2107 161.732 69.0912 161.548 68.9348C161.365 68.7784 161.218 68.6037 161.108 68.3829C160.998 68.1622 160.943 67.8862 160.943 67.5551C160.943 67.2976 160.989 67.0492 161.09 66.8101C161.19 66.5709 161.328 66.3594 161.521 66.1754C161.713 65.9915 161.943 65.8443 162.218 65.7339C162.493 65.6235 162.814 65.5684 163.172 65.5684C163.576 65.5684 163.933 65.6327 164.245 65.7615C164.566 65.8903 164.851 66.0834 165.117 66.3502L164.988 66.5985L164.961 66.5525Z" fill="#ADB4A4"/>
<path d="M172.997 72.8898V73.3589H168.355V65.6143H172.979V66.0833H168.915V69.2106H172.3V69.6613H168.915V72.8898H172.988H172.997Z" fill="#ADB4A4"/>
<path d="M65.7637 70.5445C65.305 70.8664 64.8372 71.1883 64.3234 71.501C62.0024 72.7888 59.6815 74.1685 57.1954 75.1434C55.9202 75.7229 54.6084 76.2104 53.2873 76.6887C52.6543 76.8542 52.0489 77.0106 51.4159 77.1762C50.3334 77.5073 49.3701 77.7005 48.3151 78.0408C47.1776 78.4363 45.8841 78.5375 44.7006 78.7582L42.2788 79.0617C41.0495 79.2457 39.8018 79.3101 38.5634 79.3929C37.8478 79.4021 37.1506 79.3745 36.4442 79.3745C36.0956 79.3745 35.747 79.3745 35.3892 79.3745C35.0406 79.3653 34.6829 79.3469 34.3251 79.3377C33.793 79.3285 33.2517 79.3377 32.7105 79.2917C31.9766 79.2365 31.2885 79.0434 30.5546 78.9514C30.0501 78.8778 29.5455 78.8686 29.041 78.7858C28.1328 78.657 27.2154 78.5099 26.3255 78.3167C25.7567 78.1696 25.1696 78.004 24.6742 77.8108C24.1788 77.6177 23.766 77.3877 23.6743 77.1946C23.4908 76.7991 24.1972 76.5507 25.4357 76.7347C25.7751 76.7899 26.1329 76.8818 26.4815 76.9554C26.9677 77.0566 27.4539 77.0658 27.9401 77.1394C28.7291 77.2314 29.4997 77.4613 30.2794 77.5625C31.1601 77.6913 31.9399 77.7464 32.8022 77.8016C33.793 77.8384 34.8113 77.958 35.8112 77.9764C36.4993 77.9764 37.1873 77.9856 37.8753 77.9764C38.4992 77.9764 39.0129 77.8568 39.6184 77.8016C40.2514 77.7281 40.8935 77.7005 41.5265 77.6361C42.1595 77.5717 42.8017 77.5073 43.4347 77.4429C45.407 77.2222 47.4069 76.8266 49.3426 76.33C49.893 76.2104 50.4434 76.054 50.9664 75.8517C51.5076 75.6493 52.0489 75.447 52.6085 75.2538C53.3974 74.9595 54.2873 74.7019 55.1037 74.426C56.0395 74.1041 56.9385 73.6718 57.8467 73.2946C58.599 72.9727 59.3053 72.568 60.0301 72.2001C60.6447 71.8966 61.3511 71.4367 61.9291 71.1699C62.1767 71.0595 62.4703 70.8848 62.7272 70.7468C63.3235 70.4341 63.8831 70.0662 64.4427 69.6799C64.8922 69.3763 65.3692 69.0728 65.8554 68.7877C66.3233 68.4841 66.782 68.1898 67.2315 67.9414C67.9654 67.5275 68.7544 67.2884 68.7635 67.6471C68.7635 67.8955 68.5801 68.2818 68.0755 68.7601C67.9379 68.8796 67.8003 69.0084 67.6627 69.128C67.3599 69.3855 67.0572 69.6339 66.7545 69.873C66.4426 70.0938 66.1215 70.3145 65.8004 70.5445H65.7637Z" fill="#ADB4A4"/>
<path d="M45.0677 76.6795C44.8751 76.56 44.6916 76.4312 44.499 76.2748C43.655 75.5942 42.6092 75.1067 41.6276 74.4812C41.1138 74.1501 40.5359 73.8834 40.0497 73.4602C39.8203 73.2671 39.6277 73.0555 39.4167 72.844C39.0314 72.5037 38.7378 72.1725 38.3342 71.869C37.903 71.5287 37.5819 71.032 37.2608 70.5905C37.0682 70.2778 36.848 69.9834 36.6554 69.6707C36.3526 69.2016 36.0407 68.7233 35.8114 68.2082C35.5545 67.6104 35.3894 67.0125 35.1417 66.4146C35.0591 66.1847 34.9399 65.9639 34.894 65.7248C34.8298 65.3937 34.8206 65.0717 34.7839 64.7406C34.7564 64.5107 34.6922 64.2899 34.6371 64.0692C34.5637 63.6644 34.4995 63.2505 34.5087 62.8366C34.5087 62.5699 34.5087 62.294 34.6004 62.064C34.6738 61.8249 34.8114 61.6225 34.9766 61.5673C35.3252 61.4569 35.7196 61.7329 35.8205 62.248C35.8481 62.3951 35.8481 62.5423 35.8664 62.6895C35.8939 62.8918 35.9398 63.0942 35.9948 63.2965C36.0682 63.6185 36.0407 63.9588 36.0682 64.2899C36.0866 64.667 36.2242 64.9706 36.3159 65.3201C36.4352 65.7156 36.5178 66.1479 36.6554 66.5342C36.7471 66.8101 36.8388 67.0861 36.9764 67.3436C37.0865 67.5828 37.2333 67.7575 37.3801 67.9599C37.6737 68.4014 37.903 68.8889 38.1874 69.3396C38.6186 70.057 39.1598 70.7193 39.7653 71.2987C39.9304 71.4735 40.1047 71.6391 40.2974 71.7586C40.4992 71.8966 40.7102 72.0162 40.9212 72.1449C41.2147 72.3381 41.4716 72.6232 41.7743 72.8348C42.1138 73.0831 42.4807 73.3039 42.8477 73.5246L43.7834 74.0489C44.0494 74.1961 44.4072 74.3432 44.609 74.5548C44.7008 74.6468 44.8292 74.7296 44.9393 74.8031L45.7007 75.3366C46.1136 75.631 46.5172 76.0265 46.7557 76.4588C46.9575 76.8175 46.9667 77.2682 46.6823 77.3786C46.4805 77.4613 46.2328 77.4705 45.9851 77.3326C45.9209 77.2958 45.8567 77.259 45.7925 77.213C45.5264 77.0382 45.3063 76.8451 45.0402 76.6703L45.0677 76.6795Z" fill="#ADB4A4"/>
<path d="M36.729 62.4319C36.9033 62.5699 37.0592 62.7263 37.2244 62.8918C37.9583 63.6553 38.9215 64.2163 39.8573 64.8418C40.3435 65.1729 40.8939 65.4213 41.3801 65.78C41.6095 65.9456 41.8021 66.1479 42.0314 66.3135C42.4259 66.617 42.7654 66.8838 43.1965 67.1413C43.6644 67.4356 44.0497 67.8863 44.3891 68.3094C44.6276 68.5946 44.8478 68.8889 45.0772 69.1832C45.4074 69.6339 45.756 70.0938 45.9945 70.5997C46.2881 71.1792 46.4532 71.7771 46.7193 72.3749C46.811 72.5957 46.9119 72.8256 46.967 73.0556C47.0312 73.3867 47.0403 73.7086 47.077 74.0397C47.1046 74.2697 47.1688 74.4813 47.2055 74.7112C47.288 75.1159 47.3156 75.5298 47.3156 75.9437C47.2972 76.2105 47.288 76.4772 47.1963 76.7164C47.1046 76.9555 46.967 77.1395 46.8018 77.1854C46.4532 77.2774 46.0679 76.9831 45.9945 76.4772C45.967 76.3392 45.9762 76.1829 45.967 76.0449C45.967 75.8425 45.8844 75.6494 45.8569 75.447C45.8019 75.1251 45.8202 74.8032 45.8019 74.4813C45.7835 74.1133 45.6459 73.819 45.5542 73.4787C45.4349 73.0924 45.3432 72.6785 45.2056 72.2921C45.1047 72.0254 45.0038 71.7587 44.8662 71.5103C44.7377 71.2896 44.6001 71.124 44.4442 70.9216C44.1414 70.4985 43.8662 70.057 43.5726 69.6247C43.0956 68.9625 42.4993 68.383 41.848 67.8771C41.6553 67.7392 41.4718 67.5828 41.2608 67.4724C41.0407 67.362 40.8205 67.2609 40.6003 67.1321C40.2884 66.9573 39.9949 66.6722 39.683 66.4606C39.3344 66.2123 38.9674 65.9732 38.6004 65.7432L37.6831 65.1545C37.4262 64.9798 37.0868 64.805 36.9033 64.5659C36.8207 64.4647 36.7015 64.3727 36.6006 64.2807L35.9125 63.6461C35.5272 63.3058 35.2061 62.8367 35.0318 62.3768C34.8942 61.9812 34.9676 61.5489 35.2612 61.4846C35.4722 61.4386 35.7199 61.4662 35.9309 61.6409L36.096 61.7881C36.3162 62.0088 36.518 62.2112 36.7382 62.4228L36.729 62.4319Z" fill="#ADB4A4"/>
<path d="M48.031 82.042C48.086 82.6123 48.0401 83.1918 48.0218 83.808C47.7649 86.4938 47.1961 89.2072 46.0127 91.6631C45.4256 92.96 44.71 94.2109 43.8477 95.3606C43.4074 95.8665 42.9945 96.354 42.5083 96.8139C42.1047 97.237 41.7194 97.6141 41.3066 97.9545C41.1047 98.1384 40.9029 98.3224 40.6919 98.5063C40.3341 98.7823 39.9672 99.0582 39.6002 99.3525L38.9672 99.84L38.8021 99.9596C38.7471 99.9872 38.6828 100.088 38.6737 99.9688L38.5269 99.5549C38.3434 99.003 38.1232 98.3868 37.9856 97.8625C37.8205 97.237 37.7196 96.5932 37.6462 95.9677C37.5728 95.1307 37.5086 94.2845 37.5545 93.4383C37.6003 92.1598 37.7746 90.8628 38.1691 89.6395C38.6278 88.2322 39.2975 86.9629 40.0864 85.7028C40.3708 85.2245 40.7103 84.7738 41.068 84.3507C41.5909 83.7804 42.1689 83.3297 42.7285 82.8606C43.1138 82.5295 43.4808 82.1892 43.8294 81.8581C44.4623 81.2418 45.0495 80.6347 45.5082 79.9633C45.8017 79.5218 46.0494 79.0619 46.2329 78.6296C46.4347 78.2065 46.5723 77.8018 46.7283 77.6638C46.9026 77.5258 47.0861 77.5902 47.242 77.9029C47.3888 78.2065 47.4438 78.7859 47.242 79.485C47.1227 79.8713 46.9301 80.2392 46.7283 80.5795C46.4439 81.0578 46.1595 81.5085 45.8109 81.9224C45.2513 82.5847 44.5816 83.0906 43.9578 83.5781C43.2422 84.1391 42.7468 84.691 42.2056 85.3073C41.5909 86.0339 41.0038 86.8157 40.536 87.6528C40.224 88.2322 39.9397 88.8393 39.7287 89.474C39.536 90.0442 39.4534 90.5409 39.3525 91.1112C39.1415 92.3161 38.9948 93.5394 39.0223 94.7628C39.0498 95.2411 39.0681 95.7194 39.1507 96.1884C39.1966 96.4276 39.2149 96.6667 39.2791 96.8967L39.4259 97.513C39.4626 97.5681 39.4259 97.7613 39.6094 97.5773L39.8204 97.421L39.8754 97.3842L40.0131 97.2646L40.2883 97.0255L40.9121 96.4828C41.1047 96.2896 41.2882 96.0873 41.4625 95.8757C41.8386 95.4618 42.1414 94.9927 42.49 94.542C42.967 93.8798 43.5358 93.1899 43.9578 92.4633C44.2238 92.0586 44.4348 91.6263 44.6458 91.194C44.8752 90.7709 45.0495 90.311 45.2238 89.8695C45.3797 89.5015 45.5082 89.1244 45.6182 88.7473C45.7283 88.3702 45.8659 87.9931 45.9393 87.6068C46.0127 87.2848 46.0861 86.9169 46.1595 86.5582C46.2145 86.1995 46.2788 85.8408 46.3613 85.5372C46.4439 85.2797 46.4714 84.9486 46.4989 84.6634C46.5907 84.0104 46.6182 83.3573 46.6182 82.7043C46.6365 82.1708 46.5815 81.6189 46.5907 81.0762C46.5723 80.5336 46.5356 80.0001 46.5356 79.4942C46.4714 78.6756 46.5907 77.8661 46.9118 78.0041C47.1411 78.1053 47.4071 78.4364 47.6365 79.1079C47.7007 79.2826 47.7374 79.4666 47.7741 79.6597C47.8567 80.0553 47.9209 80.4416 47.9759 80.8371C48.0034 81.2326 48.0401 81.6189 48.0677 82.0236L48.031 82.042Z" fill="#ADB4A4"/>
<path d="M33.6377 77.2037C33.4909 77.0566 33.3533 76.9002 33.1974 76.7254C32.5552 75.9344 31.6195 75.3641 30.7296 74.7387C30.2526 74.4076 29.7297 74.1592 29.2526 73.7913C29.0325 73.6165 28.8398 73.4326 28.6196 73.2486C28.2343 72.9451 27.9041 72.6692 27.4913 72.4116C27.0418 72.1265 26.6748 71.6942 26.3354 71.2895L25.6382 70.48C25.2896 70.0661 24.9318 69.643 24.6474 69.1831C24.3263 68.6405 24.0786 68.0978 23.7667 67.5551C23.6474 67.3527 23.519 67.1596 23.4364 66.9388C23.308 66.6445 23.2805 66.3226 23.1796 66.019C23.1062 65.8075 23.0236 65.6051 22.9411 65.4028C22.7943 65.0349 22.675 64.6393 22.6016 64.253C22.5558 63.9955 22.5191 63.7379 22.5466 63.4988C22.5741 63.2597 22.6658 63.0389 22.8218 62.9561C23.1429 62.7814 23.5832 62.9745 23.7759 63.4436C23.8401 63.5724 23.8584 63.7196 23.8951 63.8575C23.9502 64.0507 24.0511 64.2254 24.1245 64.4186C24.2346 64.7221 24.2896 65.0441 24.3538 65.366C24.4456 65.7247 24.6107 66.0006 24.7667 66.3134C24.9318 66.6813 25.0877 67.0768 25.2712 67.4447C25.3996 67.6931 25.5281 67.9506 25.6932 68.1806C25.8308 68.3921 25.9959 68.5393 26.1611 68.7232C26.5005 69.1187 26.7941 69.551 27.106 69.965C27.6105 70.6088 28.2068 71.1883 28.8398 71.7034C29.0141 71.8505 29.1976 71.9977 29.3994 72.1081C29.6104 72.2276 29.8306 72.3196 30.0416 72.4484C30.3535 72.6232 30.6287 72.9083 30.9314 73.1198L31.9864 73.8557L32.8763 74.4719C33.124 74.6467 33.4542 74.8491 33.6285 75.0882C33.7019 75.1894 33.8212 75.2998 33.9129 75.3917C34.1331 75.6033 34.3441 75.8424 34.5551 76.0724C34.9037 76.4495 35.1789 76.9462 35.2982 77.4245C35.3899 77.8292 35.2523 78.2523 34.9496 78.2707C34.7386 78.2891 34.4909 78.2339 34.3166 78.0407C34.2615 77.9948 34.2157 77.9396 34.1698 77.8844C33.9772 77.6544 33.8212 77.4337 33.6102 77.2129L33.6377 77.2037Z" fill="#ADB4A4"/>
<path d="M24.9312 62.7907C25.1789 62.8643 25.4083 62.9654 25.656 63.0942C26.7109 63.6737 27.7751 64.2439 28.7292 64.9614C29.2246 65.3477 29.7658 65.6788 30.2153 66.1295C30.4263 66.3319 30.5915 66.571 30.7933 66.7826C31.1419 67.1597 31.4355 67.4816 31.8208 67.8128C32.2336 68.1807 32.5547 68.6682 32.8391 69.1373L33.4262 70.0754C33.7197 70.5537 34.0316 71.032 34.2426 71.5563C34.4995 72.1542 34.6646 72.752 34.9032 73.3591C34.9949 73.5799 35.0958 73.8098 35.1509 74.049C35.2334 74.3709 35.2151 74.702 35.2701 75.0331C35.2976 75.2631 35.371 75.4746 35.4261 75.7046C35.5178 76.1093 35.5728 76.5232 35.6004 76.9371C35.6004 77.2039 35.6004 77.4798 35.5453 77.7189C35.4811 77.9581 35.3527 78.1696 35.1967 78.234C34.8573 78.3628 34.4536 78.1052 34.3252 77.581C34.2885 77.4338 34.2885 77.2774 34.2702 77.1303C34.2426 76.9187 34.1601 76.7256 34.1142 76.5232C34.0316 76.1921 34.0408 75.8518 34.0133 75.5206C33.9858 75.1343 33.839 74.8308 33.7381 74.4813C33.6188 74.0766 33.5271 73.6534 33.3895 73.2487C33.2977 72.9728 33.1968 72.6969 33.0684 72.4301C32.9583 72.191 32.8024 72.0162 32.6739 71.7955C32.3712 71.3448 32.151 70.8481 31.885 70.379C31.463 69.6431 30.9309 68.9625 30.3621 68.3278C30.197 68.1531 30.0319 67.9691 29.8484 67.8219C29.6466 67.6748 29.4447 67.5368 29.2429 67.3805C28.9585 67.1597 28.7108 66.847 28.4356 66.5986C28.1145 66.3227 27.7751 66.0651 27.4265 65.826C27.1329 65.6328 26.8486 65.4489 26.5458 65.2833C26.2981 65.1362 25.9587 65.0166 25.7477 64.8234C25.6651 64.7406 25.5275 64.6855 25.4174 64.6211C25.1697 64.4831 24.9129 64.3635 24.6468 64.2532C24.2157 64.0784 23.7753 63.8668 23.4084 63.6093C23.1056 63.4069 22.858 63.039 23.0139 62.7907C23.1332 62.6159 23.3442 62.4688 23.6652 62.4779C23.7478 62.4779 23.8304 62.4963 23.9221 62.5055C24.2799 62.5607 24.601 62.6803 24.9404 62.7907H24.9312Z" fill="#ADB4A4"/>
<path d="M33.7571 80.0275C33.5645 80.1931 33.3718 80.3403 33.1425 80.469C32.1701 81.0761 31.1885 81.6832 30.2161 82.2902C29.7023 82.5938 29.2436 82.9709 28.7482 83.2652C28.5189 83.4032 28.2712 83.5043 28.0419 83.6515C27.6474 83.9091 27.3171 84.1482 27.0144 84.4885C26.6841 84.8564 26.2621 85.16 25.9044 85.4911C25.6658 85.7119 25.4457 85.951 25.2347 86.1993C24.9228 86.5765 24.6659 87.0088 24.4182 87.4135C24.1246 87.8734 23.8403 88.3425 23.7118 88.8851C23.6751 89.0875 23.6384 89.2899 23.5926 89.4922C23.5192 89.7681 23.3907 90.0165 23.3449 90.3016C23.3174 90.4948 23.3265 90.6971 23.3449 90.8903C23.3632 91.2398 23.4183 91.5893 23.4641 91.9297C23.5008 92.1504 23.5375 92.3712 23.5467 92.5919C23.5467 92.8127 23.51 93.0242 23.3816 93.153C23.1339 93.4197 22.6293 93.3645 22.3266 92.8035C22.2348 92.6471 22.2165 92.4723 22.1615 92.2976C22.0972 92.0584 21.9963 91.8285 21.9596 91.5893C21.8771 91.1938 21.9321 90.7983 21.9963 90.412C22.0697 89.9797 22.0514 89.6026 22.1431 89.1979C22.2348 88.7288 22.4275 88.2689 22.6201 87.8366C22.7486 87.533 22.9045 87.2479 23.0513 86.9536C23.1797 86.6868 23.2715 86.4477 23.3999 86.1993C23.6843 85.6659 24.1063 85.2152 24.5283 84.8013C25.1888 84.1574 25.8952 83.5503 26.6199 83.0077C26.8217 82.8513 27.0419 82.7133 27.2254 82.5386C27.418 82.3638 27.6107 82.1798 27.8217 82.0143C28.1244 81.7843 28.5097 81.6188 28.84 81.4348C29.2253 81.2141 29.5922 80.9933 29.9684 80.7634L30.8582 80.1839C31.1059 80.0183 31.3811 79.7792 31.6472 79.6872C31.7573 79.6504 31.8857 79.5676 31.9866 79.5032C32.2343 79.3561 32.4728 79.1905 32.7022 79.0158C33.0783 78.7398 33.4911 78.4823 33.9039 78.3075C34.2434 78.1695 34.6745 78.1603 34.7938 78.4363C34.8763 78.6294 34.8763 78.8962 34.702 79.1537C34.6562 79.2181 34.6011 79.2825 34.5461 79.3469C34.3076 79.6136 34.0415 79.816 33.7755 80.0367L33.7571 80.0275Z" fill="#ADB4A4"/>
<path d="M35.6282 80.4048C35.6191 80.6623 35.5915 80.929 35.509 81.1958C35.1604 82.3547 34.6558 83.4217 33.9953 84.3415C33.6559 84.8198 33.3348 85.344 32.9495 85.758C32.766 85.9511 32.5642 86.1167 32.3899 86.3098C32.078 86.6502 31.8119 86.9445 31.5642 87.3308C31.2982 87.7539 30.9037 88.1034 30.5459 88.4438L29.8396 89.152C29.4818 89.5199 29.1423 89.9062 28.757 90.2374C28.3075 90.6237 27.8305 90.9364 27.3993 91.3503C27.2342 91.4975 27.0874 91.6722 26.8948 91.7918C26.6379 91.9666 26.3627 92.0769 26.0966 92.2333C25.9132 92.3437 25.7572 92.4817 25.5921 92.6104C25.2893 92.8404 24.9683 93.0519 24.6197 93.2175C24.3995 93.3279 24.1701 93.4382 23.9408 93.475C23.7115 93.5118 23.4821 93.4842 23.3537 93.3647C23.0968 93.1163 23.1335 92.638 23.5188 92.3161C23.6289 92.2241 23.7573 92.1597 23.8766 92.0861C24.0417 91.9758 24.1793 91.8378 24.3353 91.709C24.583 91.5159 24.8857 91.3963 25.1701 91.2399C25.4912 91.0744 25.7022 90.8352 25.9774 90.6237C26.2893 90.3753 26.6379 90.1546 26.959 89.897C27.1792 89.7223 27.3993 89.5567 27.6011 89.3544C27.7846 89.1796 27.9039 88.9956 28.0598 88.8117C28.3993 88.4162 28.7937 88.085 29.179 87.7263C29.7753 87.1836 30.3349 86.5674 30.8762 85.9511C31.0322 85.7764 31.1881 85.6108 31.3074 85.4084C31.4358 85.2061 31.5551 84.9945 31.6927 84.8014C31.8945 84.5162 32.1972 84.2771 32.4082 84.0195C32.6651 83.7252 32.8853 83.4033 33.0871 83.0722C33.2522 82.8054 33.399 82.5295 33.5274 82.2443C33.6375 82.0052 33.7109 81.7017 33.8485 81.4993C33.9127 81.4165 33.9494 81.297 33.9861 81.1958C34.0687 80.9658 34.1237 80.7267 34.1512 80.4875C34.1971 80.1012 34.243 79.7057 34.3072 79.3286C34.3714 79.0251 34.5365 78.6479 34.8393 78.6479C35.0411 78.6479 35.2888 78.7583 35.4356 79.0527C35.4723 79.1262 35.4998 79.2182 35.5181 79.301C35.6282 79.6597 35.6191 80.0184 35.6191 80.3864L35.6282 80.4048Z" fill="#ADB4A4"/>
<path d="M24.0783 75.815C23.9591 75.6126 23.8306 75.4102 23.7206 75.1803C23.1976 74.1777 22.3812 73.3407 21.528 72.5865C21.0785 72.1818 20.5464 71.8874 20.0602 71.5287C19.8217 71.3724 19.629 71.1792 19.3813 71.032C18.9594 70.7745 18.5832 70.5721 18.1154 70.4434C17.6108 70.3054 17.1062 70.057 16.62 69.8639C16.2898 69.7443 15.9412 69.6247 15.6017 69.542C15.0788 69.3948 14.5284 69.3212 13.9963 69.1924C13.3817 69.0545 12.7946 68.8705 12.1432 68.8337C11.9047 68.8153 11.6662 68.8153 11.4277 68.7785C11.0974 68.7233 10.7947 68.6038 10.4736 68.5486C10.2442 68.5118 10.0149 68.5118 9.78555 68.5026C9.37272 68.4934 8.95073 68.4566 8.54708 68.4106C8.28104 68.3738 8.015 68.337 7.77648 68.2451C7.53796 68.1531 7.33614 68.0151 7.2811 67.8403C7.17101 67.4908 7.47375 67.1045 8.07004 67.0401C8.23517 67.0217 8.40948 67.0401 8.5746 67.0493C8.81312 67.0493 9.04247 67.0217 9.27181 67.0217C9.64794 67.0217 10.0241 67.1137 10.391 67.1873C10.813 67.2701 11.18 67.2517 11.5928 67.2977C12.0606 67.3529 12.5469 67.454 13.0147 67.546L13.9871 67.73C14.2807 67.776 14.5376 67.776 14.8311 67.8128C15.4458 67.8955 16.0329 68.0887 16.62 68.3094C17.5282 68.6406 18.4456 68.9901 19.3263 69.4316C19.574 69.5512 19.8125 69.6983 20.0694 69.7995C20.3354 69.9007 20.5923 70.0203 20.8583 70.1582C21.2253 70.3606 21.5555 70.6825 21.8858 70.9584C22.2619 71.2712 22.638 71.5839 22.9958 71.9242C23.2894 72.191 23.5738 72.4853 23.849 72.7796C24.0783 73.028 24.3902 73.3223 24.5187 73.6258C24.5829 73.7546 24.6746 73.8926 24.748 74.0122C24.9315 74.2973 25.0966 74.5916 25.2709 74.886C25.5461 75.3643 25.7296 75.9345 25.7755 76.4496C25.7938 76.8911 25.6287 77.305 25.3168 77.2774C25.1058 77.259 24.8673 77.1487 24.7022 76.9003C24.6655 76.8359 24.6196 76.7623 24.5829 76.698C24.4178 76.4036 24.2893 76.1093 24.115 75.8242L24.0783 75.815Z" fill="#ADB4A4"/>
<path d="M23.3262 77.5257C23.0693 77.5901 22.8033 77.6084 22.5189 77.6176C21.2804 77.636 20.0144 77.6636 18.7851 77.4797C18.143 77.3693 17.4824 77.3233 16.8495 77.1302C16.5559 77.0382 16.2899 76.9002 15.9963 76.8082C15.5009 76.6243 15.0697 76.4587 14.5652 76.3207C14.0239 76.1736 13.4827 75.8608 13.0056 75.5389C12.6754 75.3366 12.3543 75.1158 12.0332 74.9043C11.547 74.5731 11.0608 74.2328 10.6388 73.8189C10.1618 73.3406 9.7581 72.8255 9.29941 72.3288C9.12511 72.1541 8.95081 71.9609 8.80403 71.7586C8.60221 71.4734 8.49212 71.1515 8.31782 70.8572C8.19856 70.6548 8.05178 70.4708 7.91417 70.2777C7.66648 69.9282 7.45548 69.5602 7.272 69.1739C7.16192 68.9256 7.05183 68.668 7.01514 68.4197C6.97844 68.1622 7.00596 67.923 7.12522 67.7942C7.38209 67.5275 7.85913 67.6103 8.19856 68.061C8.29947 68.1806 8.36369 68.3369 8.43708 68.4749C8.54716 68.6681 8.70312 68.8244 8.82238 69.0084C9.0242 69.2935 9.15263 69.6338 9.31776 69.9466C9.49206 70.3053 9.74893 70.5536 9.97828 70.848C10.2443 71.1975 10.5012 71.5654 10.7856 71.9057C10.9782 72.1357 11.18 72.3656 11.4094 72.568C11.6112 72.7519 11.8222 72.8623 12.0332 73.0187C12.5011 73.3222 12.9047 73.7085 13.3634 74.0213C14.0606 74.5271 14.8679 74.9135 15.6936 75.2354C15.9229 75.3274 16.1614 75.4101 16.3999 75.4653C16.6568 75.5113 16.9045 75.5389 17.1614 75.5941C17.5283 75.6585 17.9044 75.824 18.2714 75.916C18.6934 76.0172 19.1246 76.0816 19.5649 76.1184C19.9227 76.146 20.2805 76.1736 20.6382 76.1644C20.941 76.1644 21.3079 76.1092 21.5831 76.1736C21.7024 76.2012 21.8492 76.1828 21.9776 76.1828C22.2712 76.1828 22.5647 76.1552 22.8583 76.1184C23.3353 76.054 23.8491 76.0172 24.3169 76.0632C24.7022 76.0908 25.1059 76.2839 25.0784 76.5875C25.06 76.799 24.9316 77.029 24.638 77.1761C24.5646 77.2129 24.4821 77.2497 24.3903 77.2773C24.0417 77.4061 23.6931 77.4613 23.3262 77.5349V77.5257Z" fill="#ADB4A4"/>
<path d="M20.354 77.7096C20.1797 77.7832 20.0054 77.8384 19.8127 77.8844C18.9596 78.0867 18.1523 78.4547 17.345 78.795C16.9138 78.9606 16.5377 79.2457 16.1157 79.4204C15.9231 79.5124 15.7121 79.5584 15.5194 79.6504C15.18 79.8068 14.8956 79.9723 14.6204 80.2207C14.3176 80.4782 13.9415 80.6714 13.5929 80.8645C13.3636 81.0025 13.1434 81.1589 12.9232 81.3152C12.5838 81.5452 12.2994 81.8487 11.96 82.0695C11.5838 82.3546 11.1802 82.5661 10.8591 82.9249C10.7399 83.0536 10.6298 83.1916 10.483 83.302C10.2903 83.4491 10.0702 83.5503 9.87751 83.7067C9.74908 83.8171 9.639 83.9366 9.52891 84.0746C9.33626 84.3138 9.12526 84.5253 8.89592 84.7369C8.75831 84.8748 8.60236 85.0036 8.42805 85.0864C8.25375 85.1692 8.05193 85.1968 7.89597 85.1232C7.56572 84.976 7.40059 84.5621 7.62076 84.1574C7.68498 84.047 7.77671 83.955 7.85928 83.8539C7.96936 83.7159 8.05193 83.5595 8.16201 83.4124C8.34549 83.1916 8.57483 83.0168 8.81335 82.8513C9.07939 82.6673 9.23535 82.419 9.45552 82.2074C9.72156 81.9683 10.0151 81.7475 10.2995 81.536C10.5013 81.3888 10.694 81.2416 10.8775 81.0761C11.0426 80.9289 11.1618 80.7725 11.3178 80.6254C11.6389 80.3035 12.0517 80.0735 12.437 79.8344C13.0517 79.4756 13.6755 79.0985 14.2809 78.7398C14.4552 78.6386 14.6387 78.5466 14.7947 78.4271C14.9598 78.2983 15.1249 78.1603 15.2992 78.05C15.5561 77.8844 15.8864 77.8108 16.1707 77.6912L17.1523 77.2773L17.9596 76.9278C18.1798 76.8266 18.4458 76.6703 18.6844 76.6703C18.7853 76.6703 18.9045 76.6243 18.9963 76.5967L19.6843 76.3851C20.0513 76.2564 20.4733 76.192 20.8586 76.238C21.1796 76.2748 21.4916 76.4863 21.4824 76.7806C21.4824 76.9922 21.3906 77.2129 21.198 77.3509C21.1429 77.3877 21.0879 77.4153 21.0329 77.4429C20.7943 77.5533 20.5558 77.6177 20.3173 77.728L20.354 77.7096Z" fill="#ADB4A4"/>
<path d="M23.7668 78.7124C23.5925 78.8412 23.4274 78.9792 23.2256 79.1079C22.3449 79.6598 21.6202 80.4784 20.822 81.2327C20.4092 81.6282 20.0423 82.0973 19.6019 82.4928C19.3909 82.6767 19.1616 82.8147 18.9506 82.9987C18.5745 83.3114 18.2442 83.5689 17.9139 83.9277C17.5378 84.3048 17.0424 84.5899 16.5562 84.8291C16.2351 84.9946 15.9049 85.151 15.5746 85.3073C15.0701 85.5281 14.5563 85.7488 14.0151 85.8684C13.3913 85.9972 12.7766 86.0248 12.1528 86.1168C11.9143 86.1444 11.6758 86.1904 11.4372 86.1812C11.107 86.1628 10.8042 86.0708 10.4832 86.0156C10.263 85.988 10.0428 85.9696 9.81347 85.9604C9.40983 85.9236 9.00618 85.8316 8.62088 85.7121C8.37319 85.6293 8.12549 85.5189 7.93284 85.3717C7.74019 85.2154 7.60259 85.0222 7.61176 84.8474C7.63928 84.4795 8.02458 84.2128 8.51997 84.2772C8.65757 84.2864 8.78601 84.3508 8.92362 84.3784C9.11626 84.4151 9.30891 84.4151 9.50156 84.4335C9.81347 84.4703 10.107 84.5715 10.4098 84.6543C10.7584 84.7279 11.0703 84.6911 11.4097 84.6819C11.8042 84.6819 12.2078 84.6819 12.6023 84.6543C12.8775 84.6267 13.1436 84.5991 13.4096 84.5255C13.6481 84.4703 13.8316 84.3508 14.0518 84.268C14.5105 84.0656 14.9967 83.9277 15.4554 83.7253C16.1709 83.4218 16.8498 82.9527 17.4736 82.4376C17.6571 82.2904 17.8314 82.1433 17.9782 81.9685C18.1341 81.7845 18.2717 81.5914 18.446 81.4074C18.6845 81.1407 19.0148 80.9291 19.2808 80.6808C19.5928 80.3956 19.8955 80.1013 20.1982 79.7978L20.9505 79.0528C21.1615 78.8412 21.4 78.5561 21.666 78.4273C21.7761 78.3721 21.8954 78.2709 21.9963 78.1973L22.721 77.6547C23.1247 77.3603 23.6109 77.1304 24.0787 77.0384C24.4732 76.974 24.8769 77.1028 24.9044 77.4063C24.9227 77.6179 24.8585 77.8662 24.6567 78.0502L24.4916 78.1881C24.253 78.3905 23.9962 78.5193 23.7668 78.7216V78.7124Z" fill="#ADB4A4"/>
<path d="M108.55 29.9173C108.963 29.531 109.376 29.1538 109.844 28.7675C111.963 27.1763 114.082 25.5023 116.412 24.187C117.605 23.4419 118.834 22.7797 120.073 22.1266C120.678 21.8783 121.256 21.6391 121.862 21.3908C122.889 20.9125 123.816 20.5906 124.825 20.1123C125.898 19.5696 127.164 19.2845 128.311 18.9073L130.678 18.2727C131.87 17.9232 133.1 17.6932 134.311 17.4449C135.017 17.3345 135.714 17.2701 136.411 17.1781C136.76 17.1321 137.109 17.0862 137.457 17.0402C137.806 17.0034 138.164 16.9666 138.521 16.9298C139.053 16.8654 139.585 16.7918 140.127 16.755C140.87 16.709 141.567 16.8102 142.31 16.7918C142.815 16.7918 143.328 16.7366 143.833 16.7458C144.75 16.7458 145.677 16.7734 146.585 16.8378C147.172 16.9114 147.769 16.985 148.291 17.1137C148.814 17.2333 149.255 17.4081 149.365 17.592C149.603 17.96 148.934 18.3003 147.686 18.2911C147.337 18.2911 146.98 18.2451 146.622 18.2175C146.126 18.1899 145.64 18.2451 145.145 18.2359C144.347 18.2451 143.558 18.1255 142.769 18.1347C141.879 18.1255 141.099 18.1807 140.237 18.2451C139.246 18.3463 138.219 18.3647 137.228 18.475C136.549 18.567 135.861 18.6498 135.182 18.7602C134.567 18.843 134.072 19.0361 133.485 19.1741C132.87 19.3396 132.237 19.45 131.613 19.5972C130.99 19.7444 130.366 19.9007 129.751 20.0479C127.825 20.5354 125.898 21.1976 124.045 21.9519C123.513 22.145 122.99 22.375 122.504 22.6417C121.99 22.9176 121.486 23.1936 120.963 23.4511C120.22 23.8558 119.376 24.2238 118.605 24.6101C117.724 25.0608 116.889 25.6034 116.036 26.1093C115.339 26.5232 114.697 27.0291 114.018 27.489C113.449 27.8661 112.816 28.418 112.275 28.7675C112.037 28.9147 111.771 29.1263 111.541 29.301C110.991 29.6873 110.486 30.138 109.991 30.5887C109.587 30.9566 109.156 31.3154 108.716 31.6649C108.294 32.0236 107.881 32.3823 107.468 32.6951C106.789 33.2101 106.046 33.5505 105.991 33.2009C105.954 32.9526 106.092 32.5479 106.523 32.0052C106.642 31.8672 106.762 31.7293 106.881 31.5821C107.147 31.2878 107.413 31.0026 107.679 30.7267C107.963 30.4692 108.248 30.2024 108.532 29.9357L108.55 29.9173Z" fill="#ADB4A4"/>
<path d="M128.219 21.0321C128.43 21.1241 128.623 21.2344 128.834 21.354C129.76 21.9151 130.861 22.2554 131.925 22.7337C132.485 22.9912 133.081 23.1844 133.622 23.5339C133.879 23.6903 134.09 23.8742 134.329 24.0582C134.751 24.3525 135.09 24.6285 135.53 24.8768C136.007 25.162 136.393 25.6035 136.76 25.999C136.998 26.2841 137.255 26.5417 137.484 26.836C137.851 27.2591 138.218 27.6914 138.512 28.1697C138.842 28.7216 139.099 29.2918 139.411 29.8621C139.53 30.0737 139.668 30.276 139.741 30.506C139.851 30.8279 139.897 31.1406 139.98 31.4625C140.035 31.6833 140.136 31.8949 140.209 32.1064C140.338 32.5019 140.457 32.8974 140.503 33.3113C140.539 33.5781 140.567 33.8448 140.521 34.0932C140.475 34.3415 140.374 34.5531 140.218 34.6358C139.888 34.7922 139.457 34.5715 139.292 34.0748C139.246 33.9368 139.218 33.7896 139.191 33.6425C139.136 33.4401 139.062 33.2561 138.98 33.063C138.87 32.7503 138.851 32.4191 138.769 32.088C138.705 31.7109 138.521 31.435 138.384 31.1038C138.209 30.7267 138.072 30.3128 137.879 29.9449C137.751 29.6873 137.622 29.4206 137.457 29.1907C137.31 28.9699 137.145 28.8135 136.98 28.6296C136.631 28.2249 136.329 27.7834 135.989 27.3695C135.466 26.7164 134.833 26.1369 134.164 25.6403C133.98 25.4931 133.787 25.3551 133.576 25.2539C133.356 25.1436 133.136 25.0516 132.907 24.9596C132.595 24.8032 132.292 24.5549 131.962 24.3893C131.595 24.1962 131.2 24.0214 130.806 23.8559L129.806 23.4603C129.522 23.35 129.155 23.2488 128.916 23.074C128.815 23.0004 128.668 22.9361 128.558 22.8717L127.733 22.4486C127.283 22.2186 126.834 21.8783 126.531 21.4736C126.274 21.1425 126.219 20.701 126.476 20.5538C126.659 20.4434 126.907 20.4066 127.173 20.5078C127.247 20.5354 127.311 20.563 127.375 20.5998C127.659 20.7378 127.907 20.9033 128.191 21.0413L128.219 21.0321Z" fill="#ADB4A4"/>
<path d="M138.411 34.0196C138.219 33.9092 138.044 33.7804 137.861 33.6241C137.026 32.971 135.999 32.5387 134.989 32.0512C134.457 31.7937 133.889 31.6189 133.356 31.3246C133.109 31.1958 132.889 31.0211 132.641 30.8831C132.21 30.6347 131.834 30.414 131.375 30.2208C130.88 29.9909 130.43 29.6046 130.036 29.2183C129.76 28.9699 129.503 28.7124 129.237 28.4456C128.852 28.0409 128.448 27.6362 128.137 27.1671C127.77 26.6336 127.522 26.0634 127.173 25.5115C127.054 25.2999 126.926 25.0976 126.834 24.8676C126.724 24.5457 126.678 24.233 126.595 23.911C126.531 23.6903 126.439 23.4787 126.375 23.2672C126.238 22.8809 126.155 22.467 126.1 22.0623C126.082 21.7955 126.054 21.5288 126.118 21.2804C126.173 21.0321 126.293 20.8297 126.449 20.7562C126.788 20.6182 127.201 20.8573 127.348 21.354C127.394 21.492 127.403 21.6392 127.43 21.7771C127.467 21.9795 127.568 22.1542 127.623 22.3474C127.724 22.6509 127.742 22.9821 127.806 23.304C127.871 23.6719 128.054 23.9386 128.182 24.2698C128.348 24.6377 128.504 25.0332 128.687 25.4011C128.825 25.6495 128.953 25.8978 129.127 26.1277C129.283 26.3301 129.448 26.4773 129.623 26.652C129.981 27.0291 130.311 27.4339 130.659 27.8202C131.219 28.4088 131.889 28.9055 132.604 29.3194C132.815 29.4298 133.017 29.5586 133.237 29.6414C133.476 29.7241 133.705 29.7977 133.944 29.8897C134.283 30.0277 134.604 30.2576 134.944 30.4324C135.329 30.6255 135.723 30.8187 136.118 31.0027L137.099 31.4626C137.375 31.6005 137.742 31.7293 137.953 31.9408C138.044 32.0328 138.182 32.1064 138.292 32.18L139.063 32.7135C139.485 32.9986 139.87 33.4217 140.108 33.854C140.292 34.2311 140.283 34.6634 139.998 34.7646C139.796 34.8382 139.54 34.8474 139.31 34.7002L139.127 34.5807C138.879 34.3967 138.65 34.2219 138.402 34.038L138.411 34.0196Z" fill="#ADB4A4"/>
<path d="M124.614 16.433C124.504 15.9179 124.412 15.3936 124.376 14.8234C124.192 12.3307 124.33 9.77369 124.972 7.34543C125.311 6.07612 125.687 4.7976 126.275 3.60187C126.568 3.05 126.871 2.54411 127.21 2.02902C127.458 1.60592 127.807 1.04485 128.32 0.686126C128.816 0.318208 129.421 0.0974574 130.073 0.0422697C130.779 -0.0129179 131.522 0.207833 132.118 0.649334C132.724 1.08164 133.146 1.78068 133.302 2.47972C133.357 2.71887 133.393 2.94882 133.403 3.13278C133.421 3.32593 133.448 3.51909 133.448 3.71225C133.476 4.09856 133.485 4.49407 133.485 4.88039C133.485 6.06692 133.384 7.27185 133.091 8.42159C132.742 9.7461 132.201 10.9602 131.55 12.1744C131.311 12.6342 131.054 13.0758 130.742 13.4897C130.311 14.0599 129.816 14.4922 129.366 14.9889C129.054 15.3292 128.77 15.688 128.504 16.0467C128.018 16.6905 127.586 17.3344 127.275 18.0242C127.073 18.4657 126.917 18.9256 126.797 19.3395C126.669 19.7535 126.586 20.1398 126.449 20.2869C126.293 20.4341 126.1 20.4065 125.908 20.1398C125.724 19.873 125.587 19.3579 125.669 18.6865C125.715 18.3186 125.843 17.9507 125.972 17.6011C126.155 17.1136 126.348 16.6537 126.605 16.2214C127.018 15.5224 127.568 14.9613 128.082 14.4186C128.669 13.8024 129.091 13.2413 129.54 12.6251C130.054 11.9168 130.54 11.1534 130.917 10.344C131.183 9.79209 131.394 9.21262 131.559 8.62395C131.705 8.09047 131.751 7.62137 131.816 7.08789C131.953 5.96574 132.036 4.8252 131.981 3.69385L131.926 3.0316C131.898 2.86604 131.871 2.69128 131.797 2.54411C131.669 2.24058 131.449 1.96464 131.164 1.78068C130.595 1.39437 129.779 1.35758 129.219 1.71629C128.889 1.92785 128.678 2.18539 128.44 2.68208C128.192 3.14198 127.999 3.62027 127.779 4.09856C127.467 4.78841 127.091 5.52424 126.825 6.26008C126.531 7.09709 126.284 7.9617 126.128 8.8447C125.99 9.56214 125.898 10.298 125.843 11.0246C125.798 11.6409 125.843 12.3951 125.77 12.9746C125.742 13.2229 125.77 13.5264 125.77 13.7932C125.779 14.4003 125.853 15.0073 125.944 15.6052C126.109 16.5802 126.293 17.6195 126.449 18.5301C126.586 19.2752 126.577 20.0386 126.238 19.9558C125.999 19.9006 125.697 19.6339 125.394 19.0452C125.33 18.8888 125.265 18.7233 125.201 18.5577C124.926 17.8587 124.77 17.1688 124.605 16.4422L124.614 16.433Z" fill="#ADB4A4"/>
<path d="M139.476 18.9625C139.641 19.0912 139.806 19.2292 139.971 19.3764C140.714 20.0662 141.723 20.5077 142.687 21.0044C143.2 21.2711 143.76 21.4459 144.283 21.7402C144.531 21.8782 144.742 22.0438 144.98 22.1909C145.402 22.4393 145.769 22.6692 146.209 22.8716C146.696 23.0923 147.118 23.4695 147.512 23.8282L148.31 24.5364C148.705 24.9043 149.127 25.2631 149.466 25.6862C149.851 26.1737 150.173 26.6887 150.558 27.1762C150.705 27.3602 150.861 27.5349 150.971 27.7465C151.136 28.0224 151.209 28.3352 151.347 28.6295C151.448 28.8227 151.558 29.0158 151.668 29.209C151.87 29.5585 152.035 29.9264 152.154 30.3035C152.227 30.5519 152.31 30.8002 152.31 31.0486C152.31 31.2877 152.246 31.5177 152.108 31.6188C151.815 31.8396 151.356 31.7108 151.099 31.2601C151.026 31.1405 150.98 30.9934 150.916 30.8646C150.833 30.6806 150.705 30.5151 150.613 30.3403C150.466 30.0552 150.365 29.7425 150.255 29.4389C150.117 29.0986 149.916 28.8503 149.723 28.5559C149.512 28.2156 149.301 27.8477 149.072 27.5074C148.916 27.2774 148.751 27.0383 148.558 26.8359C148.393 26.6427 148.209 26.5232 148.017 26.3576C147.622 26.0173 147.283 25.6218 146.907 25.2539C146.329 24.6836 145.65 24.1869 144.953 23.7638C144.76 23.6442 144.558 23.5154 144.338 23.4419C144.118 23.3591 143.879 23.2855 143.65 23.1935C143.32 23.0556 143.008 22.8164 142.678 22.6508L141.531 22.0714L140.568 21.5839C140.302 21.4459 139.944 21.2895 139.733 21.078C139.641 20.986 139.513 20.894 139.412 20.8205C139.164 20.6365 138.925 20.4341 138.678 20.241C138.283 19.9191 137.935 19.4592 137.76 18.9993C137.623 18.6037 137.696 18.1806 137.99 18.1163C138.201 18.0703 138.448 18.0887 138.65 18.2634C138.705 18.3002 138.76 18.3462 138.815 18.4014C139.036 18.6037 139.228 18.8061 139.458 18.9901L139.476 18.9625Z" fill="#ADB4A4"/>
<path d="M150.044 32.0603C149.787 32.0235 149.548 31.9499 149.291 31.858C148.172 31.4257 147.035 31.0118 145.989 30.4231C145.447 30.1012 144.87 29.8528 144.365 29.4665C144.126 29.2917 143.934 29.0802 143.704 28.8962C143.31 28.5743 142.98 28.2892 142.549 28.0132C142.09 27.7097 141.705 27.2682 141.356 26.8451L140.65 25.9989C140.301 25.5666 139.925 25.1343 139.64 24.6468C139.31 24.0857 139.063 23.5154 138.741 22.9544C138.613 22.7428 138.494 22.5313 138.402 22.3105C138.274 21.9978 138.246 21.6666 138.145 21.3539C138.081 21.1332 137.98 20.9308 137.907 20.7101C137.76 20.3237 137.65 19.919 137.567 19.5143C137.53 19.2476 137.485 18.9808 137.521 18.7325C137.558 18.4842 137.65 18.2634 137.806 18.1714C138.127 17.9967 138.558 18.199 138.76 18.6957C138.815 18.8337 138.842 18.99 138.879 19.1372C138.934 19.3396 139.044 19.5235 139.108 19.7167C139.228 20.0294 139.264 20.3697 139.347 20.7009C139.429 21.078 139.613 21.3631 139.76 21.6942C139.934 22.0806 140.081 22.4853 140.273 22.8716C140.402 23.1383 140.539 23.3959 140.695 23.6442C140.842 23.865 141.017 24.0213 141.172 24.2145C141.53 24.6192 141.815 25.0883 142.154 25.5114C142.668 26.1828 143.292 26.7899 143.943 27.3326C144.126 27.4889 144.319 27.6453 144.521 27.7649C144.741 27.8845 144.961 27.9948 145.181 28.1236C145.493 28.3076 145.778 28.5835 146.09 28.7859C146.447 29.0158 146.814 29.2274 147.191 29.4113C147.502 29.5585 147.814 29.7056 148.145 29.8344C148.411 29.9448 148.768 30.0184 148.998 30.1839C149.099 30.2575 149.236 30.2943 149.346 30.3403C149.612 30.4507 149.888 30.5243 150.163 30.5978C150.612 30.7082 151.08 30.8646 151.484 31.0669C151.814 31.2233 152.108 31.5544 151.979 31.8212C151.887 32.0143 151.695 32.1799 151.374 32.2167C151.291 32.2259 151.209 32.2167 151.117 32.2167C150.75 32.2167 150.42 32.1339 150.062 32.0695L150.044 32.0603Z" fill="#ADB4A4"/>
<path d="M138.98 16.1755C139.146 15.9915 139.32 15.8168 139.531 15.6512C140.412 14.9246 141.301 14.1795 142.191 13.4529C142.659 13.085 143.063 12.6527 143.512 12.2848C143.723 12.11 143.953 11.9812 144.155 11.7973C144.512 11.4845 144.806 11.2086 145.063 10.8315C145.338 10.4176 145.714 10.0681 146.026 9.69093C146.237 9.44259 146.42 9.17585 146.595 8.89991C146.852 8.47681 147.044 8.01691 147.237 7.5938C147.466 7.09712 147.686 6.59123 147.741 6.03935C147.751 5.8278 147.76 5.62545 147.778 5.42309C147.815 5.14715 147.907 4.87121 147.907 4.58608C147.907 4.39292 147.87 4.19057 147.824 4.00661C147.751 3.65709 147.65 3.32596 147.567 2.99483C147.503 2.78328 147.43 2.56253 147.402 2.35098C147.375 2.13943 147.375 1.91868 147.485 1.77151C147.686 1.47717 148.2 1.45878 148.576 1.97386C148.686 2.11183 148.732 2.28659 148.815 2.45216C148.907 2.6821 149.044 2.89366 149.118 3.12361C149.246 3.50072 149.246 3.90543 149.246 4.29174C149.237 4.72405 149.292 5.10116 149.264 5.51507C149.237 5.99336 149.108 6.48085 148.98 6.93155C148.888 7.24428 148.778 7.55701 148.668 7.86054C148.576 8.13648 148.521 8.39403 148.42 8.66077C148.209 9.23104 147.852 9.72773 147.494 10.1968C146.925 10.9235 146.31 11.6225 145.668 12.2572C145.485 12.4411 145.292 12.6067 145.136 12.7998C144.971 13.0022 144.806 13.2045 144.622 13.3977C144.356 13.6736 143.989 13.8852 143.687 14.1151C143.338 14.3819 142.999 14.6578 142.668 14.9338L141.861 15.6236C141.641 15.8168 141.393 16.0927 141.146 16.2215C141.035 16.2767 140.925 16.3778 140.834 16.4514C140.613 16.6354 140.393 16.8285 140.191 17.0309C139.861 17.362 139.476 17.6747 139.091 17.8955C138.769 18.0795 138.347 18.1438 138.192 17.8955C138.081 17.7115 138.045 17.454 138.192 17.1781C138.228 17.1045 138.274 17.0309 138.32 16.9665C138.522 16.6722 138.751 16.433 138.99 16.1755H138.98Z" fill="#ADB4A4"/>
<path d="M137.072 16.065C137.044 15.8075 137.035 15.5408 137.081 15.2648C137.274 14.0691 137.622 12.9469 138.154 11.9444C138.429 11.4201 138.677 10.859 138.998 10.3991C139.145 10.1784 139.329 9.9944 139.484 9.77365C139.751 9.39653 139.98 9.06541 140.163 8.6423C140.365 8.1916 140.714 7.78689 141.016 7.40058L141.622 6.60036C141.925 6.18645 142.209 5.75415 142.549 5.37703C142.943 4.93553 143.365 4.55842 143.741 4.08932C143.879 3.91456 144.007 3.7306 144.181 3.58343C144.411 3.38108 144.677 3.23391 144.915 3.04076C145.08 2.91198 145.218 2.74642 145.365 2.59925C145.64 2.33251 145.924 2.07497 146.246 1.86342C146.447 1.71625 146.658 1.58748 146.888 1.5231C147.108 1.44951 147.337 1.44951 147.484 1.55069C147.778 1.76224 147.805 2.24054 147.466 2.61765C147.374 2.71883 147.255 2.80161 147.145 2.89359C146.998 3.03156 146.879 3.17872 146.741 3.32589C146.521 3.55584 146.236 3.71221 145.98 3.90536C145.686 4.11691 145.502 4.37446 145.264 4.6228C144.989 4.91714 144.668 5.18388 144.392 5.46901C144.2 5.67137 144.007 5.86452 143.833 6.09447C143.677 6.28763 143.585 6.48998 143.457 6.70154C143.182 7.13384 142.824 7.52015 142.493 7.92486C141.98 8.55032 141.503 9.23097 141.053 9.91162C140.925 10.1048 140.787 10.2979 140.695 10.5095C140.595 10.7302 140.503 10.951 140.393 11.1625C140.228 11.4753 139.971 11.7512 139.787 12.0363C139.576 12.3675 139.402 12.717 139.237 13.0665C139.108 13.3608 138.998 13.646 138.907 13.9495C138.833 14.1979 138.796 14.5106 138.686 14.7313C138.64 14.8233 138.613 14.9521 138.595 15.0533C138.54 15.2924 138.521 15.5408 138.53 15.7799C138.53 16.1662 138.54 16.5709 138.53 16.948C138.512 17.2608 138.393 17.6471 138.099 17.7023C137.897 17.7299 137.641 17.6563 137.457 17.3803C137.411 17.3068 137.375 17.224 137.338 17.1504C137.182 16.8101 137.136 16.4514 137.09 16.0834L137.072 16.065Z" fill="#ADB4A4"/>
<path d="M149.145 19.0451C149.291 19.2383 149.447 19.4131 149.585 19.6246C150.236 20.5444 151.163 21.271 152.108 21.9057C152.603 22.246 153.181 22.4576 153.704 22.7519C153.961 22.8715 154.181 23.0462 154.447 23.1474C154.897 23.3406 155.3 23.4969 155.787 23.5521C156.3 23.6257 156.832 23.8005 157.346 23.92C157.695 23.9936 158.043 24.058 158.401 24.104C158.942 24.1776 159.493 24.1776 160.043 24.2328C160.676 24.288 161.282 24.3891 161.924 24.3432C162.162 24.334 162.401 24.2972 162.639 24.3064C162.97 24.3064 163.291 24.3983 163.621 24.3983C163.85 24.3983 164.08 24.3707 164.309 24.3432C164.722 24.2972 165.135 24.2696 165.557 24.2696C165.823 24.2696 166.098 24.2696 166.346 24.334C166.593 24.3891 166.813 24.5087 166.887 24.6651C167.043 24.9962 166.795 25.4193 166.217 25.5665C166.061 25.6033 165.887 25.6033 165.713 25.6217C165.483 25.6493 165.254 25.7136 165.025 25.7504C164.648 25.7964 164.272 25.7596 163.896 25.7412C163.474 25.7136 163.107 25.7872 162.694 25.7964C162.217 25.8056 161.731 25.7688 161.254 25.7412L160.263 25.686C159.97 25.686 159.713 25.7136 159.419 25.7228C158.805 25.7228 158.19 25.6125 157.585 25.4745C156.64 25.2721 155.686 25.0422 154.759 24.7295C154.493 24.6467 154.236 24.5363 153.979 24.4719C153.695 24.4075 153.429 24.3248 153.154 24.2236C152.759 24.0672 152.392 23.8005 152.025 23.5705C151.612 23.313 151.2 23.0462 150.796 22.7611C150.466 22.5312 150.145 22.2828 149.833 22.0253C149.567 21.8137 149.227 21.5562 149.053 21.2802C148.98 21.1607 148.86 21.0411 148.769 20.9215C148.548 20.664 148.347 20.3972 148.136 20.1305C147.796 19.6982 147.539 19.1555 147.42 18.6496C147.337 18.2173 147.448 17.7758 147.759 17.7666C147.97 17.7574 148.227 17.831 148.42 18.061L148.567 18.2449C148.769 18.5117 148.934 18.7876 149.145 19.0451Z" fill="#ADB4A4"/>
<path d="M149.658 17.2424C149.906 17.1504 150.162 17.086 150.438 17.04C151.667 16.8469 152.905 16.6537 154.162 16.6721C154.814 16.6905 155.474 16.6445 156.125 16.7549C156.428 16.8009 156.713 16.9021 157.006 16.9573C157.529 17.0676 157.969 17.178 158.492 17.2424C159.052 17.316 159.63 17.5551 160.144 17.8035C160.501 17.9598 160.841 18.1346 161.189 18.3002C161.712 18.5669 162.244 18.8336 162.721 19.1832C163.263 19.5971 163.721 20.0478 164.244 20.4709C164.446 20.6272 164.639 20.7836 164.813 20.9676C165.052 21.2251 165.208 21.5194 165.419 21.7954C165.565 21.9793 165.74 22.1449 165.896 22.3197C166.189 22.6324 166.446 22.9727 166.675 23.3314C166.822 23.5614 166.96 23.8005 167.033 24.0489C167.107 24.2972 167.116 24.5456 167.006 24.6835C166.785 24.9779 166.299 24.9595 165.905 24.5639C165.795 24.4536 165.712 24.3156 165.611 24.1868C165.474 24.0121 165.299 23.8741 165.152 23.7085C164.914 23.451 164.74 23.1383 164.538 22.8439C164.318 22.5128 164.033 22.3013 163.767 22.0345C163.455 21.731 163.153 21.3907 162.832 21.0963C162.611 20.894 162.373 20.6916 162.125 20.5261C161.905 20.3697 161.676 20.2961 161.446 20.1673C160.942 19.9282 160.492 19.6063 159.997 19.3487C159.235 18.944 158.382 18.6681 157.529 18.4657C157.291 18.4013 157.043 18.3553 156.795 18.3369C156.538 18.3277 156.281 18.3369 156.025 18.3185C155.658 18.3002 155.263 18.1898 154.878 18.153C154.447 18.1162 154.006 18.107 153.575 18.1254C153.217 18.1438 152.86 18.1714 152.502 18.2174C152.199 18.2542 151.85 18.3645 151.557 18.3369C151.428 18.3277 151.291 18.3645 151.162 18.3829C150.869 18.4197 150.584 18.4933 150.291 18.5669C149.823 18.6957 149.328 18.7968 148.86 18.8244C148.475 18.852 148.053 18.7049 148.034 18.4105C148.034 18.199 148.117 17.9506 148.392 17.7667C148.465 17.7207 148.539 17.6747 148.621 17.6379C148.952 17.4631 149.291 17.362 149.64 17.2424H149.658Z" fill="#ADB4A4"/>
<path d="M152.576 16.6628C152.732 16.5709 152.897 16.4881 153.089 16.4237C153.906 16.111 154.658 15.6419 155.41 15.1912C155.814 14.9704 156.144 14.6393 156.548 14.4093C156.731 14.2898 156.924 14.2162 157.108 14.0966C157.429 13.8943 157.676 13.7011 157.924 13.416C158.19 13.1124 158.53 12.8733 158.851 12.6341C159.062 12.4686 159.254 12.2846 159.456 12.1007C159.759 11.8247 160.007 11.4936 160.309 11.2176C160.64 10.8865 161.016 10.6198 161.282 10.2243C161.383 10.0771 161.474 9.92994 161.603 9.80117C161.768 9.62641 161.979 9.49764 162.144 9.31368C162.254 9.18491 162.355 9.04694 162.438 8.89977C162.594 8.64223 162.777 8.39388 162.97 8.16393C163.089 8.00757 163.227 7.8604 163.382 7.75003C163.548 7.64885 163.74 7.58446 163.905 7.63965C164.254 7.74083 164.474 8.13634 164.309 8.55945C164.263 8.67902 164.181 8.7802 164.116 8.89057C164.025 9.04694 163.96 9.2125 163.869 9.36886C163.722 9.61721 163.511 9.81956 163.3 10.0127C163.061 10.2335 162.942 10.491 162.749 10.7302C162.52 11.0061 162.254 11.2636 162.006 11.512C161.832 11.6867 161.658 11.8523 161.493 12.0455C161.355 12.211 161.254 12.3766 161.117 12.5514C160.841 12.9193 160.465 13.2044 160.107 13.4803C159.548 13.9218 158.979 14.3725 158.429 14.814C158.273 14.9428 158.098 15.0532 157.961 15.1912C157.814 15.3383 157.676 15.4947 157.511 15.6327C157.273 15.8258 156.961 15.9454 156.695 16.1018L155.777 16.6444L155.025 17.0951C154.814 17.2239 154.576 17.4171 154.337 17.4539C154.236 17.4722 154.126 17.5274 154.034 17.5734L153.383 17.877C153.034 18.0517 152.631 18.1713 152.245 18.1805C151.924 18.1897 151.585 18.0241 151.557 17.7298C151.539 17.5182 151.585 17.2883 151.768 17.1319C151.814 17.0859 151.869 17.0583 151.924 17.0215C152.145 16.8744 152.374 16.7824 152.594 16.6444L152.576 16.6628Z" fill="#ADB4A4"/>
<path d="M149.062 16.1203C149.218 15.964 149.364 15.8076 149.548 15.6604C150.346 14.989 150.961 14.0876 151.639 13.2322C151.997 12.7815 152.291 12.2664 152.676 11.8249C152.86 11.6133 153.071 11.4478 153.254 11.2362C153.584 10.8775 153.869 10.574 154.153 10.1785C154.474 9.75535 154.933 9.40583 155.373 9.10229C155.667 8.89074 155.979 8.69759 156.281 8.49523C156.749 8.21009 157.235 7.91576 157.749 7.7226C158.355 7.51105 158.951 7.40068 159.566 7.22592C159.795 7.17073 160.024 7.09714 160.263 7.06955C160.593 7.04196 160.905 7.09714 161.235 7.09714C161.455 7.09714 161.685 7.07875 161.905 7.06035C162.309 7.04196 162.721 7.07875 163.116 7.15233C163.373 7.20752 163.63 7.2719 163.841 7.39148C164.052 7.52025 164.217 7.69501 164.226 7.86977C164.253 8.23769 163.896 8.55042 163.409 8.55042C163.272 8.55042 163.134 8.51363 162.997 8.50443C162.804 8.50443 162.611 8.51363 162.419 8.52282C162.107 8.52282 161.804 8.46764 161.483 8.43085C161.125 8.40325 160.822 8.48603 160.492 8.53202C160.107 8.58721 159.703 8.6332 159.318 8.71598C159.052 8.78037 158.786 8.84475 158.529 8.95513C158.3 9.03791 158.135 9.18508 157.924 9.29545C157.502 9.56219 157.034 9.76455 156.602 10.0221C155.933 10.4176 155.327 10.9787 154.777 11.5765C154.621 11.7421 154.465 11.9169 154.337 12.11C154.208 12.3124 154.089 12.5239 153.951 12.7263C153.749 13.0206 153.456 13.2782 153.227 13.5541C152.96 13.876 152.704 14.2072 152.438 14.5475L151.795 15.3937C151.612 15.6328 151.41 15.9456 151.172 16.1111C151.071 16.1847 150.97 16.2951 150.878 16.3871L150.236 17.0217C149.878 17.362 149.429 17.6656 148.97 17.8127C148.585 17.9323 148.163 17.8587 148.108 17.5644C148.062 17.3528 148.089 17.1045 148.264 16.893L148.41 16.7366C148.621 16.5066 148.851 16.3411 149.062 16.1111V16.1203Z" fill="#ADB4A4"/>
<path d="M18.9776 34.1024C18.0786 34.1576 17.4181 34.2495 17.0053 34.4059C16.5924 34.5531 16.3081 34.8474 16.1613 35.2705C16.0145 35.7028 15.9319 36.3927 15.9319 37.3401V56.0487C15.9319 57.0052 16.0053 57.6951 16.1613 58.1274C16.3172 58.5597 16.5924 58.8356 17.0053 58.9736C17.4181 59.1116 18.0786 59.1852 18.9776 59.1852H21.7206C23.271 59.1852 24.4636 58.9644 25.2709 58.5229C26.0873 58.0814 26.6836 57.3732 27.0598 56.389C27.4359 55.4048 27.7111 53.9883 27.8854 52.1303H28.7477C28.6743 52.9122 28.6377 53.9423 28.6377 55.2208C28.6377 56.6557 28.7294 58.2654 28.9037 60.0498C27.1974 59.9762 24.326 59.9394 20.2895 59.9394C15.4732 59.9394 11.8404 59.9762 9.38184 60.0498V59.2955C10.2809 59.2495 10.9414 59.1484 11.3542 58.992C11.767 58.8356 12.0514 58.5505 12.1982 58.1274C12.345 57.7043 12.4275 57.0052 12.4275 56.0487V37.3401C12.4275 36.3835 12.3541 35.6936 12.1982 35.2705C12.0514 34.8474 11.767 34.5531 11.3542 34.4059C10.9414 34.2587 10.2809 34.1576 9.38184 34.1024V33.3481C10.4368 33.4217 12.0422 33.4585 14.1981 33.4585C16.2071 33.4585 17.7942 33.4217 18.9776 33.3481V34.1024Z" fill="#ADB4A4"/>
<path d="M32.5364 59.1299C31.7749 58.3389 31.3896 57.2351 31.3896 55.8278C31.3896 54.6965 31.6924 53.7675 32.307 53.0409C32.9217 52.3142 33.6464 51.7348 34.4904 51.3025C35.3344 50.8794 36.4352 50.4195 37.8205 49.9412C39.2241 49.4629 40.2699 49.0214 40.9396 48.6167C41.6184 48.2119 41.9579 47.6693 41.9579 46.9978V44.6615C41.9579 43.2083 41.6551 42.2057 41.0405 41.663C40.4258 41.1203 39.5635 40.8536 38.4627 40.8536C36.7105 40.8536 35.4628 41.3043 34.7381 42.2149C35.2426 42.3437 35.6555 42.6012 35.9949 43.0059C36.3343 43.4106 36.4995 43.9073 36.4995 44.5144C36.4995 45.1214 36.2976 45.6365 35.894 46.0044C35.4903 46.3724 34.9766 46.5471 34.3528 46.5471C33.6464 46.5471 33.1235 46.3264 32.7749 45.8849C32.4263 45.4434 32.252 44.9099 32.252 44.2844C32.252 43.659 32.3988 43.1807 32.6832 42.776C32.9675 42.3713 33.4079 41.9757 33.9767 41.571C34.5821 41.1479 35.3436 40.7892 36.2701 40.5133C37.1967 40.2373 38.215 40.0994 39.3158 40.0994C41.2698 40.0994 42.7468 40.5685 43.7559 41.4975C44.3798 42.0769 44.8018 42.776 45.0127 43.5946C45.2237 44.4132 45.3338 45.4894 45.3338 46.8231V57.3087C45.3338 57.9342 45.4256 58.3941 45.5999 58.67C45.7742 58.9459 46.0769 59.0839 46.4989 59.0839C46.8016 59.0839 47.086 59.0103 47.3429 58.8724C47.6089 58.7344 47.8842 58.5412 48.1869 58.2837L48.5997 58.9275C47.9484 59.4334 47.3888 59.7922 46.9301 60.0037C46.4622 60.2153 45.8843 60.3256 45.1779 60.3256C43.9761 60.3256 43.1321 60.0221 42.6551 59.4242C42.178 58.8172 41.9395 58.0078 41.9395 56.9684C41.1873 58.2285 40.3249 59.1023 39.3433 59.5898C38.3617 60.0773 37.2609 60.3256 36.0316 60.3256C34.4537 60.3256 33.2795 59.9301 32.518 59.1391L32.5364 59.1299ZM41.9579 55.9474V48.5523C41.7285 48.9018 41.4166 49.1961 41.0221 49.4169C40.6185 49.6468 40.0039 49.9412 39.1782 50.3183C38.2241 50.723 37.4535 51.1001 36.8664 51.468C36.2793 51.8359 35.7656 52.3326 35.3436 52.9581C34.9216 53.5835 34.7014 54.393 34.7014 55.3679C34.7014 56.4993 34.9766 57.3547 35.527 57.9342C36.0775 58.5136 36.8022 58.7988 37.7104 58.7988C39.3617 58.7988 40.7836 57.8422 41.9579 55.929V55.9474Z" fill="#ADB4A4"/>
<path d="M66.8188 55.975C66.8188 57.1339 67.0298 57.9709 67.461 58.5044C67.883 59.0287 68.6261 59.2954 69.681 59.2954V60.0865C68.9013 60.0129 68.1307 59.9761 67.3509 59.9761C65.773 59.9761 64.4703 60.1508 63.4429 60.5004V56.0486C62.8374 57.6122 61.9842 58.7528 60.8834 59.4794C59.7825 60.206 58.5716 60.574 57.2689 60.574C55.5626 60.574 54.2599 60.0957 53.3608 59.1391C52.9113 58.6332 52.5902 57.9985 52.3976 57.2167C52.2049 56.4349 52.1132 55.4323 52.1132 54.1998V44.7351C52.1132 43.5762 51.9022 42.7391 51.471 42.2057C51.0399 41.6814 50.306 41.4146 49.251 41.4146V40.6236C50.0308 40.6972 50.8013 40.734 51.5811 40.734C53.159 40.734 54.4617 40.5592 55.4892 40.2097V55.0276C55.4892 55.9842 55.5442 56.7568 55.6543 57.3455C55.7644 57.9341 56.0304 58.4216 56.4432 58.7987C56.8561 59.1759 57.4891 59.369 58.3422 59.369C59.2963 59.369 60.1586 59.0655 60.9384 58.4676C61.7182 57.8606 62.3236 57.0419 62.764 55.9934C63.2043 54.954 63.4245 53.8043 63.4245 52.5442V44.7351C63.4245 43.5762 63.2135 42.7391 62.7823 42.2057C62.3512 41.6814 61.6173 41.4146 60.5623 41.4146V40.6236C61.3421 40.6972 62.1127 40.734 62.8924 40.734C64.4703 40.734 65.773 40.5592 66.8005 40.2097V55.975H66.8188Z" fill="#ADB4A4"/>
<path d="M85.763 40.9641C86.4052 41.5435 86.7262 42.2426 86.7262 43.0796C86.7262 43.7326 86.5336 44.2937 86.1391 44.7536C85.7538 45.2227 85.2309 45.4527 84.5796 45.4527C84.0291 45.4527 83.5613 45.2779 83.1668 44.9284C82.7815 44.5788 82.5797 44.1006 82.5797 43.4935C82.5797 42.6657 83.0017 41.985 83.8548 41.4607C83.6805 41.2124 83.4145 41.0836 83.0659 41.0836C82.0843 41.0836 81.1944 41.4699 80.3963 42.2334C79.589 42.9968 78.9652 43.935 78.5157 45.0387C78.0662 46.1425 77.8368 47.1911 77.8368 48.166V56.1591C77.8368 57.318 78.1671 58.1182 78.8368 58.5689C79.4973 59.0196 80.4972 59.2496 81.8274 59.2496V60.0406L80.9284 60.0038C78.3689 59.9302 76.7451 59.8934 76.0388 59.8934C75.3874 59.8934 73.9104 59.9486 71.5986 60.0406V59.2496C72.6536 59.2496 73.3875 59.0564 73.8187 58.6609C74.2407 58.2746 74.4609 57.5571 74.4609 56.527V44.726C74.4609 43.5671 74.2499 42.7301 73.8187 42.1966C73.3967 41.6723 72.6536 41.4056 71.5986 41.4056V40.6145C72.3968 40.6881 73.1765 40.7249 73.9288 40.7249C75.5067 40.7249 76.8094 40.5501 77.8368 40.2006V44.91C78.2863 43.6499 79.0111 42.5369 80.0018 41.5527C80.9926 40.5685 82.0935 40.0811 83.2952 40.0811C84.2952 40.0811 85.1208 40.3662 85.763 40.9457V40.9641Z" fill="#ADB4A4"/>
<path d="M94.579 56.5454C94.579 57.5756 94.79 58.2838 95.2212 58.6793C95.6432 59.0656 96.3862 59.268 97.4412 59.268V60.059C95.1294 59.9578 93.6158 59.9118 92.891 59.9118C92.1663 59.9118 90.6434 59.967 88.3408 60.059V59.268C89.3958 59.268 90.1297 59.0748 90.5609 58.6793C90.9829 58.293 91.2031 57.5756 91.2031 56.5454V44.7444C91.2031 43.5855 90.992 42.7485 90.5609 42.215C90.1389 41.6907 89.3958 41.424 88.3408 41.424V40.633C89.1389 40.7065 89.9187 40.7433 90.671 40.7433C92.2489 40.7433 93.5515 40.5686 94.579 40.2191V56.5454ZM94.313 31.9225C94.79 32.4008 95.0285 32.9619 95.0285 33.6149C95.0285 34.268 94.79 34.8383 94.313 35.3166C93.8359 35.7949 93.2763 36.034 92.625 36.034C91.9736 36.034 91.4049 35.7949 90.9278 35.3166C90.4508 34.8383 90.2123 34.2772 90.2123 33.6149C90.2123 32.9527 90.4508 32.3916 90.9278 31.9225C91.4049 31.4442 91.9645 31.2051 92.625 31.2051C93.2855 31.2051 93.8451 31.4442 94.313 31.9225Z" fill="#ADB4A4"/>
<path d="M115.678 55.5243C115.229 56.904 114.376 58.0905 113.137 59.0839C111.899 60.0773 110.394 60.574 108.642 60.574C106.89 60.574 105.321 60.1693 104.019 59.3506C102.716 58.532 101.716 57.3915 101.028 55.9198C100.34 54.4481 99.9912 52.7465 99.9912 50.8058C99.9912 48.6167 100.34 46.7219 101.046 45.1122C101.743 43.5026 102.734 42.2609 104.019 41.3963C105.294 40.5317 106.789 40.0994 108.495 40.0994C110.752 40.0994 112.486 40.7892 113.706 42.1505C114.917 43.521 115.532 45.5997 115.532 48.3959H103.762C103.688 49.1041 103.652 49.9044 103.652 50.8058C103.652 52.4614 103.918 53.9147 104.459 55.138C105 56.3705 105.716 57.3179 106.606 57.9894C107.495 58.6516 108.431 58.9919 109.404 58.9919C110.605 58.9919 111.669 58.7068 112.605 58.1273C113.532 57.5479 114.312 56.5821 114.935 55.2208L115.688 55.5243H115.678ZM105.294 42.5552C104.441 43.7142 103.918 45.425 103.716 47.6877H111.917C111.963 45.7285 111.688 44.0913 111.073 42.7852C110.459 41.4791 109.55 40.826 108.349 40.826C107.147 40.826 106.156 41.4055 105.303 42.5644L105.294 42.5552Z" fill="#ADB4A4"/>
<path d="M124.366 56.5453C124.366 57.5755 124.577 58.2837 125.008 58.6792C125.43 59.0655 126.173 59.2679 127.228 59.2679V60.0589C124.926 59.9577 123.403 59.9118 122.678 59.9118C121.953 59.9118 120.431 59.9669 118.128 60.0589V59.2679C119.183 59.2679 119.926 59.0747 120.348 58.6792C120.77 58.2929 120.99 57.5755 120.99 56.5453V35.0129C120.99 33.854 120.779 33.017 120.348 32.4835C119.926 31.9592 119.183 31.6925 118.128 31.6925V30.9015C118.908 30.975 119.687 31.0118 120.458 31.0118C122.036 31.0118 123.339 30.8371 124.366 30.4875V56.5453Z" fill="#ADB4A4"/>
</svg>
