<svg width="180" height="101" viewBox="0 0 180 101" fill="none" xmlns="http://www.w3.org/2000/svg">
<g clip-path="url(#clip0_460_8819)">
<path d="M96.0169 47.7335C96.0693 48.2933 96.1043 48.8532 96.1305 49.4568C96.2616 52.0987 96.3926 54.7755 96.5237 57.4349C96.5849 58.8345 96.681 60.2255 96.716 61.6251C96.716 62.2812 96.716 62.9023 96.716 63.5584C96.7422 64.6956 96.7509 65.6666 96.8383 66.7689C96.9257 67.9673 96.8995 69.2445 96.9083 70.4517L96.9257 72.8924C96.9432 74.1259 96.9782 75.3768 96.9694 76.6103C96.9519 78.0362 96.8995 79.4008 96.9083 80.8442C96.9083 81.3779 96.9345 81.9115 96.9083 82.4539C96.8908 83.1887 96.8121 83.8885 96.7859 84.6233C96.7684 85.1307 96.7772 85.6381 96.7684 86.1455C96.7684 87.064 96.7422 87.9825 96.6985 88.9011C96.6723 89.4872 96.6286 90.0908 96.5587 90.6156C96.4888 91.1405 96.3752 91.5954 96.2528 91.7266C95.9906 91.9978 95.7197 91.3592 95.6848 90.082C95.676 89.7321 95.6935 89.3559 95.7023 88.9885C95.7023 88.4812 95.6848 87.9913 95.6848 87.4751C95.6848 86.6616 95.7459 85.848 95.7896 85.0432C95.8333 84.1334 95.8071 83.3374 95.8159 82.4539C95.8421 81.4391 95.8596 80.3894 95.8858 79.3658L95.9032 77.2489C95.9032 76.619 95.8596 76.0766 95.8333 75.4643C95.7896 74.1609 95.8159 72.8487 95.8246 71.5452C95.8333 69.5157 95.7984 67.4337 95.7459 65.3955C95.7372 64.8181 95.7197 64.232 95.6848 63.6721C95.6411 63.0773 95.6061 62.4999 95.5624 61.8963C95.51 61.0303 95.5362 60.0855 95.51 59.2107L95.3964 56.1752L95.2566 53.682C95.2129 52.9822 95.1255 52.1249 95.1429 51.4776C95.1429 51.1976 95.1255 50.8477 95.1167 50.5503C95.0905 49.8592 95.0468 49.1769 94.9944 48.4858C94.9157 47.3661 94.872 46.1763 94.8982 45.1353C94.9157 44.2693 95.073 43.4907 95.3003 43.6919C95.4576 43.8319 95.6323 44.2081 95.7372 44.8904C95.7634 45.0654 95.7896 45.2491 95.8071 45.4415C95.9032 46.2288 95.9557 46.9724 96.0256 47.7597L96.0169 47.7335Z" fill="#ADB4A4"/>
<path d="M96.4889 75.3331C96.5413 74.9219 96.6025 74.5108 96.6899 74.0821C97.1006 72.1751 97.4327 70.2243 97.9221 68.326C98.1581 67.32 98.394 66.3227 98.6737 65.3255C98.831 64.8706 98.9795 64.4332 99.1369 63.9783C99.3815 63.1735 99.6262 62.4999 99.8272 61.7038C100.037 60.8378 100.422 59.9805 100.745 59.1407C100.955 58.5808 101.208 58.0297 101.427 57.4699C101.759 56.6126 102.134 55.7728 102.528 54.9417C103 53.997 103.506 53.1222 104.005 52.1774C104.197 51.8275 104.372 51.4776 104.581 51.1364C104.852 50.664 105.211 50.2703 105.516 49.8242C105.735 49.518 105.927 49.1944 106.128 48.8707C106.521 48.3108 106.932 47.7685 107.352 47.2348C107.64 46.9024 107.955 46.5787 108.243 46.3163C108.54 46.0539 108.837 45.8614 108.986 45.8702C109.309 45.8877 109.222 46.43 108.68 47.1823C108.531 47.3923 108.348 47.5847 108.182 47.7859C107.963 48.0834 107.78 48.3896 107.579 48.6957C107.238 49.1769 106.854 49.623 106.521 50.1041C106.137 50.6465 105.831 51.1276 105.525 51.6963C105.167 52.3436 104.73 52.9647 104.389 53.6295L103.672 54.9942C103.48 55.4141 103.358 55.7903 103.183 56.2014C102.807 57.0675 102.423 57.951 102.047 58.817C101.47 60.1817 100.955 61.6076 100.5 63.0248C100.36 63.4272 100.238 63.8296 100.142 64.232C100.037 64.6519 99.9408 65.0718 99.836 65.5004C99.6787 66.1128 99.4602 66.7689 99.2767 67.3812C99.0669 68.0898 98.9096 68.8159 98.7349 69.5332C98.5863 70.1193 98.4814 70.7229 98.3591 71.3178C98.2542 71.8164 98.1668 72.4375 98.0357 72.9011C97.9745 73.1024 97.9309 73.3473 97.8872 73.5572C97.7823 74.0471 97.6862 74.5457 97.6162 75.0444C97.4939 75.8492 97.3104 76.7065 97.1181 77.4501C96.9521 78.0624 96.6637 78.596 96.4802 78.4036C96.3491 78.2724 96.2442 77.9749 96.2617 77.4588C96.2617 77.3276 96.2792 77.1876 96.2879 77.0476C96.3228 76.4615 96.419 75.9192 96.4889 75.3418V75.3331Z" fill="#ADB4A4"/>
<path d="M109.633 49.2382C109.633 49.6931 109.633 50.148 109.589 50.6379C109.441 52.7724 109.292 54.9419 108.986 57.0764C108.829 58.1961 108.698 59.3246 108.471 60.4355C108.348 60.9517 108.235 61.4416 108.112 61.9577C107.911 62.85 107.719 63.6198 107.562 64.5033C107.378 65.4568 107.072 66.4453 106.775 67.3814L106.181 69.2709C105.866 70.2244 105.552 71.1955 105.132 72.1227C104.652 73.19 104.075 74.1697 103.437 75.1845C103.201 75.5607 102.947 75.9281 102.659 76.278C102.257 76.7504 101.803 77.1265 101.339 77.5289C101.025 77.8089 100.701 78.0888 100.361 78.3425C99.7489 78.8061 99.0672 79.1998 98.3419 79.4797C97.8787 79.6722 97.3806 79.7946 96.9349 79.8471C96.4892 79.8909 96.0959 79.8471 95.9736 79.7334C95.7202 79.4972 96.2008 79.1998 97.1009 78.8761C97.3544 78.7799 97.6253 78.7011 97.87 78.5874C98.2283 78.4387 98.5429 78.2375 98.875 78.0451C99.3993 77.7214 99.9324 77.3977 100.422 77.0215C100.981 76.5929 101.374 76.1205 101.811 75.5956C102.309 74.9833 102.79 74.3272 103.192 73.6449C103.472 73.1725 103.734 72.6826 103.961 72.1752C104.162 71.7203 104.293 71.3092 104.451 70.8543C104.791 69.8833 105.15 68.9035 105.482 67.915C105.997 66.3754 106.434 64.7658 106.801 63.1736C106.915 62.7275 107.011 62.2726 107.081 61.8177C107.151 61.3453 107.221 60.8817 107.291 60.4093C107.404 59.727 107.588 58.9921 107.702 58.3011C107.841 57.505 107.955 56.7002 108.051 55.8954C108.121 55.2305 108.2 54.5745 108.243 53.9096C108.287 53.3497 108.305 52.6674 108.383 52.1513C108.418 51.9326 108.436 51.6527 108.453 51.4165C108.488 50.8653 108.523 50.3142 108.532 49.7631C108.549 48.8708 108.602 47.9086 108.689 47.0775C108.759 46.3864 108.96 45.7653 109.17 45.9403C109.318 46.0628 109.467 46.3689 109.537 46.9288C109.545 47.0688 109.563 47.2262 109.58 47.3749C109.615 48.0135 109.624 48.6171 109.615 49.2645L109.633 49.2382Z" fill="#ADB4A4"/>
<path d="M90.5981 41.1287C90.8515 41.3037 91.1137 41.4612 91.4021 41.6361C92.6693 42.3884 94.2423 42.5196 95.6406 42.1085C96.3834 41.9073 97.0563 41.4961 97.6593 41.0413C97.9477 40.8313 98.2186 40.6126 98.4633 40.3502C98.8741 39.8865 99.1712 39.4229 99.2324 38.898C99.3023 38.3731 99.1362 37.7783 98.7779 37.5421C98.542 37.3846 98.1837 37.3759 97.7292 37.4546C97.3884 37.5071 97.0039 37.6033 96.5582 37.6296C96.1038 37.6558 95.6493 37.5596 95.2648 37.4196C94.3734 37.0872 93.7092 36.5973 92.9839 36.4836C92.713 36.4399 92.4421 36.4486 92.1624 36.4574C91.7866 36.4749 91.4109 36.5011 91.0525 36.6411C90.8078 36.7373 90.5806 36.8948 90.3796 37.061C90.0213 37.3671 89.7155 37.7608 89.497 38.1807C89.3484 38.4519 89.2435 38.7581 89.1387 39.0292C89.0338 39.3004 88.9377 39.5541 88.8153 39.6328C88.5881 39.8253 88.1948 39.4316 88.3259 38.5394C88.3696 38.3032 88.457 38.0582 88.5619 37.8308C88.7017 37.5071 88.8415 37.2009 89.0513 36.9122C89.3834 36.4486 89.8728 36.1074 90.3796 35.8712C90.9477 35.6088 91.472 35.4251 92.075 35.3726C92.7742 35.3026 93.5257 35.4951 94.1112 35.7663C94.522 35.9412 94.8978 36.1424 95.2735 36.2911C95.6056 36.4224 95.894 36.4749 96.1912 36.4923C96.7854 36.5711 97.5108 36.2474 98.5245 36.3349C98.909 36.3786 99.3372 36.5536 99.6431 36.8423C99.949 37.1309 100.15 37.4896 100.246 37.8658C100.465 38.6356 100.255 39.4229 99.9315 40.0265C99.748 40.3764 99.512 40.6826 99.2936 40.9713C99.0663 41.2862 98.8129 41.5749 98.5158 41.8373C98.0876 42.2222 97.5282 42.5022 97.0039 42.7383C96.4009 43.0095 95.7629 43.202 95.1162 43.307C94.5832 43.3944 94.0326 43.4207 93.482 43.3769C93.0276 43.3419 92.4595 43.272 92.0663 43.0883C91.8915 43.0183 91.6905 42.9308 91.507 42.8608C91.0962 42.6859 90.703 42.4672 90.3272 42.2222C89.7155 41.8286 89.1562 41.2512 88.8241 40.6651C88.5444 40.1752 88.5007 39.6503 88.7454 39.6678C88.9202 39.6678 89.1562 39.7903 89.4271 40.0615C89.497 40.1315 89.5756 40.2015 89.6455 40.2802C89.9602 40.5864 90.2573 40.875 90.6156 41.12L90.5981 41.1287Z" fill="#ADB4A4"/>
<path d="M85.7307 31.8648C85.1801 31.2437 84.6732 30.5876 84.1664 29.8528C83.074 28.2257 82.1214 26.4936 81.3699 24.6566C80.6358 22.8195 80.024 20.93 79.8143 18.9267C79.7182 17.8769 79.7269 16.7835 79.9629 15.725C80.1988 14.6577 80.6707 13.6255 81.3873 12.7769C82.0602 11.9809 82.9167 11.386 83.9217 11.0536C85.7045 10.52 87.2163 10.9049 88.7632 10.9836C89.6021 11.0361 90.4498 11.0798 91.2189 10.8874C91.9792 10.7387 92.6521 10.2575 93.4473 9.78515C93.9717 9.47022 94.5747 9.1553 95.2913 9.05907C96.0079 8.9541 96.7507 9.14655 97.3363 9.50521C98.2364 10.0388 98.8918 10.9049 99.2414 11.8584C99.591 12.8032 99.6696 13.7742 99.6783 14.7015C99.6609 16.8097 99.5385 18.7867 99.4162 20.8862C99.3637 21.6648 99.3113 22.4521 99.2152 23.2307C99.0841 24.3066 98.8569 25.3039 98.6559 26.3712C98.5073 27.0972 98.3675 27.832 98.2014 28.5581C97.8868 29.8703 97.5198 31.1825 97.0129 32.4334C96.6896 33.247 96.3313 34.0518 95.938 34.7254C95.5622 35.4077 95.134 35.9413 94.9417 36.0638C94.732 36.1863 94.6796 36.0026 94.767 35.5914C94.8631 35.1803 95.099 34.5329 95.4399 33.6931C95.6321 33.2208 95.8244 32.7309 96.0254 32.2497C96.2701 31.5674 96.4711 30.8938 96.6633 30.194C96.978 29.0743 97.31 27.9545 97.5635 26.826C97.8606 25.5488 97.983 24.4029 98.1315 23.1432C98.3063 21.6823 98.4461 20.1776 98.5248 18.708C98.586 17.6932 98.6209 16.6697 98.6296 15.6462C98.6296 14.7365 98.5947 13.9754 98.4374 13.1531C98.2626 12.287 97.948 11.5085 97.3625 10.9224C96.7944 10.3363 96.0254 10.0038 95.2826 10.1613C94.0853 10.3625 92.958 11.7184 91.2451 11.9984C89.6109 12.287 88.0815 11.9021 86.657 11.8059C85.853 11.7447 85.049 11.7622 84.3499 11.9896C83.6245 12.2433 83.0041 12.6982 82.471 13.2843C81.7194 14.1241 81.1164 15.2788 80.9329 16.4685C80.7057 17.8332 80.8542 19.2591 81.1863 20.6588C81.4572 21.8048 81.833 22.942 82.2787 24.0355C82.6458 24.9627 83.2051 26.0475 83.6158 26.8873C83.7819 27.2547 84.044 27.6746 84.2625 28.0333C84.7694 28.873 85.3287 29.6866 85.9404 30.4477C86.9279 31.6986 88.0815 32.9583 89.1389 34.0081C90.0129 34.8741 90.7994 35.6877 90.4149 35.6702C90.1527 35.6439 89.6021 35.4427 88.7894 34.8216C88.5796 34.6642 88.3612 34.4892 88.1514 34.3055C87.26 33.5532 86.4823 32.7484 85.7132 31.8736L85.7307 31.8648Z" fill="#ADB4A4"/>
<path d="M102.239 15.3487C102.711 15.4974 103.13 15.7511 103.497 16.066C104.292 16.7658 104.869 17.5182 105.621 17.9206C105.988 18.1218 106.355 18.2267 106.704 18.1918C107.054 18.1655 107.5 17.9381 108.138 17.8768C108.478 17.8506 108.863 17.9206 109.178 18.0955C109.501 18.2705 109.746 18.5329 109.929 18.7954C110.287 19.3377 110.436 19.9063 110.506 20.4662C110.558 20.9911 110.523 21.446 110.55 21.9446C110.532 22.8019 110.515 23.5367 110.445 24.3678C110.436 24.8227 110.34 25.2863 110.244 25.7412C110.156 26.2048 110.017 26.651 109.877 27.0884C109.711 27.6832 109.475 28.2431 109.256 28.8204C108.898 29.6777 108.505 30.535 108.015 31.3311C107.736 31.786 107.404 32.2059 107.106 32.6345C106.774 33.0457 106.442 33.4568 106.101 33.8767C105.839 34.1829 105.577 34.4891 105.297 34.7778C104.878 35.1452 104.458 35.4688 104.022 35.81C103.716 36.0375 103.427 36.2824 103.13 36.5273C102.562 36.9122 102.003 37.3321 101.374 37.6208C100.98 37.822 100.57 38.0232 100.176 38.1107C99.7918 38.2157 99.4422 38.2594 99.3024 38.1894C99.0227 38.032 99.3373 37.5771 100.133 37.1572C100.351 37.0347 100.587 36.9122 100.814 36.7898C101.129 36.6148 101.417 36.4224 101.706 36.2037C101.942 36.0375 102.186 35.8887 102.431 35.74L103.139 35.2501C103.689 34.8915 104.039 34.4453 104.511 34.0254C105 33.4918 105.533 32.9757 105.979 32.3983C106.311 32.0222 106.573 31.5935 106.862 31.1736C107.115 30.7975 107.246 30.4301 107.456 30.0451C107.867 29.2141 108.269 28.3743 108.601 27.5083C109.099 26.1523 109.414 24.6914 109.51 23.248C109.518 22.8369 109.553 22.4257 109.527 22.0233C109.483 21.6034 109.431 21.201 109.387 20.7724C109.309 20.2213 109.186 19.5827 108.898 19.2415C108.575 18.8303 108.173 18.8916 107.377 19.1453C107.063 19.2328 106.652 19.3027 106.276 19.2502C105.892 19.2065 105.542 19.084 105.228 18.9178C104.694 18.6554 104.144 18.2267 103.821 17.8418C103.681 17.6756 103.506 17.5007 103.357 17.352C103.017 17.0108 102.658 16.7046 102.282 16.5034C102.134 16.4247 101.977 16.3547 101.819 16.311C101.679 16.2672 101.531 16.2497 101.374 16.2497C101.059 16.2497 100.744 16.3459 100.5 16.4947C100.299 16.6171 100.141 16.7658 100.028 16.9146C99.9141 17.0545 99.818 17.1857 99.7131 17.0983C99.5733 17.0108 99.3898 16.5384 99.8093 15.9785C99.9141 15.8386 100.045 15.7248 100.194 15.6199C100.788 15.2087 101.548 15.1125 102.256 15.3312L102.239 15.3487Z" fill="#ADB4A4"/>
<path d="M111.232 27.622C111.477 27.7707 111.713 27.8844 112.018 28.0244C112.683 28.3306 113.478 28.5493 114.229 29.0829C114.998 29.599 115.488 30.5701 115.505 31.4711C115.558 32.4246 115.261 33.3956 114.701 34.1217C114.448 34.4629 114.142 34.734 113.836 35.0052C113.303 35.4776 112.796 35.81 112.237 36.1949C111.625 36.6148 110.882 36.886 110.192 37.1135C109.729 37.2622 109.257 37.4022 108.794 37.5334C108.086 37.7346 107.378 37.927 106.67 38.0757C105.857 38.242 105.08 38.3644 104.302 38.6269C104.013 38.7231 103.734 38.8368 103.437 38.9243C103.043 39.0555 102.65 39.1255 102.266 39.283C102.003 39.3879 101.75 39.5279 101.505 39.6679C101.06 39.9215 100.64 40.2015 100.238 40.4989C99.9846 40.6914 99.7224 40.8926 99.4865 41.0763C99.2418 41.2425 99.0145 41.3912 98.866 41.3737C98.5689 41.365 98.5339 40.8576 99.0495 40.2277C99.1981 40.0703 99.3729 39.9041 99.5476 39.7641C99.7923 39.5541 100.02 39.3529 100.273 39.1605C100.692 38.8631 101.156 38.6706 101.61 38.4869C102.134 38.2857 102.563 38.0757 103.061 37.892C103.638 37.6908 104.249 37.5509 104.844 37.4109L106.058 37.131C106.417 37.0435 106.714 36.9385 107.055 36.8335C107.78 36.6236 108.523 36.4749 109.239 36.2737C110.349 35.9675 111.442 35.5126 112.368 34.874C112.621 34.6903 112.892 34.5066 113.093 34.2792C113.312 34.043 113.504 33.798 113.679 33.5356C113.932 33.1682 114.212 32.7745 114.326 32.3546C114.465 31.8822 114.457 31.3574 114.308 30.9025C114.177 30.5263 113.958 30.2289 113.635 29.9927C113.373 29.7915 112.953 29.634 112.639 29.4503C112.508 29.3716 112.316 29.3016 112.158 29.2404C111.782 29.0917 111.398 28.9517 110.987 28.733C110.349 28.3918 109.711 27.797 109.519 27.0447C109.44 26.7385 109.484 26.4235 109.58 26.2486C109.685 26.0736 109.799 26.0211 109.895 26.0999C110.035 26.2136 110.139 26.4061 110.279 26.651C110.323 26.721 110.358 26.791 110.41 26.8522C110.611 27.1409 110.882 27.3946 111.214 27.6045L111.232 27.622Z" fill="#ADB4A4"/>
<path d="M77.5509 19.4078C77.2799 19.644 77.0265 19.9152 76.7731 20.2214C76.2138 20.9037 75.7681 21.7785 75.2 22.6096C74.9116 23.0295 74.5883 23.4494 74.195 23.8168C73.8018 24.1929 73.3299 24.4729 72.9279 24.7178C72.4996 24.9715 72.1239 25.2339 71.8966 25.5401C71.6694 25.8375 71.5733 26.1875 71.5733 26.5811C71.5733 26.9485 71.6519 27.3334 71.8355 27.6834C72.1675 28.2957 72.6657 28.7593 73.3036 29.1705C74.0115 29.6166 74.7631 30.159 75.4884 30.6314C75.9778 30.9463 76.4759 31.2525 76.9828 31.5412C77.7519 31.9873 78.5559 32.3722 79.3424 32.7834C80.2513 33.247 81.1164 33.7194 82.0777 34.0868C82.436 34.2268 82.8031 34.3492 83.1526 34.498C83.642 34.6992 84.0877 34.9354 84.5859 35.1278C84.9267 35.2503 85.2763 35.364 85.6258 35.469C86.255 35.6614 86.893 35.8539 87.5222 36.0463C87.933 36.1688 88.3349 36.3 88.6933 36.4487C89.0516 36.5887 89.3487 36.7637 89.4186 36.9036C89.5672 37.2011 89.0516 37.3848 88.1165 37.2273C87.863 37.1836 87.6009 37.0961 87.3387 37.0348C86.9716 36.9474 86.6221 36.8686 86.255 36.7812C85.6783 36.6237 85.1189 36.405 84.5684 36.1776C83.9392 35.9326 83.3799 35.7664 82.7769 35.5302C82.0777 35.259 81.3786 34.9354 80.7057 34.6117L79.3074 33.9381C78.8792 33.7456 78.5209 33.5882 78.1014 33.4045C77.2363 32.9933 76.406 32.4947 75.5933 31.9698C74.9641 31.5674 74.3261 31.1563 73.7056 30.7276C73.0852 30.3077 72.4472 29.8791 71.8617 29.3192C71.5296 29.0043 71.2325 28.6456 70.979 28.2432C70.7081 27.8233 70.5159 27.3509 70.4459 26.8173C70.4022 26.4412 70.4459 26.0125 70.5858 25.6189C70.7343 25.2164 70.9965 24.8665 71.2674 24.6041C71.9141 24.0005 72.622 23.7031 73.1463 23.3094C73.5745 22.9945 73.9329 22.5746 74.2475 22.1022C74.5184 21.7085 74.798 21.1574 75.0864 20.7725C75.2088 20.6063 75.3486 20.3876 75.4709 20.2039C75.7506 19.7753 76.0914 19.3291 76.4759 18.9442C77.0964 18.3144 78.0053 17.7895 78.9054 17.7807C79.6745 17.7632 80.1813 18.2444 79.9366 18.3668C79.7793 18.4806 79.5172 18.5243 79.1152 18.6118C79.0103 18.6293 78.9054 18.6643 78.8006 18.6905C78.3549 18.8392 77.9354 19.0754 77.5509 19.4078Z" fill="#ADB4A4"/>
<path d="M74.894 32.2848C74.929 32.6348 74.929 32.9934 74.894 33.3783C74.7892 34.2094 74.5969 35.0317 74.2561 35.8102C74.0988 36.2039 73.8803 36.5713 73.6618 36.93C73.4346 37.2711 73.2161 37.5773 73.0413 37.8747C72.6743 38.5396 72.7617 38.977 73.2336 39.3794C73.4521 39.5718 73.723 39.7555 74.0551 39.8868C74.6319 40.1055 75.1912 40.2979 75.8116 40.4116C76.4846 40.5516 77.1924 40.7616 77.8741 40.9103C78.3285 41.024 78.7917 41.094 79.2549 41.1727C79.9627 41.2689 80.6793 41.3302 81.3872 41.3914C82.2087 41.4701 82.9952 41.5576 83.8254 41.5139C84.1313 41.5139 84.4459 41.4701 84.7518 41.4701C85.18 41.4701 85.582 41.5051 86.0102 41.4876C86.3073 41.4789 86.5957 41.4264 86.8841 41.3914L88.4659 41.1727C88.8067 41.1202 89.1476 41.0852 89.4622 41.0765C89.7768 41.0677 90.0564 41.1027 90.1613 41.2077C90.3798 41.4176 90.0827 41.7851 89.3486 42.0125C89.1476 42.0737 88.9204 42.1 88.7019 42.1437C88.4047 42.205 88.1163 42.2837 87.8192 42.3362C87.3386 42.4324 86.8404 42.4324 86.3598 42.4499C85.8092 42.4499 85.3373 42.5461 84.813 42.5549C84.2012 42.5811 83.572 42.5549 82.9603 42.5286L81.6931 42.4586C81.3173 42.4499 80.994 42.4411 80.6182 42.4324C79.8316 42.3974 79.0539 42.2487 78.2936 42.0912C77.105 41.8375 75.8903 41.5401 74.728 41.164C74.3959 41.059 74.0551 40.954 73.723 40.849C73.3647 40.7353 72.9976 40.6041 72.6393 40.3592C72.3859 40.1842 72.1237 39.9305 71.9489 39.5981C71.7742 39.2657 71.6955 38.8808 71.7217 38.5308C71.7916 37.6998 72.2286 37.1487 72.5519 36.65C72.8403 36.2389 73.0501 35.8715 73.2249 35.4516C73.3822 35.1017 73.487 34.6468 73.6181 34.3144C73.6793 34.1744 73.7143 33.9819 73.7405 33.8245C73.8104 33.4571 73.8453 33.0722 73.8366 32.696C73.8279 32.0836 73.7754 31.4363 73.7055 30.8502C73.6531 30.3778 73.6531 29.8879 73.8978 29.9229C74.0638 29.9492 74.2998 30.1154 74.4833 30.509C74.5357 30.614 74.5707 30.719 74.6144 30.8327C74.7804 31.3051 74.8503 31.7775 74.894 32.2761V32.2848Z" fill="#ADB4A4"/>
<path d="M80.7584 62.8587C80.9244 62.9024 81.0992 62.9549 81.274 63.0074C82.0867 63.2348 82.9606 63.0336 83.6598 62.5875C84.0355 62.36 84.3152 62.0101 84.5774 61.6689C84.6997 61.5115 84.8308 61.3628 84.9182 61.1791C85.0755 60.8641 85.1629 60.558 85.0842 60.3043C85.0231 60.0593 84.8832 59.8406 84.7521 59.7969C84.6735 59.7619 84.5162 59.7881 84.2715 59.9106C84.088 59.9981 83.8782 60.1293 83.5986 60.2343C83.3102 60.3393 82.9956 60.3655 82.7334 60.348C82.1217 60.2955 81.6672 60.1118 81.274 60.1818C81.1254 60.208 80.9943 60.2605 80.8545 60.3043C80.6622 60.3655 80.4525 60.4092 80.2777 60.5317C80.1554 60.6192 80.068 60.7417 79.9981 60.8554C79.867 61.0741 79.7621 61.319 79.7009 61.5815C79.666 61.7564 79.631 61.9226 79.6048 62.0888C79.5698 62.2551 79.5174 62.4213 79.4125 62.5C79.2203 62.6837 78.8095 62.5612 78.6959 61.9664C78.6697 61.8089 78.6959 61.6427 78.7047 61.4765C78.7309 61.249 78.7484 61.0216 78.827 60.8029C78.9494 60.4442 79.2115 60.1381 79.4824 59.9106C79.797 59.6482 80.0767 59.4295 80.4525 59.2808C80.872 59.1058 81.3963 59.0971 81.7983 59.167C82.078 59.202 82.3314 59.2633 82.5674 59.2808C82.7771 59.2983 82.9344 59.2633 83.083 59.2195C83.3626 59.167 83.7209 58.8784 84.4026 58.7384C84.6648 58.6947 84.9968 58.7297 85.2678 58.8696C85.5299 59.0096 85.7309 59.2108 85.8708 59.4382C86.1679 59.9019 86.1766 60.4617 86.0805 60.8904C86.0281 61.1441 85.9407 61.3715 85.862 61.5902C85.7834 61.8264 85.696 62.0626 85.5649 62.2726C85.3814 62.5875 85.0755 62.8499 84.7958 63.0861C84.4725 63.3573 84.1229 63.5847 83.7471 63.7684C83.4325 63.9172 83.1092 64.0396 82.7684 64.1096C82.48 64.1796 82.1217 64.2496 81.8508 64.1883C81.7371 64.1621 81.5886 64.1621 81.4662 64.1446C81.1866 64.1096 80.9069 64.0396 80.636 63.9696C80.1903 63.8472 79.7534 63.576 79.465 63.2523C79.2203 62.9811 79.1591 62.6225 79.3688 62.5262C79.5087 62.4563 79.7009 62.4388 79.9107 62.5262C79.9631 62.5437 80.0243 62.57 80.0767 62.5962C80.3127 62.7012 80.5224 62.8062 80.7584 62.8762V62.8587Z" fill="#ADB4A4"/>
<path d="M76.1532 58.6946C75.7163 58.4321 75.3055 58.1347 74.8773 57.7848C73.0508 56.2189 71.4079 54.3819 70.4204 52.0899C70.1757 51.4776 69.9834 50.8215 69.931 50.1391C69.8785 49.4393 69.9834 48.7307 70.2718 48.0746C70.5427 47.4623 70.9709 46.9461 71.539 46.5612C72.5527 45.9051 73.5227 45.8876 74.4229 45.6427C74.9123 45.5202 75.3842 45.3978 75.76 45.1878C76.1358 45.0041 76.4241 44.6455 76.8174 44.2168C77.0796 43.9456 77.3942 43.6307 77.8399 43.4295C78.2856 43.2283 78.8099 43.2108 79.2469 43.3245C79.9198 43.4995 80.4878 43.9106 80.8811 44.4442C81.2744 44.9604 81.4928 45.5377 81.6589 46.0801C82.0085 47.3223 82.2531 48.4945 82.5503 49.7455C82.6551 50.2091 82.7688 50.6727 82.8387 51.1539C82.9435 51.81 82.961 52.4311 83.0134 53.0872L83.1271 54.4431C83.1795 55.2654 83.1795 56.0964 83.0921 56.9187C83.0397 57.4524 82.961 57.986 82.8212 58.4496C82.6901 58.9133 82.4978 59.2894 82.358 59.3856C82.0434 59.5694 81.9211 58.9657 81.9997 57.881C82.0259 57.5836 82.0609 57.2599 82.0871 56.9537C82.1133 56.5163 82.0871 56.0964 82.0871 55.659C82.0696 54.9592 82.0871 54.2681 82.0521 53.5683C82.0172 52.781 81.8774 52.0987 81.755 51.3463C81.6065 50.4715 81.4491 49.5793 81.2481 48.7132C81.1171 48.1184 80.9597 47.5148 80.7937 46.9199C80.6364 46.395 80.4704 45.9664 80.2431 45.5465C79.9984 45.1003 79.7101 44.7504 79.3255 44.5317C78.941 44.313 78.5303 44.2605 78.1894 44.4355C77.6127 44.6804 77.1582 45.6864 76.1532 46.1851C75.2007 46.6575 74.2306 46.6925 73.4091 46.8762C72.9372 46.9724 72.5003 47.1124 72.1682 47.3573C71.8274 47.611 71.5827 47.9609 71.3904 48.3633C71.1282 48.9407 70.9534 49.658 71.0496 50.3491C71.137 51.1451 71.4603 51.9237 71.8798 52.6673C72.2294 53.2796 72.6401 53.857 73.0771 54.4081C73.4441 54.8717 73.9597 55.3879 74.3267 55.8165C74.4753 56.0002 74.7025 56.2014 74.8861 56.3764C75.3143 56.77 75.7687 57.1462 76.2581 57.4786C77.0359 58.021 77.9011 58.5633 78.6701 59.0182C79.3081 59.3944 79.8674 59.8143 79.6139 59.9455C79.4391 60.033 79.0546 60.0592 78.4691 59.858C78.3118 59.8143 78.1545 59.7443 78.0059 59.6831C77.3418 59.4119 76.7475 59.0707 76.1445 58.6946H76.1532Z" fill="#ADB4A4"/>
<path d="M83.0476 45.8789C83.3797 45.8789 83.6943 45.9664 83.974 46.0976C84.5857 46.395 85.0401 46.7187 85.4858 46.8149C85.7043 46.8674 85.8966 46.8587 86.0364 46.7974C86.185 46.7449 86.4034 46.535 86.8229 46.3688C87.2861 46.1676 87.9241 46.3338 88.2387 46.6312C88.5795 46.9112 88.7805 47.2436 88.9203 47.576C89.0427 47.8909 89.0864 48.1621 89.1825 48.4595C89.3136 48.9757 89.4272 49.4131 89.5583 49.9117C89.7068 50.4541 89.7156 51.0577 89.6894 51.6263C89.6894 52.0024 89.6457 52.3786 89.6195 52.7635C89.5583 53.3321 89.4884 53.9182 89.3311 54.4693C89.1475 55.1079 88.8766 55.6853 88.6319 56.3064C88.5358 56.5338 88.4397 56.77 88.3173 56.9887C88.1251 57.2774 87.9153 57.5311 87.7143 57.8023C87.5658 57.986 87.4434 58.1872 87.3123 58.3796C87.0501 58.7121 86.788 59.0532 86.4646 59.3332C86.2636 59.5169 86.0539 59.7006 85.8179 59.8056C85.5907 59.9193 85.3722 59.9718 85.2499 59.9193C85.0052 59.7968 85.0401 59.3857 85.3984 58.992C85.5033 58.887 85.6082 58.7733 85.7131 58.6596C85.8616 58.5021 85.984 58.3359 86.1063 58.1609C86.3161 57.8898 86.5608 57.6623 86.7792 57.3911C87.0414 57.1025 87.155 56.7788 87.3473 56.4639C87.5395 56.079 87.7668 55.7028 87.9241 55.3004C88.0551 55.0292 88.1338 54.7405 88.2299 54.4606C88.3086 54.2069 88.3086 53.9707 88.3523 53.717C88.4309 53.1747 88.5271 52.6323 88.5882 52.0812C88.6581 51.2239 88.5882 50.3403 88.4134 49.5005C88.3523 49.2643 88.3086 49.0194 88.2125 48.8007C88.1076 48.5733 88.0027 48.3546 87.8978 48.1271C87.7668 47.8472 87.6094 47.5235 87.4434 47.4098C87.356 47.3486 87.3036 47.3398 87.2249 47.3573C87.1375 47.3748 86.9802 47.4798 86.7705 47.611C86.5957 47.7247 86.3335 47.8559 86.0714 47.8909C85.8092 47.9347 85.5558 47.9259 85.3285 47.8909C84.944 47.8297 84.5158 47.6722 84.2711 47.4885C84.1662 47.4098 84.0264 47.3398 83.9215 47.2786C83.6681 47.1386 83.4234 47.0249 83.2049 46.9899C83.1175 46.9724 83.0301 46.9636 82.9515 46.9636C82.8903 46.9636 82.8291 46.9636 82.7505 46.9811C82.6107 47.0161 82.4621 47.0861 82.3485 47.1736C82.2611 47.2436 82.1737 47.3048 82.0951 47.401C82.0164 47.4885 81.9465 47.6022 81.8329 47.5847C81.6843 47.5847 81.4134 47.3048 81.5794 46.8324C81.6231 46.7187 81.6843 46.6137 81.7542 46.5175C82.0601 46.1151 82.5407 45.9052 83.0476 45.9052V45.8789Z" fill="#ADB4A4"/>
<path d="M90.4323 51.4776C90.5896 51.5126 90.7206 51.5301 90.9129 51.5651C91.3411 51.6438 91.848 51.6263 92.4248 51.8188C93.019 52.0025 93.5347 52.5448 93.7007 53.1134C93.9104 53.7083 93.9192 54.3819 93.7007 54.933C93.5958 55.1954 93.456 55.4054 93.3162 55.6241C93.0715 56.009 92.8268 56.2889 92.5733 56.6388C92.2937 57.015 91.883 57.2949 91.5072 57.5486L90.7469 58.0385C90.3623 58.2747 89.9866 58.5284 89.602 58.7296C89.1563 58.9658 88.7194 59.1407 88.3174 59.4294C88.1688 59.5344 88.029 59.6569 87.8804 59.7531C87.6707 59.8843 87.4435 59.9718 87.2512 60.1205C87.1114 60.2167 86.9978 60.3479 86.8929 60.4704C86.6919 60.6891 86.4996 60.9166 86.3161 61.144C86.1938 61.2927 86.0802 61.4414 85.9578 61.5727C85.8267 61.6951 85.6869 61.8001 85.5558 61.8001C85.2849 61.8088 85.0752 61.4852 85.2587 60.9865C85.3111 60.8553 85.3985 60.7329 85.4772 60.6104C85.582 60.4354 85.6782 60.2692 85.7918 60.103C85.984 59.8493 86.2462 59.6569 86.4909 59.4732C86.7706 59.272 86.9803 59.0533 87.2512 58.8608C87.5571 58.6421 87.8979 58.4584 88.23 58.2834C88.4572 58.161 88.6844 58.0473 88.8942 57.916C89.0864 57.8023 89.235 57.6711 89.4098 57.5486C89.7856 57.2862 90.1963 57.0937 90.5721 56.8663C91.1663 56.5164 91.7082 56.079 92.1189 55.5716C92.2325 55.4229 92.3549 55.2829 92.416 55.1167C92.486 54.9505 92.5384 54.7755 92.5908 54.6093C92.6607 54.3731 92.7656 54.1282 92.7656 53.9008C92.7656 53.6383 92.687 53.3671 92.5471 53.1747C92.4248 53.0085 92.285 52.9122 92.0927 52.8423C91.9354 52.781 91.682 52.781 91.481 52.711C91.3936 52.676 91.2712 52.676 91.1751 52.6673C90.9304 52.6411 90.677 52.6236 90.3798 52.5711C89.9166 52.4836 89.4098 52.2124 89.1563 51.74C89.0515 51.5476 89.0427 51.3201 89.1039 51.1889C89.1651 51.0489 89.27 51.0052 89.3748 51.0227C89.5321 51.0577 89.6807 51.1189 89.803 51.1889L89.8992 51.2501C90.039 51.3376 90.2138 51.4338 90.4323 51.4776Z" fill="#ADB4A4"/>
<path d="M69.5635 52.7897C69.4586 52.9646 69.3712 53.1483 69.2751 53.3495C69.0654 53.8044 68.9605 54.3905 68.7682 54.9941C68.6721 55.3003 68.5497 55.6065 68.375 55.9127C68.2002 56.2188 67.9555 56.4813 67.7632 56.6825C67.5535 56.9012 67.4049 57.1111 67.3525 57.2773C67.3001 57.4436 67.3088 57.5923 67.3525 57.7847C67.3962 57.9597 67.4748 58.1521 67.6234 58.3096C67.8856 58.5808 68.2264 58.7557 68.6634 58.8607C69.144 58.9744 69.6771 59.1756 70.1665 59.3331C70.4986 59.4381 70.8394 59.5343 71.1802 59.6043C71.6958 59.7268 72.2289 59.7967 72.7533 59.9105C73.3563 60.0329 73.9331 60.1729 74.5535 60.2079C74.7808 60.2254 75.0167 60.2254 75.2439 60.2516C75.5585 60.2866 75.8557 60.3741 76.1703 60.4091C76.3888 60.4266 76.6072 60.4266 76.8257 60.4266C77.219 60.4266 77.621 60.4266 78.0142 60.4353C78.2677 60.4353 78.5298 60.4616 78.7571 60.5053C78.993 60.5491 79.194 60.6365 79.2639 60.759C79.4038 61.0039 79.1503 61.3101 78.5735 61.4151C78.4162 61.4413 78.2502 61.4326 78.0841 61.4413C77.8569 61.4588 77.6385 61.4851 77.4025 61.5026C77.0354 61.5201 76.6684 61.4676 76.3101 61.4151C75.8994 61.3626 75.5411 61.3801 75.1478 61.3539C74.6934 61.3189 74.2302 61.2314 73.7758 61.1614L72.8407 61.0039C72.561 60.9777 72.3163 60.9515 72.0367 60.9252C71.4511 60.8465 70.8831 60.689 70.3238 60.5141C69.4411 60.2254 68.5847 60.0242 67.6671 59.578C67.4137 59.4468 67.1602 59.2719 66.9155 59.0794C66.6621 58.8695 66.4349 58.6158 66.2863 58.2833C66.0504 57.8197 66.129 57.1024 66.4174 56.665C66.7233 56.1576 67.099 55.8689 67.3088 55.5628C67.4836 55.3266 67.6059 55.0466 67.7021 54.723C67.7894 54.4605 67.8331 54.0931 67.9642 53.8219C68.0167 53.7082 68.0516 53.5507 68.0953 53.4195C68.1914 53.1221 68.3138 52.7809 68.4886 52.4747C68.7508 51.9761 69.2314 51.4862 69.8169 51.3375C70.3238 51.2063 70.7083 51.495 70.5772 51.6874C70.5073 51.8361 70.3762 51.9674 70.2102 52.0986L70.0704 52.2036C69.8781 52.361 69.6946 52.5447 69.546 52.7897H69.5635Z" fill="#ADB4A4"/>
<path d="M70.2455 60.5405C70.3329 60.7505 70.4028 60.9604 70.4378 61.2054C70.5164 61.7302 70.5426 62.2639 70.4815 62.7975C70.4378 63.3311 70.2193 63.8822 70.1319 64.2234C70.0795 64.4158 70.1057 64.5646 70.1494 64.6258C70.1931 64.6958 70.2455 64.7395 70.3766 64.8095C70.4989 64.8707 70.6737 64.9407 70.8747 64.967C71.233 65.002 71.5913 65.0195 71.9671 64.9582C72.3778 64.897 72.8148 64.9145 73.2343 64.897C73.5139 64.897 73.7936 64.8532 74.0732 64.8183C74.4927 64.757 74.9122 64.652 75.3317 64.5733C75.8123 64.4858 76.293 64.4246 76.7562 64.2496C76.9309 64.1884 77.097 64.1097 77.2805 64.0572C77.5252 63.996 77.7699 63.961 78.0146 63.891C78.1806 63.8385 78.3379 63.751 78.4952 63.681C78.7836 63.5411 79.072 63.4098 79.3692 63.2874C79.5614 63.2086 79.7537 63.1387 79.9372 63.0949C80.1295 63.0599 80.313 63.0687 80.4179 63.1474C80.6363 63.3224 80.5752 63.681 80.1994 63.9697C80.0945 64.0484 79.9634 64.1009 79.8498 64.1622C79.6838 64.2496 79.5352 64.3634 79.3692 64.4508C79.107 64.5996 78.8099 64.6695 78.5215 64.7483C78.1981 64.8357 77.9359 64.9845 77.6301 65.0807C77.2718 65.2032 76.896 65.2819 76.5377 65.3694L75.7774 65.5443C75.5502 65.5968 75.3666 65.6843 75.1482 65.7368C74.685 65.868 74.1956 65.903 73.7237 65.9292C72.9809 65.973 72.2118 66.008 71.469 65.9905C71.2505 65.9905 71.0495 65.973 70.8223 65.9905C70.5863 65.9905 70.3329 65.9905 70.0445 65.9117C69.6425 65.8155 69.1531 65.3519 69.0745 64.8357C68.9608 64.2584 69.1444 63.8297 69.2405 63.4886C69.3366 63.1999 69.3803 62.9724 69.4153 62.71C69.4415 62.4913 69.4153 62.2289 69.4502 62.0189C69.4677 61.9314 69.4502 61.8177 69.4502 61.7302C69.4328 61.5115 69.3891 61.3016 69.3192 61.0916C69.2143 60.7505 69.0919 60.4006 68.9871 60.0681C68.9084 59.797 68.8909 59.4645 69.1007 59.3858C69.2492 59.3421 69.459 59.3596 69.66 59.552C69.7124 59.6045 69.7561 59.657 69.8085 59.7182C70.0095 59.9632 70.1319 60.2431 70.2542 60.5318L70.2455 60.5405Z" fill="#ADB4A4"/>
<path d="M85.0147 65.4654C85.172 65.7803 85.3206 66.0952 85.4692 66.4539C86.0809 68.0023 86.7975 69.5332 87.383 71.1078C87.7064 71.9301 88.0472 72.7349 88.3356 73.5659C88.458 73.9596 88.5716 74.3357 88.6852 74.7294C88.9124 75.403 89.0959 75.9978 89.3668 76.6364C89.664 77.3275 89.8475 78.1148 90.0659 78.8497L90.4854 80.3281C90.7126 81.0716 90.9399 81.8239 91.1321 82.5763C91.3331 83.451 91.5079 84.2996 91.7351 85.1744C91.8225 85.4981 91.9187 85.8217 91.9886 86.1542C92.0847 86.609 92.1022 87.0552 92.1896 87.5101C92.242 87.825 92.3294 88.1312 92.3993 88.4461C92.5217 89.006 92.6353 89.5833 92.7226 90.1519C92.7751 90.5193 92.8188 90.8955 92.8275 91.2367C92.8275 91.5778 92.7838 91.8753 92.679 91.9802C92.4605 92.1989 92.1022 91.8578 91.8924 91.0792C91.8313 90.8693 91.805 90.6331 91.7613 90.4056C91.7002 90.0907 91.5953 89.802 91.5254 89.4871C91.403 88.9885 91.3593 88.4811 91.2807 87.9825C91.1933 87.4138 91.0535 86.9415 90.9311 86.3991C90.7826 85.778 90.6689 85.1306 90.5291 84.5095C90.433 84.0809 90.3369 83.6522 90.2233 83.2236C90.1271 82.8387 89.996 82.5325 89.8737 82.1651C89.629 81.3865 89.4367 80.5905 89.227 79.8032C88.9036 78.5785 88.5104 77.3363 88.1084 76.1203C87.9948 75.7792 87.8812 75.4292 87.7413 75.1056C87.5928 74.7644 87.4442 74.432 87.3044 74.0821C87.1034 73.5834 86.9461 73.0061 86.7626 72.4899C86.5528 71.8951 86.3169 71.3002 86.0896 70.7141C85.8974 70.233 85.6876 69.7519 85.4866 69.2795C85.3206 68.8771 85.0672 68.3959 84.9536 68.0023C84.9011 67.8361 84.8137 67.6349 84.7438 67.4599C84.5865 67.0575 84.403 66.6726 84.2195 66.2789C83.9223 65.6491 83.6427 64.9493 83.4504 64.3282C83.2931 63.812 83.2756 63.2784 83.5203 63.3134C83.6951 63.3396 83.9311 63.4971 84.167 63.8558C84.2282 63.952 84.2894 64.057 84.3506 64.1532C84.604 64.5818 84.805 65.0105 85.0235 65.4566L85.0147 65.4654Z" fill="#ADB4A4"/>
<path d="M5.37434 68.0111V65.3167L5.26947 63.0948C5.05099 59.1145 4.94612 56.1927 4.94612 54.3206C4.94612 53.2971 4.81504 50.1216 4.54412 44.7854C4.49169 43.6219 4.45673 42.8784 4.43925 42.546C4.41304 42.2135 4.4043 42.0386 4.4043 42.0211V41.7674C4.4043 41.6012 4.52664 41.4875 4.77134 41.435C4.91991 41.3912 5.33938 41.365 6.04725 41.365H7.865C8.05726 41.365 8.20582 41.4437 8.30195 41.6012C8.39808 41.7586 8.45052 41.9598 8.45052 42.2048C8.45052 42.4497 8.23204 42.5722 7.79508 42.5722L6.95613 42.5372H6.0123C5.82004 42.5372 5.69769 42.5722 5.64525 42.6422C5.59282 42.7122 5.57534 42.9134 5.57534 43.2283C5.57534 43.7094 5.66273 45.4852 5.82878 48.5383C5.99482 51.6 6.08221 53.3758 6.08221 53.892C6.3706 53.892 6.78134 53.822 7.31443 53.6733C7.87373 53.5246 8.28447 53.4546 8.54665 53.4546C8.69521 53.4546 8.81756 53.5421 8.93117 53.7083C9.03604 53.8745 9.09721 54.0319 9.09721 54.1807C9.09721 54.4518 8.90495 54.6268 8.51169 54.7055C8.12717 54.793 7.56786 54.8542 6.84252 54.9067C6.33565 54.9767 6.08221 55.1254 6.08221 55.3441C6.08221 56.4376 6.20456 58.4759 6.44925 61.4589C6.66773 64.1795 6.7726 66.2265 6.7726 67.6087L6.66773 67.7924C6.73765 67.9586 6.7726 68.116 6.7726 68.2648C6.7726 68.7284 6.50169 68.9558 5.9686 68.9558C5.58408 68.9558 5.38308 68.6409 5.38308 68.0111H5.37434Z" fill="#ADB4A4"/>
<path d="M14.5857 68.8859C14.4808 68.7372 14.4196 68.5622 14.4196 68.3435V66.8914C14.4196 65.3605 14.3585 63.6371 14.2361 61.7213C14.14 59.6831 14.0875 57.9598 14.0875 56.5513C14.0875 55.2392 14.0264 52.7023 13.904 48.9407C13.7555 45.5465 13.6855 43.0096 13.6855 41.3388C13.6855 41.2163 13.738 41.1113 13.8516 41.0326C13.9565 40.9451 14.0875 40.9014 14.2361 40.9014C14.6731 40.9014 14.8915 41.0851 14.8915 41.4437C14.8915 45.9314 14.9265 49.2906 14.9964 51.5213L15.1799 58.0385C15.1799 59.062 15.2499 60.7241 15.3984 63.0248L15.6169 67.5387C15.6169 67.6087 15.6519 67.6437 15.7218 67.6437C15.748 67.6699 15.9053 67.6787 16.1937 67.6787H18.4484C18.763 67.6787 18.9203 67.8974 18.9203 68.3348C18.9203 68.5272 18.8853 68.6934 18.8154 68.8246C18.7455 68.9559 18.6319 69.0258 18.4921 69.0258L18.2386 69.0608H17.9502C17.4434 69.0871 16.4559 69.0958 15.0052 69.0958C14.8391 69.0958 14.6993 69.0258 14.5857 68.8771V68.8859Z" fill="#ADB4A4"/>
<path d="M22.4248 52.1423V50.6901C22.4248 48.6519 22.5472 46.8848 22.7918 45.3802C22.9404 44.4354 23.1414 43.6568 23.3948 43.0532C23.6483 42.4496 23.9978 41.9597 24.4348 41.6011C24.8455 41.1899 25.3786 40.98 26.0341 40.98C26.6196 40.98 27.1527 41.0937 27.6333 41.3211C28.114 41.5486 28.516 41.846 28.8306 42.2134C29.0928 42.5546 29.3375 43.0007 29.5559 43.5606C29.7744 44.1205 29.9405 44.6541 30.0628 45.1615L30.3512 46.8761C30.9367 51.0226 31.2251 54.6967 31.2251 57.9072V58.0121C31.2251 59.2281 31.1989 60.3391 31.1552 61.3626C31.1028 62.5785 30.9717 63.847 30.7532 65.1854C30.6571 65.8415 30.5172 66.4101 30.3337 66.9C30.1502 67.3899 29.9142 67.871 29.6259 68.3521C29.119 69.2269 28.4024 69.6643 27.4848 69.6643C24.1115 69.6643 22.4335 63.8295 22.4335 52.1598L22.4248 52.1423ZM28.6034 67.9585C28.918 67.5123 29.1627 66.8825 29.3287 66.0864C29.7132 64.3893 29.9579 62.7272 30.0541 61.1001C30.1065 59.7879 30.124 58.5195 30.124 57.2773V57.1286L30.089 53.4895C30.0366 52.1773 29.8968 50.4802 29.6521 48.3982C29.4598 46.9198 29.0578 45.4064 28.4548 43.8493C28.2101 43.2457 27.8868 42.7733 27.4935 42.4321C27.1002 42.091 26.6633 41.9248 26.2001 41.9248C25.7894 41.9248 25.4223 42.1172 25.1077 42.5109C24.7931 42.8958 24.5397 43.4469 24.3474 44.1467C23.9105 45.7738 23.6658 47.2785 23.6221 48.6606C23.5522 49.8503 23.5172 51.075 23.5172 52.3347V54.1193C23.5172 55.7464 23.6745 57.8109 23.9891 60.3041C24.1814 61.8787 24.4261 63.2521 24.7145 64.4156C25.0029 65.5791 25.3961 66.5676 25.8768 67.3636C26.3574 68.2122 26.9167 68.6408 27.5459 68.6408C27.9305 68.6408 28.2888 68.4134 28.6034 67.9672V67.9585Z" fill="#ADB4A4"/>
<path d="M41.5457 68.5185L41.1087 66.9176C40.4271 64.6607 39.9289 62.7536 39.6143 61.2052C39.4221 60.3567 39.1774 59.1757 38.889 57.6711C38.5481 55.9215 38.2335 54.5044 37.9451 53.4109L37.5781 53.6296L37.1062 53.8483L37.1761 67.8624V68.4048C37.1761 68.8859 36.9576 69.1308 36.5207 69.1308C36.3284 69.1308 36.1711 69.0696 36.0488 68.9471C35.9264 68.8247 35.8652 68.6847 35.8652 68.5097V67.9674L35.9351 60.6191L36.0051 57.085C36.1012 52.8423 36.1536 49.2206 36.1536 46.2376V41.54C36.1536 41.3213 36.3721 41.2163 36.8091 41.2163C37.4383 41.2163 38.0238 41.3825 38.5744 41.7237C39.1162 42.0649 39.5531 42.5285 39.8678 43.1059C40.5232 44.2956 40.8465 45.5903 40.8465 46.9987C40.8465 48.1184 40.6018 49.3256 40.1212 50.6378C39.9726 51.0052 39.7978 51.4164 39.5794 51.8975C39.3609 52.3786 39.1686 52.6935 38.9938 52.8598C39.5007 54.7318 40.2435 57.6011 41.2136 61.4852L42.9265 68.0373C42.9527 68.1073 42.9614 68.2473 42.9614 68.4398C42.9614 68.6584 42.9177 68.8422 42.8303 68.9996C42.7429 69.1571 42.6206 69.2358 42.4458 69.2358C41.9564 69.2358 41.6593 68.9909 41.5369 68.5097L41.5457 68.5185ZM38.0588 51.9587C38.5219 51.4951 38.8453 51.1102 39.0375 50.7953C39.2036 50.4541 39.3521 49.9467 39.4745 49.2644C39.5968 48.582 39.658 47.9784 39.658 47.4448C39.658 46.4475 39.492 45.4328 39.1511 44.3918C38.9851 43.7882 38.7229 43.2983 38.3908 42.9221C38.05 42.546 37.6742 42.3535 37.2635 42.3535H37.1936C37.1936 42.3535 37.1324 42.3885 37.0887 42.3885V52.6498C37.281 52.6498 37.6131 52.4224 38.0675 51.9587H38.0588Z" fill="#ADB4A4"/>
<path d="M52.9416 68.7022C52.8105 68.5798 52.7406 68.4398 52.7406 68.2649V63.4972C52.7406 63.2086 52.1201 62.9374 50.8879 62.6924C49.6557 62.4475 48.6332 62.325 47.8379 62.325C47.7855 62.325 47.7069 62.5087 47.602 62.8674C47.4971 63.2261 47.4097 63.4972 47.366 63.6722C47.0514 64.9319 46.7368 66.2791 46.4222 67.7137L46.2387 68.5185C46.1862 68.711 46.0726 68.8072 45.8716 68.8072C45.6706 68.8072 45.5046 68.746 45.3473 68.6235C45.19 68.501 45.1113 68.3611 45.1113 68.1861L45.1463 68.1161V68.0811L45.5483 66.2616C45.8367 65.1244 46.0901 64.0046 46.3086 62.9111C46.5533 61.6689 46.7368 60.8729 46.8504 60.5055C47.0427 59.7007 47.4359 57.7061 48.0127 54.5044L48.2312 53.306C48.8604 49.5706 49.2974 47.2174 49.5421 46.2464C49.6644 45.6603 49.8829 44.803 50.1975 43.6658C50.3199 43.1846 50.4859 42.6948 50.7044 42.2136C50.9229 41.8025 51.1064 41.5925 51.2462 41.5925C51.6307 41.5925 51.9104 41.715 52.0852 41.9599C52.2075 42.1786 52.391 43.3771 52.6532 45.5641C52.9154 47.751 53.1339 49.9555 53.3261 52.1862L53.798 58.231C53.798 59.272 53.8679 60.8554 54.0165 62.9636C54.1651 65.0981 54.235 66.6902 54.235 67.7312V67.8799C54.235 68.1511 54.2 68.3873 54.1301 68.606C54.034 68.7985 53.8068 68.8947 53.4397 68.8947C53.2475 68.8947 53.0814 68.8335 52.9503 68.711L52.9416 68.7022ZM52.7056 61.494C52.7056 59.9893 52.6182 57.9336 52.4522 55.3267C52.2862 52.7198 52.1026 50.4192 51.9104 48.4334C51.8579 47.5848 51.7618 46.6488 51.622 45.6341L51.4734 44.2169C51.4734 44.2169 51.4472 44.1119 51.4035 43.8145L51.3336 43.3771C51.1413 43.9107 50.9491 44.6543 50.7743 45.5991C50.5908 46.5438 50.4072 47.6636 50.2062 48.9495C49.6207 52.5624 49.1313 55.283 48.7119 57.1025L48.3885 58.336C48.0215 59.552 47.8467 60.4705 47.8467 61.1003V61.319C48.9129 61.6602 50.1363 61.8264 51.5171 61.8264H51.7356C51.8055 61.8526 51.8929 61.8614 51.989 61.8614C52.4697 61.8614 52.7144 61.7389 52.7144 61.494H52.7056Z" fill="#ADB4A4"/>
<path d="M60.073 68.8859C59.9681 68.7372 59.9069 68.5622 59.9069 68.3435V66.8914C59.9069 65.3605 59.8458 63.6371 59.7234 61.7213C59.6273 59.6831 59.5749 57.9598 59.5749 56.5513C59.5749 55.2392 59.5137 52.7023 59.3913 48.9407C59.2428 45.5465 59.1729 43.0096 59.1729 41.3388C59.1729 41.2163 59.2253 41.1113 59.3389 41.0326C59.4438 40.9451 59.5748 40.9014 59.7234 40.9014C60.1604 40.9014 60.3789 41.0851 60.3789 41.4437C60.3789 45.9314 60.4138 49.2906 60.4837 51.5213L60.6672 58.0385C60.6672 59.062 60.7372 60.7241 60.8857 63.0248L61.1042 67.5387C61.1042 67.6087 61.1392 67.6437 61.2091 67.6437C61.2353 67.6699 61.3926 67.6787 61.681 67.6787H63.9357C64.2503 67.6787 64.4076 67.8974 64.4076 68.3348C64.4076 68.5272 64.3726 68.6934 64.3027 68.8246C64.2328 68.9559 64.1192 69.0258 63.9794 69.0258L63.7259 69.0608H63.4375C62.9307 69.0871 61.9432 69.0958 60.4925 69.0958C60.3264 69.0958 60.1866 69.0258 60.073 68.8771V68.8859Z" fill="#ADB4A4"/>
<path d="M128.736 69.1047C128.666 69.0084 128.631 68.8597 128.631 68.6673V68.2299C128.657 68.1337 128.666 68.0024 128.666 67.8275C128.666 64.5033 128.544 60.2955 128.299 55.1955H126.665C125.31 55.1955 124.463 55.2305 124.122 55.3005C124.122 57.0763 124.218 59.272 124.41 61.8877C124.629 64.8707 124.733 67.0664 124.733 68.4748C124.733 68.8422 124.602 69.0172 124.331 69.0172C123.964 69.0172 123.79 68.851 123.79 68.5098C123.763 67.3201 123.711 65.6755 123.624 63.576C123.536 61.4765 123.458 59.7007 123.388 58.2485C122.924 52.4749 122.697 46.9463 122.697 41.6538C122.697 41.4088 122.855 41.2864 123.169 41.2864C123.318 41.2864 123.431 41.3301 123.51 41.4176C123.597 41.5051 123.624 41.6188 123.597 41.7675V44.4619C123.597 45.118 123.659 46.3514 123.781 48.171L123.851 49.4132C123.903 50.7691 123.921 51.5826 123.921 51.8538V53.6384C123.921 54.2683 123.982 54.5832 124.104 54.5832L125.485 54.5132L126.21 54.4432C127.425 54.347 128.116 54.2945 128.282 54.2945L128.317 54.2245C128.317 53.1573 128.255 51.1103 128.133 48.0747C128.011 44.9955 127.949 42.931 127.949 41.89C127.949 41.6013 128.116 41.4526 128.456 41.4526C128.622 41.4526 128.771 41.4963 128.893 41.5838C129.016 41.6713 129.077 41.785 129.077 41.9337C129.077 46.6663 129.164 51.8713 129.33 57.5487C129.496 63.2523 129.584 66.7427 129.584 68.0287V68.5361C129.584 68.7285 129.54 68.9035 129.453 69.0434C129.365 69.1922 129.252 69.2621 129.103 69.2621C128.911 69.2621 128.78 69.2097 128.701 69.1134L128.736 69.1047Z" fill="#ADB4A4"/>
<path d="M134.521 52.1425V50.6904C134.521 48.6521 134.644 46.8851 134.889 45.3804C135.037 44.4356 135.229 43.6571 135.492 43.0535C135.745 42.4499 136.095 41.96 136.531 41.6013C136.942 41.1902 137.475 40.9802 138.131 40.9802C138.716 40.9802 139.249 41.0939 139.73 41.3214C140.211 41.5488 140.613 41.8463 140.927 42.2137C141.189 42.5548 141.434 43.001 141.653 43.5609C141.871 44.1207 142.037 44.6543 142.159 45.1617L142.448 46.8763C143.033 51.0228 143.322 54.6969 143.322 57.9074V58.0124C143.322 59.2283 143.296 60.3393 143.252 61.3628C143.199 62.5788 143.068 63.8472 142.85 65.1856C142.754 65.8417 142.614 66.4103 142.43 66.9002C142.247 67.3901 142.011 67.8712 141.723 68.3524C141.216 69.2272 140.499 69.6646 139.581 69.6646C136.208 69.6646 134.53 63.8297 134.53 52.16L134.521 52.1425ZM140.7 67.9587C141.015 67.5126 141.259 66.8827 141.425 66.0867C141.81 64.3896 142.055 62.7275 142.151 61.1004C142.194 59.7882 142.221 58.5198 142.221 57.2775V57.1288L142.186 53.4897C142.133 52.1775 141.993 50.4804 141.749 48.3984C141.556 46.92 141.154 45.4067 140.551 43.8495C140.307 43.2459 139.992 42.7735 139.59 42.4324C139.188 42.0912 138.76 41.925 138.297 41.925C137.886 41.925 137.519 42.1175 137.204 42.5111C136.89 42.9048 136.636 43.4471 136.444 44.147C136.007 45.7741 135.762 47.2787 135.719 48.6609C135.649 49.8506 135.614 51.0753 135.614 52.335V54.1196C135.614 55.7467 135.771 57.8112 136.086 60.3043C136.278 61.8789 136.523 63.2524 136.811 64.4158C137.1 65.5793 137.493 66.5678 137.973 67.3639C138.454 68.2124 139.013 68.6411 139.643 68.6411C140.027 68.6411 140.385 68.4136 140.7 67.9675V67.9587Z" fill="#ADB4A4"/>
<path d="M151.641 69.2097C151.161 68.9648 150.759 68.6499 150.444 68.265C150.129 67.8975 149.85 67.4514 149.605 66.9178C149.36 66.3842 149.168 65.8505 149.02 65.3169C148.775 64.4946 148.591 63.4624 148.478 62.2202L148.408 61.0917C148.408 60.8467 148.408 60.6893 148.39 60.6193C148.382 60.5493 148.373 60.4968 148.373 60.4706C148.25 59.2809 148.102 56.6653 147.918 52.6062C147.735 48.5472 147.647 45.398 147.647 43.141V42.5986C147.647 41.9688 147.831 41.6539 148.189 41.6539C148.696 41.6539 148.95 41.9425 148.95 42.5287V42.7823L148.915 43.071C148.915 45.8878 149.002 49.212 149.168 53.0611C149.334 56.9102 149.509 59.6833 149.675 61.3804C149.797 62.4476 149.998 63.5411 150.295 64.6521C150.488 65.4044 150.697 66.0342 150.933 66.5416C151.161 67.049 151.458 67.4776 151.825 67.8188C152.262 68.2037 152.681 68.4049 153.101 68.4049C153.52 68.4049 153.878 68.3087 154.211 68.1162C154.534 67.9238 154.787 67.6701 154.953 67.3552C155.119 67.0927 155.259 66.7428 155.373 66.3142C155.486 65.8855 155.548 65.4831 155.574 65.0982C155.6 64.8533 155.609 64.4509 155.609 63.8998V59.7533C155.609 57.9074 155.556 55.6417 155.46 52.9474L155.312 48.2848L155.242 45.188C155.172 43.8321 155.137 42.7998 155.137 42.0913C155.137 41.8288 155.207 41.6189 155.355 41.4702C155.504 41.3214 155.67 41.2515 155.862 41.2515C156.055 41.2515 156.221 41.3214 156.352 41.4702C156.483 41.6189 156.553 41.8201 156.553 42.0913V44.8556C156.553 46.0716 156.561 47.1563 156.588 48.1273V51.399C156.588 53.7522 156.614 55.8167 156.658 57.5838C156.684 59.3771 156.692 61.3891 156.692 63.6286C156.692 64.2322 156.666 64.7658 156.623 65.2294C156.57 65.6931 156.474 66.1742 156.334 66.6816C156.186 67.2677 155.985 67.7576 155.731 68.1512C155.478 68.5536 155.146 68.8861 154.735 69.1485C154.272 69.4109 153.765 69.5509 153.206 69.5509C152.646 69.5509 152.131 69.4284 151.641 69.1835V69.2097Z" fill="#ADB4A4"/>
<path d="M162.39 69.6295C162.163 69.5945 161.91 69.5158 161.648 69.3933C161.359 69.2446 161.141 69.0434 160.992 68.7722C160.992 68.4836 161.123 68.3348 161.394 68.3348C161.665 68.3348 161.997 68.4223 162.417 68.5885C162.801 68.781 163.133 68.8772 163.395 68.8772C163.929 68.8772 164.418 68.6585 164.864 68.2211C165.309 67.7837 165.659 67.2151 165.904 66.5065C166.384 65.1244 166.629 63.8997 166.629 62.8324C166.629 61.6427 166.463 60.4442 166.122 59.2283C165.781 58.0123 165.336 56.8751 164.776 55.8079C164.654 55.5454 164.444 55.143 164.156 54.6094C163.553 53.3934 163.09 52.4487 162.775 51.7663C162.46 51.084 162.181 50.3317 161.936 49.5094C161.595 48.4159 161.429 47.2437 161.429 45.9752C161.429 45.1704 161.56 44.4094 161.814 43.6658C162.067 42.9222 162.469 42.2924 163.028 41.7587C163.631 41.1989 164.313 40.9189 165.065 40.9189C165.353 40.9189 165.703 41.0327 166.122 41.2689C166.542 41.5051 166.743 41.7237 166.743 41.9424C166.743 42.1349 166.673 42.2311 166.524 42.2311C166.375 42.2311 166.183 42.1699 165.939 42.0474C165.72 41.925 165.51 41.8637 165.318 41.8637C164.759 41.8637 164.269 42.0737 163.85 42.4848C163.422 42.896 163.116 43.4033 162.924 44.0157C162.757 44.5231 162.67 45.0829 162.67 45.6865C162.67 46.6313 162.792 47.6111 163.037 48.6171C163.282 49.6231 163.605 50.5679 164.016 51.4339L165.292 54.0933L165.659 54.8543C166.166 55.8953 166.559 56.7614 166.839 57.435C167.118 58.1173 167.354 58.8784 167.547 59.7269C167.817 60.8641 167.949 61.9576 167.949 62.9986C167.949 64.407 167.581 65.8417 166.856 67.2938C166.489 67.9937 166.008 68.571 165.405 69.0084C164.802 69.4458 164.13 69.6645 163.404 69.6645C162.967 69.6645 162.635 69.647 162.408 69.612L162.39 69.6295Z" fill="#ADB4A4"/>
<path d="M173.148 68.9384C172.921 68.8335 172.807 68.6148 172.807 68.2998V67.6088C172.781 67.4163 172.772 67.1976 172.772 66.9527V66.8827L172.807 61.5727L172.772 46.5438C172.772 44.9955 172.746 43.6483 172.702 42.5023C172.702 42.2136 172.763 41.9687 172.886 41.7762C173.008 41.5838 173.165 41.4875 173.358 41.4875H175.612C175.953 41.4875 176.207 41.5138 176.373 41.5575C176.617 41.6275 176.74 41.8375 176.74 42.1786C176.74 42.3711 176.67 42.5285 176.521 42.651C176.373 42.7735 176.215 42.8435 176.049 42.8697H175.429L174.843 42.8347L174.258 42.7997C174.092 42.7997 173.969 42.8347 173.908 42.8872C173.847 42.9397 173.821 43.0622 173.821 43.2371C173.821 44.3744 173.83 45.4066 173.856 46.3339V53.9795C173.856 54.032 173.882 54.0495 173.926 54.0495H173.996C174.599 54.0058 175.254 53.9795 175.962 53.9795C176.346 53.9795 176.547 54.1458 176.547 54.4869C176.547 54.7319 176.504 54.8893 176.416 54.9768C176.329 55.0643 176.189 55.108 175.997 55.108H173.926C173.83 55.108 173.777 55.1693 173.777 55.2917L173.847 60.6804C173.899 62.3513 173.917 64.2846 173.917 66.4715V67.8187H177.334C177.771 67.8187 177.989 67.9762 177.989 68.2911C177.989 68.676 177.884 68.9122 177.666 68.9822C177.378 69.0784 176.783 69.1309 175.883 69.1309H174.354C173.768 69.1309 173.366 69.0784 173.139 68.9647L173.148 68.9384Z" fill="#ADB4A4"/>
<path d="M5.67171 77.9226C6.44075 77.9051 7.20106 77.8963 8.03127 77.9138C11.6493 77.9925 15.3285 77.9138 18.9639 77.9313C20.8778 77.94 22.7829 77.8613 24.6968 77.8876C25.5969 77.8963 26.4446 77.9488 27.336 77.9663C28.8916 77.9838 30.2287 77.9925 31.7406 77.9138C33.3748 77.8263 35.1226 77.8876 36.783 77.9138C37.8929 77.9313 39.0115 77.9313 40.1214 77.9313C41.8168 77.9313 43.5209 77.8788 45.2163 77.8963C47.1651 77.9226 49.044 77.9925 51.0103 77.9575C51.7444 77.94 52.4785 77.9138 53.2126 77.9226C54.2263 77.94 55.1789 78.0363 56.1839 78.0538C56.8743 78.0713 57.5734 78.0538 58.2638 78.0363C59.5223 78.0188 60.7807 78.0188 62.0304 78.0363C62.8431 78.0538 63.6559 78.08 64.3812 78.1587C65.1066 78.2375 65.7358 78.3774 65.9193 78.5524C66.3038 78.9111 65.4474 79.3222 63.6908 79.4272C63.2102 79.4534 62.6946 79.4359 62.1964 79.4447C61.4973 79.4534 60.8244 79.5059 60.1253 79.5234C59.0067 79.5497 57.8881 79.4884 56.7869 79.4447C55.5285 79.3922 54.4448 79.4534 53.2301 79.4534C51.8318 79.4534 50.3986 79.4097 49.0003 79.3922C48.039 79.3747 47.069 79.366 46.099 79.3747C45.2338 79.3747 44.491 79.4359 43.652 79.4622C41.8692 79.5234 40.0602 79.4622 38.2687 79.4359C35.4809 79.3835 32.6232 79.3834 29.8267 79.3834C29.0314 79.3834 28.2362 79.3747 27.4584 79.4097C26.6456 79.4447 25.8416 79.4884 25.0114 79.5147C23.8229 79.5409 22.5295 79.4622 21.3235 79.4534C19.934 79.4359 18.5445 79.4359 17.1549 79.4447C16.0101 79.4447 14.874 79.4622 13.7292 79.4709C12.7679 79.4797 11.5881 79.5409 10.6967 79.4709C10.3122 79.4447 9.83154 79.4447 9.42954 79.4447C8.48571 79.4359 7.54188 79.4359 6.59806 79.4447C5.05997 79.4622 3.41701 79.4097 1.99253 79.2785C0.812748 79.1648 -0.244687 78.8761 0.0611826 78.5786C0.270922 78.3687 0.804009 78.1675 1.7391 78.08C1.98379 78.0538 2.23723 78.045 2.49066 78.0275C3.57432 77.9663 4.59679 77.9663 5.68045 77.94L5.67171 77.9226Z" fill="#ADB4A4"/>
<path d="M5.54876 30.5615C6.30032 30.544 7.05189 30.5352 7.85589 30.5527C11.3952 30.6314 14.987 30.5527 18.5439 30.5702C20.414 30.579 22.2755 30.5002 24.1544 30.5265C25.0283 30.5352 25.8585 30.5877 26.7324 30.6052C28.253 30.6227 29.5552 30.6314 31.0408 30.5527C32.6401 30.4652 34.353 30.5265 35.9697 30.5527C37.0533 30.5702 38.1457 30.5702 39.2294 30.5702C40.8898 30.5702 42.559 30.5177 44.2107 30.5352C46.1158 30.5615 47.951 30.6314 49.8737 30.5965C50.5903 30.579 51.3069 30.5527 52.0235 30.5615C53.011 30.579 53.9461 30.6752 54.9336 30.6927C55.6153 30.7102 56.2969 30.6927 56.9698 30.6752C58.1933 30.6577 59.4343 30.6577 60.6578 30.6752C61.4443 30.6927 62.2483 30.7189 62.9561 30.7977C63.664 30.8764 64.2758 31.0164 64.4593 31.1913C64.8351 31.55 63.9961 31.9611 62.2745 32.0661C61.8026 32.0923 61.2957 32.0748 60.8063 32.0836C60.1247 32.0923 59.4605 32.1448 58.7788 32.1623C57.6865 32.1886 56.5941 32.1273 55.5104 32.0836C54.2869 32.0311 53.2207 32.0923 52.0322 32.0923C50.6689 32.0923 49.2619 32.0486 47.8986 32.0311C46.9548 32.0136 46.011 32.0049 45.0584 32.0136C44.2107 32.0136 43.4941 32.0749 42.6639 32.1011C40.916 32.1623 39.1507 32.1011 37.4029 32.0748C34.6763 32.0224 31.8885 32.0224 29.1532 32.0224C28.3754 32.0224 27.5976 32.0136 26.8373 32.0486C26.042 32.0836 25.2555 32.1273 24.4515 32.1536C23.2892 32.1798 22.022 32.1011 20.8422 32.0923C19.4877 32.0749 18.1244 32.0748 16.7611 32.0836C15.6425 32.0836 14.5326 32.1011 13.414 32.1098C12.4789 32.1186 11.3253 32.1798 10.4514 32.1098C10.0756 32.0836 9.61246 32.0836 9.21045 32.0836C8.28411 32.0748 7.3665 32.0748 6.44015 32.0836C4.93702 32.1011 3.32902 32.0486 1.93949 31.9174C0.785928 31.8037 -0.24529 31.515 0.0431014 31.2176C0.252841 31.0076 0.76845 30.8064 1.68606 30.7189C1.92202 30.6927 2.17545 30.6839 2.42889 30.6664C3.48632 30.6052 4.49132 30.6052 5.54002 30.579L5.54876 30.5615Z" fill="#ADB4A4"/>
<path d="M125.537 30.5615C126.227 30.544 126.918 30.5352 127.669 30.5527C130.938 30.6314 134.25 30.5527 137.536 30.5702C139.266 30.579 140.988 30.5002 142.71 30.5265C143.522 30.5352 144.283 30.5877 145.095 30.6052C146.494 30.6227 147.708 30.6314 149.072 30.5527C150.549 30.4652 152.13 30.5265 153.616 30.5527C154.621 30.5702 155.626 30.5702 156.631 30.5702C158.16 30.5702 159.698 30.5177 161.228 30.5352C162.993 30.5615 164.68 30.6314 166.454 30.5965C167.118 30.579 167.773 30.5527 168.438 30.5615C169.346 30.579 170.212 30.6752 171.12 30.6927C171.75 30.7102 172.379 30.6927 172.999 30.6752C174.135 30.6577 175.272 30.6577 176.399 30.6752C177.133 30.6927 177.867 30.7189 178.522 30.7977C179.178 30.8764 179.746 31.0164 179.912 31.1913C180.262 31.55 179.484 31.9611 177.902 32.0661C177.465 32.0923 177.002 32.0748 176.547 32.0836C175.918 32.0923 175.306 32.1448 174.677 32.1623C173.664 32.1886 172.659 32.1273 171.662 32.0836C170.526 32.0311 169.547 32.0923 168.455 32.0923C167.197 32.0923 165.894 32.0486 164.636 32.0311C163.762 32.0136 162.888 32.0049 162.014 32.0136C161.228 32.0136 160.564 32.0749 159.803 32.1011C158.187 32.1623 156.561 32.1011 154.944 32.0748C152.427 32.0224 149.849 32.0224 147.324 32.0224C146.607 32.0224 145.891 32.0136 145.183 32.0486C144.449 32.0836 143.723 32.1273 142.98 32.1536C141.906 32.1798 140.743 32.1011 139.651 32.0923C138.401 32.0749 137.143 32.0748 135.884 32.0836C134.853 32.0836 133.822 32.1011 132.791 32.1098C131.925 32.1186 130.859 32.1798 130.055 32.1098C129.706 32.0836 129.277 32.0836 128.91 32.0836C128.063 32.0748 127.206 32.0748 126.35 32.0836C124.96 32.1011 123.483 32.0486 122.199 31.9174C121.133 31.8037 120.18 31.515 120.451 31.2176C120.643 31.0076 121.115 30.8064 121.963 30.7189C122.181 30.6927 122.417 30.6839 122.644 30.6664C123.623 30.6052 124.55 30.6052 125.52 30.579L125.537 30.5615Z" fill="#ADB4A4"/>
<path d="M125.537 77.9226C126.227 77.9051 126.918 77.8963 127.669 77.9138C130.938 77.9925 134.25 77.9138 137.536 77.9313C139.266 77.94 140.988 77.8613 142.71 77.8876C143.522 77.8963 144.283 77.9488 145.095 77.9663C146.494 77.9838 147.708 77.9925 149.072 77.9138C150.549 77.8263 152.13 77.8876 153.616 77.9138C154.621 77.9313 155.626 77.9313 156.631 77.9313C158.16 77.9313 159.698 77.8788 161.228 77.8963C162.993 77.9226 164.68 77.9925 166.454 77.9575C167.118 77.94 167.773 77.9138 168.438 77.9226C169.346 77.94 170.212 78.0363 171.12 78.0538C171.75 78.0713 172.379 78.0538 172.999 78.0363C174.135 78.0188 175.272 78.0188 176.399 78.0363C177.133 78.0538 177.867 78.08 178.522 78.1587C179.178 78.2375 179.746 78.3774 179.912 78.5524C180.262 78.9111 179.484 79.3222 177.902 79.4272C177.465 79.4534 177.002 79.4359 176.547 79.4447C175.918 79.4534 175.306 79.5059 174.677 79.5234C173.664 79.5497 172.659 79.4884 171.662 79.4447C170.526 79.3922 169.547 79.4534 168.455 79.4534C167.197 79.4534 165.894 79.4097 164.636 79.3922C163.762 79.3747 162.888 79.366 162.014 79.3747C161.228 79.3747 160.564 79.4359 159.803 79.4622C158.187 79.5234 156.561 79.4622 154.944 79.4359C152.427 79.3835 149.849 79.3834 147.324 79.3834C146.607 79.3834 145.891 79.3747 145.183 79.4097C144.449 79.4447 143.723 79.4884 142.98 79.5147C141.906 79.5409 140.743 79.4622 139.651 79.4534C138.401 79.4359 137.143 79.4359 135.884 79.4447C134.853 79.4447 133.822 79.4622 132.791 79.4709C131.925 79.4797 130.859 79.5409 130.055 79.4709C129.706 79.4447 129.277 79.4447 128.91 79.4447C128.063 79.4359 127.206 79.4359 126.35 79.4447C124.96 79.4622 123.483 79.4097 122.199 79.2785C121.133 79.1648 120.18 78.8761 120.451 78.5786C120.643 78.3687 121.115 78.1675 121.963 78.08C122.181 78.0538 122.417 78.045 122.644 78.0275C123.623 77.9663 124.55 77.9663 125.52 77.94L125.537 77.9226Z" fill="#ADB4A4"/>
</g>
<defs>
<clipPath id="clip0_460_8819">
<rect width="180" height="83" fill="white" transform="translate(0 9.03296)"/>
</clipPath>
</defs>
</svg>
