<svg width="147" height="35" viewBox="0 0 147 35" fill="none" xmlns="http://www.w3.org/2000/svg">
<path d="M26.148 15.172V26.5H23.14V15.108C23.14 13.8707 22.916 12.7613 22.468 11.78C22.02 10.7773 20.996 10.276 19.396 10.276C17.7107 10.276 16.0787 11.1293 14.5 12.836C14.6707 13.6253 14.756 14.404 14.756 15.172V26.5H11.716V15.108C11.716 13.8707 11.492 12.7613 11.044 11.78C10.6173 10.7773 9.604 10.276 8.004 10.276C6.468 10.276 4.92133 11.0227 3.364 12.516V26.5H0.324V10.02L3.236 9.156H3.364V11.908C4.34533 10.9267 5.29467 10.2227 6.212 9.796C7.12933 9.348 8.17467 9.124 9.348 9.124C11.908 9.124 13.572 10.1693 14.34 12.26C15.4067 11.1507 16.4307 10.3507 17.412 9.86C18.3933 9.36933 19.5027 9.124 20.74 9.124C24.3453 9.124 26.148 11.14 26.148 15.172ZM44.0343 25.732V25.924C43.1809 26.4573 42.2956 26.724 41.3783 26.724C39.8209 26.724 38.9783 25.9347 38.8503 24.356C37.0796 25.9987 35.1063 26.82 32.9303 26.82C31.5863 26.82 30.4983 26.4573 29.6663 25.732C28.8556 25.0067 28.4503 24.0573 28.4503 22.884C28.4503 21.4333 29.0903 20.2493 30.3703 19.332C31.6503 18.3933 33.4209 17.8067 35.6823 17.572L37.6023 17.38L38.8183 17.284V15.46C38.8183 13.6893 38.4983 12.3667 37.8583 11.492C37.2183 10.6173 36.1729 10.18 34.7223 10.18C33.0583 10.18 31.4583 10.82 29.9223 12.1L29.6343 11.748C30.6156 10.8307 31.5863 10.1693 32.5463 9.764C33.5276 9.33733 34.6476 9.124 35.9062 9.124C39.8743 9.124 41.8583 11.14 41.8583 15.172V23.364C41.8583 24.3453 41.9436 24.996 42.1143 25.316C42.2849 25.636 42.7223 25.796 43.4263 25.796C43.4903 25.796 43.6929 25.7747 44.0343 25.732ZM38.8183 23.748V17.764C36.3223 18.0413 34.4663 18.532 33.2503 19.236C32.0556 19.9187 31.4583 20.964 31.4583 22.372C31.4583 23.4173 31.7463 24.228 32.3223 24.804C32.8983 25.38 33.6556 25.668 34.5943 25.668C36.0876 25.668 37.4956 25.028 38.8183 23.748ZM60.6973 28.068C60.6973 29.796 59.8226 31.2467 58.0733 32.42C56.3239 33.5933 54.2013 34.18 51.7053 34.18C49.6146 34.18 47.8759 33.7533 46.4893 32.9C45.1239 32.0467 44.4413 30.9373 44.4413 29.572C44.4413 28.8467 44.6119 28.132 44.9533 27.428L46.7453 26.916H46.8733C46.5319 27.812 46.3613 28.612 46.3613 29.316C46.3613 30.66 46.8306 31.716 47.7693 32.484C48.7293 33.2733 50.0413 33.668 51.7053 33.668C53.8173 33.668 55.5133 33.2627 56.7933 32.452C58.0733 31.6627 58.7133 30.6067 58.7133 29.284C58.7133 27.5347 57.3159 26.5747 54.5213 26.404L49.4973 26.084C47.0013 25.956 45.7533 25.0813 45.7533 23.46C45.7533 22.3933 46.5106 21.412 48.0253 20.516L48.6653 20.132C46.5106 19.0653 45.4333 17.3693 45.4333 15.044C45.4333 13.3373 46.0839 11.9293 47.3853 10.82C48.7079 9.68933 50.3399 9.124 52.2812 9.124C54.0306 9.124 55.4919 9.55067 56.6653 10.404C57.7533 8.868 59.1826 8.1 60.9533 8.1L60.6653 10.66C59.8973 10.4253 59.2786 10.308 58.8093 10.308C58.0626 10.308 57.4866 10.4467 57.0813 10.724C58.3826 11.7907 59.0333 13.22 59.0333 15.012C59.0333 16.7187 58.3719 18.1267 57.0493 19.236C55.7479 20.3453 54.1266 20.9 52.1853 20.9C51.1613 20.9 50.1693 20.7187 49.2093 20.356L48.5052 20.836C47.8866 21.2627 47.5773 21.7427 47.5773 22.276C47.5773 23.0227 48.3239 23.4387 49.8173 23.524L55.0973 23.844C58.8306 24.0787 60.6973 25.4867 60.6973 28.068ZM48.3133 15.012C48.3133 16.612 48.6653 17.9133 49.3693 18.916C50.0946 19.8973 51.0546 20.388 52.2493 20.388C53.4653 20.388 54.4146 19.908 55.0973 18.948C55.8013 17.9667 56.1533 16.6653 56.1533 15.044C56.1533 13.4227 55.7906 12.1213 55.0653 11.14C54.3613 10.1373 53.4119 9.636 52.2173 9.636C51.0226 9.636 50.0733 10.1267 49.3693 11.108C48.6653 12.0893 48.3133 13.3907 48.3133 15.012ZM77.7628 15.172V26.5H74.7228V15.108C74.7228 13.8707 74.4988 12.7613 74.0508 11.78C73.6028 10.7773 72.5788 10.276 70.9788 10.276C69.2721 10.276 67.6401 11.0333 66.0828 12.548V26.5H63.0428V10.02L65.9548 9.156H66.0828V11.908C68.0454 10.052 70.1148 9.124 72.2908 9.124C75.9388 9.124 77.7628 11.14 77.7628 15.172ZM80.46 18.116C80.46 15.4493 81.2813 13.284 82.924 11.62C84.588 9.956 86.6787 9.124 89.196 9.124C91.6707 9.124 93.6973 9.93467 95.276 11.556C96.8547 13.156 97.644 15.2787 97.644 17.924C97.644 20.5693 96.812 22.724 95.148 24.388C93.5053 26.052 91.4253 26.884 88.908 26.884C86.4333 26.884 84.4067 26.084 82.828 24.484C81.2493 22.884 80.46 20.7613 80.46 18.116ZM94.38 18.116C94.38 15.5773 93.8787 13.5187 92.876 11.94C91.8733 10.3613 90.5827 9.572 89.004 9.572C87.404 9.572 86.124 10.34 85.164 11.876C84.204 13.412 83.724 15.428 83.724 17.924C83.724 20.4627 84.2253 22.5213 85.228 24.1C86.2307 25.6573 87.5213 26.436 89.1 26.436C90.7 26.436 91.98 25.6787 92.94 24.164C93.9 22.6493 94.38 20.6333 94.38 18.116ZM100.514 26.5V1.54L103.426 0.579998H103.554V26.5H100.514ZM108.893 6.468L106.717 4.292L108.893 2.116L111.069 4.292L108.893 6.468ZM107.389 26.5V10.02L110.269 9.156H110.397V26.5H107.389ZM128.472 25.732V25.924C127.618 26.4573 126.733 26.724 125.816 26.724C124.258 26.724 123.416 25.9347 123.288 24.356C121.517 25.9987 119.544 26.82 117.368 26.82C116.024 26.82 114.936 26.4573 114.104 25.732C113.293 25.0067 112.888 24.0573 112.888 22.884C112.888 21.4333 113.528 20.2493 114.808 19.332C116.088 18.3933 117.858 17.8067 120.12 17.572L122.04 17.38L123.256 17.284V15.46C123.256 13.6893 122.936 12.3667 122.296 11.492C121.656 10.6173 120.61 10.18 119.16 10.18C117.496 10.18 115.896 10.82 114.36 12.1L114.072 11.748C115.053 10.8307 116.024 10.1693 116.984 9.764C117.965 9.33733 119.085 9.124 120.344 9.124C124.312 9.124 126.296 11.14 126.296 15.172V23.364C126.296 24.3453 126.381 24.996 126.552 25.316C126.722 25.636 127.16 25.796 127.864 25.796C127.928 25.796 128.13 25.7747 128.472 25.732ZM123.256 23.748V17.764C120.76 18.0413 118.904 18.532 117.688 19.236C116.493 19.9187 115.896 20.964 115.896 22.372C115.896 23.4173 116.184 24.228 116.76 24.804C117.336 25.38 118.093 25.668 119.032 25.668C120.525 25.668 121.933 25.028 123.256 23.748ZM129.127 11.268L128.967 11.044C130.225 10.276 130.855 9.316 130.855 8.164C130.855 6.948 130.087 5.86 128.551 4.9L130.215 2.82C131.068 3.16133 131.74 3.66267 132.231 4.324C132.721 4.964 132.967 5.68933 132.967 6.5C132.967 7.43867 132.615 8.33467 131.911 9.188C131.207 10.02 130.279 10.7133 129.127 11.268ZM133.549 25.348L134.029 23.716C135.586 25.5293 137.549 26.436 139.917 26.436C141.175 26.436 142.178 26.1373 142.925 25.54C143.693 24.9213 144.077 24.132 144.077 23.172C144.013 22.2547 143.693 21.5613 143.117 21.092C142.562 20.6227 141.559 20.0787 140.109 19.46L138.797 18.916C138.007 18.596 137.175 18.2013 136.301 17.732C134.679 16.7507 133.868 15.4387 133.868 13.796C133.868 12.4307 134.413 11.3107 135.501 10.436C136.61 9.56133 138.05 9.124 139.821 9.124C141.954 9.124 143.799 9.572 145.357 10.468L144.909 11.972C143.309 10.372 141.517 9.572 139.533 9.572C138.423 9.572 137.538 9.84933 136.877 10.404C136.237 10.9373 135.917 11.6307 135.917 12.484C135.917 13.1027 136.109 13.636 136.493 14.084C136.855 14.4893 137.239 14.8093 137.645 15.044C138.071 15.2787 138.829 15.62 139.917 16.068L141.197 16.612C142.114 16.9747 142.925 17.3587 143.629 17.764C145.293 18.7453 146.125 20.1 146.125 21.828C146.125 23.3213 145.538 24.5373 144.365 25.476C143.191 26.4147 141.602 26.884 139.597 26.884C138.509 26.884 137.399 26.7453 136.269 26.468C135.159 26.1907 134.253 25.8173 133.549 25.348Z" fill="#465039"/>
</svg>
