<svg width="180" height="101" viewBox="0 0 180 101" fill="none" xmlns="http://www.w3.org/2000/svg">
<g clip-path="url(#clip0_460_8943)">
<path d="M94.0697 32.573C94.0997 33.153 94.1197 33.733 94.1197 34.363C94.1197 37.103 94.2497 39.883 94.2997 42.643C94.3297 44.093 94.4297 45.533 94.4397 46.983C94.4397 47.663 94.4097 48.303 94.4197 48.983C94.4297 50.163 94.4497 51.173 94.5397 52.313C94.6397 53.553 94.6197 54.873 94.6297 56.133C94.6297 56.973 94.6497 57.823 94.6797 58.663C94.7097 59.943 94.7897 61.243 94.7997 62.523C94.8097 64.003 94.7797 65.423 94.8497 66.913C94.8797 67.463 94.9097 68.023 94.9197 68.583C94.9197 69.343 94.8597 70.073 94.8597 70.833C94.8597 71.363 94.8897 71.883 94.9097 72.413C94.9497 73.363 94.9697 74.323 94.9697 75.273C94.9697 75.883 94.9597 76.503 94.8997 77.053C94.8397 77.603 94.7397 78.083 94.5897 78.223C94.2897 78.523 93.9197 77.883 93.7997 76.553C93.7697 76.183 93.7697 75.793 93.7597 75.423C93.7397 74.893 93.6797 74.383 93.6597 73.853C93.6197 73.003 93.6597 72.163 93.6697 71.323C93.6897 70.373 93.6197 69.553 93.5997 68.633C93.5697 67.573 93.5897 66.483 93.5797 65.423C93.5797 64.693 93.5697 63.963 93.5497 63.223C93.5297 62.563 93.4697 62.013 93.4297 61.373C93.3497 60.023 93.3597 58.653 93.3497 57.303C93.3497 55.193 93.2897 53.033 93.2497 50.913C93.2397 50.313 93.2297 49.703 93.1897 49.123C93.1397 48.503 93.0897 47.903 93.0597 47.273C93.0097 46.373 93.0597 45.393 93.0497 44.473C93.0397 43.423 93.0197 42.363 92.9897 41.313C92.9697 40.453 92.9397 39.583 92.8997 38.723C92.8697 37.993 92.7997 37.103 92.8497 36.423C92.8697 36.133 92.8497 35.773 92.8497 35.463C92.8497 34.753 92.8297 34.033 92.7997 33.323C92.7597 32.163 92.7697 30.913 92.8597 29.833C92.9297 28.933 93.1697 28.133 93.4297 28.353C93.6097 28.513 93.7997 28.903 93.8897 29.613C93.9097 29.793 93.9297 29.993 93.9497 30.183C94.0197 31.003 94.0397 31.773 94.0797 32.593L94.0697 32.573Z" fill="#ADB4A4"/>
<path d="M94.3603 56.093C94.4103 55.653 94.5003 55.213 94.6103 54.753C95.1403 52.723 95.7603 50.693 96.6403 48.783C97.1003 47.783 97.5403 46.773 98.1003 45.823C98.3703 45.383 98.6503 44.983 98.9303 44.553C99.4103 43.803 99.8403 43.163 100.28 42.413C100.75 41.593 101.4 40.833 102 40.093L103.22 38.623C103.84 37.873 104.46 37.1229 105.12 36.4229C105.89 35.6229 106.68 34.8929 107.44 34.0829C107.72 33.7729 108 33.473 108.31 33.183C108.73 32.793 109.17 32.473 109.6 32.093C109.89 31.833 110.17 31.5429 110.45 31.2629C110.95 30.7629 111.48 30.273 112.01 29.803C112.36 29.503 112.71 29.203 113.06 28.973C113.41 28.743 113.75 28.593 113.93 28.623C114.3 28.703 114.18 29.293 113.52 30.033C113.34 30.233 113.12 30.423 112.91 30.623C112.63 30.893 112.38 31.193 112.1 31.473C111.66 31.923 111.16 32.313 110.69 32.713C110.15 33.173 109.75 33.633 109.26 34.113C108.69 34.653 108.11 35.2129 107.55 35.7629C107.16 36.143 106.78 36.523 106.41 36.933C106.08 37.293 105.84 37.6329 105.54 37.9929C104.91 38.7729 104.21 39.5029 103.57 40.2629C102.55 41.443 101.59 42.723 100.73 44.023C100.48 44.393 100.24 44.763 100.04 45.143C99.8303 45.543 99.6303 45.943 99.4203 46.353C99.1203 46.943 98.7203 47.5329 98.4103 48.1329C98.0503 48.813 97.7303 49.523 97.4403 50.233C97.2003 50.823 96.9803 51.413 96.7903 52.013C96.6203 52.513 96.4803 53.153 96.2903 53.613C96.2003 53.813 96.1503 54.063 96.0903 54.283C95.9503 54.783 95.8403 55.2929 95.7503 55.813C95.6003 56.643 95.4403 57.5329 95.2603 58.313C95.1203 58.9529 94.8403 59.533 94.5903 59.363C94.4203 59.233 94.2603 58.923 94.2203 58.3829C94.2103 58.243 94.2203 58.093 94.2203 57.943C94.2203 57.313 94.3103 56.723 94.3903 56.103L94.3603 56.093Z" fill="#ADB4A4"/>
<path d="M113.9 32.7829C113.83 33.2229 113.74 33.6529 113.63 34.1229C113.13 36.1529 112.7 38.2429 112.09 40.2729C111.77 41.3429 111.49 42.4129 111.09 43.4629C110.89 43.9529 110.68 44.4029 110.47 44.8829C110.11 45.7129 109.79 46.4329 109.46 47.2529C109.11 48.1529 108.56 49.0329 108.05 49.8529C107.69 50.4029 107.35 50.9529 106.96 51.4929C106.4 52.3229 105.79 53.1229 105.13 53.8729C104.34 54.7129 103.53 55.4729 102.66 56.2429C102.35 56.5429 102.01 56.8229 101.67 57.0829C101.19 57.4429 100.67 57.6929 100.16 58.0029C99.8001 58.2029 99.4701 58.4529 99.1101 58.6529C98.4701 59.0329 97.7901 59.3529 97.0901 59.6229C96.6301 59.7729 96.1801 59.9429 95.7401 59.9929C95.3101 60.0529 94.9201 60.0429 94.7801 59.9329C94.4901 59.6929 94.8801 59.2229 95.7701 58.8429C96.0101 58.7229 96.2801 58.6329 96.5401 58.5329C96.9001 58.3829 97.2101 58.1729 97.5601 58.0029C98.1001 57.7029 98.6801 57.4729 99.2101 57.1629C99.8301 56.8429 100.3 56.4329 100.84 56.0329C101.46 55.5529 102.09 55.0629 102.67 54.5329C103.07 54.1729 103.46 53.7929 103.82 53.3829C104.16 53.0329 104.37 52.6629 104.67 52.2929C105.26 51.4829 105.9 50.7029 106.47 49.8629C107.36 48.5729 108.12 47.1429 108.77 45.7029C108.96 45.2929 109.14 44.8829 109.28 44.4629C109.42 44.0229 109.56 43.5929 109.7 43.1429C109.91 42.5029 110.21 41.8329 110.43 41.1829C110.69 40.4329 110.91 39.6729 111.12 38.9129C111.29 38.2829 111.45 37.6529 111.59 37.0129C111.71 36.4829 111.82 35.8129 111.99 35.3229C112.07 35.1129 112.12 34.8429 112.17 34.6229C112.3 34.1029 112.41 33.5729 112.51 33.0329C112.68 32.1729 112.9 31.2529 113.18 30.4729C113.4 29.8229 113.77 29.2729 113.99 29.4929C114.14 29.6429 114.26 29.9829 114.22 30.5229C114.21 30.6629 114.19 30.8129 114.18 30.9629C114.11 31.5829 113.99 32.1629 113.89 32.7829H113.9Z" fill="#ADB4A4"/>
<path d="M91.8198 56.5528C91.5998 56.1928 91.3898 55.8228 91.1798 55.4228C90.1998 53.6828 89.0298 52.0228 87.7498 50.4728C87.1198 49.6228 86.3198 48.9228 85.6498 48.1128C85.3198 47.7528 84.9998 47.4028 84.6698 47.0328C84.0898 46.4028 83.5198 45.9228 82.8598 45.4128C82.1598 44.8428 81.3998 44.2528 80.7098 43.6528C80.2298 43.2728 79.7198 42.9228 79.2198 42.5628C78.4698 42.0028 77.6198 41.5828 76.8498 41.0528C75.9198 40.5228 75.0698 39.9028 74.0698 39.4928C73.6998 39.3328 73.3298 39.1728 72.9698 38.9828C72.4698 38.7328 72.0098 38.4728 71.5098 38.2328C71.1598 38.0828 70.8098 37.9228 70.4398 37.8128C69.7798 37.6028 69.1198 37.3628 68.4798 37.1228C68.0598 36.9828 67.6298 36.8328 67.2598 36.6628C66.8898 36.4828 66.5898 36.2728 66.5198 36.1028C66.3898 35.7428 66.9398 35.5328 67.9298 35.7228C68.1998 35.7728 68.4798 35.8728 68.7598 35.9428C69.1398 36.0528 69.5198 36.1528 69.8998 36.2628C70.5098 36.4628 71.0998 36.6928 71.6598 36.9928C72.2998 37.3128 72.8998 37.4828 73.5298 37.7728C74.2398 38.1228 74.9698 38.4928 75.6598 38.8928C76.1298 39.1728 76.6098 39.4528 77.0898 39.7128C77.5298 39.9428 77.8998 40.1428 78.3198 40.3728C79.2198 40.8628 80.0398 41.4828 80.8398 42.1028C82.0998 43.0728 83.3498 44.1128 84.5198 45.1828C84.8498 45.4928 85.1798 45.7928 85.5098 46.1028C85.8598 46.4028 86.2098 46.7028 86.5598 47.0228C87.0398 47.5028 87.4798 48.1028 87.9298 48.6228C88.4498 49.2228 88.9198 49.8628 89.4198 50.4728C89.8298 50.9728 90.1898 51.5128 90.5898 52.0328C90.9298 52.4628 91.3298 53.0028 91.5498 53.4728C91.6498 53.6728 91.7898 53.9028 91.9098 54.0928C92.1998 54.5428 92.4598 55.0228 92.7198 55.4828C92.9398 55.8628 93.1498 56.2628 93.3398 56.6628C93.5198 57.0728 93.6598 57.4828 93.7898 57.8728C93.9898 58.5228 94.0198 59.1628 93.7098 59.1028C93.4998 59.0628 93.2098 58.8728 92.9198 58.4428C92.8498 58.3228 92.7798 58.2028 92.6998 58.0828C92.4098 57.5628 92.1498 57.0628 91.8298 56.5528H91.8198Z" fill="#ADB4A4"/>
<path d="M70.2194 37.9929C70.5094 38.4029 70.7594 38.8429 70.9794 39.3329C71.9594 41.4729 72.6294 43.7029 73.2794 45.8729C73.6194 47.0129 74.0494 48.0929 74.4694 49.1929C74.6594 49.7029 74.8294 50.2029 75.0494 50.7029C75.4394 51.5729 75.8094 52.3029 76.3294 53.0629C76.8994 53.8829 77.4594 54.7729 78.0694 55.5529C78.4794 56.0829 78.9394 56.5729 79.4194 57.0329C80.1594 57.7329 80.9894 58.3329 81.8294 58.8629C82.7994 59.4729 83.8194 59.9829 84.9494 60.2729C85.3694 60.3829 85.7994 60.4429 86.2294 60.5329C86.8194 60.6429 87.3694 60.7729 87.9694 60.8129C88.3794 60.8129 88.7994 60.8129 89.1994 60.7329C89.9394 60.6529 90.6594 60.4729 91.3594 60.2629C91.5894 60.1829 91.8094 60.1129 92.0294 60.0329C92.2394 59.9429 92.4594 59.8629 92.6694 59.7929C93.0794 59.6429 93.4494 59.5229 93.6394 59.5929C93.8294 59.6529 93.8694 59.8229 93.7294 60.0729C93.5994 60.3229 93.2894 60.6629 92.7794 60.9529C92.5094 61.1329 92.1794 61.2329 91.8694 61.3629C91.4394 61.5429 91.0094 61.6929 90.5594 61.8129C89.8294 61.9829 89.0794 62.0329 88.3494 61.9929C87.5194 61.9729 86.8094 61.9429 86.0194 61.8329C85.1094 61.6729 84.2094 61.3829 83.3694 61.0529C82.7894 60.8129 82.2194 60.5329 81.6594 60.2429C81.1694 59.9629 80.7294 59.7629 80.2594 59.4529C79.2794 58.8129 78.4294 57.9829 77.6694 57.1029C76.4794 55.7429 75.4594 54.2029 74.6294 52.6229C74.3894 52.1729 74.1794 51.7129 73.9394 51.2829C73.6994 50.8229 73.4494 50.3729 73.2394 49.8829C72.9294 49.1929 72.7094 48.3929 72.4794 47.6629L71.7094 45.1529C71.4994 44.4729 71.2794 43.7929 71.0594 43.1329C70.8594 42.5729 70.5794 41.9129 70.4294 41.3829C70.3694 41.1529 70.2594 40.8829 70.1594 40.6629C69.9394 40.1329 69.6894 39.6229 69.3994 39.1429C68.9394 38.3529 68.3994 37.5529 67.8894 36.8729C67.4794 36.3029 67.0994 35.7329 67.4094 35.6329C67.6094 35.5829 68.0094 35.6329 68.4994 36.0329C68.6194 36.1329 68.7594 36.2429 68.8894 36.3529C69.3994 36.8529 69.8294 37.3929 70.2194 37.9829V37.9929Z" fill="#ADB4A4"/>
<path d="M88.2401 8.42288C88.3501 8.67288 88.4401 8.92288 88.5201 9.19288C88.8701 10.4029 89.3501 11.5929 89.7301 12.8029C89.9301 13.4429 90.2101 14.0429 90.3901 14.6929C90.4701 14.9929 90.5401 15.2829 90.6101 15.5929C90.7601 16.1129 90.9001 16.5629 91.1201 17.0429C91.3601 17.5629 91.5001 18.1629 91.6501 18.7129C91.7501 19.0829 91.8701 19.4629 91.9801 19.8229C92.1601 20.3829 92.3701 20.9429 92.5301 21.5129C92.7101 22.1729 92.8301 22.8129 93.0601 23.4629C93.1501 23.7029 93.2401 23.9429 93.3001 24.1929C93.3901 24.5329 93.4001 24.8729 93.4801 25.2229C93.5301 25.4629 93.6201 25.6829 93.7001 25.9129C93.8401 26.3329 93.9601 26.7529 94.0501 27.1829C94.1101 27.4629 94.1701 27.7429 94.1701 28.0029C94.1701 28.2629 94.1201 28.5029 93.9901 28.6129C93.7301 28.8229 93.3101 28.6329 93.0601 28.0729C92.9901 27.9129 92.9601 27.7429 92.9001 27.5729C92.8301 27.3429 92.7201 27.1329 92.6401 26.9029C92.5101 26.5329 92.4601 26.1529 92.3901 25.7729C92.3101 25.3429 92.1501 24.9929 92.0301 24.5929C91.8901 24.1329 91.7901 23.6429 91.6601 23.1729C91.5801 22.8529 91.4901 22.5229 91.3901 22.2029C91.3001 21.9129 91.1801 21.6829 91.0701 21.4129C90.8401 20.8329 90.7001 20.2229 90.5401 19.6229C90.2901 18.6829 90.0001 17.7429 89.7001 16.8129C89.6201 16.5529 89.5401 16.2829 89.4301 16.0329C89.3101 15.7729 89.1901 15.5229 89.0901 15.2529C88.9401 14.8729 88.8601 14.4229 88.7401 14.0229C88.6001 13.5629 88.4501 13.1029 88.2901 12.6429L87.8901 11.5229C87.7801 11.2129 87.5901 10.8429 87.5501 10.5229C87.5301 10.3829 87.4701 10.2329 87.4301 10.1029C87.3301 9.79288 87.2301 9.48288 87.1101 9.17288C86.9201 8.67288 86.7801 8.12288 86.7201 7.61288C86.6701 7.19288 86.7901 6.76288 87.0601 6.77288C87.2501 6.77288 87.4801 6.89288 87.6601 7.18288C87.7101 7.25288 87.7501 7.33288 87.7901 7.41288C87.9601 7.75288 88.0801 8.09288 88.2301 8.43288L88.2401 8.42288Z" fill="#ADB4A4"/>
<path d="M95.75 7.44293C95.75 7.70293 95.75 7.97293 95.71 8.25293C95.57 9.49293 95.56 10.7529 95.47 12.0029C95.42 12.6629 95.45 13.3229 95.39 13.9729C95.36 14.2829 95.3 14.5729 95.27 14.8729C95.22 15.4029 95.19 15.8629 95.22 16.3829C95.26 16.9529 95.17 17.5429 95.12 18.1129C95.08 18.4929 95.06 18.8729 95.04 19.2629C95.01 19.8429 95.02 20.4329 94.96 21.0129C94.9 21.6829 94.8 22.3229 94.79 23.0029C94.79 23.2529 94.79 23.5129 94.77 23.7629C94.73 24.1129 94.63 24.4329 94.6 24.7729C94.57 25.0129 94.58 25.2529 94.57 25.4929C94.57 25.9229 94.53 26.3629 94.49 26.7829C94.46 27.0629 94.42 27.3429 94.33 27.5829C94.25 27.8229 94.12 28.0329 93.96 28.0929C93.64 28.2029 93.31 27.8929 93.26 27.2829C93.25 27.1129 93.26 26.9429 93.27 26.7629C93.27 26.5229 93.25 26.2929 93.25 26.0529C93.25 25.6629 93.33 25.2829 93.39 24.9129C93.46 24.4829 93.43 24.1029 93.45 23.6929C93.48 23.2129 93.54 22.7229 93.59 22.2429C93.62 21.9129 93.65 21.5829 93.67 21.2529C93.68 20.9529 93.65 20.7029 93.64 20.4029C93.63 19.7829 93.71 19.1729 93.77 18.5529C93.87 17.6029 93.93 16.6229 93.99 15.6529C94.01 15.3829 94.03 15.1029 94.02 14.8429C94.01 14.5629 93.98 14.2829 93.98 14.0029C93.98 13.5929 94.07 13.1529 94.11 12.7429C94.15 12.2629 94.18 11.7929 94.21 11.3129C94.23 10.9229 94.24 10.5329 94.26 10.1329C94.27 9.80293 94.24 9.39293 94.32 9.09293C94.35 8.96293 94.36 8.80293 94.37 8.66293C94.4 8.34293 94.42 8.01293 94.43 7.69293C94.45 7.16293 94.53 6.60293 94.67 6.12293C94.79 5.72293 95.06 5.37293 95.31 5.49293C95.48 5.57293 95.65 5.77293 95.7 6.09293C95.71 6.17293 95.72 6.26293 95.73 6.35293C95.76 6.72293 95.73 7.08293 95.74 7.45293L95.75 7.44293Z" fill="#ADB4A4"/>
<path d="M102.58 16.523C102.51 16.703 102.43 16.873 102.32 17.053C101.84 17.833 101.47 18.673 101 19.463C100.76 19.883 100.58 20.333 100.32 20.733C100.2 20.923 100.05 21.083 99.9303 21.273C99.7203 21.603 99.5403 21.883 99.4003 22.243C99.2503 22.633 98.9703 22.983 98.7403 23.323C98.5803 23.553 98.4303 23.783 98.2803 24.023C98.0603 24.383 97.8503 24.763 97.6003 25.113C97.3103 25.513 97.0003 25.863 96.7403 26.293C96.6503 26.453 96.5603 26.623 96.4503 26.763C96.2903 26.963 96.0903 27.113 95.9303 27.313C95.8203 27.443 95.7303 27.603 95.6403 27.743C95.4703 28.013 95.2803 28.263 95.0803 28.503C94.9503 28.653 94.8003 28.803 94.6403 28.913C94.4803 29.013 94.2903 29.073 94.1403 29.023C93.8403 28.913 93.6803 28.533 93.8703 28.133C93.9203 28.023 94.0103 27.933 94.0803 27.823C94.1803 27.683 94.2403 27.513 94.3303 27.373C94.4703 27.133 94.6803 26.943 94.8703 26.743C95.0803 26.513 95.2003 26.263 95.3703 26.013C95.5603 25.723 95.8003 25.453 96.0103 25.183C96.1503 24.993 96.3003 24.803 96.4303 24.593C96.5503 24.413 96.6003 24.233 96.7003 24.043C96.9003 23.643 97.1803 23.293 97.4403 22.933C97.8503 22.373 98.2203 21.773 98.5803 21.183C98.6803 21.013 98.7903 20.853 98.8603 20.663C98.9403 20.473 99.0003 20.283 99.0903 20.093C99.2203 19.823 99.4303 19.583 99.5903 19.323C99.7703 19.033 99.9403 18.733 100.1 18.423L100.48 17.663C100.59 17.453 100.68 17.173 100.83 17.003C100.9 16.933 100.95 16.823 101 16.733C101.12 16.533 101.23 16.323 101.32 16.113C101.48 15.773 101.7 15.423 101.96 15.163C102.18 14.943 102.52 14.823 102.71 14.993C102.85 15.123 102.95 15.313 102.91 15.563C102.9 15.623 102.88 15.693 102.86 15.753C102.79 16.023 102.67 16.253 102.57 16.503L102.58 16.523Z" fill="#ADB4A4"/>
<path d="M95.2797 30.983C95.5197 30.773 95.7697 30.563 96.0597 30.363C97.2897 29.453 98.4497 28.423 99.6197 27.423C100.24 26.903 100.79 26.313 101.41 25.793C101.7 25.553 101.98 25.323 102.28 25.093C102.78 24.663 103.19 24.283 103.61 23.793C104.07 23.273 104.62 22.793 105.14 22.323C105.48 22.003 105.82 21.673 106.15 21.343C106.66 20.843 107.12 20.283 107.64 19.793C108.22 19.213 108.82 18.683 109.35 18.053C109.55 17.813 109.74 17.573 109.96 17.353C110.26 17.053 110.58 16.803 110.88 16.493C111.08 16.283 111.27 16.053 111.45 15.823C111.78 15.413 112.14 15.013 112.5 14.623C112.73 14.373 112.97 14.123 113.22 13.933C113.47 13.743 113.73 13.613 113.9 13.653C114.24 13.723 114.28 14.233 113.86 14.863C113.74 15.033 113.59 15.193 113.46 15.363C113.28 15.603 113.11 15.833 112.93 16.073C112.63 16.443 112.28 16.773 111.94 17.103C111.55 17.473 111.28 17.853 110.93 18.243C110.53 18.683 110.09 19.113 109.66 19.533C109.37 19.823 109.07 20.113 108.8 20.423C108.55 20.693 108.36 20.953 108.13 21.233C107.64 21.813 107.06 22.333 106.5 22.843C105.63 23.653 104.74 24.483 103.87 25.303C103.62 25.533 103.37 25.763 103.14 26.003C102.9 26.263 102.68 26.523 102.43 26.773C102.07 27.133 101.61 27.443 101.22 27.783L99.8697 28.943L98.7697 29.903C98.4597 30.173 98.1097 30.533 97.7697 30.723C97.6297 30.803 97.4697 30.943 97.3297 31.043L96.3797 31.793C95.8797 32.213 95.2897 32.603 94.7397 32.883C94.2797 33.113 93.7697 33.183 93.7197 32.903C93.6797 32.703 93.7597 32.433 94.0297 32.133C94.0997 32.053 94.1797 31.983 94.2597 31.903C94.5897 31.583 94.9397 31.323 95.2797 31.023V30.983Z" fill="#ADB4A4"/>
<path d="M91.8697 31.153C91.6997 31.013 91.5397 30.873 91.3797 30.703C90.6997 29.933 89.9197 29.243 89.2397 28.463C88.8797 28.063 88.4797 27.693 88.1397 27.263C87.9897 27.063 87.8697 26.843 87.7197 26.643C87.4497 26.293 87.2297 25.993 86.9097 25.693C86.5597 25.373 86.3197 24.943 86.0497 24.553L85.5097 23.773C85.2297 23.383 84.9297 23.003 84.6797 22.593C84.3997 22.113 84.1597 21.633 83.8497 21.173C83.7297 21.003 83.5997 20.833 83.5097 20.653C83.3797 20.403 83.3197 20.123 83.1897 19.863C83.1097 19.683 82.9897 19.523 82.8897 19.353C82.7097 19.053 82.5397 18.733 82.3897 18.413C82.2997 18.203 82.2197 17.983 82.1897 17.773C82.1597 17.563 82.1897 17.353 82.2997 17.233C82.5297 17.003 82.9497 17.063 83.2497 17.453C83.3297 17.563 83.3797 17.693 83.4497 17.813C83.5397 17.983 83.6697 18.123 83.7797 18.283C83.9497 18.543 84.0397 18.843 84.1597 19.123C84.2997 19.443 84.4797 19.683 84.6597 19.973C84.8597 20.303 85.0297 20.663 85.2197 21.003C85.3497 21.233 85.4897 21.463 85.6297 21.693C85.7597 21.893 85.9197 22.033 86.0697 22.213C86.3797 22.593 86.6297 23.033 86.8897 23.443C87.2997 24.093 87.7697 24.723 88.2497 25.333C88.3797 25.503 88.5197 25.683 88.6797 25.833C88.8497 25.983 89.0197 26.133 89.1697 26.303C89.3997 26.533 89.5797 26.853 89.7897 27.113C90.0297 27.413 90.2897 27.693 90.5497 27.973C90.7597 28.203 90.9897 28.423 91.2097 28.643C91.3997 28.833 91.6597 29.023 91.7897 29.243C91.8497 29.333 91.9397 29.423 92.0197 29.513C92.1997 29.703 92.3797 29.883 92.5797 30.063C92.8897 30.343 93.1897 30.693 93.4097 31.033C93.5897 31.323 93.6397 31.713 93.4097 31.843C93.2497 31.933 93.0197 31.963 92.7697 31.843C92.7097 31.813 92.6397 31.773 92.5797 31.733C92.3197 31.563 92.1097 31.373 91.8697 31.173V31.153Z" fill="#ADB4A4"/>
<path d="M91.1202 34.1629C90.9202 34.0729 90.7202 33.9729 90.5202 33.8429C89.6502 33.2629 88.7002 32.7929 87.8202 32.2129C87.3502 31.9129 86.8602 31.6729 86.4102 31.3529C86.2002 31.2029 86.0202 31.0229 85.8102 30.8729C85.4502 30.6129 85.1402 30.3829 84.7402 30.1929C84.3102 29.9829 83.9302 29.6429 83.5602 29.3529C83.3102 29.1529 83.0502 28.9529 82.8002 28.7729C82.4002 28.4829 81.9902 28.2129 81.6202 27.9029C81.1902 27.5329 80.8102 27.1529 80.3502 26.8129C80.1802 26.6929 80.0002 26.5729 79.8402 26.4329C79.6302 26.2329 79.4702 25.9929 79.2602 25.7929C79.1202 25.6529 78.9502 25.5329 78.8002 25.4129C78.5202 25.1829 78.2502 24.9429 77.9902 24.6829C77.8302 24.5129 77.6702 24.3329 77.5602 24.1429C77.4502 23.9529 77.4002 23.7429 77.4602 23.6029C77.5902 23.3029 78.0102 23.2129 78.4402 23.4829C78.5602 23.5529 78.6602 23.6629 78.7602 23.7529C78.9102 23.8829 79.0902 23.9729 79.2402 24.0929C79.4902 24.2829 79.6902 24.5429 79.9002 24.7729C80.1402 25.0329 80.4102 25.2029 80.6702 25.4229C80.9802 25.6729 81.2602 25.9629 81.5602 26.2229C81.7702 26.4029 81.9702 26.5829 82.1902 26.7529C82.3802 26.9029 82.5802 26.9929 82.7802 27.1229C83.2102 27.3929 83.5902 27.7329 83.9802 28.0629C84.5902 28.5629 85.2402 29.0429 85.9002 29.4929C86.0802 29.6229 86.2702 29.7529 86.4702 29.8529C86.6802 29.9529 86.8902 30.0529 87.0902 30.1629C87.3802 30.3229 87.6602 30.5829 87.9402 30.7729C88.2602 31.0029 88.6002 31.2029 88.9302 31.4129C89.2102 31.5829 89.4902 31.7329 89.7702 31.8929C90.0102 32.0229 90.3202 32.1529 90.5102 32.3329C90.5902 32.4129 90.7102 32.4729 90.8102 32.5329C91.0402 32.6729 91.2702 32.8029 91.5102 32.9329C91.9002 33.1329 92.2802 33.3929 92.5802 33.6829C92.8302 33.9229 92.9802 34.2929 92.7802 34.4729C92.6402 34.6029 92.4302 34.6829 92.1602 34.6229C92.0902 34.6029 92.0202 34.5829 91.9502 34.5629C91.6502 34.4629 91.3902 34.3229 91.1102 34.1929L91.1202 34.1629Z" fill="#ADB4A4"/>
<path d="M114.809 8.7229C110.679 8.7229 110.679 15.1329 114.809 15.1329C118.939 15.1329 118.939 8.7229 114.809 8.7229Z" fill="#ADB4A4"/>
<path d="M103.9 9.91284C99.7702 9.91284 99.7702 16.3228 103.9 16.3228C108.03 16.3228 108.03 9.91284 103.9 9.91284Z" fill="#ADB4A4"/>
<path d="M95.7196 0.032959C91.5896 0.032959 91.5896 6.44296 95.7196 6.44296C99.8496 6.44296 99.8496 0.032959 95.7196 0.032959Z" fill="#ADB4A4"/>
<path d="M86.5194 1.73291C82.3894 1.73291 82.3894 8.14291 86.5194 8.14291C90.6494 8.14291 90.6494 1.73291 86.5194 1.73291Z" fill="#ADB4A4"/>
<path d="M82.2596 11.4529C78.1296 11.4529 78.1296 17.8629 82.2596 17.8629C86.3896 17.8629 86.3896 11.4529 82.2596 11.4529Z" fill="#ADB4A4"/>
<path d="M75.9502 18.783C74.2102 18.863 72.7402 20.193 72.7402 21.993V22.163C72.7402 23.843 74.2102 25.443 75.9502 25.373C77.6902 25.293 79.1602 23.963 79.1602 22.163V21.993C79.1602 20.313 77.6902 18.713 75.9502 18.783Z" fill="#ADB4A4"/>
<path d="M61.1002 56.673V57.583C59.8902 57.493 58.2802 57.443 56.2602 57.443C53.6602 57.443 51.7302 57.483 50.4702 57.583V56.673C51.6202 56.613 52.4402 56.473 52.9402 56.243C53.4402 56.013 53.6902 55.603 53.6902 54.993C53.6902 54.483 53.5102 53.773 53.1502 52.863L50.3902 45.443H39.4202L37.5602 50.243C36.9602 51.873 36.6502 53.113 36.6502 53.953C36.6502 54.893 36.9702 55.563 37.6202 55.993C38.2702 56.413 39.2602 56.643 40.5802 56.673V57.583C38.8602 57.493 37.1202 57.443 35.3802 57.443C34.0202 57.443 32.8902 57.483 31.9902 57.583V56.673C33.5002 56.313 34.6902 55.003 35.5702 52.733L46.2102 25.303H46.9302L57.9702 53.773C58.6902 55.643 59.7302 56.613 61.0902 56.673H61.1002ZM50.0102 44.543L44.9402 31.013L39.7802 44.543H50.0102Z" fill="#ADB4A4"/>
<path d="M146.841 44.523C148.261 45.983 148.971 47.743 148.971 49.793C148.971 51.513 148.531 53.033 147.661 54.363C146.781 55.693 145.531 56.723 143.901 57.463C142.271 58.203 140.341 58.573 138.111 58.573C137.301 58.573 136.601 58.563 136.031 58.533C134.101 58.473 132.201 58.443 130.331 58.443C127.861 58.443 125.991 58.483 124.721 58.583V57.673C125.811 57.613 126.601 57.493 127.101 57.313C127.601 57.133 127.941 56.783 128.121 56.273C128.301 55.763 128.391 54.933 128.391 53.783V31.333C128.391 30.183 128.301 29.353 128.121 28.843C127.941 28.333 127.601 27.983 127.101 27.803C126.601 27.623 125.811 27.503 124.721 27.443V26.543C125.991 26.633 127.831 26.683 130.241 26.683L135.131 26.633C135.701 26.603 136.351 26.583 137.081 26.583C140.161 26.583 142.521 27.233 144.161 28.533C145.801 29.833 146.631 31.553 146.631 33.693C146.631 35.443 146.081 37.013 144.981 38.403C143.881 39.793 142.141 40.843 139.751 41.573V41.663C143.071 42.113 145.441 43.073 146.861 44.533L146.841 44.523ZM133.831 27.753C133.361 27.963 133.041 28.343 132.861 28.883C132.681 29.423 132.591 30.243 132.591 31.323V41.553H135.621C138.091 41.553 139.821 40.883 140.801 39.543C141.781 38.203 142.271 36.413 142.271 34.183C142.271 31.953 141.771 30.233 140.781 29.113C139.791 27.993 138.171 27.443 135.941 27.443C135.001 27.443 134.301 27.553 133.841 27.763L133.831 27.753ZM144.441 49.613C144.441 47.233 143.801 45.423 142.521 44.183C141.241 42.943 139.191 42.323 136.391 42.323H132.591V53.773C132.591 54.863 132.681 55.663 132.861 56.173C133.041 56.683 133.361 57.043 133.831 57.233C134.301 57.433 135.011 57.523 135.981 57.523C141.621 57.523 144.441 54.883 144.441 49.603V49.613Z" fill="#ADB4A4"/>
<path d="M58.3581 75.3311L56.527 77.3293L58.6926 79.3109L58.4334 79.5952L56.2679 77.6136L54.2696 79.7959L53.9268 79.4781L58.2745 74.7207L61.1256 77.3293L60.8664 77.6136L58.3665 75.3227L58.3581 75.3311Z" fill="#ADB4A4"/>
<path d="M62.0706 85.5732L61.8365 85.8909L58.9854 83.8257L62.7645 78.6084L63.1408 78.8843L59.5957 83.7839L62.0706 85.5732Z" fill="#ADB4A4"/>
<path d="M70.3229 87.0448C70.0805 87.4796 69.8045 87.8391 69.4785 88.1234C69.1524 88.4077 68.8012 88.6084 68.4333 88.7338C68.0571 88.8592 67.6641 88.8926 67.2628 88.8508C66.8531 88.809 66.4518 88.6753 66.0504 88.4579C65.6491 88.2405 65.323 87.9729 65.0638 87.6552C64.8046 87.3375 64.629 86.9863 64.5287 86.6101C64.4284 86.2338 64.4117 85.8241 64.4702 85.3977C64.5287 84.9713 64.6876 84.5365 64.9217 84.1018C65.1558 83.667 65.4401 83.3075 65.7662 83.0232C66.0922 82.7389 66.4434 82.5382 66.8113 82.4128C67.1875 82.2874 67.5805 82.2456 67.9818 82.2874C68.3915 82.3292 68.7929 82.463 69.1942 82.6804C69.5955 82.8978 69.9216 83.1653 70.1808 83.483C70.44 83.8008 70.6156 84.1519 70.7159 84.5365C70.8162 84.9211 70.833 85.3225 70.7661 85.7489C70.6992 86.1753 70.5487 86.6101 70.3146 87.0448H70.3229ZM69.8965 86.8107C70.1139 86.4178 70.2477 86.0332 70.3146 85.6569C70.3731 85.2807 70.3647 84.9295 70.2895 84.6034C70.2059 84.2773 70.0637 83.9763 69.8463 83.7088C69.629 83.4412 69.353 83.2155 69.0102 83.0315C68.6758 82.8476 68.333 82.7389 67.9902 82.7055C67.6474 82.672 67.3129 82.7055 66.9952 82.8142C66.6775 82.9228 66.3765 83.1068 66.0922 83.3576C65.808 83.6085 65.5655 83.9345 65.3481 84.3275C65.1307 84.7205 64.9969 85.1134 64.93 85.4813C64.8715 85.8576 64.8799 86.2087 64.9635 86.5348C65.0471 86.8609 65.1976 87.1619 65.415 87.4295C65.6324 87.697 65.9083 87.9228 66.2427 88.1067C66.5855 88.2906 66.92 88.3993 67.2628 88.4411C67.6056 88.4829 67.94 88.4411 68.2577 88.3325C68.5755 88.2238 68.8765 88.0398 69.1524 87.789C69.4283 87.5381 69.6791 87.2121 69.8965 86.8107Z" fill="#ADB4A4"/>
<path d="M75.8157 92.6302L75.4395 92.4881C75.3893 92.4714 75.3559 92.4463 75.3224 92.4212C75.289 92.3961 75.2723 92.3543 75.2639 92.2958L74.2355 89.1269C74.2355 89.1269 74.2104 89.0517 74.1937 89.0183C74.177 88.9848 74.1602 88.9597 74.1351 88.9346C74.1101 88.9096 74.0766 88.8928 74.0348 88.8678C73.993 88.8427 73.9428 88.826 73.8843 88.8009L73.0984 88.5082L72.0867 91.2423L71.6436 91.0751L73.8843 85.03L75.4311 85.6069C76.1251 85.8661 76.5933 86.1922 76.8441 86.5852C77.0866 86.9865 77.12 87.438 76.9277 87.9648C76.8441 88.1989 76.7271 88.3912 76.5766 88.55C76.4261 88.7089 76.2505 88.8343 76.0498 88.9263C75.8492 89.0183 75.6234 89.0684 75.3726 89.0768C75.1218 89.0851 74.8626 89.0601 74.5866 88.9932C74.6368 89.0601 74.6786 89.1437 74.7037 89.2356L75.8157 92.6219V92.6302ZM74.2689 88.5835C74.5365 88.6838 74.7873 88.7423 75.0214 88.7507C75.2555 88.7674 75.4729 88.7423 75.6652 88.6755C75.8575 88.6086 76.0247 88.5082 76.1585 88.3661C76.2923 88.224 76.4094 88.0484 76.4846 87.8393C76.6435 87.4129 76.6184 87.0367 76.4177 86.7273C76.2171 86.418 75.8408 86.1588 75.3057 85.9581L74.202 85.5484L73.2238 88.1905L74.2689 88.5751V88.5835Z" fill="#ADB4A4"/>
<path d="M83.1907 94.436L82.8395 94.3608C82.8395 94.3608 82.7642 94.3357 82.7475 94.3022C82.7224 94.2772 82.7141 94.2437 82.7057 94.2019L82.3796 92.212L79.2944 91.518L78.1489 93.1735C78.1489 93.1735 78.0988 93.2237 78.0653 93.2404C78.0319 93.2571 77.9901 93.2571 77.9483 93.2487L77.6055 93.1735L81.5937 87.4629L82.0452 87.5632L83.199 94.4277L83.1907 94.436ZM82.3127 91.8357L81.7526 88.3742C81.7358 88.2572 81.7191 88.1234 81.7107 87.9729C81.6773 88.0398 81.6439 88.1067 81.6104 88.1652C81.577 88.2237 81.5435 88.2739 81.5017 88.3241L79.5034 91.2086L82.3127 91.8441V91.8357Z" fill="#ADB4A4"/>
<path d="M89.3605 94.7121L89.3187 95.1051L85.8154 94.7623L86.4509 88.3494L86.9191 88.3995L86.3255 94.4195L89.3605 94.7205V94.7121Z" fill="#ADB4A4"/>
<path d="M98.1568 89.2438C98.1317 89.2939 98.0983 89.3274 98.0481 89.3274C98.0063 89.3274 97.9562 89.3023 97.8893 89.2521C97.8224 89.202 97.7304 89.1434 97.6217 89.0849C97.513 89.0264 97.3709 88.9762 97.212 88.9261C97.0532 88.8759 96.8525 88.8675 96.6184 88.8842C96.3843 88.901 96.1836 88.9511 96.008 89.0347C95.8324 89.11 95.6903 89.2187 95.5816 89.3441C95.4729 89.4695 95.3893 89.6117 95.3391 89.7622C95.289 89.9127 95.2723 90.0799 95.2806 90.2471C95.2973 90.4645 95.3559 90.6401 95.4562 90.7738C95.5565 90.9076 95.6903 91.0163 95.8492 91.1083C96.008 91.2003 96.1836 91.2672 96.3843 91.3173C96.5849 91.3675 96.7856 91.426 96.9946 91.4762C97.2037 91.5263 97.4043 91.5849 97.605 91.6518C97.8056 91.7186 97.9812 91.8023 98.1401 91.911C98.299 92.0196 98.4327 92.1618 98.5414 92.329C98.6501 92.4962 98.7086 92.7136 98.7337 92.9812C98.7504 93.2487 98.7337 93.5079 98.6501 93.7504C98.5749 93.9929 98.4578 94.2102 98.299 94.4025C98.1401 94.5949 97.9311 94.7453 97.6886 94.8624C97.4461 94.9795 97.1535 95.0547 96.8274 95.0798C96.401 95.1132 96.0331 95.0631 95.7154 94.9377C95.3977 94.8122 95.1134 94.6283 94.8626 94.3858L94.9713 94.1768C95.0047 94.1266 95.0465 94.1016 95.0967 94.1016C95.1218 94.1016 95.1636 94.1183 95.2054 94.1517C95.2472 94.1852 95.3057 94.227 95.3726 94.2771C95.4395 94.3273 95.5147 94.3775 95.6067 94.436C95.6987 94.4945 95.799 94.5447 95.9161 94.5865C96.0331 94.6283 96.1669 94.6701 96.309 94.6952C96.4595 94.7203 96.6267 94.7286 96.8107 94.7119C97.0615 94.6952 97.2873 94.6367 97.4796 94.5447C97.6719 94.4527 97.8307 94.3357 97.9645 94.1935C98.0899 94.0514 98.1819 93.8842 98.2404 93.6919C98.299 93.4995 98.324 93.3072 98.3073 93.0982C98.2906 92.8725 98.2321 92.6885 98.1234 92.5464C98.023 92.4043 97.8893 92.2956 97.7304 92.2036C97.5715 92.12 97.396 92.0447 97.1953 91.9946C96.9946 91.9444 96.794 91.8942 96.5849 91.8441C96.3759 91.7939 96.1752 91.7437 95.9746 91.6768C95.7739 91.61 95.5983 91.5263 95.4395 91.4093C95.2806 91.3006 95.1468 91.1585 95.0381 90.9745C94.9294 90.7989 94.8709 90.5732 94.8458 90.2973C94.8291 90.0799 94.8542 89.8709 94.9211 89.6702C94.988 89.4612 95.0967 89.2772 95.2388 89.11C95.3809 88.9428 95.5733 88.809 95.799 88.7003C96.0247 88.5916 96.2839 88.5247 96.5849 88.4996C96.9194 88.4746 97.2204 88.4996 97.4963 88.5916C97.7722 88.6752 98.023 88.8174 98.2571 89.0264L98.1652 89.2438H98.1568Z" fill="#ADB4A4"/>
<path d="M104.795 87.7054L102.571 88.1402L103.733 94.0765L103.274 94.1685L102.111 88.2322L99.879 88.6753L99.8037 88.2823L104.72 87.3208L104.795 87.7054Z" fill="#ADB4A4"/>
<path d="M110.698 91.8443C110.991 91.744 111.234 91.6018 111.434 91.4179C111.626 91.234 111.777 91.0249 111.877 90.7908C111.978 90.5567 112.028 90.2975 112.028 90.0216C112.028 89.7457 111.978 89.4698 111.886 89.1855L110.59 85.4147L111.033 85.2642L112.329 89.035C112.446 89.3694 112.496 89.7039 112.496 90.03C112.496 90.356 112.421 90.6654 112.295 90.9497C112.17 91.234 111.986 91.4848 111.744 91.7105C111.501 91.9363 111.2 92.1035 110.841 92.2289C110.481 92.3543 110.138 92.3961 109.812 92.3711C109.486 92.346 109.185 92.2624 108.909 92.1119C108.633 91.9614 108.399 91.7607 108.19 91.5099C107.981 91.259 107.822 90.958 107.705 90.6236L106.409 86.8528L106.852 86.7023L108.148 90.4647C108.249 90.749 108.382 90.9998 108.55 91.2172C108.717 91.4346 108.917 91.6018 109.135 91.7273C109.352 91.8527 109.603 91.9279 109.871 91.953C110.138 91.9781 110.414 91.9363 110.707 91.836L110.698 91.8443Z" fill="#ADB4A4"/>
<path d="M119.637 84.6118C119.871 85.055 120.013 85.4814 120.063 85.9078C120.113 86.3342 120.088 86.7272 119.98 87.0951C119.871 87.4713 119.687 87.8058 119.419 88.1151C119.152 88.4245 118.817 88.6837 118.416 88.8927L116.334 89.988L113.341 84.2858L115.423 83.1905C115.824 82.9814 116.225 82.8477 116.635 82.8058C117.036 82.764 117.429 82.8058 117.797 82.9229C118.165 83.0483 118.508 83.249 118.826 83.5333C119.143 83.8175 119.419 84.1771 119.645 84.6118H119.637ZM119.21 84.8376C119.001 84.4363 118.759 84.1102 118.483 83.8593C118.207 83.6085 117.914 83.4246 117.597 83.3159C117.279 83.2072 116.953 83.1737 116.61 83.2072C116.267 83.2406 115.924 83.3493 115.582 83.5249L113.909 84.4028L116.551 89.4362L118.224 88.5583C118.566 88.3827 118.851 88.1569 119.068 87.8977C119.294 87.6385 119.444 87.3459 119.536 87.0282C119.628 86.7105 119.645 86.3593 119.587 85.9914C119.528 85.6235 119.403 85.2389 119.194 84.8376H119.21Z" fill="#ADB4A4"/>
<path d="M124.018 85.54L123.625 85.7992L120.021 80.4565L120.406 80.1973L124.01 85.54H124.018Z" fill="#ADB4A4"/>
<path d="M129.093 77.3961C129.419 77.7724 129.653 78.1653 129.804 78.575C129.954 78.9764 130.021 79.3777 129.996 79.7707C129.979 80.1636 129.87 80.5399 129.686 80.9078C129.503 81.2756 129.235 81.6017 128.884 81.8944C128.541 82.187 128.173 82.4044 127.78 82.5298C127.396 82.6552 127.003 82.697 126.61 82.6552C126.217 82.6134 125.832 82.488 125.456 82.2706C125.08 82.0616 124.728 81.7606 124.402 81.3843C124.085 81.0081 123.842 80.6151 123.692 80.2138C123.541 79.8125 123.474 79.4111 123.499 79.0182C123.524 78.6252 123.616 78.2489 123.8 77.8811C123.984 77.5132 124.252 77.1871 124.595 76.8945C124.937 76.6018 125.305 76.3844 125.698 76.259C126.091 76.1336 126.476 76.0918 126.869 76.1336C127.262 76.1754 127.646 76.3092 128.023 76.5182C128.399 76.7272 128.75 77.0199 129.068 77.3961H129.093ZM128.725 77.7138C128.432 77.371 128.123 77.1035 127.797 76.9112C127.471 76.7189 127.136 76.6018 126.802 76.56C126.467 76.5182 126.133 76.5517 125.807 76.6603C125.481 76.769 125.172 76.9446 124.879 77.1955C124.586 77.4463 124.36 77.7222 124.21 78.0316C124.051 78.3409 123.968 78.6586 123.959 79.0014C123.951 79.3442 124.009 79.6871 124.143 80.0382C124.277 80.3894 124.494 80.7405 124.787 81.0833C125.08 81.4262 125.389 81.6937 125.715 81.886C126.041 82.0783 126.375 82.187 126.71 82.2288C127.044 82.2706 127.379 82.2288 127.705 82.1285C128.031 82.0198 128.34 81.8442 128.633 81.5934C128.926 81.3425 129.151 81.0666 129.31 80.7573C129.469 80.4479 129.553 80.1302 129.561 79.7957C129.569 79.4613 129.511 79.1101 129.369 78.759C129.235 78.4078 129.018 78.0566 128.725 77.7138Z" fill="#ADB4A4"/>
</g>
<defs>
<clipPath id="clip0_460_8943">
<rect width="116.97" height="100.08" fill="white" transform="translate(32 0.032959)"/>
</clipPath>
</defs>
</svg>
