<svg width="180" height="101" viewBox="0 0 180 101" fill="none" xmlns="http://www.w3.org/2000/svg">
<g clip-path="url(#clip0_460_8897)">
<path d="M77.0205 20.776C77.8608 20.9664 78.7011 21.1734 79.6074 21.4052C83.5618 22.4152 87.6068 23.3425 91.6024 24.278C93.7114 24.7499 95.804 25.2218 97.913 25.6937C98.8934 25.9338 99.8325 26.1573 100.813 26.3891C102.518 26.7865 103.993 27.1094 105.674 27.424C107.486 27.7717 109.406 28.2105 111.234 28.6162C112.462 28.8811 113.689 29.1378 114.917 29.4027C116.787 29.7835 118.682 30.1643 120.544 30.5452C122.702 30.9922 124.762 31.4641 126.945 31.8615C127.761 32.0105 128.576 32.1513 129.384 32.3169C130.496 32.557 131.55 32.7888 132.662 33.0371C133.429 33.1944 134.203 33.3352 134.977 33.4676C136.37 33.716 137.77 33.9809 139.162 34.2541C140.06 34.428 140.967 34.6101 141.758 34.8088C142.557 35.0075 143.232 35.2228 143.422 35.3718C143.809 35.6781 142.804 35.7692 140.843 35.4794C140.299 35.3966 139.731 35.289 139.179 35.1897C138.396 35.0655 137.647 34.9413 136.872 34.8088C135.628 34.5936 134.401 34.3287 133.173 34.0554C131.789 33.7574 130.57 33.567 129.227 33.3103C127.678 32.9957 126.088 32.6646 124.548 32.35C123.477 32.1347 122.406 31.9112 121.335 31.6959C120.371 31.5221 119.555 31.3731 118.608 31.1992C116.622 30.8349 114.637 30.3879 112.66 29.9491C109.587 29.2785 106.44 28.5831 103.35 27.9042C102.477 27.7138 101.596 27.5068 100.731 27.3412C99.8325 27.1591 98.9428 26.9852 98.0201 26.8031C96.7102 26.5216 95.2932 26.1491 93.9668 25.8345C92.4427 25.4785 90.9104 25.1225 89.3781 24.7582L85.6131 23.8889C84.5586 23.6488 83.257 23.3756 82.2848 23.0858C81.8647 22.9617 81.3457 22.8375 80.9008 22.7298L77.7949 21.9682C76.1061 21.5625 74.3183 21.0823 72.7778 20.6022C71.5008 20.2048 70.3886 19.7329 70.7676 19.6252C71.0312 19.5507 71.6409 19.5673 72.6871 19.7743C72.959 19.8322 73.2391 19.8902 73.5192 19.9481C74.7055 20.2213 75.8342 20.4862 77.0205 20.7595V20.776Z" fill="#ADB4A4"/>
<path d="M67.7687 20.8339C67.3239 20.8836 66.8707 20.9167 66.3847 20.9415C64.2592 20.9415 62.1007 20.9581 59.9835 20.6187C58.8631 20.5028 57.7674 20.2875 56.6634 20.0722C56.1609 19.9232 55.6748 19.7825 55.1723 19.6335C54.2908 19.4182 53.5493 19.1367 52.6925 18.9132C51.7533 18.6979 50.8307 18.2178 49.9327 17.8618C49.3395 17.5968 48.7546 17.2988 48.1614 17.0256C47.2552 16.6199 46.3819 16.1066 45.5169 15.6347C45.0308 15.3284 44.5695 15.0055 44.0999 14.6992L43.3914 14.2356C43.1607 14.07 42.9301 13.9044 42.6994 13.7306C42.3451 13.4822 41.9909 13.2421 41.6449 12.9772C41.1753 12.6129 40.7963 12.1824 40.3515 11.8016C40.0549 11.5284 39.7089 11.2966 39.4205 11.0068C38.885 10.5018 38.3413 9.98849 37.8388 9.45863C37.5257 9.09436 37.2209 8.73009 36.9737 8.37409C36.7266 8.02638 36.5536 7.69522 36.5618 7.53792C36.5865 7.22332 37.1303 7.42201 37.847 8.11744C38.0447 8.30786 38.2342 8.53967 38.4319 8.74664C38.7038 9.03641 39.0168 9.26822 39.3134 9.54142C39.7912 9.96365 40.1949 10.4604 40.681 10.8826C41.2165 11.3628 41.7025 11.7519 42.2545 12.1741C42.9053 12.6378 43.5315 13.1759 44.1905 13.6229L45.5828 14.5336C45.9947 14.8068 46.3984 14.9559 46.8268 15.1877L48.1861 15.9079C48.6475 16.1397 49.1088 16.3633 49.5619 16.5951C50.9954 17.2905 52.5278 17.87 54.0601 18.3502C54.4885 18.4992 54.9334 18.6234 55.37 18.7062C55.8231 18.8056 56.2762 18.8966 56.7376 18.996C57.4049 19.1284 58.1216 19.3023 58.7972 19.443C59.5716 19.6086 60.3707 19.6666 61.1533 19.7742C61.8042 19.857 62.455 19.857 63.1058 19.8984C63.6495 19.9398 64.3251 19.8984 64.8359 19.9398C65.0583 19.9563 65.3302 19.9563 65.5608 19.9563C66.0963 19.9729 66.6401 19.9315 67.1756 19.8901C68.0488 19.8322 68.988 19.7742 69.8036 19.7245C70.4792 19.6997 71.1217 19.8073 70.9817 20.0226C70.8828 20.1716 70.6027 20.3455 70.0672 20.4779C69.9272 20.511 69.7789 20.5442 69.6306 20.569C69.3175 20.6352 69.0127 20.6849 68.7079 20.7346C68.4031 20.7677 68.09 20.7925 67.777 20.8256L67.7687 20.8339Z" fill="#ADB4A4"/>
<path d="M39.8162 7.27295C40.2528 7.30606 40.6977 7.33918 41.1673 7.38057C43.2433 7.57927 45.3771 7.51304 47.5026 7.54615C48.623 7.56271 49.7352 7.5296 50.8638 7.59583C51.3911 7.63722 51.8854 7.6869 52.4126 7.74485C53.3271 7.82764 54.1097 7.91871 54.9995 8.00977C55.9716 8.09256 56.9849 8.34921 57.9323 8.63898C58.5667 8.83767 59.201 9.05292 59.8107 9.30957C60.7498 9.68212 61.6808 10.1292 62.5376 10.659C63.5344 11.2634 64.4077 11.9754 65.3304 12.6957C65.6682 12.9689 66.0224 13.2338 66.3272 13.5484C66.7639 13.9623 67.1181 14.4177 67.5218 14.8565L68.3539 15.7672C68.8482 16.3301 69.3095 16.9179 69.7379 17.5306C70.0015 17.928 70.2734 18.3336 70.4629 18.7227C70.6524 19.1118 70.7759 19.4761 70.7347 19.6251C70.6524 19.9397 70.1663 19.65 69.5567 18.8469C69.3837 18.6317 69.2189 18.3833 69.0541 18.1432C68.807 17.8286 68.5516 17.5388 68.2962 17.2242C67.8843 16.7358 67.5053 16.2225 67.0934 15.734C66.632 15.1876 66.1625 14.7654 65.6517 14.2935C65.0668 13.7471 64.4489 13.2007 63.8228 12.7122C63.3861 12.3811 62.9413 12.0416 62.4634 11.7601C62.0433 11.4952 61.6643 11.3131 61.2277 11.1061C60.3215 10.6508 59.3988 10.2037 58.4431 9.86426C56.9602 9.31785 55.3455 9.01153 53.7472 8.81283C53.2941 8.75488 52.841 8.70521 52.3879 8.69693C51.9183 8.69693 51.457 8.68037 50.9792 8.67209C50.2954 8.63898 49.5457 8.59758 48.8454 8.56446C48.0381 8.53963 47.2307 8.53135 46.4233 8.53135H44.4214C43.8612 8.53135 43.1692 8.54791 42.6419 8.48168C42.4195 8.44856 42.1394 8.44028 41.9005 8.432L40.2363 8.3161C39.3301 8.24159 38.3745 8.08429 37.5589 7.85247C36.8833 7.6455 36.3149 7.33918 36.5373 7.18188C36.6856 7.07425 37.0151 6.99974 37.5506 7.04942C37.6907 7.06597 37.839 7.07425 37.979 7.09081C38.5969 7.14048 39.1818 7.23155 39.7997 7.27295H39.8162Z" fill="#ADB4A4"/>
<path d="M86.2231 26.5794C85.8523 26.7947 85.4816 27.0017 85.0697 27.2169C83.2325 28.0448 81.3707 28.9224 79.4182 29.4936C78.4048 29.8414 77.375 30.1063 76.3453 30.3712C75.851 30.454 75.3814 30.5285 74.8871 30.603C74.0385 30.7769 73.2971 30.8431 72.465 31.0087C71.567 31.2157 70.5866 31.1908 69.6722 31.2571L67.8103 31.2902C66.8629 31.3233 65.9155 31.2653 64.9763 31.2239C64.4326 31.1743 63.9053 31.0915 63.3781 31.0252C62.8508 30.9673 62.3153 30.8928 61.7798 30.8017C61.3761 30.7438 60.9725 30.6941 60.5688 30.6196C60.0168 30.5119 59.5143 30.3133 58.9705 30.1808C58.5998 30.0814 58.2126 30.0235 57.8419 29.9159C57.1663 29.7254 56.4908 29.535 55.8317 29.3032C55.4116 29.1376 54.9914 28.9638 54.6289 28.7734C54.2664 28.583 53.9781 28.3843 53.9204 28.2435C53.8051 27.9538 54.3571 27.871 55.2715 28.1359C55.5269 28.2104 55.7823 28.318 56.0377 28.4091C56.4002 28.5333 56.7627 28.5912 57.1251 28.6906C57.7101 28.8396 58.2703 29.0797 58.8552 29.2287C59.5143 29.4026 60.091 29.5185 60.7418 29.6427C61.4915 29.7586 62.2494 29.9407 63.0073 30.04L64.5726 30.2139C65.0422 30.2719 65.4459 30.2305 65.9072 30.2387C66.3933 30.2387 66.8794 30.2719 67.3654 30.2801C67.8515 30.2801 68.3376 30.2801 68.8236 30.2801C70.3395 30.2801 71.8883 30.1311 73.3959 29.9076C73.8243 29.8579 74.2527 29.7834 74.6646 29.6758C75.093 29.5681 75.5214 29.4688 75.958 29.3612C76.5842 29.1956 77.268 29.0631 77.9105 28.9141C78.6438 28.7403 79.3523 28.4753 80.0772 28.2518C80.6704 28.0614 81.2306 27.8047 81.8073 27.5812C82.2934 27.3991 82.8618 27.101 83.3231 26.9272C83.5209 26.8609 83.7515 26.745 83.9575 26.654C84.4353 26.4553 84.8802 26.2069 85.3251 25.9585C85.6876 25.7516 86.0748 25.5529 86.4537 25.3707C86.8245 25.172 87.1952 24.965 87.5412 24.7995C88.1261 24.518 88.7193 24.369 88.6863 24.6173C88.6616 24.7912 88.4886 25.0561 88.0767 25.3873C87.9696 25.4701 87.8542 25.5529 87.7389 25.6356C87.4918 25.8095 87.2528 25.9751 87.0057 26.1407C86.7503 26.2897 86.4949 26.4304 86.2395 26.5877L86.2231 26.5794Z" fill="#ADB4A4"/>
<path d="M56.5894 26.6291C56.9766 26.4883 57.3638 26.3476 57.7922 26.2151C59.6705 25.7018 61.5653 25.1057 63.4931 24.7249C64.4982 24.4931 65.5033 24.2861 66.5248 24.1123C67.0027 24.0626 67.464 24.0046 67.9418 23.955C68.7657 23.8308 69.4906 23.7728 70.2898 23.6321C71.163 23.4665 72.1022 23.4582 72.9919 23.4003L74.7879 23.3258C75.7024 23.2678 76.6168 23.2595 77.5313 23.2595C78.5776 23.3092 79.5909 23.3506 80.6454 23.392C81.0408 23.4085 81.4363 23.4085 81.8317 23.4417C82.3754 23.4831 82.878 23.6072 83.4217 23.6652L84.5421 23.7645C85.2094 23.839 85.885 23.9218 86.5523 24.0295C86.9807 24.1123 87.4091 24.2033 87.788 24.3109C88.167 24.4269 88.4801 24.5676 88.5625 24.6918C88.7272 24.9567 88.2247 25.1471 87.2937 25.0643C87.0384 25.0395 86.7665 24.9898 86.5111 24.9484C86.1404 24.8988 85.7861 24.8905 85.4154 24.8574C84.8222 24.7994 84.2456 24.6752 83.6606 24.6007C83.0016 24.5096 82.4249 24.4848 81.7823 24.4434C81.0408 24.3937 80.2829 24.3358 79.5414 24.2861L78.0009 24.2364C77.5395 24.2199 77.1523 24.2778 76.6992 24.2944C75.7518 24.3192 74.7961 24.3358 73.8487 24.3606C72.3741 24.402 70.8582 24.5345 69.3835 24.7083C68.9634 24.7497 68.5432 24.8077 68.1395 24.8905C67.7194 24.9733 67.2992 25.0561 66.8708 25.1471C66.253 25.2713 65.5692 25.3458 64.9348 25.4534C64.2098 25.5693 63.4931 25.7515 62.7681 25.9005C62.175 26.0247 61.5983 26.2068 61.0134 26.3558C60.5191 26.48 59.9341 26.687 59.4646 26.7864C59.2668 26.8278 59.0197 26.9023 58.8137 26.9602C58.3277 27.0844 57.8498 27.2417 57.3802 27.4156C56.6058 27.6805 55.7738 27.9288 55.0405 28.1275C54.4309 28.2766 53.8295 28.3014 53.9119 28.0613C53.9696 27.8957 54.1838 27.6722 54.6369 27.4404C54.7522 27.3824 54.884 27.3245 55.0076 27.2665C55.5348 27.0182 56.0539 26.836 56.6058 26.6373L56.5894 26.6291Z" fill="#ADB4A4"/>
<path d="M93.0528 25.0811C92.7232 24.9817 92.4019 24.8658 92.0559 24.7334C90.573 24.0959 89.0407 23.5164 87.599 22.763C86.8328 22.3904 86.0749 22.0096 85.3252 21.5874C84.9874 21.3721 84.6743 21.1568 84.3366 20.9416C83.7434 20.5856 83.2491 20.2462 82.6559 19.9233C82.0051 19.5838 81.4037 19.0788 80.8023 18.6483L79.6242 17.7376C79.0146 17.2906 78.4214 16.8021 77.8447 16.3219C77.2104 15.7259 76.6007 15.1546 75.9582 14.5502C75.7192 14.3267 75.4639 14.1197 75.2332 13.8796C74.9201 13.5568 74.673 13.2008 74.3681 12.8696C74.1622 12.6378 73.9315 12.4308 73.7256 12.199C73.3466 11.7851 72.9676 11.3628 72.6134 10.9323C72.3909 10.6426 72.1767 10.3528 72.012 10.0631C71.8472 9.78157 71.7401 9.50836 71.7813 9.3759C71.8554 9.09441 72.3086 9.22688 72.8441 9.78157C72.9923 9.93059 73.1242 10.1127 73.2724 10.2783C73.4702 10.5101 73.7008 10.7005 73.9068 10.9241C74.2446 11.2718 74.5247 11.6774 74.846 12.0417C75.2085 12.4557 75.5545 12.7868 75.9334 13.1511C76.3618 13.5816 76.8067 14.0287 77.2433 14.4592C77.5482 14.7489 77.8612 15.0387 78.1825 15.3119C78.4626 15.5686 78.7427 15.7341 79.0393 15.9577C79.6572 16.4378 80.2586 16.9429 80.8765 17.4313C81.8321 18.193 82.8619 18.905 83.8917 19.559C84.18 19.7494 84.4766 19.9398 84.7814 20.0889C85.1027 20.2544 85.4158 20.4035 85.7289 20.5773C86.1902 20.8174 86.6598 21.1237 87.1211 21.3887C87.6484 21.6867 88.2004 21.9433 88.7441 22.2166C89.189 22.4401 89.6586 22.6222 90.1117 22.8209C90.4906 22.9948 90.9849 23.1521 91.3309 23.3342C91.4792 23.417 91.677 23.4915 91.8335 23.5577C92.2124 23.7233 92.5996 23.8641 92.9869 23.9965C93.6212 24.2201 94.2885 24.485 94.857 24.7416C95.3265 24.9652 95.722 25.288 95.5407 25.4371C95.4172 25.5364 95.1535 25.5944 94.7416 25.5281C94.6345 25.5033 94.5192 25.4785 94.4121 25.4619C93.9425 25.3626 93.5059 25.2135 93.0445 25.0645L93.0528 25.0811Z" fill="#ADB4A4"/>
<path d="M74.9525 8.56443C75.3809 8.54787 75.8093 8.56443 76.2789 8.58099C78.3055 8.70517 80.3569 8.96182 82.3341 9.46684C83.3721 9.72348 84.4102 9.99669 85.4152 10.3775C85.8766 10.5679 86.3215 10.7584 86.7746 10.957C87.5654 11.313 88.2492 11.6276 89.0236 11.9754C89.452 12.1492 89.8722 12.3727 90.2759 12.6294C90.6795 12.8778 91.0997 13.1096 91.4787 13.3828C91.9894 13.7388 92.5249 14.0699 93.0192 14.4508C93.7937 15.0055 94.5516 15.6015 95.2518 16.239C96.0427 17.0007 96.7677 17.7706 97.5009 18.6151C97.7728 18.9297 98.0446 19.2443 98.2836 19.592C98.6131 20.0639 98.8602 20.5524 99.1321 21.0574C99.3216 21.4051 99.5111 21.7528 99.6841 22.1088C99.9971 22.7546 100.236 23.4583 100.376 24.1703C100.475 24.6256 100.524 25.1058 100.5 25.528C100.5 25.9502 100.376 26.3062 100.269 26.4056C100.014 26.6125 99.8159 26.1241 99.6511 25.23C99.5935 24.9816 99.577 24.7167 99.5028 24.46C99.4205 24.104 99.2886 23.7729 99.1568 23.4334C98.9591 22.887 98.7367 22.3323 98.4895 21.8025C98.2012 21.1981 97.8469 20.7262 97.468 20.2046C97.0313 19.6003 96.5535 18.9876 96.051 18.4247C95.7049 18.0356 95.326 17.6713 94.9388 17.307C94.601 16.9758 94.2715 16.744 93.909 16.4626C93.1593 15.8582 92.3849 15.2455 91.6022 14.6826C90.383 13.7884 89.0072 13.0516 87.6478 12.3727C87.2524 12.1989 86.8569 12.0168 86.4615 11.8677C86.0496 11.7022 85.6212 11.5945 85.201 11.4455C84.5996 11.222 83.9406 10.9819 83.3144 10.7666C82.5895 10.5514 81.8645 10.3444 81.123 10.2037C80.5134 10.0878 79.912 9.9553 79.2941 9.88906C78.7751 9.82283 78.1408 9.76488 77.6629 9.69037C77.457 9.65725 77.2016 9.63242 76.9791 9.61586C76.4684 9.55791 75.9576 9.57446 75.4468 9.55791C75.0349 9.54135 74.6065 9.57446 74.1781 9.55791C73.7579 9.55791 73.3378 9.54135 72.9506 9.54135C72.308 9.54135 71.7066 9.40061 71.8466 9.19363C71.9455 9.04461 72.2174 8.88731 72.7364 8.7714C72.8682 8.74657 73.0165 8.72173 73.1565 8.69689C73.7579 8.60583 74.3346 8.60583 74.936 8.55615L74.9525 8.56443Z" fill="#ADB4A4"/>
<path d="M108.079 30.9011C107.75 31.1163 107.412 31.315 107.041 31.522C105.41 32.4078 103.771 33.3351 102.065 34.1133C101.167 34.5107 100.286 34.9495 99.363 35.2972C98.9346 35.4628 98.5062 35.5704 98.0696 35.7277C97.3199 35.9926 96.6526 36.183 95.9276 36.4728C95.1368 36.7626 94.2552 36.9613 93.4149 37.1351C92.8547 37.2676 92.2863 37.3504 91.7261 37.4745C90.8693 37.6236 89.996 37.8057 89.131 37.8637C88.1259 37.963 87.162 37.9547 86.1487 38.021C85.7697 38.0375 85.3908 38.0541 85.0036 38.0375C84.4763 38.0044 83.982 37.9133 83.463 37.8305C83.1005 37.7726 82.738 37.7229 82.3755 37.6567C81.7247 37.5242 81.0739 37.3172 80.4725 37.0026C80.0853 36.7957 79.7063 36.5556 79.4262 36.2741C79.1379 36.0009 78.9648 35.6946 78.9648 35.5538C78.9978 35.2392 79.4674 35.3965 80.1759 35.7939C80.3736 35.9098 80.5796 36.0257 80.7938 36.1334C81.0986 36.2741 81.4034 36.3652 81.7247 36.4562C82.2355 36.6135 82.7545 36.7626 83.2817 36.8702C83.8831 36.9944 84.4269 36.9944 85.0283 37.0192C85.7203 37.0358 86.437 37.0606 87.1373 37.0192C87.6234 37.0026 88.1094 36.9944 88.5873 36.9281C89.0239 36.8785 89.3864 36.8122 89.8065 36.7377C90.688 36.597 91.586 36.448 92.4675 36.3072C93.8433 36.0506 95.2356 35.6946 96.5702 35.2475C96.9492 35.1233 97.3364 35.0074 97.6906 34.8501C98.0696 34.6845 98.4403 34.5272 98.8193 34.3617C99.363 34.1133 99.9974 33.9312 100.549 33.6911C101.192 33.4179 101.835 33.1364 102.461 32.8218C102.98 32.5734 103.49 32.3002 104.001 32.027C104.43 31.8035 104.932 31.4806 105.352 31.3067C105.534 31.2322 105.74 31.1163 105.921 31.017L107.165 30.305C107.824 29.891 108.557 29.5019 109.208 29.179C109.752 28.9224 110.312 28.7899 110.287 29.0383C110.271 29.2122 110.114 29.4688 109.735 29.7751C109.636 29.8496 109.529 29.9324 109.422 30.0069C108.977 30.3381 108.524 30.603 108.063 30.9093L108.079 30.9011Z" fill="#ADB4A4"/>
<path d="M80.9422 33.2191C81.2552 32.9708 81.5683 32.7307 81.9225 32.4906C83.5125 31.5137 85.1108 30.4788 86.8408 29.742C87.7306 29.3032 88.645 28.9472 89.5677 28.5912C90.0126 28.467 90.4328 28.3428 90.8776 28.2186C91.6356 27.9703 92.3111 27.8212 93.0526 27.5812C93.8517 27.2914 94.7579 27.2169 95.5982 27.0596C96.1667 26.9685 96.7351 26.9271 97.3036 26.8526C98.1686 26.7201 99.0501 26.7036 99.9234 26.6539C100.426 26.6456 100.92 26.687 101.414 26.7036C101.909 26.7201 102.403 26.7367 102.914 26.7864C103.293 26.8112 103.672 26.8278 104.051 26.8692C104.57 26.9188 105.048 27.101 105.558 27.192C105.904 27.2666 106.267 27.2997 106.621 27.3742C107.255 27.5232 107.89 27.6805 108.508 27.8626C108.903 28.0117 109.29 28.169 109.628 28.3428C109.966 28.5167 110.238 28.7071 110.287 28.8396C110.386 29.121 109.875 29.2287 109.027 29.0051C108.796 28.9389 108.557 28.8478 108.318 28.7733C107.989 28.674 107.643 28.6409 107.313 28.5581C106.769 28.4422 106.25 28.2435 105.707 28.1358C105.097 28.0117 104.553 27.9206 103.952 27.8626C103.26 27.813 102.551 27.6722 101.851 27.6474L100.401 27.606C99.9645 27.606 99.6021 27.6805 99.1819 27.7053C98.2922 27.7633 97.3942 27.8461 96.5044 27.9289C95.1204 28.0862 93.7116 28.3677 92.3605 28.7319C91.9733 28.8147 91.5944 28.9472 91.2236 29.0796C90.8447 29.2287 90.4657 29.3694 90.0785 29.5184C89.5265 29.742 88.9087 29.9407 88.3402 30.1476C87.6894 30.3877 87.0715 30.7106 86.4371 31.0004C85.9181 31.2322 85.4321 31.5468 84.9295 31.82C84.5011 32.0435 84.0233 32.3829 83.6279 32.5899C83.4549 32.6727 83.2571 32.8052 83.0841 32.9128C82.6722 33.1529 82.2933 33.4261 81.9143 33.7159C81.6095 33.9477 81.2882 34.1795 80.9586 34.3947C80.6456 34.6265 80.3325 34.8584 80.0359 35.0488C79.5416 35.3799 78.9979 35.5786 78.9897 35.3385C78.9814 35.1647 79.0968 34.8915 79.4345 34.5355C79.5252 34.4444 79.6158 34.3533 79.7146 34.254C79.9124 34.0553 80.1183 33.8732 80.3243 33.691C80.5385 33.5254 80.7527 33.3599 80.9751 33.186L80.9422 33.2191Z" fill="#ADB4A4"/>
<path d="M119.16 30.421C118.863 30.2554 118.567 30.0816 118.262 29.8829C116.911 29.0053 115.494 28.2023 114.135 27.3081C113.418 26.8528 112.685 26.414 111.976 25.9338C111.655 25.6937 111.35 25.4619 111.029 25.2218C110.46 24.8244 109.982 24.4684 109.406 24.1124C108.771 23.7316 108.186 23.21 107.61 22.7547C107.214 22.4484 106.844 22.1172 106.456 21.8026C105.863 21.3307 105.278 20.8257 104.718 20.3124C104.092 19.6998 103.515 19.0788 102.889 18.4496C102.658 18.2178 102.42 17.986 102.205 17.7377C101.892 17.4065 101.686 17.0174 101.406 16.6614C101.217 16.413 101.003 16.1812 100.805 15.9411C100.459 15.4858 100.129 15.0222 99.8162 14.5503C99.635 14.2357 99.4537 13.9045 99.3219 13.5982C99.1901 13.2919 99.1242 13.0104 99.1736 12.8779C99.289 12.613 99.7174 12.8117 100.179 13.4243C100.302 13.5982 100.418 13.7886 100.533 13.9707C100.706 14.2191 100.912 14.4344 101.101 14.6744C101.398 15.0636 101.645 15.4858 101.942 15.8666C102.271 16.3054 102.584 16.6697 102.947 17.0505C103.367 17.4893 103.754 17.9943 104.191 18.4248C104.487 18.7311 104.784 19.0292 105.089 19.3272C105.369 19.5839 105.641 19.766 105.929 20.0061C106.522 20.5194 107.124 21.041 107.717 21.5543C108.648 22.349 109.653 23.1107 110.658 23.831C110.938 24.0379 111.226 24.2366 111.523 24.4188C111.836 24.6009 112.141 24.783 112.446 24.9735C112.891 25.2467 113.344 25.6027 113.78 25.909C114.283 26.2567 114.81 26.5796 115.329 26.9107L116.622 27.6972C116.985 27.9125 117.455 28.1526 117.768 28.4009C117.899 28.5086 118.089 28.6162 118.237 28.7073C118.591 28.9308 118.946 29.1461 119.308 29.3613C119.893 29.7007 120.503 30.1147 120.997 30.5121C121.409 30.8432 121.714 31.2572 121.5 31.3483C121.351 31.4145 121.079 31.4062 120.692 31.2406C120.593 31.191 120.495 31.1413 120.387 31.0916C119.959 30.8764 119.572 30.6363 119.152 30.4127L119.16 30.421Z" fill="#ADB4A4"/>
<path d="M102.304 12.3231C102.724 12.3314 103.136 12.3894 103.589 12.4391C105.541 12.7454 107.502 13.1676 109.372 13.8382C110.353 14.1859 111.333 14.5336 112.272 14.989C112.709 15.2042 113.112 15.4443 113.541 15.6678C114.282 16.0818 114.917 16.4295 115.633 16.8352C116.416 17.2574 117.19 17.8618 117.882 18.4496C118.344 18.8552 118.805 19.2609 119.225 19.6997C119.893 20.3455 120.527 21.0409 121.095 21.7694C121.738 22.6304 122.298 23.4832 122.875 24.3856C123.106 24.7167 123.312 25.0562 123.509 25.4039C123.773 25.8841 123.962 26.3725 124.201 26.8693C124.358 27.2087 124.547 27.5399 124.712 27.8793C125.017 28.4919 125.289 29.1211 125.528 29.7586C125.676 30.1726 125.824 30.5948 125.907 30.9839C125.989 31.373 126.022 31.7207 125.948 31.8532C125.8 32.1264 125.396 31.7787 125.009 30.926C124.902 30.6941 124.811 30.4375 124.704 30.1891C124.564 29.8497 124.383 29.5351 124.234 29.1957C123.979 28.6658 123.773 28.1028 123.534 27.573C123.27 26.9603 122.957 26.4719 122.644 25.9172C122.274 25.2797 121.903 24.6174 121.499 23.9965C121.219 23.566 120.931 23.1437 120.618 22.7463C120.346 22.3738 120.057 22.1089 119.769 21.7777C119.126 21.0906 118.509 20.3786 117.825 19.7411C116.77 18.7311 115.535 17.8783 114.258 17.1415C113.903 16.9262 113.524 16.7275 113.154 16.5454C112.758 16.3716 112.371 16.206 111.976 16.0238C111.399 15.7837 110.797 15.4526 110.204 15.2125C109.529 14.931 108.837 14.6826 108.136 14.4674C107.56 14.2935 106.983 14.128 106.398 13.9955C105.904 13.8796 105.294 13.7885 104.841 13.6561C104.643 13.5898 104.396 13.565 104.19 13.5236C103.704 13.4325 103.21 13.3746 102.716 13.3332C101.917 13.2587 101.06 13.2007 100.31 13.1179C99.6922 13.0683 99.1155 12.9027 99.2638 12.704C99.3709 12.5632 99.651 12.4225 100.162 12.3397C100.294 12.3149 100.434 12.3149 100.574 12.3066C101.167 12.2652 101.727 12.29 102.312 12.3066L102.304 12.3231Z" fill="#ADB4A4"/>
<path d="M103.927 41.1753C104.297 41.2663 104.676 41.3408 105.072 41.4485C106.827 41.8873 108.664 42.0611 110.476 42.1025C111.432 42.1273 112.379 42.028 113.335 41.97C113.78 41.9287 114.208 41.9287 114.653 41.8707C115.419 41.7714 116.086 41.6637 116.811 41.4485C117.594 41.2249 118.443 41.018 119.234 40.7779C119.761 40.604 120.288 40.4302 120.799 40.2149C121.59 39.9086 122.348 39.5112 123.106 39.1469C123.971 38.7081 124.819 38.2942 125.618 37.7229C125.923 37.5242 126.203 37.2842 126.516 37.0855C126.928 36.804 127.348 36.5639 127.752 36.2576C128.024 36.0423 128.296 35.8188 128.551 35.5787C129.012 35.1482 129.482 34.726 129.943 34.2955C130.232 34.0057 130.537 33.7325 130.817 33.5007C131.097 33.2606 131.377 33.0867 131.525 33.095C131.83 33.095 131.748 33.6083 131.179 34.3286C131.014 34.519 130.825 34.7094 130.644 34.8915C130.397 35.1565 130.158 35.4131 129.902 35.678C129.482 36.0837 129.029 36.4397 128.559 36.7791C128.04 37.1683 127.612 37.5325 127.101 37.9051C126.508 38.3273 125.874 38.7164 125.248 39.0724C124.819 39.3208 124.374 39.5609 123.938 39.801C123.55 40.0245 123.213 40.2149 122.834 40.4302C122.01 40.8607 121.137 41.2001 120.255 41.4899C118.888 41.9452 117.462 42.3343 116.037 42.5992C115.633 42.6738 115.23 42.74 114.834 42.8145C114.422 42.9056 114.01 42.9635 113.582 43.0298C112.972 43.1043 112.297 43.096 111.671 43.1043C110.954 43.1125 110.229 43.1043 109.512 43.0711C108.919 43.0463 108.334 43.0049 107.749 42.947C107.255 42.9056 106.645 42.8476 106.192 42.7234C105.994 42.682 105.756 42.6324 105.55 42.5827C105.072 42.4916 104.594 42.3757 104.116 42.2681C103.342 42.086 102.534 41.8045 101.867 41.4899C101.315 41.2084 100.878 40.8441 101.093 40.7199C101.241 40.6289 101.538 40.5957 101.999 40.7034C102.114 40.7365 102.246 40.7613 102.37 40.7944C102.897 40.9269 103.383 41.0759 103.91 41.2001L103.927 41.1753Z" fill="#ADB4A4"/>
<path d="M102.807 38.791C103.087 38.5757 103.375 38.3687 103.688 38.1618C105.122 37.3173 106.547 36.4066 108.071 35.7278C108.854 35.3304 109.661 34.9827 110.468 34.6515C110.856 34.5273 111.234 34.4114 111.622 34.2872C112.289 34.0389 112.882 33.8898 113.525 33.6332C114.225 33.3434 115.016 33.2192 115.749 33.0288L117.248 32.7225C118.006 32.5486 118.781 32.4327 119.547 32.3168C120.437 32.2423 121.294 32.1678 122.191 32.0933C122.529 32.0602 122.859 32.0271 123.197 32.0188C123.658 31.994 124.095 32.0767 124.556 32.085C124.869 32.0933 125.19 32.0685 125.512 32.0767C126.088 32.0933 126.665 32.1181 127.233 32.1595C127.604 32.2092 127.975 32.2672 128.296 32.3499C128.617 32.4327 128.889 32.5569 128.963 32.6728C129.103 32.9212 128.683 33.153 127.901 33.1364C127.686 33.1364 127.456 33.1033 127.233 33.0785C126.92 33.0619 126.624 33.0868 126.311 33.0785C125.816 33.0785 125.322 32.9957 124.828 32.9791C124.268 32.9543 123.782 32.9791 123.246 33.0123C122.628 33.0537 121.977 33.0454 121.359 33.0951C120.931 33.1282 120.503 33.1696 120.066 33.2192C119.679 33.2606 119.366 33.3683 118.995 33.4345C118.212 33.5752 117.413 33.716 116.631 33.8567C115.411 34.0885 114.176 34.4197 112.981 34.8005C112.643 34.8999 112.305 35.0158 111.984 35.1565C111.646 35.3055 111.325 35.4546 110.979 35.5953C110.493 35.8023 109.941 35.9927 109.439 36.1831C108.862 36.4066 108.31 36.6964 107.75 36.9613C107.288 37.1766 106.852 37.4498 106.407 37.6899C106.028 37.8968 105.599 38.1866 105.237 38.3687C105.08 38.4433 104.899 38.5592 104.743 38.6502C104.38 38.8572 104.026 39.0973 103.688 39.3457C103.128 39.7431 102.518 40.1404 101.975 40.4799C101.521 40.7531 101.019 40.9021 101.002 40.6703C100.994 40.5047 101.093 40.2563 101.398 39.9417C101.48 39.8672 101.563 39.7844 101.653 39.7017C102.016 39.3539 102.395 39.0725 102.79 38.7827L102.807 38.791Z" fill="#ADB4A4"/>
<path d="M12.1603 57.2863C12.1603 58.1142 12.185 58.793 12.2344 59.3229H11.6659C11.5341 58.0479 11.3694 57.1041 11.1716 56.4832C10.9739 55.8623 10.6279 55.407 10.1336 55.1172C9.63931 54.8274 8.88138 54.6867 7.85982 54.6867H6.30277C5.70961 54.6867 5.27298 54.7281 5.00111 54.8274C4.72925 54.9268 4.53976 55.1006 4.44914 55.3821C4.35028 55.6636 4.30085 56.1189 4.30085 56.7481V62.858H6.10505C6.68174 62.858 7.12661 62.7173 7.43967 62.4441C7.75273 62.1709 7.95868 61.848 8.07402 61.4754C8.18112 61.1029 8.2635 60.6392 8.32941 60.068L8.40356 59.5713H8.972C8.92257 60.2667 8.89786 61.0449 8.89786 61.9059V63.0981C8.89786 63.9426 8.94729 65.1182 9.04615 66.6249H8.4777C8.46123 66.509 8.41179 66.1116 8.32941 65.4162C8.24703 64.7291 8.01635 64.2075 7.64563 63.8598C7.2749 63.512 6.75588 63.3382 6.09682 63.3382H4.29261V69.0507C4.29261 69.6799 4.35852 70.1352 4.49033 70.4167C4.62215 70.6982 4.85282 70.8886 5.18236 70.9879C5.51189 71.0873 6.04738 71.1535 6.78884 71.1866V71.6834C5.93205 71.6337 4.72101 71.6089 3.15572 71.6089C1.73872 71.6089 0.68421 71.6337 -0.0078125 71.6834V71.1866C0.58535 71.1535 1.02198 71.0873 1.29385 70.9879C1.56571 70.8886 1.7552 70.6982 1.84582 70.4167C1.94468 70.1352 1.99411 69.6799 1.99411 69.0507V56.7316C1.99411 56.1024 1.94468 55.647 1.84582 55.3656C1.74696 55.0841 1.56571 54.8937 1.29385 54.7943C1.02198 54.695 0.593588 54.6287 -0.0078125 54.5956V54.0989C1.60691 54.1486 3.99603 54.1734 7.15956 54.1734C9.58164 54.1734 11.3035 54.1486 12.325 54.0989C12.2097 55.2745 12.152 56.3342 12.152 57.278L12.1603 57.2863Z" fill="#ADB4A4"/>
<path d="M17.4992 69.3817C17.4992 70.0606 17.6392 70.5242 17.9193 70.7892C18.1995 71.0458 18.6855 71.17 19.3775 71.17V71.6916C17.8617 71.6253 16.8648 71.5922 16.387 71.5922C15.9092 71.5922 14.9123 71.6253 13.3965 71.6916V71.17C14.0885 71.17 14.5746 71.0375 14.8547 70.7892C15.1348 70.5325 15.2748 70.0606 15.2748 69.3817V55.1999C15.2748 54.4382 15.1348 53.8835 14.8547 53.5358C14.5746 53.1881 14.0885 53.0143 13.3965 53.0143V52.4927C13.9073 52.5424 14.418 52.5672 14.9288 52.5672C15.9669 52.5672 16.8236 52.4513 17.4992 52.2195V69.3817Z" fill="#ADB4A4"/>
<path d="M30.515 60.2253C31.5448 61.343 32.0638 63.0319 32.0638 65.3003C32.0638 67.5687 31.5531 69.2576 30.515 70.367C29.477 71.4764 28.1259 72.0311 26.4535 72.0311C24.7811 72.0311 23.4136 71.4764 22.3838 70.367C21.354 69.2576 20.835 67.5687 20.835 65.3003C20.835 63.0319 21.3457 61.3347 22.3838 60.2253C23.4136 59.1076 24.7729 58.5447 26.4535 58.5447C28.1342 58.5447 29.4852 59.0994 30.515 60.2253ZM24.1056 60.573C23.5289 61.5913 23.2406 63.1643 23.2406 65.3003C23.2406 67.4363 23.5289 69.0093 24.1056 70.0193C24.6823 71.0293 25.4649 71.5344 26.4535 71.5344C27.4421 71.5344 28.2248 71.0293 28.8015 70.0193C29.3781 69.0093 29.6665 67.4363 29.6665 65.3003C29.6665 63.1643 29.3781 61.5831 28.8015 60.573C28.2248 59.5547 27.4421 59.0497 26.4535 59.0497C25.4649 59.0497 24.6823 59.5547 24.1056 60.573Z" fill="#ADB4A4"/>
<path d="M52.0014 58.9006V59.3973C51.6554 59.447 51.3506 59.6043 51.0869 59.8527C50.8233 60.1093 50.5926 60.5398 50.3949 61.1276L46.8112 71.8075H46.3911L42.4861 61.823L38.9518 71.8075H38.5317L34.4784 60.8047C34.2477 60.2252 34.0088 59.8444 33.7699 59.6705C33.531 59.4967 33.2921 59.4056 33.0449 59.4056V58.884C33.6875 58.9834 34.4125 59.033 35.2198 59.033C36.0272 59.033 37.1147 58.9834 38.4328 58.884V59.4056C37.8232 59.4056 37.3865 59.4553 37.1147 59.5546C36.8428 59.654 36.7028 59.9106 36.7028 60.3246C36.7028 60.6226 36.7851 61.0117 36.9499 61.4919L39.4214 68.6449L42.9804 58.7847H43.5488L47.3302 68.8188L49.6535 61.7154C49.8018 61.2684 49.8759 60.8958 49.8759 60.5978C49.8759 60.2004 49.7358 59.9106 49.4557 59.7285C49.1756 59.5463 48.706 59.4304 48.047 59.3808V58.884C48.9202 58.9337 49.6123 58.9585 50.123 58.9585C50.848 58.9585 51.4741 58.9337 52.0014 58.884V58.9006Z" fill="#ADB4A4"/>
<path d="M63.2955 68.7112C62.9989 69.6219 62.4387 70.4001 61.6313 71.0542C60.8157 71.7082 59.8271 72.0311 58.6737 72.0311C57.5204 72.0311 56.4906 71.7579 55.6338 71.228C54.777 70.6899 54.1262 69.9365 53.673 68.9679C53.2199 67.9992 52.9893 66.8816 52.9893 65.6066C52.9893 64.1661 53.2199 62.916 53.6813 61.8563C54.1426 60.7966 54.7935 59.9852 55.6338 59.4057C56.4741 58.8262 57.4544 58.5447 58.5749 58.5447C60.0578 58.5447 61.1947 58.9917 61.9938 59.8941C62.7929 60.7966 63.1966 62.1709 63.1966 64.0088H55.4608C55.4113 64.4724 55.3866 65.0023 55.3866 65.5983C55.3866 66.6912 55.5596 67.6432 55.9221 68.4546C56.2764 69.2659 56.7459 69.8951 57.3309 70.3339C57.9158 70.7727 58.5337 70.9879 59.168 70.9879C59.9589 70.9879 60.6592 70.7975 61.2688 70.4167C61.8785 70.0359 62.3892 69.3984 62.8012 68.5043L63.2955 68.7029V68.7112ZM56.4741 60.1674C55.9139 60.929 55.5679 62.055 55.4361 63.5452H60.8239C60.8569 62.2536 60.6674 61.1774 60.2637 60.3164C59.8601 59.4554 59.2669 59.0249 58.476 59.0249C57.6851 59.0249 57.0343 59.4057 56.4741 60.1674Z" fill="#ADB4A4"/>
<path d="M74.3845 59.1242C74.8047 59.505 75.0189 59.9687 75.0189 60.5151C75.0189 60.9456 74.8871 61.3098 74.6317 61.6162C74.3763 61.9225 74.0303 62.0715 73.6101 62.0715C73.2477 62.0715 72.9346 61.9556 72.6874 61.7238C72.4321 61.492 72.3002 61.1774 72.3002 60.78C72.3002 60.2336 72.5803 59.7865 73.1406 59.4388C73.0252 59.2732 72.8522 59.1904 72.6215 59.1904C71.9789 59.1904 71.394 59.4388 70.8668 59.9521C70.3395 60.4571 69.9276 61.0698 69.631 61.7983C69.3344 62.5269 69.1861 63.214 69.1861 63.8598V69.1252C69.1861 69.8868 69.4003 70.4167 69.837 70.7147C70.2736 71.0128 70.9244 71.1618 71.7977 71.1618V71.6834L71.2045 71.6585C69.5239 71.6089 68.4529 71.584 67.9916 71.584C67.5632 71.584 66.5911 71.6171 65.0752 71.6834V71.1618C65.7672 71.1618 66.2533 71.0293 66.5334 70.781C66.8135 70.5243 66.9535 70.0524 66.9535 69.3735V61.5996C66.9535 60.8379 66.8135 60.2833 66.5334 59.9355C66.2533 59.5878 65.7672 59.414 65.0752 59.414V58.8924C65.6025 58.9421 66.1132 58.9669 66.6075 58.9669C67.6456 58.9669 68.5024 58.851 69.1779 58.6192V61.7238C69.4745 60.8959 69.9441 60.1591 70.6031 59.5133C71.254 58.8676 71.9789 58.5447 72.7616 58.5447C73.4207 58.5447 73.9562 58.7351 74.3763 59.1159L74.3845 59.1242Z" fill="#ADB4A4"/>
<path d="M94.1159 63.9757C94.8904 64.7787 95.2776 65.7474 95.2776 66.8733C95.2776 67.8171 95.0386 68.6533 94.5608 69.3818C94.083 70.1104 93.3992 70.6816 92.5095 71.079C91.6197 71.4847 90.5652 71.6917 89.3459 71.6917C88.9011 71.6917 88.5221 71.6917 88.209 71.6668C87.1545 71.6337 86.1165 71.6172 85.0949 71.6172C83.7439 71.6172 82.7223 71.642 82.0303 71.6917V71.1949C82.6234 71.1618 83.0601 71.0956 83.3319 70.9962C83.6038 70.8969 83.785 70.7065 83.8839 70.425C83.9828 70.1435 84.0322 69.6882 84.0322 69.059V56.7399C84.0322 56.1107 83.9828 55.6553 83.8839 55.3739C83.785 55.0924 83.6038 54.902 83.3319 54.8026C83.0601 54.7033 82.6317 54.637 82.0303 54.6039V54.1072C82.7223 54.1569 83.7274 54.1817 85.0455 54.1817L87.7147 54.1568C88.0278 54.1403 88.3821 54.132 88.7775 54.132C90.4581 54.132 91.7433 54.488 92.6413 55.2C93.5393 55.912 93.9924 56.8558 93.9924 58.0314C93.9924 58.9918 93.6876 59.8528 93.0862 60.6144C92.4848 61.3761 91.5373 61.9556 90.2357 62.353V62.4027C92.0481 62.6511 93.3415 63.1726 94.1159 63.9757ZM87.0145 54.7778C86.7591 54.8937 86.5861 55.1007 86.4872 55.3987C86.3884 55.6967 86.3389 56.1438 86.3389 56.7399V62.353H87.9948C89.3459 62.353 90.2851 61.9887 90.8206 61.2519C91.3561 60.5151 91.628 59.5382 91.628 58.3129C91.628 57.0876 91.3561 56.1438 90.8124 55.5312C90.2686 54.9185 89.3871 54.6122 88.1679 54.6122C87.6571 54.6122 87.2781 54.6701 87.0145 54.7861V54.7778ZM92.8143 66.774C92.8143 65.4659 92.4683 64.4724 91.768 63.7936C91.0678 63.1147 89.9473 62.7752 88.415 62.7752H86.3389V69.059C86.3389 69.655 86.3884 70.0938 86.4872 70.3753C86.5861 70.6568 86.7591 70.8555 87.0145 70.9631C87.2699 71.0708 87.6653 71.1204 88.1926 71.1204C91.2737 71.1204 92.8143 69.6716 92.8143 66.774Z" fill="#ADB4A4"/>
<path d="M107.223 60.2253C108.253 61.343 108.772 63.0319 108.772 65.3003C108.772 67.5687 108.253 69.2576 107.223 70.367C106.193 71.4764 104.834 72.0311 103.153 72.0311C101.473 72.0311 100.122 71.4764 99.0918 70.367C98.062 69.2576 97.543 67.5687 97.543 65.3003C97.543 63.0319 98.0537 61.3347 99.0918 60.2253C100.122 59.1076 101.473 58.5447 103.153 58.5447C104.834 58.5447 106.193 59.0994 107.223 60.2253ZM100.805 60.573C100.229 61.5913 99.9403 63.1643 99.9403 65.3003C99.9403 67.4363 100.229 69.0093 100.805 70.0193C101.382 71.0293 102.165 71.5344 103.153 71.5344C104.142 71.5344 104.925 71.0293 105.501 70.0193C106.078 69.0093 106.366 67.4363 106.366 65.3003C106.366 63.1643 106.078 61.5831 105.501 60.573C104.925 59.5547 104.142 59.0497 103.153 59.0497C102.165 59.0497 101.382 59.5547 100.805 60.573Z" fill="#ADB4A4"/>
<path d="M121.87 69.0092C121.87 69.7709 122.01 70.3256 122.29 70.6733C122.57 71.021 123.056 71.1949 123.748 71.1949V71.7165C123.238 71.6668 122.727 71.642 122.216 71.642C121.178 71.642 120.321 71.7579 119.646 71.9897V69.0589C119.25 70.0855 118.69 70.8389 117.965 71.3191C117.24 71.7993 116.449 72.0393 115.592 72.0393C114.472 72.0393 113.615 71.7247 113.022 71.0955C112.725 70.7644 112.511 70.3422 112.396 69.8289C112.272 69.3156 112.206 68.6532 112.206 67.8419V61.6079C112.206 60.8462 112.066 60.2915 111.786 59.9438C111.506 59.5961 111.02 59.4222 110.328 59.4222V58.9006C110.839 58.9503 111.35 58.9752 111.86 58.9752C112.898 58.9752 113.755 58.8593 114.431 58.6274V68.3883C114.431 69.0175 114.464 69.5308 114.538 69.9199C114.612 70.309 114.785 70.6236 115.057 70.872C115.329 71.1204 115.741 71.2446 116.309 71.2446C116.935 71.2446 117.504 71.0459 118.015 70.6485C118.525 70.2511 118.929 69.713 119.217 69.0258C119.506 68.3386 119.654 67.577 119.654 66.7491V61.6079C119.654 60.8462 119.514 60.2915 119.234 59.9438C118.954 59.5961 118.468 59.4222 117.776 59.4222V58.9006C118.286 58.9503 118.797 58.9752 119.308 58.9752C120.346 58.9752 121.203 58.8593 121.878 58.6274V69.0092H121.87Z" fill="#ADB4A4"/>
<path d="M128.989 58.9253H132.646V59.4221H128.989V69.0339C128.989 69.7791 129.129 70.3172 129.401 70.6483C129.672 70.9795 130.06 71.1451 130.57 71.1451C131.081 71.1451 131.518 70.9381 131.88 70.5242C132.243 70.1102 132.548 69.4313 132.795 68.4875L133.289 68.6117C132.877 70.8967 131.806 72.0392 130.076 72.0392C129.516 72.0392 129.055 71.973 128.692 71.8405C128.33 71.708 128.008 71.5011 127.728 71.2196C127.366 70.8553 127.11 70.4083 126.97 69.8784C126.83 69.3485 126.764 68.6366 126.764 67.7424V59.4221H124.392V58.9253H126.764V55.1253C127.687 55.0922 128.428 54.9763 128.989 54.7776V58.9253Z" fill="#ADB4A4"/>
<path d="M137.861 69.3818C137.861 70.0606 138.002 70.5243 138.282 70.7892C138.562 71.0458 139.048 71.17 139.74 71.17V71.6916C138.224 71.6254 137.227 71.5923 136.749 71.5923C136.271 71.5923 135.275 71.6254 133.759 71.6916V71.17C134.451 71.17 134.937 71.0376 135.217 70.7892C135.497 70.5325 135.637 70.0606 135.637 69.3818V61.6078C135.637 60.8462 135.497 60.2915 135.217 59.9438C134.937 59.5961 134.451 59.4222 133.759 59.4222V58.9006C134.286 58.9503 134.797 58.9751 135.291 58.9751C136.329 58.9751 137.186 58.8592 137.861 58.6274V69.3818ZM137.688 53.1633C138.002 53.4779 138.158 53.8505 138.158 54.281C138.158 54.7115 138.002 55.084 137.688 55.3986C137.375 55.7132 137.005 55.8705 136.576 55.8705C136.148 55.8705 135.777 55.7132 135.464 55.3986C135.151 55.084 134.995 54.7115 134.995 54.281C134.995 53.8505 135.151 53.4779 135.464 53.1633C135.777 52.8487 136.148 52.6914 136.576 52.6914C137.005 52.6914 137.375 52.8487 137.688 53.1633Z" fill="#ADB4A4"/>
<path d="M152.575 75.326C152.814 75.5495 153.234 75.6654 153.844 75.6654V76.187C152.46 76.1208 151.57 76.0876 151.175 76.0876C150.713 76.0876 149.717 76.1125 148.184 76.1622L147.616 76.187V75.6654C148.407 75.6654 149 75.533 149.395 75.2846C149.791 75.0279 149.988 74.556 149.988 73.8772V69.6052C149.659 70.3834 149.197 70.9795 148.588 71.4018C147.986 71.824 147.303 72.031 146.528 72.031C145.556 72.031 144.691 71.7826 143.917 71.2859C143.151 70.7891 142.541 70.0357 142.096 69.0257C141.651 68.0157 141.429 66.7738 141.429 65.3002C141.429 63.8265 141.659 62.6095 142.121 61.5829C142.582 60.5646 143.208 59.8029 144.007 59.2979C144.806 58.7929 145.704 58.5363 146.718 58.5363C147.558 58.5363 148.258 58.6853 148.819 58.9751C149.379 59.2648 149.84 59.7284 150.203 60.3576L151.957 58.4949L152.378 58.6687C152.262 59.0827 152.204 59.5629 152.204 60.1093V74.1173C152.204 74.6968 152.32 75.0942 152.559 75.3177L152.575 75.326ZM148.917 70.549C149.42 70.0523 149.774 69.3486 149.988 68.4379V60.7633C149.675 60.2169 149.255 59.8029 148.728 59.538C148.201 59.2648 147.599 59.1241 146.924 59.1241C145.935 59.1241 145.169 59.6374 144.633 60.664C144.098 61.6905 143.834 63.2387 143.834 65.3084C143.834 67.3782 144.123 68.7939 144.708 69.7956C145.293 70.7974 146.141 71.2941 147.245 71.2941C147.855 71.2941 148.415 71.0458 148.917 70.549Z" fill="#ADB4A4"/>
<path d="M166.136 69.0092C166.136 69.7709 166.276 70.3256 166.556 70.6733C166.836 71.021 167.322 71.1949 168.014 71.1949V71.7165C167.503 71.6668 166.992 71.642 166.482 71.642C165.444 71.642 164.587 71.7579 163.911 71.9897V69.0589C163.516 70.0855 162.956 70.8389 162.231 71.3191C161.506 71.7993 160.715 72.0393 159.858 72.0393C158.738 72.0393 157.881 71.7247 157.288 71.0955C156.991 70.7644 156.777 70.3422 156.662 69.8289C156.538 69.3156 156.472 68.6532 156.472 67.8419V61.6079C156.472 60.8462 156.332 60.2915 156.052 59.9438C155.772 59.5961 155.286 59.4222 154.594 59.4222V58.9006C155.105 58.9503 155.615 58.9752 156.126 58.9752C157.164 58.9752 158.021 58.8593 158.696 58.6274V68.3883C158.696 69.0175 158.729 69.5308 158.804 69.9199C158.878 70.309 159.051 70.6236 159.323 70.872C159.594 71.1204 160.006 71.2446 160.575 71.2446C161.201 71.2446 161.769 71.0459 162.28 70.6485C162.791 70.2511 163.195 69.713 163.483 69.0258C163.771 68.3386 163.92 67.577 163.92 66.7491V61.6079C163.92 60.8462 163.78 60.2915 163.499 59.9438C163.219 59.5961 162.733 59.4222 162.041 59.4222V58.9006C162.552 58.9503 163.063 58.9752 163.574 58.9752C164.612 58.9752 165.468 58.8593 166.144 58.6274V69.0092H166.136Z" fill="#ADB4A4"/>
<path d="M180 68.7112C179.704 69.6219 179.152 70.4001 178.336 71.0542C177.52 71.7082 176.532 72.0311 175.387 72.0311C174.241 72.0311 173.203 71.7579 172.347 71.228C171.49 70.6899 170.839 69.9365 170.386 68.9679C169.933 67.9992 169.702 66.8816 169.702 65.6066C169.702 64.1661 169.933 62.916 170.394 61.8563C170.856 60.7966 171.506 59.9852 172.347 59.4057C173.187 58.8344 174.167 58.5447 175.288 58.5447C176.771 58.5447 177.908 58.9917 178.715 59.8941C179.514 60.7966 179.909 62.1709 179.909 64.0088H172.174C172.124 64.4724 172.1 65.0023 172.1 65.5983C172.1 66.6912 172.273 67.6432 172.627 68.4546C172.981 69.2659 173.451 69.8951 174.036 70.3339C174.62 70.7727 175.238 70.9879 175.881 70.9879C176.672 70.9879 177.372 70.7975 177.982 70.4167C178.591 70.0359 179.102 69.3984 179.514 68.5043L180.008 68.7029L180 68.7112ZM173.179 60.1674C172.619 60.929 172.273 62.055 172.141 63.5452H177.529C177.562 62.2536 177.38 61.1774 176.977 60.3164C176.573 59.4554 175.98 59.0249 175.189 59.0249C174.398 59.0249 173.747 59.4057 173.187 60.1674H173.179Z" fill="#ADB4A4"/>
<path d="M52.2889 84.9875L50.1057 91.9584H49.6526L47.6012 85.9065C47.5765 85.8237 47.5518 85.7409 47.5353 85.6499C47.5189 85.7409 47.4941 85.8237 47.4694 85.9065L45.4181 91.9584H44.9732L42.79 84.9875H43.2102C43.3091 84.9875 43.3667 85.0289 43.3914 85.12L45.138 90.849C45.1709 90.9815 45.2039 91.1305 45.2368 91.2961C45.2533 91.2133 45.2698 91.1305 45.2863 91.056C45.3027 90.9815 45.3192 90.9153 45.3439 90.849L47.3047 85.12C47.3047 85.12 47.3376 85.0538 47.3706 85.0289C47.4035 85.0041 47.4447 84.9875 47.4859 84.9875H47.626C47.6754 84.9875 47.7083 84.9958 47.7413 85.0207C47.7743 85.0455 47.7907 85.0786 47.8072 85.12L49.7679 90.849C49.7926 90.9153 49.8091 90.9815 49.8256 91.056C49.8421 91.1305 49.8586 91.2133 49.875 91.2961C49.8915 91.2133 49.908 91.1388 49.9245 91.0643C49.9409 90.9898 49.9574 90.9236 49.9739 90.8573L51.7204 85.1283C51.7204 85.1283 51.7534 85.0621 51.7863 85.0372C51.8193 85.0124 51.8605 84.9958 51.9099 84.9958H52.2889V84.9875Z" fill="#ADB4A4"/>
<path d="M58.5006 91.5362V91.9584H54.332V84.9875H58.4842V85.4098H54.8346V88.2246H57.8745V88.6303H54.8346V91.5362H58.4924H58.5006Z" fill="#ADB4A4"/>
<path d="M66.6398 88.4647C66.6398 89.0028 66.5574 89.4913 66.4009 89.9135C66.2361 90.344 66.0137 90.7083 65.7254 91.0146C65.437 91.3209 65.0828 91.5445 64.6791 91.71C64.2754 91.8756 63.8223 91.9501 63.3362 91.9501H60.7988V84.9792H63.3362C63.8305 84.9792 64.2754 85.062 64.6791 85.2193C65.0828 85.3766 65.437 85.6084 65.7254 85.9148C66.0137 86.2211 66.2444 86.5854 66.4009 87.0159C66.5574 87.4464 66.6398 87.9266 66.6398 88.4647ZM66.1208 88.4647C66.1208 87.9762 66.0549 87.5457 65.9231 87.1649C65.7913 86.7841 65.6018 86.4612 65.3546 86.1963C65.1075 85.9313 64.8191 85.7326 64.4731 85.5919C64.1271 85.4511 63.7482 85.3849 63.3362 85.3849H61.3096V91.5362H63.3362C63.7482 91.5362 64.1271 91.4699 64.4731 91.3292C64.8191 91.1885 65.1075 90.9898 65.3546 90.7248C65.6018 90.4599 65.7913 90.137 65.9231 89.7562C66.0549 89.3754 66.1208 88.9366 66.1208 88.4481V88.4647Z" fill="#ADB4A4"/>
<path d="M74.8781 88.4647C74.8781 89.0028 74.7957 89.4913 74.6392 89.9135C74.4827 90.3357 74.252 90.7083 73.9636 91.0146C73.6753 91.3209 73.3211 91.5445 72.9174 91.71C72.5137 91.8673 72.0606 91.9501 71.5745 91.9501H69.0371V84.9792H71.5745C72.0606 84.9792 72.5137 85.062 72.9174 85.2193C73.3211 85.3766 73.6753 85.6084 73.9636 85.9148C74.252 86.2211 74.4827 86.5854 74.6392 87.0159C74.7957 87.4464 74.8781 87.9266 74.8781 88.4647ZM74.3591 88.4647C74.3591 87.9762 74.2932 87.5457 74.1614 87.1649C74.0296 86.7841 73.8401 86.4612 73.5929 86.1963C73.3458 85.9313 73.0574 85.7326 72.7114 85.5919C72.3654 85.4511 71.9864 85.3849 71.5745 85.3849H69.5479V91.5362H71.5745C71.9864 91.5362 72.3654 91.4699 72.7114 91.3292C73.0574 91.1885 73.3458 90.9898 73.5929 90.7248C73.8401 90.4599 74.0296 90.137 74.1614 89.7562C74.2932 89.3754 74.3591 88.9366 74.3591 88.4481V88.4647Z" fill="#ADB4A4"/>
<path d="M77.7701 91.9584H77.2676V84.9875H77.7701V91.9584Z" fill="#ADB4A4"/>
<path d="M85.9589 84.9875V91.9584H85.72C85.6788 91.9584 85.6458 91.9584 85.6129 91.9336C85.5881 91.917 85.5552 91.8922 85.5305 91.8591L81.0241 85.8072C81.0323 85.9065 81.0406 85.9976 81.0406 86.0886V91.9584H80.5957V84.9875H80.8429C80.8923 84.9875 80.9252 84.9875 80.95 85.0041C80.9747 85.0124 80.9994 85.0372 81.0323 85.0786L85.5305 91.114C85.5222 91.0146 85.514 90.9236 85.514 90.8325V84.9875H85.9506H85.9589Z" fill="#ADB4A4"/>
<path d="M94.3291 88.7959V91.2713C93.9831 91.5196 93.6124 91.7101 93.2252 91.8342C92.8298 91.9667 92.3931 92.0329 91.8988 92.0329C91.3468 92.0329 90.8608 91.9502 90.4159 91.7763C89.9793 91.6107 89.6003 91.3706 89.2955 91.056C88.9824 90.7414 88.7518 90.3689 88.587 89.9301C88.4222 89.4913 88.3398 89.0028 88.3398 88.4647C88.3398 87.9266 88.4222 87.4381 88.5788 86.9993C88.7435 86.5605 88.9742 86.188 89.2708 85.8734C89.5756 85.5588 89.9381 85.3187 90.3665 85.1531C90.7949 84.9876 91.2727 84.8965 91.8082 84.8965C92.0718 84.8965 92.319 84.913 92.5414 84.9544C92.7638 84.9876 92.9698 85.0455 93.1675 85.1117C93.357 85.1862 93.5382 85.269 93.703 85.3767C93.8678 85.476 94.0325 85.6002 94.1808 85.7327L94.0408 85.9479C93.9914 86.0224 93.9255 86.0473 93.8348 86.0059C93.7854 85.9893 93.7195 85.9396 93.6206 85.8651C93.53 85.7906 93.4064 85.7161 93.2417 85.6416C93.0851 85.5671 92.8792 85.4926 92.6485 85.4263C92.4096 85.3601 92.1213 85.3353 91.7835 85.3353C91.3304 85.3353 90.9267 85.4098 90.5642 85.5505C90.2017 85.6913 89.8887 85.8982 89.6333 86.1714C89.3779 86.4446 89.1802 86.7675 89.0401 87.1566C88.9001 87.5457 88.8341 87.9763 88.8341 88.4647C88.8341 88.9532 88.9001 89.392 89.0401 89.7811C89.1802 90.1702 89.3779 90.5013 89.6415 90.7745C89.9051 91.0477 90.2264 91.2547 90.5972 91.4037C90.9761 91.5445 91.3963 91.619 91.8659 91.619C92.0718 91.619 92.2613 91.6024 92.4343 91.5776C92.6073 91.5528 92.7721 91.5114 92.9368 91.47C93.1016 91.4286 93.2499 91.3623 93.3982 91.2961C93.5465 91.2299 93.6948 91.1471 93.8513 91.056V89.1767H92.5249C92.5249 89.1767 92.459 89.1684 92.4343 89.1436C92.4096 89.1187 92.4014 89.0939 92.4014 89.0691V88.7959H94.3127H94.3291Z" fill="#ADB4A4"/>
<path d="M105.764 88.7959V91.2713C105.418 91.5196 105.047 91.7101 104.66 91.8342C104.264 91.9667 103.828 92.0329 103.333 92.0329C102.781 92.0329 102.295 91.9502 101.85 91.7763C101.414 91.6107 101.035 91.3706 100.73 91.056C100.417 90.7414 100.186 90.3689 100.022 89.9301C99.8568 89.4913 99.7744 89.0028 99.7744 88.4647C99.7744 87.9266 99.8568 87.4381 100.013 86.9993C100.178 86.5605 100.409 86.188 100.705 85.8734C101.01 85.5588 101.373 85.3187 101.801 85.1531C102.229 84.9876 102.707 84.8965 103.243 84.8965C103.506 84.8965 103.754 84.913 103.976 84.9544C104.198 84.9876 104.404 85.0455 104.602 85.1117C104.792 85.1862 104.973 85.269 105.138 85.3767C105.302 85.476 105.467 85.6002 105.615 85.7327L105.475 85.9479C105.426 86.0224 105.36 86.0473 105.269 86.0059C105.22 85.9893 105.154 85.9396 105.055 85.8651C104.965 85.7906 104.841 85.7161 104.676 85.6416C104.52 85.5671 104.314 85.4926 104.083 85.4263C103.844 85.3601 103.556 85.3353 103.218 85.3353C102.765 85.3353 102.361 85.4098 101.999 85.5505C101.636 85.6913 101.323 85.8982 101.068 86.1714C100.812 86.4446 100.615 86.7675 100.475 87.1566C100.335 87.5457 100.269 87.9763 100.269 88.4647C100.269 88.9532 100.335 89.392 100.475 89.7811C100.615 90.1702 100.812 90.5013 101.076 90.7745C101.34 91.0477 101.661 91.2547 102.032 91.4037C102.411 91.5445 102.831 91.619 103.3 91.619C103.506 91.619 103.696 91.6024 103.869 91.5776C104.042 91.5528 104.207 91.5114 104.371 91.47C104.536 91.4286 104.684 91.3623 104.833 91.2961C104.981 91.2299 105.129 91.1471 105.286 91.056V89.1767H103.96C103.96 89.1767 103.894 89.1684 103.869 89.1436C103.844 89.1187 103.836 89.0939 103.836 89.0691V88.7959H105.747H105.764Z" fill="#ADB4A4"/>
<path d="M114.373 88.4647C114.373 89.0029 114.29 89.4913 114.134 89.9301C113.977 90.3689 113.747 90.7414 113.458 91.056C113.17 91.3706 112.816 91.6025 112.412 91.7763C112.008 91.9502 111.555 92.033 111.069 92.033C110.583 92.033 110.13 91.9502 109.726 91.7763C109.323 91.6107 108.977 91.3706 108.68 91.056C108.392 90.7414 108.161 90.3689 108.005 89.9301C107.848 89.4913 107.766 89.0029 107.766 88.4647C107.766 87.9266 107.848 87.4464 108.005 87.0076C108.161 86.5689 108.392 86.1963 108.68 85.8817C108.968 85.5671 109.323 85.327 109.726 85.1614C110.13 84.9876 110.583 84.9048 111.069 84.9048C111.555 84.9048 112.008 84.9876 112.412 85.1614C112.816 85.327 113.17 85.5754 113.458 85.8817C113.747 86.1963 113.977 86.5689 114.134 87.0076C114.29 87.4464 114.373 87.9349 114.373 88.4647ZM113.854 88.4647C113.854 87.9763 113.788 87.5458 113.656 87.1567C113.524 86.7676 113.335 86.4447 113.088 86.1715C112.84 85.8983 112.552 85.6996 112.206 85.5505C111.86 85.4098 111.481 85.3353 111.069 85.3353C110.657 85.3353 110.278 85.4098 109.932 85.5505C109.586 85.6913 109.298 85.8983 109.051 86.1715C108.804 86.4447 108.614 86.7676 108.474 87.1567C108.342 87.5458 108.268 87.9846 108.268 88.4647C108.268 88.9449 108.334 89.392 108.474 89.7728C108.614 90.1619 108.804 90.4848 109.051 90.758C109.298 91.0312 109.595 91.2299 109.932 91.3707C110.278 91.5114 110.657 91.5859 111.069 91.5859C111.481 91.5859 111.86 91.5197 112.206 91.3707C112.552 91.2299 112.84 91.0229 113.088 90.758C113.335 90.4848 113.524 90.1619 113.656 89.7728C113.788 89.3837 113.854 88.9532 113.854 88.4647Z" fill="#ADB4A4"/>
<path d="M122.917 88.4647C122.917 89.0029 122.834 89.4913 122.678 89.9301C122.521 90.3689 122.291 90.7414 122.002 91.056C121.714 91.3706 121.36 91.6025 120.956 91.7763C120.552 91.9502 120.099 92.033 119.613 92.033C119.127 92.033 118.674 91.9502 118.27 91.7763C117.867 91.6107 117.521 91.3706 117.224 91.056C116.936 90.7414 116.705 90.3689 116.548 89.9301C116.392 89.4913 116.31 89.0029 116.31 88.4647C116.31 87.9266 116.392 87.4464 116.548 87.0076C116.705 86.5689 116.936 86.1963 117.224 85.8817C117.512 85.5671 117.867 85.327 118.27 85.1614C118.674 84.9876 119.127 84.9048 119.613 84.9048C120.099 84.9048 120.552 84.9876 120.956 85.1614C121.36 85.327 121.714 85.5754 122.002 85.8817C122.291 86.1963 122.521 86.5689 122.678 87.0076C122.834 87.4464 122.917 87.9349 122.917 88.4647ZM122.398 88.4647C122.398 87.9763 122.332 87.5458 122.2 87.1567C122.068 86.7676 121.879 86.4447 121.632 86.1715C121.384 85.8983 121.096 85.6996 120.75 85.5505C120.404 85.4098 120.025 85.3353 119.613 85.3353C119.201 85.3353 118.822 85.4098 118.476 85.5505C118.13 85.6913 117.842 85.8983 117.595 86.1715C117.348 86.4447 117.158 86.7676 117.018 87.1567C116.886 87.5458 116.812 87.9846 116.812 88.4647C116.812 88.9449 116.878 89.392 117.018 89.7728C117.158 90.1619 117.348 90.4848 117.595 90.758C117.842 91.0312 118.138 91.2299 118.476 91.3707C118.822 91.5114 119.201 91.5859 119.613 91.5859C120.025 91.5859 120.404 91.5197 120.75 91.3707C121.096 91.2299 121.384 91.0229 121.632 90.758C121.879 90.4848 122.068 90.1619 122.2 89.7728C122.332 89.3837 122.398 88.9532 122.398 88.4647Z" fill="#ADB4A4"/>
<path d="M131.138 88.4647C131.138 89.0028 131.055 89.4913 130.899 89.9135C130.742 90.3357 130.512 90.7083 130.223 91.0146C129.935 91.3209 129.581 91.5445 129.177 91.71C128.773 91.8673 128.32 91.9501 127.834 91.9501H125.297V84.9792H127.834C128.32 84.9792 128.773 85.062 129.177 85.2193C129.581 85.3766 129.935 85.6084 130.223 85.9148C130.512 86.2211 130.742 86.5854 130.899 87.0159C131.055 87.4464 131.138 87.9266 131.138 88.4647ZM130.619 88.4647C130.619 87.9762 130.553 87.5457 130.421 87.1649C130.289 86.7841 130.1 86.4612 129.853 86.1963C129.606 85.9313 129.317 85.7326 128.971 85.5919C128.625 85.4511 128.246 85.3849 127.834 85.3849H125.808V91.5362H127.834C128.246 91.5362 128.625 91.4699 128.971 91.3292C129.317 91.1885 129.606 90.9898 129.853 90.7248C130.1 90.4599 130.289 90.137 130.421 89.7562C130.553 89.3754 130.619 88.9366 130.619 88.4481V88.4647Z" fill="#ADB4A4"/>
<path d="M136.896 85.8321C136.864 85.8901 136.822 85.9149 136.773 85.9149C136.732 85.9149 136.674 85.8818 136.608 85.8238C136.542 85.7659 136.452 85.6914 136.336 85.6251C136.221 85.5506 136.081 85.4844 135.908 85.4182C135.735 85.3519 135.521 85.3271 135.274 85.3271C135.026 85.3271 134.804 85.3602 134.606 85.4347C134.417 85.5092 134.252 85.6086 134.128 85.7328C133.997 85.857 133.898 86.006 133.832 86.1633C133.766 86.3206 133.733 86.5027 133.733 86.6766C133.733 86.9167 133.782 87.1071 133.881 87.2644C133.98 87.4217 134.112 87.5541 134.277 87.6618C134.441 87.7694 134.623 87.8605 134.837 87.935C135.043 88.0095 135.257 88.084 135.48 88.1502C135.702 88.2247 135.908 88.2992 136.122 88.3903C136.328 88.4814 136.518 88.589 136.682 88.7215C136.847 88.8539 136.979 89.0112 137.078 89.2099C137.177 89.4003 137.226 89.6404 137.226 89.9302C137.226 90.22 137.177 90.4932 137.078 90.7581C136.979 91.023 136.831 91.2383 136.641 91.4287C136.452 91.6191 136.221 91.7681 135.949 91.8758C135.677 91.9834 135.364 92.0413 135.01 92.0413C134.549 92.0413 134.161 91.9585 133.832 91.8012C133.502 91.6357 133.214 91.4204 132.967 91.1306L133.107 90.9154C133.148 90.8657 133.189 90.8409 133.247 90.8409C133.28 90.8409 133.313 90.8574 133.362 90.8988C133.412 90.9402 133.461 90.9899 133.527 91.0479C133.593 91.1058 133.667 91.1638 133.766 91.2383C133.865 91.3128 133.964 91.3707 134.087 91.4287C134.211 91.4866 134.351 91.5363 134.507 91.5694C134.664 91.6108 134.845 91.6274 135.043 91.6274C135.315 91.6274 135.562 91.586 135.776 91.5032C135.99 91.4204 136.172 91.3045 136.32 91.1638C136.468 91.023 136.583 90.8492 136.658 90.6505C136.74 90.4518 136.773 90.2365 136.773 90.013C136.773 89.7646 136.723 89.5659 136.625 89.4086C136.526 89.2513 136.394 89.1189 136.229 89.0112C136.064 88.9036 135.883 88.8125 135.677 88.7463C135.471 88.6718 135.257 88.6056 135.035 88.5393C134.812 88.4731 134.606 88.3903 134.392 88.3075C134.186 88.2247 133.997 88.1171 133.832 87.9764C133.667 87.8439 133.535 87.6783 133.436 87.4796C133.338 87.2809 133.288 87.0326 133.288 86.7345C133.288 86.5027 133.329 86.2792 133.42 86.0556C133.511 85.8404 133.634 85.65 133.807 85.4844C133.98 85.3188 134.186 85.1864 134.433 85.087C134.68 84.9877 134.969 84.938 135.29 84.938C135.653 84.938 135.974 84.9959 136.254 85.1118C136.542 85.2278 136.798 85.4016 137.037 85.6417L136.921 85.8652L136.896 85.8321Z" fill="#ADB4A4"/>
</g>
<defs>
<clipPath id="clip0_460_8897">
<rect width="180" height="85" fill="white" transform="translate(0 7.03296)"/>
</clipPath>
</defs>
</svg>
