<svg width="180" height="101" viewBox="0 0 180 101" fill="none" xmlns="http://www.w3.org/2000/svg">
<path d="M110.621 31.6631C108.781 32.3731 106.921 33.0331 104.891 33.6431C95.9913 36.3031 86.7213 38.0631 77.4713 39.1031C72.6013 39.6431 67.7413 40.0531 62.8313 40.1731C60.5413 40.2331 58.3613 40.1931 56.0713 40.1631C52.1013 40.0831 48.6713 39.9031 44.8013 39.6131C42.7013 39.4531 40.5513 39.1831 38.3913 38.8431C36.2213 38.4631 33.9413 37.9131 32.0813 36.4231C30.8413 35.4231 29.9613 33.8131 30.0013 32.1531C30.0213 30.4931 30.7913 28.9831 31.8413 27.8431C32.6413 26.9731 33.6413 26.2631 34.7613 25.8231C35.8613 25.4031 36.9813 25.1731 38.0913 25.0231C40.3113 24.7331 42.5213 24.7031 44.7013 24.8331C49.6813 25.1231 54.4513 25.6131 59.4513 26.1931C61.3113 26.4031 63.1713 26.6431 65.0313 26.9331C67.5813 27.3531 69.9813 27.8431 72.5013 28.3631C74.2413 28.7131 75.9813 29.0731 77.7213 29.4231C80.8613 30.1031 83.9913 30.8831 87.0813 31.7331C89.0713 32.2931 91.0813 32.8931 92.8313 33.5031C94.5813 34.1031 96.0713 34.7231 96.4713 35.0131C97.3113 35.6431 95.1013 35.3031 90.8013 34.1431C89.6113 33.8131 88.3613 33.4631 87.1313 33.1231C85.4113 32.6731 83.7513 32.2731 82.0213 31.8831C79.2613 31.2131 76.5013 30.5631 73.7613 29.9531C70.6413 29.2931 67.9113 28.8531 64.8713 28.3831C61.3613 27.8431 57.7413 27.3531 54.2113 26.9731C51.7713 26.7231 49.3213 26.5031 46.8613 26.3631C44.6513 26.2331 42.8013 26.1531 40.6913 26.2831C39.5813 26.3531 38.4713 26.4531 37.3913 26.6531C36.3113 26.8531 35.2713 27.1331 34.4013 27.6431C32.6613 28.6731 31.2813 30.6431 31.4513 32.5731C31.5213 33.3131 31.8213 34.0431 32.3013 34.6431C32.7913 35.2431 33.4513 35.7231 34.1813 36.1131C35.6713 36.8731 37.3913 37.2531 39.1413 37.5131C42.6713 38.0631 46.2413 38.4131 49.7913 38.6231C51.8013 38.7331 53.8313 38.8131 55.8013 38.8131C57.8713 38.8031 59.9013 38.7531 62.0013 38.6831C65.0113 38.5831 68.3013 38.4831 71.3613 38.2631C74.8813 38.0131 78.3913 37.6231 81.8913 37.1431C84.7613 36.7431 87.6213 36.2731 90.4613 35.7131C92.8513 35.2631 95.7613 34.5531 97.9813 34.0731C98.9313 33.8531 100.111 33.5731 101.101 33.2831C103.411 32.6731 105.691 31.9431 107.951 31.1631C111.601 29.8531 115.451 28.2831 118.581 26.5431C121.191 25.1431 123.371 23.5631 122.971 24.2731C122.671 24.7531 121.751 25.8131 119.721 27.1631C119.191 27.5131 118.641 27.8731 118.061 28.1931C115.641 29.5831 113.211 30.6631 110.631 31.6831L110.621 31.6631Z" fill="#ADB4A4"/>
<path d="M94.5917 28.2431C93.4117 27.4831 92.2418 26.7131 90.9918 25.8631C85.5118 22.1431 79.8818 18.4931 74.3418 14.8031C71.4318 12.8631 68.4918 10.9931 65.5518 9.11307C64.1718 8.23307 62.8818 7.38307 61.4818 6.55307C59.0518 5.12307 56.9118 3.95307 54.4118 2.85307C53.0618 2.31307 51.6018 1.46307 50.4418 1.47307C49.9018 1.46307 49.3418 1.76307 49.1118 2.13307C48.8818 2.47307 48.9718 2.89307 49.3518 3.46307C50.4918 5.02307 51.8018 6.64307 53.1118 8.15307C55.1218 10.4731 57.3118 12.6631 59.5618 14.7231C62.1818 17.0731 64.8418 19.1931 67.9118 20.9731C69.0518 21.6531 70.2318 22.2331 71.4118 22.8231C73.0417 23.6231 74.6018 24.3531 76.3118 24.9531C77.4918 25.3531 78.7017 25.6931 79.9217 25.9631C82.1217 26.4531 84.3817 26.7831 86.6217 26.9031C88.0718 26.9931 89.5417 26.9731 90.8517 26.9331C92.1618 26.9031 93.2918 26.8231 93.6618 26.9331C94.0418 27.0431 93.8618 27.2531 93.1818 27.5131C92.5018 27.7731 91.3018 28.0731 89.6717 28.1931C88.7717 28.2831 87.8118 28.2531 86.8818 28.2331C85.5818 28.1931 84.3218 28.1431 83.0317 27.9631C80.9618 27.6931 78.9417 27.1731 76.9818 26.5331C74.7718 25.8031 72.8618 25.1031 70.8318 24.1431C68.4918 23.0131 66.2118 21.6131 64.1017 20.1231C62.6517 19.0831 61.2418 17.9831 59.8718 16.8331C58.6518 15.7931 57.6018 14.9231 56.4718 13.8431C54.0718 11.5731 51.8818 9.04307 49.8518 6.46307L48.6718 4.93307C48.3018 4.42307 47.8018 3.86307 47.6118 2.99307C47.5218 2.56307 47.5718 2.06307 47.7618 1.64307C47.9518 1.22307 48.2518 0.893068 48.5818 0.653068C49.2318 0.153068 50.1218 -0.0369324 50.8718 0.0530676C51.6318 0.123068 52.3018 0.383068 52.9218 0.643068L54.7018 1.45307C55.8718 2.01307 57.0418 2.58307 58.1818 3.18307C59.4718 3.86307 60.7518 4.58307 62.0018 5.28307C63.3118 6.00307 64.6017 6.73307 65.8918 7.52307C67.7618 8.65307 69.7118 10.0131 71.5418 11.2431C73.6518 12.6531 75.7718 14.0631 77.8918 15.4731L83.1217 18.9131C84.5918 19.8731 86.4118 21.0231 87.7418 21.9831C88.3118 22.3931 89.0418 22.8731 89.6618 23.2831L93.9718 26.1431C96.3218 27.6831 98.7918 29.3831 100.892 30.9231C102.632 32.2031 104.092 33.5031 103.482 33.4231C103.052 33.3731 102.142 32.9931 100.662 32.1131C100.282 31.8831 99.8818 31.6331 99.4818 31.3931C97.8018 30.3431 96.2418 29.3131 94.5818 28.2431H94.5917Z" fill="#ADB4A4"/>
<path d="M49.1916 62.3661C50.3036 63.5137 50.864 64.9014 50.864 66.5116C50.864 67.8638 50.5171 69.0648 49.8321 70.1056C49.1471 71.1464 48.1597 71.9649 46.8786 72.5431C45.5976 73.1213 44.0764 73.4149 42.3239 73.4149C41.6834 73.4149 41.1407 73.406 40.687 73.3793C39.1658 73.3349 37.6713 73.3082 36.2034 73.3082C34.2552 73.3082 32.7874 73.3437 31.791 73.4149V72.7032C32.645 72.6588 33.2678 72.5609 33.6592 72.4186C34.0506 72.2762 34.3175 72.0005 34.4598 71.6001C34.6022 71.1998 34.6733 70.5415 34.6733 69.643V51.9933C34.6733 51.0948 34.6022 50.4365 34.4598 50.0362C34.3175 49.6359 34.0506 49.3601 33.6592 49.2178C33.2678 49.0755 32.645 48.9776 31.791 48.9331V48.2214C32.7874 48.2926 34.2374 48.3282 36.1323 48.3282L39.9753 48.2926C40.429 48.2659 40.9361 48.257 41.5054 48.257C43.9252 48.257 45.7844 48.7641 47.0743 49.7871C48.3643 50.8102 49.0137 52.1624 49.0137 53.8437C49.0137 55.2226 48.5778 56.4502 47.7149 57.5444C46.8519 58.6387 45.482 59.466 43.6049 60.0353V60.1065C46.2114 60.4623 48.0796 61.2185 49.1916 62.3661ZM38.9612 49.1822C38.5965 49.3512 38.3385 49.6448 38.1961 50.0718C38.0538 50.4988 37.9826 51.1393 37.9826 51.9933V60.0353H40.3668C42.315 60.0353 43.6672 59.5105 44.4411 58.4518C45.2151 57.3932 45.5976 55.9876 45.5976 54.2351C45.5976 52.4826 45.2062 51.1304 44.4233 50.2497C43.6405 49.369 42.3684 48.9331 40.6158 48.9331C39.8775 48.9331 39.3259 49.0132 38.9612 49.1822ZM47.3056 66.3693C47.3056 64.4922 46.7986 63.0689 45.7933 62.0992C44.7881 61.1295 43.1779 60.6403 40.9717 60.6403H37.9826V69.643C37.9826 70.497 38.0538 71.1286 38.1961 71.529C38.3385 71.9293 38.5965 72.214 38.9612 72.3652C39.3259 72.5164 39.8953 72.5965 40.6514 72.5965C45.0905 72.5965 47.3056 70.5237 47.3056 66.3693Z" fill="#ADB4A4"/>
<path d="M68.0688 56.9927C69.5545 58.594 70.2928 61.0226 70.2928 64.2697C70.2928 67.5167 69.5545 69.9364 68.0688 71.5288C66.5832 73.1212 64.635 73.9129 62.2153 73.9129C59.7956 73.9129 57.8473 73.1212 56.3617 71.5288C54.8761 69.9364 54.1377 67.5167 54.1377 64.2697C54.1377 61.0226 54.8761 58.594 56.3617 56.9927C57.8473 55.3915 59.7956 54.5908 62.2153 54.5908C64.635 54.5908 66.5832 55.3915 68.0688 56.9927ZM58.8348 57.4909C58.0075 58.9499 57.5893 61.2094 57.5893 64.2697C57.5893 67.3299 58.0075 69.5806 58.8348 71.0306C59.6621 72.4807 60.7919 73.2013 62.2153 73.2013C63.6386 73.2013 64.7684 72.4807 65.5957 71.0306C66.4231 69.5806 66.8412 67.3299 66.8412 64.2697C66.8412 61.2094 66.4231 58.9499 65.5957 57.4909C64.7684 56.032 63.6386 55.3025 62.2153 55.3025C60.7919 55.3025 59.6621 56.032 58.8348 57.4909Z" fill="#ADB4A4"/>
<path d="M78.726 55.1249H83.9925V55.8366H78.726V69.6076C78.726 70.6751 78.9218 71.4491 79.3132 71.9206C79.7046 72.392 80.2651 72.6322 81.0034 72.6322C81.7418 72.6322 82.3645 72.3387 82.8894 71.7426C83.4142 71.1466 83.8501 70.1769 84.206 68.8247L84.9177 69.0027C84.3216 72.2764 82.7826 73.9133 80.2917 73.9133C79.4822 73.9133 78.8239 73.8154 78.299 73.6286C77.7742 73.4418 77.3116 73.1393 76.9113 72.739C76.3864 72.2141 76.0306 71.5736 75.826 70.8174C75.6213 70.0613 75.5235 69.0382 75.5235 67.7572V55.8366H72.1074V55.1249H75.5235V49.6806C76.849 49.6361 77.9165 49.467 78.726 49.1824V55.1249Z" fill="#ADB4A4"/>
<path d="M87.0355 72.5429C86.3149 71.7957 85.9502 70.7549 85.9502 69.4293C85.9502 68.3618 86.2438 67.4811 86.822 66.7961C87.4002 66.1111 88.0941 65.5596 88.8859 65.1593C89.6776 64.759 90.7274 64.3319 92.0351 63.8782C93.3606 63.4246 94.348 63.0153 94.9885 62.6328C95.629 62.2503 95.9493 61.7432 95.9493 61.1027V58.8965C95.9493 57.5176 95.6557 56.5746 95.0775 56.0676C94.4993 55.5605 93.6808 55.3025 92.64 55.3025C90.9764 55.3025 89.8022 55.7295 89.1172 56.5835C89.5887 56.6992 89.989 56.9483 90.3092 57.3308C90.6295 57.7133 90.7896 58.1848 90.7896 58.7541C90.7896 59.3235 90.6028 59.8128 90.2203 60.1597C89.8378 60.5067 89.3574 60.6757 88.7613 60.6757C88.0941 60.6757 87.596 60.4711 87.2668 60.053C86.9377 59.6349 86.7686 59.1367 86.7686 58.5406C86.7686 57.9446 86.9021 57.4998 87.1778 57.1173C87.4536 56.7348 87.8628 56.3611 88.4055 55.9786C88.9748 55.5783 89.6954 55.2402 90.5761 54.9822C91.4568 54.7243 92.4176 54.5908 93.4584 54.5908C95.3088 54.5908 96.7055 55.0267 97.6573 55.9074C98.2534 56.4501 98.6448 57.1084 98.8494 57.8823C99.054 58.6563 99.1519 59.6704 99.1519 60.9248V70.8171C99.1519 71.4132 99.2319 71.8402 99.401 72.0982C99.57 72.3561 99.8546 72.4896 100.255 72.4896C100.54 72.4896 100.807 72.4273 101.056 72.2939C101.305 72.1604 101.572 71.9825 101.856 71.7423L102.248 72.3472C101.634 72.8187 101.1 73.1568 100.664 73.3614C100.228 73.566 99.6767 73.6638 99.0095 73.6638C97.8708 73.6638 97.0791 73.3792 96.6254 72.8098C96.1717 72.2405 95.9493 71.4665 95.9493 70.4969C95.2376 71.68 94.4192 72.5074 93.494 72.97C92.5688 73.4326 91.528 73.6638 90.3626 73.6638C88.8681 73.6638 87.7561 73.2902 87.0355 72.5429ZM95.9493 69.5361V62.5616C95.7358 62.8908 95.4422 63.1666 95.0597 63.3801C94.6772 63.5936 94.0989 63.8782 93.3161 64.2341C92.4176 64.6166 91.6881 64.9725 91.1277 65.3194C90.5672 65.6663 90.0868 66.1289 89.6865 66.725C89.2862 67.321 89.0816 68.0772 89.0816 69.0023C89.0816 70.0699 89.3396 70.8794 89.8644 71.4221C90.3893 71.9647 91.0743 72.2405 91.9283 72.2405C93.494 72.2405 94.8373 71.342 95.9493 69.5361Z" fill="#ADB4A4"/>
<path d="M119.043 55.943C119.496 56.4145 119.817 57.0105 120.003 57.7222C120.19 58.4339 120.288 59.3947 120.288 60.6045V70.1054C120.288 71.0751 120.493 71.7512 120.893 72.1159C121.293 72.4807 121.996 72.6675 122.992 72.6675V73.4148C120.813 73.3169 119.39 73.2724 118.722 73.2724C118.055 73.2724 116.73 73.3169 114.737 73.4148V72.6675C115.618 72.6675 116.223 72.4807 116.569 72.1159C116.916 71.7512 117.085 71.0751 117.085 70.1054V59.8217C117.085 58.4962 116.899 57.482 116.516 56.7792C116.134 56.0765 115.369 55.7295 114.203 55.7295C113.233 55.7295 112.362 56.0142 111.606 56.5835C110.849 57.1529 110.262 57.9268 109.844 58.9143C109.426 59.9017 109.221 60.9959 109.221 62.2058V70.1054C109.221 71.0751 109.39 71.7512 109.737 72.1159C110.084 72.4807 110.689 72.6675 111.57 72.6675V73.4148C109.577 73.3169 108.252 73.2724 107.585 73.2724C106.917 73.2724 105.494 73.3169 103.314 73.4148V72.6675C104.311 72.6675 105.014 72.4807 105.414 72.1159C105.814 71.7512 106.019 71.0751 106.019 70.1054V58.9677C106.019 57.8734 105.814 57.0817 105.414 56.5835C105.014 56.0854 104.311 55.8363 103.314 55.8363V55.089C104.071 55.1602 104.809 55.1957 105.521 55.1957C107.015 55.1957 108.252 55.0267 109.221 54.6976V58.8965C109.817 57.3753 110.636 56.2811 111.694 55.605C112.753 54.9289 113.945 54.5908 115.271 54.5908C116.934 54.5908 118.189 55.0445 119.043 55.943Z" fill="#ADB4A4"/>
<path d="M130.466 70.1056C130.466 71.0752 130.67 71.7513 131.07 72.1161C131.471 72.4808 132.174 72.6676 133.17 72.6676V73.4149C130.99 73.317 129.549 73.2725 128.864 73.2725C128.179 73.2725 126.738 73.317 124.559 73.4149V72.6676C125.555 72.6676 126.258 72.4808 126.658 72.1161C127.058 71.7513 127.263 71.0752 127.263 70.1056V58.9678C127.263 57.8736 127.058 57.0818 126.658 56.5836C126.258 56.0855 125.555 55.8364 124.559 55.8364V55.0891C125.315 55.1603 126.053 55.1959 126.765 55.1959C128.259 55.1959 129.496 55.0268 130.466 54.6977V70.1056ZM130.216 46.8692C130.67 47.3229 130.893 47.8567 130.893 48.4705C130.893 49.0843 130.67 49.6181 130.216 50.0718C129.763 50.5255 129.229 50.7479 128.615 50.7479C128.001 50.7479 127.468 50.5255 127.014 50.0718C126.56 49.6181 126.338 49.0843 126.338 48.4705C126.338 47.8567 126.56 47.3229 127.014 46.8692C127.468 46.4155 128.001 46.1931 128.615 46.1931C129.229 46.1931 129.763 46.4155 130.216 46.8692Z" fill="#ADB4A4"/>
<path d="M148.009 55.7295C149.121 56.4679 149.681 57.3753 149.681 58.4695C149.681 59.0833 149.503 59.5726 149.147 59.9284C148.792 60.2843 148.338 60.4622 147.795 60.4622C147.253 60.4622 146.79 60.3021 146.407 59.9818C146.025 59.6615 145.838 59.2256 145.838 58.683C145.838 58.1848 145.98 57.7667 146.265 57.4197C146.55 57.0728 146.906 56.8415 147.333 56.7259C147.092 56.2989 146.674 55.943 146.069 55.6583C145.464 55.3737 144.815 55.2313 144.13 55.2313C143.249 55.2313 142.431 55.5071 141.675 56.0676C140.919 56.628 140.287 57.5532 139.789 58.8431C139.291 60.133 139.041 61.8411 139.041 63.9494C139.041 66.894 139.513 69.029 140.465 70.3723C141.417 71.7156 142.644 72.3828 144.166 72.3828C145.189 72.3828 146.149 72.0893 147.066 71.4932C147.982 70.8972 148.729 69.972 149.325 68.7177L150.001 68.9668C149.601 70.319 148.845 71.4843 147.742 72.454C146.639 73.4237 145.206 73.9129 143.454 73.9129C141.986 73.9129 140.652 73.5304 139.451 72.7742C138.25 72.0181 137.307 70.915 136.622 69.4827C135.937 68.0505 135.59 66.378 135.59 64.4832C135.59 62.5883 135.937 60.8536 136.64 59.3591C137.342 57.8645 138.321 56.6992 139.575 55.8541C140.83 55.0089 142.271 54.5908 143.881 54.5908C145.491 54.5908 146.843 54.9734 148.009 55.7295Z" fill="#ADB4A4"/>
<path d="M41.2816 82.813V94.343H40.4416V88.823H33.2316V94.343H32.3916V82.813H33.2316V88.193H40.4516V82.813H41.2916H41.2816Z" fill="#ADB4A4"/>
<path d="M56.8914 88.5731C56.8914 89.4631 56.7614 90.2731 56.4914 90.9931C56.2214 91.7231 55.8514 92.3331 55.3714 92.8531C54.8914 93.3731 54.3114 93.7631 53.6314 94.0431C52.9514 94.3231 52.2114 94.4631 51.3914 94.4631C50.5714 94.4631 49.8314 94.3231 49.1614 94.0431C48.4914 93.7631 47.9114 93.3631 47.4214 92.8531C46.9314 92.3431 46.5614 91.7231 46.3014 90.9931C46.0314 90.2631 45.9014 89.4631 45.9014 88.5731C45.9014 87.6831 46.0314 86.8831 46.3014 86.1531C46.5714 85.4231 46.9414 84.8131 47.4214 84.2931C47.9014 83.7731 48.4814 83.3831 49.1614 83.1031C49.8314 82.8231 50.5814 82.6831 51.3914 82.6831C52.2014 82.6831 52.9514 82.8231 53.6314 83.1031C54.3114 83.3831 54.8914 83.7831 55.3714 84.2931C55.8514 84.8031 56.2314 85.4331 56.4914 86.1531C56.7614 86.8831 56.8914 87.6831 56.8914 88.5731ZM56.0314 88.5731C56.0314 87.7731 55.9214 87.0431 55.7014 86.4031C55.4814 85.7631 55.1614 85.2231 54.7514 84.7731C54.3414 84.3231 53.8514 83.9831 53.2814 83.7531C52.7114 83.5231 52.0814 83.4031 51.3914 83.4031C50.7014 83.4031 50.0814 83.5231 49.5114 83.7531C48.9414 83.9831 48.4514 84.3331 48.0414 84.7731C47.6314 85.2131 47.3114 85.7631 47.0914 86.4031C46.8614 87.0431 46.7514 87.7631 46.7514 88.5731C46.7514 89.3831 46.8614 90.1031 47.0914 90.7431C47.3214 91.3831 47.6314 91.9231 48.0414 92.3731C48.4514 92.8231 48.9414 93.1631 49.5114 93.3931C50.0814 93.6231 50.7114 93.7431 51.3914 93.7431C52.0714 93.7431 52.7114 93.6231 53.2814 93.3931C53.8514 93.1631 54.3414 92.8231 54.7514 92.3731C55.1614 91.9231 55.4714 91.3831 55.7014 90.7431C55.9314 90.1031 56.0314 89.3831 56.0314 88.5731Z" fill="#ADB4A4"/>
<path d="M65.7216 93.743C66.2716 93.743 66.7716 93.643 67.2116 93.453C67.6516 93.263 68.0216 92.993 68.3216 92.653C68.6216 92.313 68.8616 91.903 69.0216 91.443C69.1816 90.983 69.2616 90.473 69.2616 89.943V82.813H70.0916V89.943C70.0916 90.583 69.9916 91.173 69.7916 91.723C69.5916 92.273 69.3016 92.753 68.9216 93.163C68.5416 93.573 68.0816 93.893 67.5416 94.133C67.0016 94.363 66.3916 94.483 65.7216 94.483C65.0516 94.483 64.4416 94.363 63.9016 94.133C63.3616 93.903 62.9016 93.573 62.5216 93.163C62.1416 92.753 61.8516 92.273 61.6516 91.723C61.4516 91.173 61.3516 90.573 61.3516 89.943V82.813H62.1916V89.933C62.1916 90.473 62.2716 90.973 62.4316 91.433C62.5916 91.893 62.8216 92.303 63.1216 92.643C63.4216 92.983 63.7916 93.253 64.2316 93.453C64.6716 93.653 65.1616 93.743 65.7216 93.743Z" fill="#ADB4A4"/>
<path d="M80.8913 84.2131C80.8413 84.3031 80.7713 84.3531 80.6813 84.3531C80.6113 84.3531 80.5213 84.3031 80.4113 84.2031C80.3013 84.1031 80.1513 83.9931 79.9613 83.8731C79.7713 83.7531 79.5313 83.6431 79.2513 83.5331C78.9613 83.4331 78.6113 83.3831 78.1913 83.3831C77.7713 83.3831 77.4013 83.4431 77.0913 83.5631C76.7713 83.6831 76.5113 83.8431 76.2913 84.0531C76.0813 84.2631 75.9113 84.5031 75.8013 84.7731C75.6913 85.0431 75.6313 85.3331 75.6313 85.6331C75.6313 86.0231 75.7113 86.3431 75.8813 86.6031C76.0513 86.8631 76.2613 87.0731 76.5413 87.2531C76.8213 87.4331 77.1213 87.5831 77.4613 87.7031C77.8013 87.8231 78.1613 87.9431 78.5213 88.0631C78.8813 88.1831 79.2413 88.3131 79.5813 88.4631C79.9213 88.6131 80.2313 88.7831 80.5013 89.0031C80.7713 89.2231 80.9913 89.4831 81.1613 89.8031C81.3313 90.1231 81.4113 90.5131 81.4113 90.9931C81.4113 91.4731 81.3313 91.9331 81.1613 92.3531C80.9913 92.7831 80.7513 93.1531 80.4413 93.4631C80.1313 93.7831 79.7413 94.0231 79.2813 94.2131C78.8213 94.3931 78.3013 94.4831 77.7213 94.4831C76.9613 94.4831 76.3013 94.3531 75.7613 94.0831C75.2213 93.8131 74.7313 93.4431 74.3213 92.9831L74.5513 92.6231C74.6213 92.5431 74.6913 92.5031 74.7813 92.5031C74.8313 92.5031 74.8913 92.5331 74.9713 92.6031C75.0513 92.6631 75.1413 92.7531 75.2513 92.8431C75.3613 92.9431 75.4913 93.0431 75.6413 93.1531C75.7913 93.2631 75.9713 93.3631 76.1713 93.4631C76.3713 93.5631 76.6013 93.6431 76.8613 93.7031C77.1213 93.7731 77.4213 93.8031 77.7513 93.8031C78.2113 93.8031 78.6113 93.7331 78.9713 93.5931C79.3313 93.4531 79.6313 93.2631 79.8813 93.0231C80.1313 92.7831 80.3213 92.5031 80.4513 92.1731C80.5813 91.8431 80.6513 91.4931 80.6513 91.1131C80.6513 90.7031 80.5713 90.3731 80.4013 90.1031C80.2313 89.8431 80.0213 89.6231 79.7413 89.4431C79.4613 89.2631 79.1613 89.1231 78.8213 89.0031C78.4813 88.8831 78.1213 88.7631 77.7613 88.6531C77.4013 88.5431 77.0413 88.4131 76.7013 88.2731C76.3513 88.1331 76.0513 87.9531 75.7813 87.7331C75.5113 87.5131 75.2913 87.2431 75.1213 86.9131C74.9513 86.5831 74.8713 86.1731 74.8713 85.6831C74.8713 85.2931 74.9413 84.9231 75.0913 84.5631C75.2413 84.2031 75.4513 83.8931 75.7313 83.6131C76.0113 83.3431 76.3613 83.1231 76.7813 82.9531C77.2013 82.7831 77.6713 82.7031 78.2013 82.7031C78.8013 82.7031 79.3313 82.8031 79.8113 82.9931C80.2813 83.1831 80.7213 83.4731 81.1113 83.8631L80.9113 84.2431L80.8913 84.2131Z" fill="#ADB4A4"/>
<path d="M92.9017 93.653L92.8817 94.343H85.9717V82.813H92.8817V83.503H86.8117V88.163H91.8617V88.843H86.8117V93.653H92.9017Z" fill="#ADB4A4"/>
</svg>
