<svg width="96" height="96" viewBox="0 0 96 96" fill="none" xmlns="http://www.w3.org/2000/svg">
<path d="M49.7632 77V83.852H45.6547V83.1159H48.9335V80.8007H45.9625V80.0647H48.9335V77H49.7632Z" fill="white"/>
<path d="M43.3126 76.6761L41.7879 83.3563L37.7563 82.4362L37.9201 81.7186L41.1428 82.4541L41.658 80.1969L38.644 79.509L38.8078 78.7914L41.8217 79.4793L42.3399 77.2091L39.065 76.4616L39.2288 75.744L43.3126 76.6761Z" fill="white"/>
<path d="M36.9608 74.8714L37.7445 75.2488L32.5047 80.3306L31.733 79.959L32.4392 72.6939L33.2229 73.0714L32.5651 79.1565L32.6133 79.1798L36.9608 74.8714ZM35.5101 77.1435L32.351 75.6222L32.6704 74.9591L35.8294 76.4804L35.5101 77.1435Z" fill="white"/>
<path d="M27.8308 76.8313L27.3718 77.4068L23.354 74.2027L23.8129 73.6272L25.4975 74.9706L29.3107 70.189L29.9594 70.7063L26.1462 75.488L27.8308 76.8313Z" fill="white"/>
<path d="M18.7966 68.8834L18.2793 68.2347L21.8263 65.406C22.1925 65.114 22.5883 64.9396 23.0137 64.8828C23.436 64.8256 23.8544 64.887 24.269 65.0671C24.6819 65.2485 25.0559 65.5493 25.391 65.9696C25.7262 66.3899 25.9362 66.8214 26.0213 67.2643C26.1045 67.7086 26.072 68.131 25.9237 68.5318C25.7722 68.9321 25.5134 69.2783 25.1472 69.5704L21.6002 72.399L21.0829 71.7503L24.5775 68.9634C24.8391 68.7548 25.026 68.5116 25.1383 68.2338C25.2488 67.9574 25.2776 67.6662 25.2248 67.3603C25.1688 67.054 25.022 66.7517 24.7842 66.4535C24.5463 66.1553 24.2844 65.9449 23.9982 65.8222C23.7103 65.7009 23.4201 65.6642 23.1274 65.7122C22.8316 65.7598 22.5529 65.8879 22.2913 66.0965L18.7966 68.8834Z" fill="white"/>
<path d="M22.6625 62.226L16.4891 65.1989L15.4845 63.113C15.2523 62.6307 15.144 62.1951 15.1598 61.8063C15.1735 61.4184 15.2873 61.0814 15.501 60.7953C15.7147 60.5092 16.0035 60.2785 16.3672 60.1034C16.731 59.9282 17.0893 59.8472 17.4423 59.8605C17.7952 59.8737 18.1261 59.9953 18.4349 60.2254C18.7418 60.4564 19.0103 60.811 19.2407 61.2893L20.0536 62.9773L19.3784 63.3025L18.5771 61.6386C18.4183 61.309 18.2424 61.067 18.0491 60.9125C17.8549 60.7559 17.6476 60.6751 17.4272 60.6698C17.2039 60.6635 16.9686 60.7198 16.7214 60.8389C16.4742 60.9579 16.2805 61.1082 16.1401 61.2896C15.9997 61.4711 15.9282 61.6875 15.9255 61.9389C15.9207 62.1912 15.9987 62.4842 16.1593 62.8178L16.7922 64.132L22.3025 61.4784L22.6625 62.226ZM18.4899 60.6556L20.5315 57.8009L20.9496 58.669L18.8964 61.4997L18.4899 60.6556Z" fill="white"/>
<path d="M20.1307 56.2198L13.4505 57.7445L12.5303 53.7129L13.2479 53.5491L13.9834 56.7718L16.2406 56.2566L15.5527 53.2427L16.2703 53.0789L16.9582 56.0928L19.2284 55.5747L18.481 52.2998L19.1986 52.136L20.1307 56.2198Z" fill="white"/>
<path d="M19 48.3962V50.5107H12.148V48.3025C12.148 47.6378 12.2852 47.069 12.5595 46.5962C12.8316 46.1233 13.2231 45.7609 13.7339 45.5088C14.2424 45.2568 14.8513 45.1308 15.5606 45.1308C16.2744 45.1308 16.8889 45.2579 17.4041 45.5122C17.9171 45.7665 18.3119 46.1367 18.5885 46.623C18.8628 47.1092 19 47.7003 19 48.3962ZM18.2639 49.6809V48.4497C18.2639 47.8832 18.1547 47.4137 17.9361 47.0412C17.7175 46.6687 17.4063 46.391 17.0026 46.2081C16.5989 46.0252 16.1182 45.9337 15.5606 45.9337C15.0075 45.9337 14.5313 46.0241 14.132 46.2047C13.7305 46.3854 13.4227 46.6553 13.2086 47.0144C12.9922 47.3735 12.8841 47.8207 12.8841 48.356V49.6809H18.2639Z" fill="white"/>
<path d="M20.8734 37.4905L14.6999 34.5175L15.7045 32.4316C15.9377 31.9473 16.2158 31.5935 16.5387 31.3702C16.8605 31.144 17.205 31.0276 17.572 31.0212C17.939 31.0147 18.3044 31.0991 18.6681 31.2742C19.0319 31.4494 19.3266 31.6829 19.5524 31.9749C19.7792 32.2648 19.907 32.6061 19.9358 32.9987C19.9625 33.3904 19.8603 33.8264 19.629 34.3066L18.9089 35.8018L18.2458 35.4824L18.9542 34.0114C19.1139 33.6798 19.1848 33.386 19.167 33.1298C19.1493 32.8737 19.0647 32.6535 18.9133 32.4692C18.7609 32.2819 18.5611 32.1288 18.3139 32.0097C18.0667 31.8907 17.8234 31.8305 17.584 31.829C17.3455 31.8256 17.1221 31.8987 16.9139 32.0485C16.7036 32.1973 16.5176 32.4394 16.356 32.775L15.7231 34.0893L21.2334 36.7429L20.8734 37.4905Z" fill="white"/>
<path d="M24.1893 31.3448L18.8322 27.0727L20.2758 25.2626C20.6095 24.8441 20.955 24.5575 21.3121 24.403C21.6676 24.2471 22.0205 24.2034 22.3711 24.2718C22.7216 24.3402 23.0547 24.5003 23.3703 24.752C23.686 25.0037 23.9144 25.2915 24.0556 25.6152C24.1969 25.9389 24.2308 26.2898 24.1576 26.6679C24.0826 27.0446 23.8796 27.4404 23.5486 27.8555L22.3804 29.3203L21.7945 28.853L22.946 27.4091C23.174 27.1231 23.3158 26.8596 23.3711 26.6184C23.4279 26.3755 23.4108 26.1537 23.3199 25.9528C23.2287 25.7488 23.0758 25.5613 22.8613 25.3903C22.6469 25.2192 22.4274 25.1098 22.203 25.0621C21.9786 25.0144 21.7526 25.0438 21.5249 25.1504C21.2955 25.2556 21.0654 25.453 20.8345 25.7424L19.925 26.8829L24.7067 30.6961L24.1893 31.3448ZM23.7937 26.9041L27.2516 27.5049L26.6508 28.2582L23.2097 27.6365L23.7937 26.9041Z" fill="white"/>
<path d="M30.5715 20.4235C31.0221 20.9885 31.3094 21.5582 31.4336 22.1324C31.5578 22.7067 31.531 23.2473 31.3532 23.7542C31.1755 24.2611 30.8582 24.6967 30.4013 25.0611C29.9444 25.4254 29.4491 25.6379 28.9153 25.6983C28.3816 25.7588 27.8486 25.6647 27.3164 25.4158C26.7841 25.167 26.2927 24.76 25.8422 24.195C25.3916 23.63 25.1042 23.0604 24.98 22.4861C24.8559 21.9119 24.8827 21.3713 25.0604 20.8644C25.2381 20.3575 25.5555 19.9219 26.0123 19.5575C26.4692 19.1931 26.9645 18.9807 27.4983 18.9202C28.0321 18.8598 28.565 18.9539 29.0973 19.2028C29.6295 19.4516 30.1209 19.8585 30.5715 20.4235ZM29.9437 20.9242C29.5738 20.4603 29.184 20.1307 28.7743 19.9354C28.3663 19.7386 27.9653 19.6633 27.5713 19.7093C27.179 19.754 26.8207 19.9057 26.4963 20.1644C26.1719 20.423 25.9435 20.7393 25.8109 21.1132C25.68 21.4857 25.6642 21.8935 25.7635 22.3364C25.8646 22.7779 26.1 23.2305 26.4699 23.6944C26.8399 24.1583 27.2288 24.4886 27.6368 24.6853C28.0465 24.8807 28.4474 24.956 28.8397 24.9113C29.2338 24.8653 29.593 24.7129 29.9173 24.4542C30.2417 24.1956 30.4693 23.88 30.6002 23.5074C30.7328 23.1335 30.7485 22.7258 30.6475 22.2843C30.5482 21.8414 30.3136 21.388 29.9437 20.9242Z" fill="white"/>
<path d="M35.0628 22.0438L33.1577 22.9612L30.1847 16.7878L32.1742 15.8297C32.7731 15.5413 33.345 15.4181 33.8901 15.4602C34.4342 15.5002 34.9306 15.6956 35.3793 16.0464C35.827 16.3952 36.2048 16.8892 36.5125 17.5282C36.8222 18.1713 36.9743 18.7801 36.9687 19.3546C36.9622 19.9272 36.7999 20.4435 36.4819 20.9037C36.1628 21.3618 35.6898 21.7419 35.0628 22.0438ZM33.5859 21.9381L34.6952 21.4039C35.2056 21.1581 35.5812 20.8559 35.822 20.4973C36.0627 20.1388 36.1779 19.7379 36.1676 19.2948C36.1572 18.8518 36.031 18.379 35.7891 17.8766C35.5491 17.3782 35.2611 16.9884 34.9251 16.7071C34.5881 16.4237 34.2114 16.2635 33.7949 16.2264C33.3775 16.1873 32.9277 16.2838 32.4454 16.5161L31.2517 17.091L33.5859 21.9381Z" fill="white"/>
<path d="M41.8547 12.6285L42.6636 12.4439L43.6732 16.8669C43.7774 17.3236 43.7628 17.7558 43.6294 18.1638C43.4977 18.569 43.2608 18.9194 42.9187 19.2148C42.5761 19.5081 42.1428 19.7145 41.6187 19.8341C41.0947 19.9537 40.6147 19.9557 40.1788 19.8402C39.7424 19.7224 39.3759 19.5098 39.0792 19.2023C38.7842 18.8922 38.5846 18.5088 38.4804 18.0521L37.4708 13.6291L38.2798 13.4445L39.2744 17.8023C39.3488 18.1284 39.4869 18.4024 39.6884 18.624C39.8895 18.8435 40.1394 18.9958 40.4379 19.081C40.7381 19.1634 41.0742 19.1622 41.446 19.0774C41.8179 18.9925 42.1211 18.8478 42.3559 18.6432C42.5901 18.4365 42.7491 18.1908 42.8328 17.9063C42.9183 17.6192 42.9238 17.3125 42.8493 16.9863L41.8547 12.6285Z" fill="white"/>
<path d="M50.9631 14.2893H50.1333C50.0843 14.0506 49.9984 13.8409 49.8757 13.6603C49.7553 13.4796 49.6081 13.3279 49.4341 13.2052C49.2623 13.0803 49.0716 12.9867 48.862 12.9242C48.6523 12.8618 48.4337 12.8305 48.2062 12.8305C47.7913 12.8305 47.4155 12.9354 47.0787 13.145C46.7441 13.3547 46.4776 13.6636 46.2791 14.0718C46.0828 14.48 45.9847 14.9807 45.9847 15.574C45.9847 16.1673 46.0828 16.668 46.2791 17.0762C46.4776 17.4844 46.7441 17.7933 47.0787 18.003C47.4155 18.2126 47.7913 18.3175 48.2062 18.3175C48.4337 18.3175 48.6523 18.2863 48.862 18.2238C49.0716 18.1613 49.2623 18.0688 49.4341 17.9461C49.6081 17.8212 49.7553 17.6684 49.8757 17.4877C49.9984 17.3048 50.0843 17.0952 50.1333 16.8588H50.9631C50.9006 17.2089 50.7869 17.5223 50.6218 17.7989C50.4568 18.0755 50.2516 18.3108 50.0062 18.5048C49.7608 18.6967 49.4854 18.8428 49.1798 18.9431C48.8765 19.0435 48.5519 19.0937 48.2062 19.0937C47.6218 19.0937 47.1021 18.9509 46.6471 18.6654C46.1921 18.3799 45.8341 17.974 45.5731 17.4476C45.3122 16.9212 45.1817 16.2967 45.1817 15.574C45.1817 14.8513 45.3122 14.2268 45.5731 13.7004C45.8341 13.174 46.1921 12.7681 46.6471 12.4826C47.1021 12.1971 47.6218 12.0543 48.2062 12.0543C48.5519 12.0543 48.8765 12.1045 49.1798 12.2049C49.4854 12.3053 49.7608 12.4525 50.0062 12.6465C50.2516 12.8383 50.4568 13.0725 50.6218 13.3491C50.7869 13.6235 50.9006 13.9368 50.9631 14.2893Z" fill="white"/>
<path d="M53.662 13.2732L53.8258 12.5556L58.8359 13.6991L58.6721 14.4167L56.5715 13.9373L55.2106 19.8999L54.4017 19.7152L55.7626 13.7526L53.662 13.2732Z" fill="white"/>
<path d="M71.0075 24.8731C70.557 25.4381 70.0655 25.8451 69.5333 26.0939C69.0011 26.3427 68.4681 26.4369 67.9343 26.3764C67.4006 26.316 66.9053 26.1035 66.4484 25.7392C65.9915 25.3748 65.6742 24.9392 65.4964 24.4323C65.3187 23.9254 65.2919 23.3848 65.4161 22.8105C65.5403 22.2363 65.8276 21.6666 66.2782 21.1016C66.7288 20.5366 67.2202 20.1297 67.7524 19.8809C68.2847 19.632 68.8176 19.5378 69.3514 19.5983C69.8851 19.6588 70.3805 19.8712 70.8374 20.2356C71.2942 20.5999 71.6116 21.0356 71.7893 21.5425C71.967 22.0494 71.9938 22.59 71.8696 23.1642C71.7455 23.7385 71.4581 24.3081 71.0075 24.8731ZM70.3797 24.3725C70.7497 23.9086 70.9843 23.4553 71.0836 23.0124C71.1846 22.5709 71.1688 22.1631 71.0362 21.7892C70.9054 21.4167 70.6778 21.1011 70.3534 20.8425C70.029 20.5838 69.6698 20.4314 69.2758 20.3853C68.8835 20.3407 68.4825 20.416 68.0728 20.6114C67.6649 20.8081 67.2759 21.1384 66.906 21.6023C66.5361 22.0661 66.3006 22.5188 66.1996 22.9603C66.1003 23.4032 66.1161 23.8109 66.2469 24.1835C66.3795 24.5574 66.608 24.8737 66.9323 25.1323C67.2567 25.391 67.615 25.5427 68.0073 25.5873C68.4014 25.6334 68.8024 25.5581 69.2103 25.3613C69.62 25.166 70.0098 24.8364 70.3797 24.3725Z" fill="white"/>
<path d="M69.5728 28.5416L74.9299 24.2694L77.4915 27.4816L76.9161 27.9405L74.8718 25.3771L73.0617 26.8206L74.914 29.1434L74.3386 29.6023L72.4862 27.2795L70.0901 29.1903L69.5728 28.5416Z" fill="white"/>
<path d="M64.2847 47.8251L58.9989 46.9548C56.5383 46.5501 54.2665 45.3842 52.5031 43.621C50.7397 41.8578 49.5735 39.5861 49.1685 37.1255L48.2981 31.8378C48.2981 31.7532 48.2645 31.6721 48.2047 31.6124C48.145 31.5526 48.0639 31.519 47.9793 31.519C47.8948 31.519 47.8137 31.5526 47.7539 31.6124C47.6941 31.6721 47.6605 31.7532 47.6605 31.8378L46.7886 37.1255C46.3843 39.5862 45.2185 41.8581 43.4553 43.6214C41.6921 45.3847 39.4203 46.5505 36.9597 46.9548L31.6723 47.8251C31.5878 47.8251 31.5067 47.8587 31.4469 47.9185C31.3871 47.9783 31.3535 48.0594 31.3535 48.144C31.3535 48.2285 31.3871 48.3096 31.4469 48.3694C31.5067 48.4292 31.5878 48.4628 31.6723 48.4628L36.9597 49.3332C39.4203 49.7374 41.6921 50.9033 43.4553 52.6666C45.2185 54.4299 46.3843 56.7018 46.7886 59.1625L47.6605 64.4501C47.6605 64.5347 47.6941 64.6158 47.7539 64.6756C47.8137 64.7354 47.8948 64.769 47.9793 64.769C48.0639 64.769 48.145 64.7354 48.2047 64.6756C48.2645 64.6158 48.2981 64.5347 48.2981 64.4501L49.1685 59.1625C49.5735 56.7018 50.7397 54.4301 52.5031 52.6669C54.2665 50.9037 56.5383 49.7378 58.9989 49.3332L64.2847 48.4628C64.3693 48.4628 64.4503 48.4292 64.5101 48.3694C64.5699 48.3096 64.6035 48.2285 64.6035 48.144C64.6035 48.0594 64.5699 47.9783 64.5101 47.9185C64.4503 47.8587 64.3693 47.8251 64.2847 47.8251Z" fill="white"/>
<path d="M81.7454 38.0334L82.463 37.8696L83.6065 42.8798L82.8889 43.0436L82.4095 40.943L76.4469 42.3039L76.2622 41.495L82.2248 40.134L81.7454 38.0334Z" fill="white"/>
<path d="M77 45.3881H83.852V46.2179H80.8007V49.8714H83.852V50.7011H77V49.8714H80.0647V46.2179H77V45.3881Z" fill="white"/>
<path d="M76.6757 52.6864L83.3559 54.2111L82.4357 58.2427L81.7181 58.0789L82.4537 54.8563L80.1965 54.3411L79.5086 57.355L78.791 57.1912L79.4789 54.1773L77.2087 53.6591L76.4612 56.934L75.7436 56.7702L76.6757 52.6864Z" fill="white"/>
<path d="M70.9199 65.7715L72.2383 64.1183L77.5954 68.3904L76.2186 70.1169C75.8042 70.6365 75.3423 70.9957 74.833 71.1943C74.3255 71.3944 73.7934 71.4337 73.2369 71.3123C72.6822 71.1922 72.1275 70.9111 71.573 70.4689C71.015 70.0239 70.6138 69.5413 70.3695 69.0213C70.127 68.5026 70.0492 67.967 70.1361 67.4144C70.2248 66.8632 70.486 66.3155 70.9199 65.7715ZM72.2964 65.2259L71.5288 66.1885C71.1756 66.6315 70.9683 67.0667 70.9069 67.4942C70.8456 67.9217 70.9157 68.3328 71.1173 68.7275C71.3189 69.1222 71.6377 69.4934 72.0736 69.8411C72.5061 70.186 72.9348 70.4123 73.3596 70.5199C73.7861 70.629 74.195 70.6099 74.5863 70.4627C74.9794 70.3168 75.3428 70.0346 75.6765 69.6161L76.5026 68.5802L72.2964 65.2259Z" fill="white"/>
<path d="M67.4211 69.605L68.1012 69.0626L70.4063 75.9884L69.7366 76.5224L63.4974 72.734L64.1775 72.1916L69.3747 75.4246L69.4165 75.3912L67.4211 69.605ZM68.8388 71.8978L66.0975 74.084L65.6385 73.5085L68.3799 71.3224L68.8388 71.8978Z" fill="white"/>
<path d="M65.8385 79.2027L64.9824 79.615L61.8825 77.5578L61.8102 77.5926L61.4858 81.2989L60.6297 81.7112L61.1126 77.0077L59.8874 74.4635L60.6349 74.1035L61.8601 76.6477L65.8385 79.2027Z" fill="white"/>
</svg>
