<svg width="180" height="101" viewBox="0 0 180 101" fill="none" xmlns="http://www.w3.org/2000/svg">
<g clip-path="url(#clip0_460_8857)">
<path d="M85.9524 48.1343C85.9352 47.6382 86.0211 47.1507 86.0898 46.629C86.4849 44.3453 87.2664 42.0959 88.4687 40.0946C89.1385 39.0682 89.7912 38.0248 90.6672 37.1524C91.0536 36.7247 91.5174 36.4083 91.9296 36.0149C92.3246 35.707 92.6939 35.4247 93.0546 35.1425C93.4324 34.8773 93.8103 34.6122 94.2053 34.3299C95.0899 33.7398 96.1376 33.2865 97.1252 32.9529C97.7951 32.7135 98.4649 32.5082 99.1262 32.3029C100.14 31.995 101.153 31.6786 102.149 31.4049C103.3 31.0884 104.408 30.8147 105.473 30.3101C105.868 30.1305 106.254 29.9167 106.649 29.7285C107.19 29.4719 107.723 29.2496 108.229 28.9331C108.581 28.7193 108.899 28.4541 109.208 28.189C109.767 27.71 110.29 27.1969 110.746 26.6324C111.029 26.2646 111.304 25.8883 111.536 25.5376C111.785 25.1955 111.991 24.879 112.18 24.8192C112.369 24.7507 112.506 24.8619 112.558 25.1442C112.609 25.4264 112.558 25.8797 112.309 26.4186C112.171 26.7179 111.974 27.0001 111.785 27.2738C111.51 27.6502 111.252 28.0179 110.943 28.3601C110.436 28.8989 109.835 29.3265 109.226 29.7114C108.538 30.139 107.963 30.5325 107.276 30.9003C106.486 31.3108 105.619 31.6358 104.786 31.918L103.051 32.4654C102.536 32.6279 102.106 32.799 101.608 32.97C100.56 33.3207 99.4783 33.5687 98.4477 33.8938C96.8246 34.3813 95.2702 35.074 93.9134 36.0405C93.5183 36.2971 93.1576 36.6136 92.8141 36.9129C92.4878 37.2636 92.1614 37.6142 91.8265 37.9735C91.6032 38.2386 91.3456 38.5037 91.088 38.7689C90.8475 39.0511 90.6156 39.3334 90.3838 39.6071C89.8942 40.2656 89.4477 40.967 89.0698 41.7025C88.7778 42.3098 88.4772 42.9256 88.2711 43.567C88.065 44.0973 87.9362 44.7815 87.7301 45.2776C87.6442 45.4914 87.6013 45.7737 87.5498 46.0046C87.4124 46.5434 87.3608 47.1079 87.3007 47.6638C87.2664 48.1172 87.2578 48.5876 87.2062 49.0494C87.2062 49.5113 87.1805 49.9646 87.1547 50.3922C87.1547 51.0935 86.9915 51.7778 86.7167 51.6409C86.5192 51.5468 86.3045 51.2389 86.1499 50.6573C86.107 50.5034 86.0812 50.3409 86.0641 50.1784C86.0211 49.8363 85.9954 49.4942 85.9696 49.1606C85.961 48.827 85.9696 48.4849 85.9696 48.1428L85.9524 48.1343Z" fill="#ADB4A4"/>
<path d="M110.806 20.2777C110.737 19.5678 110.72 18.8493 110.754 18.0796C110.943 14.7183 111.845 11.3057 113.614 8.3892C114.542 6.85824 115.598 5.40426 116.895 4.16409C117.505 3.59105 118.131 3.09499 118.801 2.59037C119.377 2.14562 119.943 1.77785 120.51 1.41863C120.785 1.23046 121.086 1.06796 121.369 0.896902L121.61 0.760057L121.987 0.554788C122.245 0.417943 122.511 0.272544 122.777 0.127145L122.889 0.0672754C122.889 0.0672754 122.966 -0.00114746 122.984 0.0672754L123.121 0.298203L123.396 0.777162L123.808 1.51271C123.98 1.87193 124.169 2.2226 124.306 2.59892C124.607 3.34302 124.847 4.10422 125.028 4.86543C125.268 5.88322 125.457 6.91811 125.526 7.96156C125.654 9.54384 125.586 11.1689 125.251 12.7255C124.873 14.5302 124.152 16.1638 123.276 17.7802C122.941 18.3789 122.58 18.9691 122.159 19.5165C121.584 20.2691 120.914 20.8849 120.235 21.5349C119.755 21.9711 119.274 22.4159 118.776 22.8264C117.857 23.562 116.835 24.1863 115.77 24.6738C115.083 24.9989 114.353 25.2469 113.683 25.3923C113.236 25.4864 112.807 25.5206 112.541 25.5035V24.9989C112.584 25.0587 112.695 25.0758 112.781 25.1357C112.884 25.2212 112.859 25.3068 112.807 25.3752C112.738 25.4265 112.755 25.5548 112.412 25.5804L111.459 25.6489L112.403 24.9219C112.704 24.691 113.228 24.46 113.923 24.1521C114.31 23.9811 114.731 23.8271 115.117 23.6304C115.667 23.3653 116.156 23.0402 116.663 22.7152C117.479 22.1935 118.269 21.6376 119.016 21.0218C119.849 20.3119 120.459 19.5763 121.086 18.7296C121.816 17.7546 122.485 16.694 122.992 15.5907C123.336 14.8295 123.636 14.0341 123.834 13.213C124.023 12.4775 124.074 11.836 124.143 11.109C124.272 9.5695 124.255 7.98722 124.031 6.45626C123.842 5.25886 123.507 4.07001 123.027 2.94104C122.803 2.41931 122.408 1.641 122.451 1.75219C122.382 1.76929 122.262 1.83772 122.176 1.88048L121.378 2.34234C120.785 2.71011 120.193 3.08643 119.669 3.53118C119.11 3.98448 118.612 4.48055 118.097 4.98517C117.367 5.72071 116.56 6.51613 115.916 7.36286C115.177 8.32933 114.525 9.36423 114.001 10.459C113.571 11.357 113.211 12.2893 112.927 13.2472C112.678 14.0512 112.524 15.069 112.335 15.8302C112.257 16.1552 112.206 16.5743 112.171 16.925C112.077 17.746 112.051 18.5757 112.086 19.3967C112.137 20.7395 112.283 22.1679 112.463 23.4166C112.618 24.4429 112.695 25.4179 112.36 25.2469C112.137 25.1186 111.794 24.7166 111.51 23.887C111.433 23.6732 111.373 23.4422 111.304 23.2113C111.038 22.2363 110.9 21.2869 110.815 20.2862L110.806 20.2777Z" fill="#ADB4A4"/>
<path d="M125.912 16.4887C126.479 16.3433 127.054 16.2065 127.681 16.1209C130.412 15.7104 133.237 15.5393 136.011 15.8473C136.372 15.89 136.741 15.9242 137.102 15.9755L137.643 16.044L138.519 16.1894L139.446 16.3519C139.567 16.3348 139.489 16.446 139.481 16.5144L139.412 16.7453L139.275 17.2072L139 18.1223L138.802 18.644C138.682 18.969 138.536 19.2769 138.381 19.5849C138.235 19.8928 138.072 20.1921 137.909 20.4915C137.334 21.5435 136.758 22.4158 136.071 23.3652C135.324 24.4001 134.319 25.3324 133.297 26.1107C132.619 26.6495 131.889 27.1114 131.142 27.5561C130 28.2061 128.772 28.7706 127.501 29.1127C126.023 29.5062 124.564 29.643 123.035 29.6943C122.468 29.6943 121.893 29.72 121.326 29.643C120.544 29.566 119.823 29.3608 119.067 29.1726C118.552 29.0443 118.02 28.916 117.513 28.7621C116.577 28.4969 115.684 28.0864 114.825 27.6331C114.284 27.3252 113.743 26.9831 113.322 26.6067C112.893 26.239 112.592 25.8455 112.575 25.6488C112.549 25.2212 113.253 25.3751 114.353 25.9738C114.653 26.1534 114.979 26.3245 115.289 26.4956C115.735 26.7179 116.19 26.8975 116.654 27.0686C117.393 27.368 118.14 27.6502 118.904 27.8897C119.772 28.1463 120.562 28.2318 121.42 28.3088C122.417 28.4028 123.456 28.4456 124.46 28.3515C125.156 28.3002 125.843 28.1976 126.522 28.0265C127.123 27.8726 127.621 27.6844 128.179 27.4449C129.364 26.9574 130.532 26.4015 131.606 25.6916C133.289 24.6054 134.766 23.1086 135.891 21.4408C136.209 20.9704 136.526 20.4829 136.75 19.9697C136.999 19.4395 137.196 18.9006 137.402 18.3447C137.471 18.148 137.548 17.9427 137.626 17.7374L137.677 17.6006L137.712 17.5322C137.832 17.3953 137.617 17.4039 137.505 17.3611L136.818 17.2499C136.569 17.2072 136.312 17.1729 136.063 17.1473C135.556 17.0874 135.049 17.0532 134.543 17.019C133.71 16.9762 132.868 16.9677 132.035 17.0104C131.331 17.0361 130.481 17.1473 129.819 17.1644C129.536 17.1644 129.192 17.2072 128.892 17.2499C128.205 17.3354 127.526 17.4552 126.848 17.6091C125.749 17.8572 124.581 18.1309 123.559 18.3618C122.709 18.55 121.884 18.6098 121.996 18.2848C122.082 18.0624 122.382 17.746 123.035 17.4466C123.207 17.3782 123.387 17.3012 123.567 17.2243C124.332 16.9164 125.096 16.7111 125.886 16.4887H125.912Z" fill="#ADB4A4"/>
<path d="M125.602 2.214C125.86 2.15413 126.126 2.11137 126.41 2.08571C127.655 1.98308 128.917 1.79491 130.171 1.73504C130.497 1.73504 130.807 1.66662 131.262 1.69228C131.485 1.70939 131.743 1.7607 132 1.9061C132.258 2.0515 132.49 2.30809 132.601 2.57322C132.808 3.07784 132.722 3.46272 132.696 3.78773C132.636 4.32656 132.593 4.77131 132.619 5.29303C132.644 5.84897 132.55 6.43912 132.481 6.99505C132.438 7.37138 132.404 7.7477 132.378 8.12403C132.335 8.69707 132.327 9.27866 132.266 9.85171C132.189 10.5103 132.086 11.1346 132.043 11.8274C132.026 12.084 132.017 12.3491 131.966 12.6057C131.889 12.9564 131.743 13.2814 131.631 13.6321L131.408 14.3676C131.262 14.8124 131.038 15.2486 130.729 15.6249C130.532 15.8644 130.3 16.0953 130.034 16.2236C129.785 16.369 129.51 16.3775 129.381 16.3006C129.106 16.0953 129.183 15.6676 129.458 15.2828C129.536 15.1716 129.639 15.0689 129.716 14.9492C129.828 14.7867 129.896 14.5985 129.974 14.4104C130.102 14.111 130.274 13.8288 130.403 13.5038C130.549 13.136 130.583 12.7853 130.635 12.4005C130.704 11.9557 130.798 11.4939 130.849 11.032C130.892 10.7155 130.927 10.382 130.944 10.057C130.961 9.76618 130.935 9.50959 130.935 9.21879C130.935 8.61154 131.03 8.00429 131.107 7.39704C131.227 6.45622 131.305 5.48975 131.382 4.54038C131.408 4.27524 131.433 4.00155 131.425 3.73641C131.416 3.47983 131.365 3.26601 131.313 3.18048C131.27 3.12061 131.296 3.12916 131.262 3.09495C131.236 3.06074 131.116 3.00942 130.961 3.00087C130.592 2.98376 130.051 3.02653 129.613 3.06074C129.226 3.09495 128.849 3.13771 128.471 3.18048C128.153 3.22324 127.766 3.30877 127.457 3.29166C127.328 3.28311 127.165 3.30877 127.028 3.31732C126.71 3.34298 126.392 3.38575 126.083 3.44562C125.577 3.53114 125.018 3.58246 124.529 3.54825C124.117 3.52259 123.722 3.34298 123.773 3.07784C123.807 2.88968 123.953 2.68441 124.263 2.54757C124.34 2.51335 124.426 2.4877 124.512 2.46204C124.872 2.35085 125.216 2.29098 125.585 2.214H125.602Z" fill="#ADB4A4"/>
<path d="M132.619 4.47194C132.705 4.42062 132.799 4.37786 132.902 4.36075C133.357 4.26667 133.778 4.04429 134.225 3.90745C134.457 3.83047 134.663 3.68507 134.903 3.6252C135.015 3.59955 135.135 3.59955 135.247 3.57389C135.384 3.53968 135.753 3.41138 136.08 3.39428C136.475 3.36007 136.853 3.6081 137.076 3.90745C137.239 4.10416 137.351 4.33509 137.411 4.57457C137.48 4.88247 137.54 5.03643 137.557 5.28446C137.574 5.5496 137.531 5.81474 137.574 6.09698C137.591 6.19961 137.617 6.3108 137.6 6.41344C137.583 6.55883 137.488 6.68713 137.454 6.83252C137.428 6.92661 137.437 7.02924 137.428 7.12332C137.428 7.30293 137.385 7.47399 137.316 7.63649C137.273 7.73913 137.222 7.84176 137.127 7.91874C137.033 7.99571 136.896 8.03848 136.75 8.02137C136.44 7.97861 136.131 7.77334 136.097 7.55096C136.088 7.49109 136.114 7.43122 136.123 7.37991C136.131 7.30293 136.106 7.20885 136.106 7.13188C136.106 7.00358 136.183 6.8924 136.234 6.77266C136.294 6.63581 136.252 6.50752 136.252 6.37922C136.252 6.22527 136.286 6.06277 136.294 5.90026C136.294 5.78908 136.294 5.67789 136.277 5.55815C136.26 5.45552 136.2 5.36999 136.157 5.27591C136.114 5.17327 136.097 5.06208 136.088 4.9509C136.08 4.86537 136.097 4.87392 136.088 4.83116C136.088 4.71997 135.942 4.64299 135.839 4.66865C135.822 4.66865 135.814 4.66865 135.788 4.68576C135.736 4.70286 135.693 4.72852 135.65 4.75418C135.564 4.8226 135.479 4.89103 135.384 4.94234C135.247 5.01932 135.066 5.01077 134.92 5.04498C134.749 5.08774 134.577 5.14761 134.414 5.21604L134.01 5.38709C133.898 5.43841 133.77 5.53249 133.641 5.51539C133.589 5.51539 133.529 5.53249 133.478 5.5496C133.357 5.58381 133.246 5.61802 133.134 5.66934C132.954 5.74631 132.739 5.78052 132.533 5.72921C132.361 5.68644 132.147 5.49828 132.095 5.24169C132.061 5.06208 132.069 4.87392 132.155 4.76273C132.181 4.73708 132.207 4.71142 132.232 4.68576C132.344 4.59168 132.473 4.54891 132.593 4.48049L132.619 4.47194Z" fill="#ADB4A4"/>
<path d="M132.679 8.20107C132.868 8.13265 133.057 8.08133 133.271 8.03857C134.199 7.87606 135.109 7.57671 136.037 7.36289C136.526 7.2517 136.981 7.06354 137.471 6.96091C137.729 6.90959 137.823 6.9267 138.338 6.80696C139.008 6.64445 139.669 7.14052 139.635 7.79909C139.661 7.97014 139.678 8.15831 139.695 8.34647C139.695 8.49187 139.687 8.58595 139.678 8.70569C139.661 8.93662 139.618 9.16754 139.575 9.38992L139.42 10.288C139.334 10.7413 139.274 11.2031 139.128 11.6393C138.965 12.1439 138.733 12.5972 138.57 13.1104C138.501 13.2986 138.458 13.4953 138.364 13.6663C138.235 13.9058 138.055 14.1111 137.909 14.342C137.814 14.5045 137.737 14.6756 137.651 14.8381C137.505 15.146 137.316 15.4282 137.11 15.7019C136.973 15.873 136.835 16.044 136.655 16.1552C136.483 16.2664 136.286 16.3263 136.14 16.275C135.839 16.1638 135.693 15.7704 135.882 15.3684C135.934 15.2572 136.011 15.1631 136.08 15.0519C136.174 14.9065 136.217 14.7355 136.303 14.5901C136.432 14.342 136.612 14.1368 136.775 13.9144C136.964 13.6578 137.033 13.3927 137.153 13.119C137.291 12.8025 137.462 12.4861 137.6 12.1696C137.694 11.9472 137.78 11.7248 137.849 11.4939C137.9 11.2801 137.909 11.1005 137.935 10.8867C137.995 10.4505 138.132 10.0228 138.218 9.58663C138.287 9.25307 138.347 8.90241 138.373 8.55174L138.398 8.21818C138.398 8.14975 138.407 8.10699 138.39 8.08988C138.373 8.05567 138.321 8.05567 138.287 8.09844C138.287 8.09844 138.278 8.1241 138.27 8.13265C138.27 8.13265 138.27 8.13265 138.261 8.14975L138.192 8.17541C138.098 8.21818 138.003 8.25239 137.9 8.2866C137.608 8.38923 137.265 8.40634 136.956 8.46621C136.604 8.54319 136.251 8.62871 135.899 8.7228L135.041 8.96228C134.8 9.0307 134.517 9.15899 134.276 9.15044C134.173 9.15044 134.053 9.18465 133.95 9.20176C133.709 9.25307 133.469 9.31294 133.237 9.38137C132.851 9.49255 132.43 9.55242 132.043 9.52676C131.726 9.50966 131.391 9.33005 131.408 9.06491C131.416 8.87675 131.511 8.67148 131.726 8.54319C131.786 8.50897 131.846 8.48332 131.906 8.45766C132.164 8.33792 132.421 8.27805 132.687 8.18397L132.679 8.20107Z" fill="#ADB4A4"/>
<path d="M99.0749 29.549C98.9118 29.1128 98.8087 28.6424 98.7658 28.1463C98.6799 27.0601 98.7744 25.991 98.9375 24.9646C99.1093 23.9383 99.324 22.9376 99.5902 21.9455C99.8736 20.902 100.131 19.8586 100.526 18.8493C100.707 18.3789 100.93 17.9513 101.127 17.4894C101.531 16.5743 101.883 15.7874 102.278 14.8894C102.304 14.8381 102.321 14.7867 102.347 14.7354C102.579 14.5216 102.759 14.1795 103.068 14.1538C103.386 14.1025 103.815 14.1538 103.944 14.4361L104.391 15.4539C104.46 15.6164 104.545 15.8045 104.597 15.9414L104.674 16.2835C104.829 16.8993 104.94 17.5237 105.052 18.148C105.189 19.0974 105.353 20.0639 105.344 21.0303C105.361 22.1422 105.258 23.2028 105.172 24.3146C105.147 24.7337 105.121 25.1443 105.035 25.5548C104.94 26.1193 104.734 26.6324 104.606 27.1884C104.494 27.5647 104.417 27.9496 104.322 28.3345L104.013 29.3608L103.618 30.3615C103.42 30.7806 103.214 31.1997 102.965 31.5332C102.716 31.8668 102.441 32.1234 102.27 32.149C101.892 32.1833 101.823 31.6017 102.149 30.7207C102.235 30.4727 102.355 30.2332 102.459 29.9852C102.587 29.6345 102.673 29.2838 102.785 28.9246C102.948 28.3516 103.18 27.7956 103.352 27.2311C103.549 26.5897 103.626 25.9995 103.721 25.3581C103.841 24.614 103.961 23.8528 104.013 23.1001C104.064 22.5784 104.064 22.0567 104.073 21.5349C104.047 21.0645 103.996 20.6711 103.936 20.2178C103.824 19.2684 103.721 18.302 103.558 17.3612C103.463 16.8651 103.274 16.0526 103.283 16.1039C103.257 16.0355 103.257 15.9414 103.206 15.9414C103.146 15.9328 103.137 15.9927 103.111 16.0355L102.793 16.7026C102.613 17.096 102.433 17.4894 102.295 17.8914C102.158 18.3105 102.029 18.7296 101.892 19.1573C101.694 19.7731 101.402 20.4145 101.196 21.0389C100.964 21.7573 100.758 22.4843 100.586 23.2199C100.449 23.8271 100.329 24.4344 100.234 25.0416C100.148 25.5548 100.123 26.1706 100.045 26.6324C100.011 26.8292 100.002 27.0772 100.002 27.2825C100.002 27.77 100.054 28.2489 100.166 28.7022C100.355 29.4463 100.655 30.1904 101.024 30.7977C101.308 31.3023 101.651 31.8069 101.376 31.9267C101.179 32.0036 100.801 31.9694 100.346 31.5846C100.234 31.4819 100.114 31.3707 100.011 31.251C99.5644 30.7378 99.281 30.1562 99.0492 29.5404L99.0749 29.549Z" fill="#ADB4A4"/>
<path d="M98.9541 35.1254C99.2461 35.2965 99.5295 35.4847 99.8387 35.6899C101.17 36.6051 102.681 37.2636 104.193 37.8367C104.493 37.9479 104.794 38.0505 105.094 38.1275L106.099 38.4012C106.52 38.5124 106.855 38.8288 106.992 39.2137C107.121 39.5729 107.078 39.9664 106.881 40.2743C106.769 40.4111 106.623 40.5907 106.52 40.6762L106.271 40.9072C105.67 41.4289 105.094 41.7796 104.433 42.1473C103.703 42.5493 102.827 42.7118 102.029 42.7973C101.488 42.8572 100.955 42.8829 100.423 42.8914C99.6154 42.8914 98.8081 42.9171 97.9665 42.7546C97.0133 42.5579 96.0428 42.1388 95.2785 41.3348C95.0037 41.0355 94.7633 40.7019 94.6087 40.3341C94.4026 39.8295 94.3682 39.3163 94.3339 38.8117C94.3167 38.461 94.2995 38.1018 94.3167 37.7597C94.351 37.1439 94.4541 36.5623 94.6001 35.9893C94.6946 35.6215 94.8062 35.2537 94.9522 34.9458C95.0982 34.6379 95.2957 34.3899 95.4675 34.3471C95.8196 34.2701 96.0343 34.7406 95.9398 35.5103C95.914 35.7241 95.8453 35.9465 95.811 36.1603C95.7509 36.4682 95.7423 36.7676 95.7079 37.0669C95.6564 37.5544 95.5447 38.0077 95.5276 38.4439C95.5104 38.9486 95.6564 39.3677 95.8367 39.7867C96.0514 40.2657 96.352 40.6848 96.79 40.9756C97.0991 41.1723 97.4513 41.3263 97.8377 41.4118C98.1898 41.4888 98.499 41.4888 98.8682 41.4973C99.6326 41.5144 100.448 41.5657 101.221 41.5401C102.432 41.4973 103.643 41.2151 104.631 40.6078C104.914 40.4368 105.18 40.2486 105.395 40.0177C105.489 39.915 105.661 39.7098 105.61 39.7354C105.61 39.7183 105.593 39.7098 105.575 39.7098C105.558 39.7098 105.575 39.7098 105.575 39.6927C105.61 39.6927 105.515 39.667 105.438 39.6413L105.223 39.5644C105.077 39.5131 104.94 39.4617 104.802 39.4104C104.184 39.2051 103.574 38.9742 102.965 38.7347C102.467 38.538 101.968 38.3242 101.488 38.1018C101.075 37.9137 100.56 37.6998 100.225 37.4433C100.079 37.3321 99.8816 37.2209 99.7184 37.1268L98.5934 36.4169C97.9837 36.032 97.3825 35.536 96.9446 35.0314C96.5753 34.6123 96.3778 34.0991 96.644 33.9965C96.8329 33.9195 97.1335 33.9451 97.5028 34.1504C97.5972 34.2017 97.7003 34.2616 97.7948 34.33C98.1984 34.5952 98.5763 34.8432 98.9799 35.1083L98.9541 35.1254Z" fill="#ADB4A4"/>
<path d="M105.172 30.943C105.378 30.9003 105.584 30.8746 105.807 30.866C106.786 30.866 107.774 30.7549 108.753 30.8233C109.268 30.8404 109.783 30.8233 110.299 30.8832C110.539 30.9174 110.762 30.9943 111.003 31.0371C111.415 31.097 111.767 31.1739 112.188 31.1739C112.643 31.1739 113.09 31.3365 113.519 31.4391L114.386 31.6786C114.833 31.7812 115.28 31.9009 115.709 32.0463C116.199 32.2516 116.654 32.4654 117.152 32.645C117.341 32.7049 117.53 32.7648 117.71 32.8503C117.959 32.97 118.148 33.1582 118.388 33.2951C118.552 33.3891 118.732 33.449 118.895 33.526C119.204 33.6714 119.505 33.8253 119.788 34.0135C119.969 34.1418 120.14 34.2701 120.278 34.4326C120.407 34.5951 120.492 34.7747 120.45 34.9287C120.372 35.2451 119.986 35.4247 119.556 35.2708C119.436 35.228 119.333 35.151 119.221 35.0912C119.067 35.0056 118.887 34.9714 118.723 34.8944C118.457 34.7833 118.242 34.5951 118.002 34.4411C117.727 34.2701 117.461 34.1846 117.178 34.0648C116.843 33.928 116.525 33.7484 116.199 33.603C115.967 33.5089 115.743 33.4148 115.503 33.3293C115.297 33.2523 115.099 33.2523 114.885 33.2095C114.438 33.1154 114.009 32.9529 113.571 32.8161C112.892 32.6023 112.171 32.4483 111.467 32.3371C111.269 32.3029 111.063 32.2687 110.865 32.2773C110.651 32.2773 110.445 32.2944 110.239 32.2858C109.938 32.2858 109.612 32.1917 109.302 32.1575C108.95 32.1148 108.59 32.1148 108.238 32.1062C107.946 32.1062 107.654 32.1233 107.362 32.1319C107.113 32.1319 106.821 32.2088 106.589 32.1575C106.486 32.1404 106.365 32.149 106.262 32.1575C106.022 32.1575 105.781 32.1832 105.541 32.2174C105.155 32.2687 104.734 32.2687 104.356 32.2174C104.047 32.1661 103.729 31.9523 103.763 31.6957C103.789 31.5075 103.901 31.3193 104.141 31.2082C104.201 31.1825 104.27 31.1568 104.339 31.1397C104.622 31.0457 104.897 31.0114 105.18 30.9601L105.172 30.943Z" fill="#ADB4A4"/>
<path d="M122.013 32.7563C122.417 32.4826 122.837 32.2345 123.301 31.9951C124.34 31.4904 125.422 31.02 126.59 30.7378C127.166 30.5838 127.784 30.5069 128.377 30.4641C128.961 30.4299 129.536 30.4213 130.094 30.4213C131.271 30.4213 132.404 30.3358 133.443 30.0963C133.692 30.045 133.924 29.9851 134.156 29.9167C134.276 29.8825 134.388 29.8397 134.5 29.797L134.68 29.72C134.74 29.6943 134.895 29.6088 134.998 29.5489C135.213 29.4207 135.41 29.2924 135.599 29.1299L135.857 28.9759L136.054 28.9246C136.2 28.8818 136.252 28.9075 136.346 28.8904C136.406 28.8904 136.466 28.8904 136.526 28.9075C136.604 28.9246 136.724 28.9759 136.827 29.0614C136.93 29.147 136.999 29.241 137.016 29.318L137.059 29.6174L137.11 29.9167C137.128 30.0194 137.025 30.2332 136.982 30.3871C136.913 30.6095 136.836 30.8233 136.767 31.0457C136.724 31.1569 136.681 31.2766 136.63 31.3878L136.509 31.6444C136.398 31.901 136.26 32.1405 136.123 32.3799C135.839 32.8589 135.513 33.3122 135.178 33.7313C134.723 34.2958 134.216 34.8175 133.684 35.305C132.859 36.0406 131.941 36.6991 130.936 37.161C129.759 37.6742 128.54 37.9479 127.269 38.1018C126.796 38.1617 126.315 38.1959 125.835 38.1788C125.173 38.1275 124.564 37.9992 123.928 37.8452C123.49 37.7511 123.052 37.6571 122.614 37.5288C121.833 37.3064 121.068 36.9814 120.381 36.5537C119.926 36.2886 119.497 35.9721 119.17 35.63C118.835 35.305 118.629 34.9287 118.638 34.7491C118.681 34.3557 119.282 34.4925 120.149 35.0057C120.398 35.134 120.63 35.3221 120.897 35.4504C121.249 35.6471 121.627 35.7754 121.996 35.9294C122.597 36.1603 123.19 36.4083 123.808 36.5965C124.512 36.7932 125.156 36.8189 125.852 36.8531C126.659 36.8702 127.501 36.836 128.299 36.682C128.849 36.5794 129.39 36.4169 129.914 36.2031C130.378 35.9978 130.747 35.7754 131.15 35.5017C132.018 34.9458 132.859 34.3129 133.572 33.5602C134.13 32.9786 134.629 32.3201 135.041 31.6102C135.144 31.4306 135.247 31.251 135.333 31.0714L135.393 30.9431L135.419 30.8917C135.436 30.8233 135.496 30.7549 135.47 30.6865C135.401 30.6523 135.367 30.7464 135.298 30.7806L135.264 30.8148C135.333 30.8062 134.981 30.9858 134.749 31.097C134.5 31.2168 134.242 31.3108 133.976 31.3878C133.203 31.6273 132.336 31.653 131.571 31.6786L128.986 31.7128C128.291 31.7299 127.664 31.7984 127.02 31.9523C126.479 32.072 125.852 32.3457 125.345 32.4826C125.122 32.5424 124.873 32.6536 124.649 32.7563C124.143 32.9786 123.645 33.2438 123.164 33.5431C122.382 34.0221 121.541 34.5438 120.776 34.9629C120.141 35.3136 119.48 35.5188 119.462 35.2024C119.462 34.98 119.6 34.6379 120.029 34.2274C120.141 34.1162 120.261 34.0135 120.381 33.9109C120.897 33.4747 121.429 33.1069 121.996 32.7221L122.013 32.7563Z" fill="#ADB4A4"/>
<path d="M116.628 37.409C116.354 37.7255 116.079 38.0505 115.787 38.3926C114.481 39.9065 113.588 41.771 113.039 43.6783C112.755 44.6875 112.609 45.7395 112.592 46.7231C112.592 47.185 112.592 47.6297 112.695 48.0573C112.875 48.7929 113.253 49.3574 113.854 49.6396C114.481 49.939 115.314 49.9817 116.079 49.7252C116.585 49.5541 117.058 49.2547 117.427 48.8699C117.994 48.2712 118.355 47.4501 118.612 46.6034C118.913 45.6198 119.076 44.5934 119.076 43.4901L119.059 42.2671C119.067 41.7026 119.119 41.1723 119.093 40.6078C119.076 40.2229 119.016 39.8295 118.956 39.4532C118.844 38.7604 118.724 38.0676 118.595 37.3748C118.509 36.9301 118.423 36.4768 118.38 36.0662C118.337 35.6557 118.337 35.2794 118.449 35.134C118.672 34.8261 119.179 35.1853 119.531 36.1603C119.626 36.4255 119.686 36.7248 119.754 37.0071C119.857 37.409 119.978 37.7854 120.064 38.1874C120.201 38.8288 120.235 39.4959 120.261 40.146C120.295 40.8815 120.373 41.5144 120.39 42.2329C120.407 43.0539 120.338 43.8921 120.252 44.7132C120.192 45.2862 120.098 45.8507 119.978 46.4323C119.866 46.9455 119.78 47.3988 119.6 47.8948C119.23 48.9383 118.449 49.9561 117.41 50.5462C116.611 50.9995 115.692 51.2732 114.73 51.2048C113.769 51.162 112.79 50.6403 112.223 49.8706C111.888 49.4344 111.673 48.9468 111.501 48.4679C111.33 47.9633 111.218 47.4586 111.184 46.9369C111.124 46.1928 111.287 45.3889 111.441 44.6961C111.613 43.8836 111.819 43.0796 112.103 42.3013C112.326 41.6598 112.592 41.0269 112.893 40.4196C113.142 39.9065 113.451 39.265 113.803 38.8545C113.958 38.6749 114.104 38.4354 114.25 38.2472C114.584 37.7939 114.945 37.3577 115.314 36.9301C115.907 36.2287 116.671 35.5873 117.401 35.1596C118.011 34.8004 118.672 34.6721 118.664 34.98C118.664 35.2024 118.518 35.5103 118.157 35.8781C118.063 35.9722 117.959 36.0748 117.856 36.1689C117.427 36.588 117.015 36.9728 116.62 37.4176L116.628 37.409Z" fill="#ADB4A4"/>
<path d="M121.944 42.8744C122.202 43.0626 122.46 43.2593 122.734 43.4646C123.928 44.4054 125.337 45.0811 126.754 45.6456C127.509 45.9278 128.291 46.116 129.064 46.3127C129.424 46.4153 129.768 46.5265 130.137 46.5949C130.773 46.7232 131.339 46.8002 131.975 46.766C132.318 46.7574 132.671 46.766 133.023 46.766L133.521 46.7831H133.641C133.701 46.8002 133.77 46.8002 133.744 46.7831V46.7574L133.701 46.5864C133.547 45.8936 133.289 45.2265 133.066 44.5593C132.808 43.7896 132.542 43.0369 132.13 42.3185C131.984 42.0534 131.803 41.7968 131.657 41.5231C131.451 41.1553 131.314 40.7704 131.082 40.4112C130.927 40.1632 130.747 39.9323 130.558 39.7099L129.553 38.4783C129.339 38.2131 129.115 37.948 128.943 37.6829C128.772 37.4263 128.66 37.1526 128.703 36.9815C128.789 36.6394 129.313 36.6308 129.931 37.1269C130.094 37.2723 130.257 37.4348 130.403 37.6059C130.618 37.8368 130.859 38.025 131.065 38.2644C131.408 38.6408 131.666 39.077 131.923 39.5046C132.215 39.9921 132.516 40.3684 132.799 40.8389C133.117 41.3777 133.392 41.9678 133.632 42.5409C133.804 42.9343 133.959 43.3448 134.122 43.7383C134.268 44.0975 134.423 44.3883 134.56 44.7475C134.715 45.1238 134.818 45.5087 134.912 45.9021L135.049 46.5436L135.238 47.6298L135.273 47.8351L135.29 47.9377C135.29 47.9377 135.307 48.0062 135.256 47.9976L134.852 48.0147L134.062 48.0489C133.452 48.0831 133.229 48.066 132.894 48.066C132.258 48.066 131.623 48.0147 130.996 47.9463C130.644 47.9035 130.283 47.8608 129.94 47.818C129.57 47.7838 129.21 47.7667 128.84 47.6897C128.308 47.6042 127.767 47.3647 127.243 47.2022C126.659 46.9884 126.067 46.7745 125.491 46.5265C125.019 46.3298 124.546 46.1074 124.091 45.885C123.705 45.6883 123.215 45.4745 122.906 45.2008C122.769 45.0896 122.588 44.9784 122.434 44.8758L121.403 44.1232C120.845 43.7126 120.313 43.1909 119.935 42.6606C119.626 42.2159 119.488 41.7112 119.772 41.6343C119.969 41.5744 120.253 41.6172 120.587 41.8481C120.673 41.908 120.759 41.9764 120.845 42.0448C121.223 42.3099 121.524 42.6093 121.901 42.8659L121.944 42.8744Z" fill="#ADB4A4"/>
<path d="M120.931 45.6539C121.051 45.7822 121.163 45.919 121.266 46.0815C121.721 46.7829 122.305 47.4072 122.82 48.0829C123.095 48.4421 123.422 48.7415 123.679 49.1178C123.799 49.2974 123.877 49.477 123.997 49.631C124.195 49.9047 124.383 50.127 124.65 50.281C124.933 50.4435 125.156 50.6488 125.405 50.7599C125.569 50.8284 125.74 50.8626 125.912 50.854C126.178 50.8369 126.445 50.7086 126.711 50.5803C127.011 50.4264 127.338 50.2211 127.527 49.8961C127.595 49.7764 127.647 49.6481 127.724 49.5283C127.827 49.3658 127.982 49.2119 128.068 49.0237C128.128 48.8954 128.154 48.7415 128.188 48.5961C128.239 48.3309 128.3 48.0658 128.377 47.7921C128.428 47.621 128.48 47.4414 128.574 47.2875C128.669 47.1335 128.806 47.0052 128.961 46.9881C129.279 46.9454 129.605 47.1934 129.631 47.621C129.631 47.7408 129.605 47.8605 129.588 47.9803C129.562 48.1513 129.579 48.3224 129.553 48.4934C129.519 48.7671 129.39 49.0323 129.261 49.2889C129.115 49.5797 129.055 49.8619 128.909 50.1527C128.746 50.4863 128.471 50.8027 128.196 51.0593C128.008 51.2389 127.793 51.41 127.578 51.5639C127.381 51.7008 127.226 51.8462 127.003 51.9659C126.539 52.2225 125.946 52.2652 125.405 52.1455C124.555 51.9488 123.911 51.41 123.439 50.8882C123.301 50.7428 123.181 50.5803 123.035 50.452C122.889 50.3152 122.735 50.1784 122.606 50.0415C122.417 49.8362 122.288 49.5625 122.125 49.3402C121.936 49.075 121.738 48.827 121.532 48.5704L121.017 47.9632C120.871 47.7921 120.656 47.6039 120.579 47.4072C120.545 47.3217 120.467 47.2362 120.416 47.1592C120.287 46.9796 120.15 46.8 120.012 46.6289C119.78 46.3467 119.583 46.0131 119.488 45.671C119.402 45.3888 119.471 45.0381 119.72 44.9526C119.901 44.8927 120.115 44.8927 120.296 45.021C120.347 45.0552 120.39 45.098 120.433 45.1322C120.622 45.3032 120.759 45.4914 120.931 45.671V45.6539Z" fill="#ADB4A4"/>
<path d="M46.8498 42.3921C46.8498 43.0149 46.8736 43.5118 46.9131 43.8974H46.431C46.0912 42.2734 45.6328 41.1389 45.048 40.4789C44.4632 39.819 43.665 39.4927 42.6535 39.4927H42.1714V50.7787C42.1714 51.3349 42.2346 51.7353 42.3532 51.9874C42.4717 52.2395 42.6851 52.4027 42.9854 52.4916C43.2857 52.5806 43.7678 52.6251 44.4316 52.6399V53.033C42.6614 52.9959 41.3258 52.9736 40.4249 52.9736C39.524 52.9736 38.2517 52.9959 36.5684 53.033V52.6399C37.2243 52.6251 37.7064 52.5806 38.0146 52.4916C38.3149 52.4027 38.5283 52.2395 38.6468 51.9874C38.7653 51.7353 38.8286 51.3349 38.8286 50.7787V39.4927H38.3623C37.6906 39.4927 37.1137 39.6336 36.6474 39.908C36.1733 40.1823 35.7702 40.6421 35.4383 41.2798C35.0985 41.9175 34.814 42.7925 34.5769 43.8974H34.0869C34.1264 43.5118 34.1502 43.0149 34.1502 42.3921C34.1502 41.4058 34.1027 40.2861 34 39.033C35.2802 39.07 37.4456 39.0923 40.5119 39.0923C43.5781 39.0923 45.7356 39.07 47 39.033C46.9052 40.2861 46.8498 41.4058 46.8498 42.3921Z" fill="#ADB4A4"/>
<path d="M53.3353 44.0622C53.9591 42.796 55.0897 42.1591 56.7271 42.1591C57.8109 42.1591 58.5673 42.4277 59.0117 42.9572C59.2456 43.2181 59.4172 43.5557 59.5185 43.9701C59.6199 44.3845 59.6745 44.937 59.6745 45.62V51.1222C59.6745 51.6824 59.768 52.0661 59.963 52.2809C60.1579 52.4958 60.501 52.5955 61 52.5955V53.0253C59.5575 52.9716 58.6452 52.9409 58.2554 52.9409C57.7875 52.9409 56.883 52.9716 55.5497 53.0253V52.5955C55.963 52.5955 56.2593 52.4881 56.423 52.2809C56.5867 52.0661 56.6725 51.6824 56.6725 51.1222V44.7605C56.6725 44.2003 56.5789 43.7783 56.3918 43.4944C56.2047 43.2104 55.8694 43.0646 55.386 43.0646C54.8012 43.0646 54.3177 43.2872 53.9201 43.7322C53.5224 44.1773 53.3275 44.7375 53.3275 45.4205V51.1298C53.3275 51.69 53.4133 52.0737 53.577 52.2886C53.7407 52.5035 54.037 52.6032 54.4503 52.6032V53.033C53.117 52.9792 52.2593 52.9485 51.8694 52.9485C51.4016 52.9485 50.4425 52.9792 49 53.033V52.6032C49.4834 52.6032 49.8265 52.4958 50.0292 52.2886C50.232 52.0737 50.3333 51.69 50.3333 51.1298V39.4886C50.3333 38.8593 50.232 38.4066 50.0292 38.115C49.8265 37.831 49.4834 37.6852 49 37.6852V37.2555C49.4444 37.2939 49.8733 37.3169 50.2865 37.3169C51.4951 37.3169 52.501 37.2248 53.3197 37.033V44.0699L53.3353 44.0622Z" fill="#ADB4A4"/>
<path d="M71.587 50.4676L71.961 50.5997C71.6805 51.557 71.1896 52.3658 70.4727 53.0343C69.7558 53.7028 68.8675 54.033 67.8 54.033C66.3351 54.033 65.1662 53.5378 64.3013 52.5474C63.4364 51.557 63 50.0962 63 48.1568C63 46.2173 63.4675 44.6657 64.3948 43.6093C65.3221 42.5612 66.5532 42.033 68.0961 42.033C70.6987 42.033 72 43.6588 72 46.9188H66.1636C66.1481 47.1416 66.1403 47.48 66.1403 47.9504C66.1403 48.916 66.2649 49.7248 66.5221 50.3686C66.7792 51.0123 67.1143 51.4828 67.5195 51.7799C67.9247 52.077 68.3688 52.2173 68.8364 52.2173C69.974 52.2173 70.8857 51.6313 71.5792 50.4594L71.587 50.4676ZM66.7325 43.4855C66.4052 44.1375 66.2026 45.1444 66.1169 46.5144H69.3818C69.413 45.359 69.3039 44.4016 69.0623 43.6423C68.8208 42.883 68.4545 42.5116 67.9714 42.5116C67.4883 42.5116 67.0597 42.8418 66.7325 43.4938V43.4855Z" fill="#ADB4A4"/>
<path d="M44.8457 62.2382C44.8457 62.9062 44.8689 63.4391 44.9074 63.8527H44.4369C44.1592 62.2541 43.7503 61.1326 43.2027 60.4805C42.655 59.8283 41.8836 59.5022 40.8962 59.5022H40.2174C39.7931 59.5022 39.4846 59.534 39.2917 59.6056C39.0989 59.6772 38.9677 59.8124 38.8983 60.0192C38.8289 60.226 38.798 60.552 38.798 61.0054V66.35H39.5154C40.2405 66.35 40.7959 66.0717 41.1739 65.5229C41.5519 64.9741 41.8142 64.314 41.9684 63.5505H42.439C42.4004 64.147 42.3773 64.8071 42.3773 65.5467V66.5648C42.3773 67.2885 42.4158 68.2906 42.5007 69.5791H42.0302C41.7447 67.71 40.9039 66.7795 39.5231 66.7795H38.8057V71.6549C38.8057 72.2196 38.8675 72.6332 38.9832 72.8956C39.0989 73.1581 39.3072 73.3331 39.6003 73.4126C39.8934 73.5001 40.364 73.5478 41.0119 73.5637V74.033C39.3226 73.9932 38.0729 73.9693 37.2475 73.9693C36.561 73.9693 35.6971 73.9852 34.6557 74.0091L34 74.033V73.6114C34.4551 73.5796 34.7868 73.5239 34.9951 73.4444C35.2111 73.3569 35.3499 73.1979 35.4271 72.9593C35.5042 72.7207 35.5428 72.3309 35.5428 71.7901V61.2758C35.5428 60.7429 35.5042 60.3532 35.4271 60.1067C35.3499 59.8681 35.2034 59.701 34.9951 59.6215C34.7791 59.534 34.4474 59.4783 34 59.4545V59.033C35.4811 59.0727 37.7181 59.0966 40.7034 59.0966C42.7167 59.0966 44.1515 59.0727 45 59.033C44.9074 60.2339 44.8534 61.3076 44.8534 62.2541L44.8457 62.2382Z" fill="#ADB4A4"/>
<path d="M51.5931 72.1326C51.5931 72.692 51.6924 73.0751 51.8993 73.2897C52.1062 73.5042 52.4703 73.6038 53 73.6038V74.033C51.469 73.9793 50.4841 73.9487 50.0455 73.9487C49.549 73.9487 48.531 73.9793 47 74.033V73.6038C47.5131 73.6038 47.8772 73.4966 48.0924 73.2897C48.3076 73.0828 48.4152 72.692 48.4152 72.1326V60.4851C48.4152 59.8567 48.3076 59.4046 48.0924 59.1134C47.8772 58.8299 47.5131 58.6843 47 58.6843V58.2552C47.4717 58.2935 47.9269 58.3165 48.3655 58.3165C49.6483 58.3165 50.7159 58.2245 51.5848 58.033V72.1326H51.5931Z" fill="#ADB4A4"/>
<path d="M63.6764 64.3578C64.5639 65.236 65 66.6365 65 68.5443C65 70.4521 64.5562 71.8451 63.6764 72.7233C62.7888 73.6014 61.5647 74.033 60.0038 74.033C58.443 74.033 57.2341 73.5939 56.3389 72.7233C55.4438 71.8526 55 70.4521 55 68.5443C55 66.6365 55.4438 65.236 56.3389 64.3578C57.2341 63.4796 58.4507 63.033 60.0038 63.033C61.557 63.033 62.7888 63.4721 63.6764 64.3578ZM58.6113 64.6985C58.267 65.5388 58.091 66.8182 58.091 68.5443C58.091 70.2704 58.267 71.5422 58.6113 72.3826C58.9556 73.2153 59.4223 73.6317 60.0115 73.6317C60.6006 73.6317 61.075 73.2153 61.4193 72.3902C61.7559 71.565 61.9319 70.278 61.9319 68.5443C61.9319 66.8107 61.7559 65.5237 61.4116 64.6909C61.0673 63.8582 60.6006 63.4418 60.0115 63.4418C59.4223 63.4418 58.9633 63.8657 58.6113 64.706V64.6985Z" fill="#ADB4A4"/>
<path d="M76.5267 63.5923C76.8448 63.9652 77 64.4157 77 64.9362C77 65.4567 76.8526 65.8684 76.5578 66.1869C76.2629 66.5132 75.875 66.6763 75.3862 66.6763C74.8974 66.6763 74.5483 66.552 74.269 66.3112C73.9897 66.0704 73.8578 65.7519 73.8578 65.3479C73.8578 64.6876 74.1603 64.1438 74.7655 63.7321C74.7112 63.7166 74.6259 63.7088 74.5172 63.7088C74.3776 63.7088 74.269 63.7243 74.1836 63.7476C73.656 63.8331 73.2138 64.1516 72.8491 64.7032C72.4845 65.2547 72.2983 65.8218 72.2983 66.4044V71.8967C72.2983 72.5337 72.4534 72.9765 72.7638 73.225C73.0741 73.4736 73.5707 73.5979 74.2457 73.5979V74.033C74.0517 74.033 73.8966 74.033 73.7724 74.0096C72.3681 73.9708 71.4293 73.9475 70.956 73.9475C70.5836 73.9475 69.7379 73.9708 68.4112 74.0096C68.3026 74.0252 68.1629 74.033 68 74.033V73.5979C68.4966 73.5979 68.8379 73.4892 69.0319 73.2794C69.2259 73.0697 69.319 72.6735 69.319 72.1064V65.581C69.319 64.944 69.2259 64.4856 69.0319 64.1904C68.8379 63.8952 68.4966 63.7554 68 63.7554V63.3204C68.4422 63.3592 68.869 63.3825 69.2802 63.3825C70.506 63.3825 71.5147 63.2893 72.2983 63.0951V65.0217C72.5621 64.4313 72.9422 63.9496 73.4388 63.5845C73.9353 63.2194 74.494 63.033 75.1147 63.033C75.7353 63.033 76.2009 63.2194 76.519 63.5923H76.5267Z" fill="#ADB4A4"/>
<path d="M82.8223 72.1133C82.8223 72.6783 82.9118 73.0654 83.0909 73.2821C83.27 73.4989 83.573 73.5995 84 73.5995V74.033C82.7741 73.9788 81.9614 73.9478 81.5551 73.9478C81.1763 73.9478 80.3223 73.9788 79 74.033V73.5995C79.4408 73.5995 79.7438 73.4911 79.916 73.2821C80.0882 73.0731 80.1708 72.6783 80.1708 72.1133V65.6111C80.1708 64.9764 80.0882 64.5197 79.916 64.2255C79.7438 63.9314 79.4408 63.792 79 63.792V63.3586C79.3926 63.3973 79.7713 63.4205 80.1364 63.4205C81.2245 63.4205 82.1198 63.3276 82.8154 63.1341V72.1133H82.8223ZM82.6088 58.4587C82.905 58.7374 83.0565 59.1321 83.0565 59.6275C83.0565 60.1229 82.905 60.51 82.6088 60.7964C82.3058 61.075 81.8994 61.2221 81.3898 61.2221C80.8802 61.2221 80.4669 61.0828 80.1708 60.7964C79.8747 60.51 79.7231 60.1229 79.7231 59.6275C79.7231 59.1321 79.8747 58.7451 80.1708 58.4587C80.4738 58.18 80.8802 58.033 81.3898 58.033C81.8994 58.033 82.3127 58.1723 82.6088 58.4587Z" fill="#ADB4A4"/>
<path d="M92.2016 63.2297C92.6522 63.3583 92.9921 63.502 93.2372 63.6609C93.3794 63.7517 93.5059 63.8046 93.6166 63.8046C93.7431 63.8046 93.8538 63.7441 93.9407 63.6155C94.0356 63.4869 94.0909 63.3053 94.1225 63.0632H94.5652C94.5099 63.7517 94.4783 64.9319 94.4783 66.6114H94.0356C93.9091 65.7262 93.6324 64.9773 93.2055 64.3796C92.7787 63.7819 92.1541 63.4793 91.3399 63.4793C90.9209 63.4793 90.5731 63.5928 90.2964 63.8198C90.0198 64.0467 89.8854 64.3645 89.8854 64.7654C89.8854 65.2193 90.0435 65.6127 90.3676 65.9456C90.6917 66.2785 91.1976 66.6719 91.8854 67.1485L92.4941 67.5722C93.3478 68.1925 93.9802 68.7448 94.3913 69.229C94.8024 69.7132 95 70.3184 95 71.0447C95 71.6347 94.8182 72.1643 94.4625 72.6182C94.1067 73.0722 93.6245 73.4277 93.0158 73.6698C92.415 73.9119 91.7431 74.033 91.0158 74.033C90.2411 74.033 89.585 73.8892 89.0316 73.6093C88.581 73.3975 88.2569 73.2537 88.0593 73.1856C87.917 73.1478 87.7984 73.1856 87.6877 73.3143C87.585 73.4429 87.498 73.632 87.4427 73.8892H87C87.0553 73.1251 87.087 71.7785 87.087 69.8569H87.5296C87.8142 72.3308 88.7628 73.5715 90.3755 73.5715C90.7787 73.5715 91.1344 73.4504 91.419 73.2159C91.7036 72.9814 91.8538 72.6182 91.8538 72.1341C91.8538 71.7558 91.7668 71.4229 91.5929 71.1279C91.419 70.8328 91.1976 70.568 90.9289 70.3411C90.6601 70.1141 90.2648 69.7964 89.7273 69.3954C89.0949 68.9112 88.6126 68.5178 88.2806 68.2228C87.9486 67.9277 87.6719 67.5797 87.4348 67.1712C87.2055 66.7702 87.087 66.3163 87.087 65.817C87.087 64.9546 87.4348 64.2737 88.1383 63.7819C88.8419 63.2826 89.6957 63.033 90.7075 63.033C91.2372 63.033 91.7352 63.0935 92.1858 63.2221L92.2016 63.2297Z" fill="#ADB4A4"/>
<path d="M101.478 63.3422H103.794V63.7426H101.478V71.8797C101.478 72.2801 101.544 72.5672 101.684 72.7334C101.824 72.8997 102.037 72.9828 102.338 72.9828C102.897 72.9828 103.346 72.5823 103.669 71.7739L104 71.9552C103.5 73.3379 102.61 74.033 101.316 74.033C100.456 74.033 99.8015 73.8063 99.3529 73.3454C99.0809 73.0659 98.8897 72.7108 98.7941 72.2877C98.6985 71.8646 98.6471 71.2828 98.6471 70.5424V63.7351H97V63.3346H98.6471V60.6752C99.7279 60.6752 100.669 60.4636 101.471 60.033V63.3346L101.478 63.3422Z" fill="#ADB4A4"/>
<path d="M109.495 59.785C109.649 60.0033 109.769 60.2702 109.863 60.5855C109.957 60.9009 110 61.2324 110 61.5801C110 62.3241 109.794 63.0033 109.392 63.6098C108.989 64.2162 108.39 64.6852 107.602 65.033L107.396 64.6448C107.842 64.475 108.218 64.2082 108.552 63.8443C108.878 63.4885 109.075 63.1165 109.135 62.7445C109.178 62.5747 109.203 62.4049 109.203 62.2513C109.203 62.1057 109.178 61.9683 109.135 61.8389C108.801 62.1866 108.355 62.3564 107.807 62.3564C107.259 62.3564 106.839 62.2109 106.505 61.9117C106.171 61.6206 106 61.2082 106 60.6906C106 60.2055 106.171 59.8012 106.522 59.4939C106.874 59.1866 107.319 59.033 107.867 59.033C108.612 59.033 109.152 59.2836 109.486 59.785H109.495Z" fill="#ADB4A4"/>
<path d="M117.551 63.2297C117.946 63.3583 118.243 63.502 118.458 63.6609C118.582 63.7517 118.693 63.8046 118.79 63.8046C118.9 63.8046 118.997 63.7441 119.073 63.6155C119.156 63.4869 119.205 63.3053 119.232 63.0632H119.62C119.571 63.7517 119.543 64.9319 119.543 66.6114H119.156C119.045 65.7262 118.803 64.9773 118.43 64.3796C118.056 63.7819 117.51 63.4793 116.797 63.4793C116.431 63.4793 116.126 63.5928 115.884 63.8198C115.642 64.0467 115.525 64.3645 115.525 64.7654C115.525 65.2193 115.663 65.6127 115.947 65.9456C116.23 66.2785 116.673 66.6719 117.275 67.1485L117.807 67.5722C118.554 68.1925 119.108 68.7448 119.467 69.229C119.827 69.7132 120 70.3184 120 71.0447C120 71.6347 119.841 72.1643 119.53 72.6182C119.218 73.0722 118.796 73.4277 118.264 73.6698C117.738 73.9119 117.15 74.033 116.514 74.033C115.836 74.033 115.262 73.8892 114.778 73.6093C114.383 73.3975 114.1 73.2537 113.927 73.1856C113.802 73.1478 113.699 73.1856 113.602 73.3143C113.512 73.4429 113.436 73.632 113.387 73.8892H113C113.048 73.1251 113.076 71.7785 113.076 69.8569H113.463C113.712 72.3308 114.542 73.5715 115.954 73.5715C116.306 73.5715 116.618 73.4504 116.867 73.2159C117.116 72.9814 117.247 72.6182 117.247 72.1341C117.247 71.7558 117.171 71.4229 117.019 71.1279C116.867 70.8328 116.673 70.568 116.438 70.3411C116.203 70.1141 115.857 69.7964 115.386 69.3954C114.833 68.9112 114.411 68.5178 114.121 68.2228C113.83 67.9277 113.588 67.5797 113.38 67.1712C113.18 66.7702 113.076 66.3163 113.076 65.817C113.076 64.9546 113.38 64.2737 113.996 63.7819C114.612 63.2826 115.359 63.033 116.244 63.033C116.708 63.033 117.143 63.0935 117.538 63.2221L117.551 63.2297Z" fill="#ADB4A4"/>
<path d="M43.7654 80.3846C44.3625 80.614 44.9439 80.9427 45.5174 81.3632C45.6824 81.4856 45.8238 81.5467 45.9338 81.5467C46.0752 81.5467 46.1852 81.4473 46.2716 81.2486C46.358 81.0498 46.4209 80.744 46.4602 80.3235H46.9394C46.8844 81.2486 46.853 82.8923 46.853 85.2547H46.3737C46.2637 84.3296 46.0988 83.5804 45.8788 83.0146C45.6588 82.4412 45.3053 81.9596 44.8025 81.5697C44.4646 81.2562 44.0561 81.0115 43.569 80.8357C43.0819 80.6599 42.5791 80.5681 42.0606 80.5681C41.0864 80.5681 40.2694 80.8892 39.6173 81.5391C38.9652 82.1813 38.486 83.0375 38.1796 84.1002C37.8732 85.1629 37.716 86.325 37.716 87.5865C37.716 92.2883 39.0595 94.6354 41.7385 94.6354C42.3513 94.6354 42.8462 94.4978 43.2233 94.2302C43.404 94.1079 43.5376 93.9626 43.6083 93.8021C43.6869 93.6415 43.7262 93.4275 43.7262 93.1675V91.1721C43.7262 90.5375 43.6712 90.0712 43.5612 89.773C43.4512 89.4825 43.2469 89.2837 42.9641 89.169C42.6813 89.0544 42.2256 88.9932 41.6128 88.9626V88.5574C42.477 88.5956 43.6712 88.6186 45.1953 88.6186C46.4366 88.6186 47.3715 88.5956 48 88.5574V88.9626C47.7172 88.9932 47.5208 89.0467 47.3951 89.1232C47.2694 89.1996 47.1829 89.3602 47.1358 89.5895C47.0887 89.8189 47.0651 90.1935 47.0651 90.7134V94.7501H46.6487C46.633 94.4672 46.578 94.1996 46.468 93.955C46.3659 93.7103 46.2166 93.588 46.0359 93.588C45.8002 93.588 45.4231 93.7333 44.9046 94.0161C43.6869 94.6966 42.5477 95.033 41.4714 95.033C39.0516 95.033 37.2054 94.3908 35.9248 93.1064C34.6364 91.8219 34 90.0177 34 87.6935C34 86.1721 34.3221 84.8342 34.9742 83.6797C35.6263 82.5253 36.5219 81.6308 37.6689 80.9886C38.8159 80.3541 40.1201 80.033 41.5892 80.033C42.4534 80.033 43.1841 80.1476 43.7811 80.377L43.7654 80.3846Z" fill="#ADB4A4"/>
<path d="M51.6497 94.3665C51.2166 93.9146 51 93.3247 51 92.5894C51 91.9766 51.1624 91.471 51.4872 91.065C51.8121 90.6667 52.1988 90.3526 52.6628 90.1381C53.1268 89.9236 53.7146 89.6862 54.4261 89.441C55.1841 89.1806 55.7332 88.9508 56.0889 88.7363C56.4447 88.5218 56.6148 88.2384 56.6148 87.8707V86.2774C56.6148 85.7029 56.4834 85.2586 56.2127 84.9369C55.942 84.6151 55.5321 84.4543 54.9675 84.4543C54.3101 84.4543 53.8074 84.6151 53.4594 84.9445C53.8461 85.0824 54.14 85.2816 54.3565 85.5573C54.5731 85.8331 54.6736 86.1472 54.6736 86.5149C54.6736 86.9745 54.5189 87.3422 54.2019 87.6179C53.8848 87.8937 53.4981 88.0239 53.0495 88.0239C52.57 88.0239 52.1988 87.8707 51.9358 87.572C51.6729 87.2732 51.5414 86.8979 51.5414 86.4459C51.5414 86.0629 51.6342 85.7412 51.8198 85.4731C52.0054 85.205 52.2916 84.9598 52.6783 84.73C53.0495 84.5155 53.5058 84.3394 54.0472 84.2168C54.5886 84.0942 55.1841 84.033 55.8337 84.033C56.4834 84.033 57.0944 84.1019 57.5893 84.2398C58.0843 84.3777 58.4942 84.6075 58.8268 84.9369C59.1284 85.2356 59.3295 85.6033 59.4377 86.0399C59.5383 86.4766 59.5924 87.0664 59.5924 87.8171V93.3707C59.5924 93.7001 59.6234 93.9299 59.6852 94.0678C59.7471 94.2057 59.8708 94.2746 60.0487 94.2746C60.2575 94.2746 60.505 94.1597 60.7912 93.9299L61 94.2746C60.3813 94.7802 59.6234 95.033 58.734 95.033C57.976 95.033 57.4501 94.8798 57.1485 94.581C56.8469 94.2823 56.6845 93.8763 56.6767 93.3784C55.9884 94.4814 54.9753 95.033 53.645 95.033C52.7633 95.033 52.106 94.8108 51.6729 94.3589L51.6497 94.3665ZM56.6071 92.8958V88.7057C56.4447 88.9814 56.0889 89.2802 55.5553 89.6019C55.0217 89.9389 54.6118 90.2837 54.3411 90.6207C54.0626 90.9577 53.9312 91.448 53.9312 92.0915C53.9312 92.6506 54.0472 93.0643 54.2792 93.3247C54.5112 93.5928 54.8206 93.7231 55.2073 93.7231C55.7409 93.7231 56.2127 93.4473 56.6071 92.8881V92.8958Z" fill="#ADB4A4"/>
<path d="M70.5267 84.6001C70.8448 84.9729 71 85.4235 71 85.944C71 86.4645 70.8526 86.8762 70.5578 87.1947C70.2629 87.521 69.875 87.6841 69.3862 87.6841C68.8974 87.6841 68.5483 87.5598 68.269 87.319C67.9897 87.0782 67.8578 86.7597 67.8578 86.3557C67.8578 85.6954 68.1603 85.1516 68.7655 84.7399C68.7112 84.7243 68.6259 84.7166 68.5172 84.7166C68.3776 84.7166 68.269 84.7321 68.1836 84.7554C67.656 84.8409 67.2138 85.1594 66.8491 85.7109C66.4845 86.2625 66.2983 86.8296 66.2983 87.4122V92.8967C66.2983 93.5337 66.4534 93.9765 66.7638 94.225C67.0741 94.4736 67.5707 94.5979 68.2457 94.5979V95.033C68.0517 95.033 67.8966 95.033 67.7724 95.0097C66.3681 94.9708 65.4293 94.9475 64.956 94.9475C64.5836 94.9475 63.7379 94.9708 62.4112 95.0097C62.3026 95.0252 62.1629 95.033 62 95.033V94.5979C62.4966 94.5979 62.8379 94.4892 63.0319 94.2794C63.2259 94.0697 63.319 93.6735 63.319 93.1064V86.581C63.319 85.944 63.2259 85.4856 63.0319 85.1904C62.8379 84.903 62.4966 84.7554 62 84.7554V84.3204C62.4422 84.3592 62.869 84.3825 63.2802 84.3825C64.506 84.3825 65.5147 84.2893 66.2983 84.0951V86.0217C66.5621 85.4313 66.9422 84.9496 67.4388 84.5845C67.9353 84.2194 68.494 84.033 69.1147 84.033C69.7353 84.033 70.2009 84.2194 70.519 84.5923L70.5267 84.6001Z" fill="#ADB4A4"/>
<path d="M83.8955 93.8885C84.1032 94.1671 84.4685 94.3101 85 94.3101V94.7318C84.5433 94.6941 84.0865 94.6716 83.6298 94.6716C82.3178 94.6716 81.2382 94.7619 80.3995 94.9501V93.2259C79.9013 94.4306 78.938 95.033 77.518 95.033C76.0979 95.033 75.0267 94.5737 74.2046 93.6551C73.3825 92.7365 72.9839 91.3586 73.0005 89.5139C73.0005 88.3393 73.2081 87.3454 73.6316 86.5323C74.0551 85.7191 74.6364 85.1167 75.3838 84.7026C76.1312 84.296 76.9782 84.0927 77.9415 84.0927C79.021 84.0927 79.8348 84.3487 80.3995 84.8532V81.4424C80.3995 80.825 80.2915 80.3807 80.0756 80.0946C79.8597 79.816 79.4943 79.673 78.9795 79.673V79.2513C79.4528 79.289 79.9096 79.3115 80.3497 79.3115C81.6368 79.3115 82.7081 79.2212 83.58 79.033V92.5407C83.58 93.1581 83.6796 93.6024 83.8872 93.8885H83.8955ZM79.7186 93.6852C80.0922 93.3614 80.3165 92.9323 80.3912 92.3826V85.3577C80.0175 84.9059 79.486 84.6725 78.7719 84.6725C77.9913 84.6725 77.3851 85.0791 76.9533 85.8998C76.5215 86.7205 76.3222 87.9327 76.3305 89.5515C76.3139 91.1854 76.4882 92.36 76.8536 93.0828C77.219 93.8057 77.7339 94.1671 78.4148 94.1671C78.9048 94.1671 79.3366 94.009 79.7103 93.6852H79.7186Z" fill="#ADB4A4"/>
<path d="M95.587 91.7625L95.961 91.8836C95.6805 92.7618 95.1896 93.5037 94.4727 94.1169C93.7558 94.7301 92.8675 95.033 91.8 95.033C90.3351 95.033 89.1662 94.5787 88.3013 93.6703C87.4364 92.7618 87 91.4218 87 89.6427C87 87.8637 87.4675 86.4404 88.3948 85.4789C89.3221 84.5175 90.5532 84.033 92.0961 84.033C94.6987 84.033 96 85.5244 96 88.5147H90.1636C90.1481 88.7191 90.1403 89.0295 90.1403 89.461C90.1403 90.3468 90.2649 91.0887 90.5221 91.6792C90.7792 92.2697 91.1143 92.7012 91.5195 92.9738C91.9247 93.2463 92.3688 93.375 92.8364 93.375C93.974 93.375 94.8857 92.8375 95.5792 91.7625H95.587ZM90.7325 85.3578C90.4052 85.9559 90.2026 86.8795 90.1169 88.1362H93.3818C93.413 87.0763 93.3039 86.1981 93.0623 85.5016C92.8208 84.8052 92.4545 84.4645 91.9714 84.4645C91.4883 84.4645 91.0597 84.7673 90.7325 85.3654V85.3578Z" fill="#ADB4A4"/>
<path d="M108.019 84.8409C108.253 85.105 108.425 85.439 108.519 85.8585C108.612 86.278 108.667 86.8296 108.667 87.5365V93.1064C108.667 93.6735 108.768 94.0619 108.971 94.2794C109.173 94.4969 109.517 94.5979 110 94.5979V95.033C108.612 94.9786 107.7 94.9475 107.255 94.9475C106.842 94.9475 105.938 94.9786 104.55 95.033V94.5979C104.963 94.5979 105.259 94.4892 105.423 94.2794C105.587 94.0619 105.673 93.6735 105.673 93.1064V86.6664C105.673 86.0993 105.579 85.6721 105.392 85.3847C105.205 85.0972 104.869 84.9496 104.386 84.9496C103.817 84.9496 103.333 85.1827 102.928 85.641C102.522 86.1071 102.327 86.6742 102.327 87.3501V93.1064C102.327 93.6735 102.413 94.0619 102.577 94.2794C102.741 94.4969 103.037 94.5979 103.45 94.5979V95.033C102.172 94.9786 101.314 94.9475 100.869 94.9475C100.456 94.9475 99.4971 94.9786 98 95.033V94.5979C98.499 94.5979 98.8421 94.4892 99.037 94.2794C99.232 94.0697 99.3255 93.6735 99.3255 93.1064V86.581C99.3255 85.944 99.232 85.4856 99.037 85.1904C98.8421 84.903 98.499 84.7554 98 84.7554V84.3204C98.4444 84.3592 98.8733 84.3825 99.2865 84.3825C100.519 84.3825 101.532 84.2893 102.32 84.0951V85.9595C102.943 84.6777 104.082 84.033 105.727 84.033C106.78 84.033 107.544 84.3049 108.012 84.8409H108.019Z" fill="#ADB4A4"/>
<path d="M88.4605 23.0574C85.7038 23.2798 86.0473 27.5476 88.8126 27.3167C91.5693 27.0943 91.2258 22.8265 88.4605 23.0574Z" fill="#ADB4A4"/>
<path d="M101.377 2.57325C98.6198 2.79562 98.9633 7.0635 101.729 6.83257C104.485 6.6102 104.142 2.34232 101.377 2.57325Z" fill="#ADB4A4"/>
<path d="M145.75 25.8713C142.993 26.0937 143.336 30.3616 146.102 30.1307C148.858 29.9083 148.515 25.6404 145.75 25.8713Z" fill="#ADB4A4"/>
</g>
<defs>
<clipPath id="clip0_460_8857">
<rect width="115" height="100" fill="white" transform="translate(33 0.032959)"/>
</clipPath>
</defs>
</svg>
