<svg width="36" height="36" viewBox="0 0 36 36" fill="none" xmlns="http://www.w3.org/2000/svg">
<path d="M21.2344 23.4844L27.1406 17.5781V6.32812H15.8906L3.23438 18.9844L9.28125 25.0312" stroke="white" stroke-width="1.2" stroke-miterlimit="10" stroke-linecap="round" stroke-linejoin="round"/>
<path d="M22.2188 13.3594C23.3837 13.3594 24.3281 12.415 24.3281 11.25C24.3281 10.085 23.3837 9.14062 22.2188 9.14062C21.0538 9.14062 20.1094 10.085 20.1094 11.25C20.1094 12.415 21.0538 13.3594 22.2188 13.3594Z" stroke="white" stroke-width="1.2" stroke-miterlimit="10" stroke-linecap="round" stroke-linejoin="round"/>
<path d="M22.9219 10.5469L32.7656 0.703125" stroke="white" stroke-width="1.2" stroke-miterlimit="10" stroke-linecap="round" stroke-linejoin="round"/>
<path d="M15.8906 35.2969C19.7739 35.2969 22.9219 32.1489 22.9219 28.2656C22.9219 24.3824 19.7739 21.2344 15.8906 21.2344C12.0074 21.2344 8.85938 24.3824 8.85938 28.2656C8.85938 32.1489 12.0074 35.2969 15.8906 35.2969Z" stroke="white" stroke-width="1.2" stroke-miterlimit="10" stroke-linecap="round" stroke-linejoin="round"/>
<path d="M13.9014 25.4531C14.1909 24.6338 14.9723 24.0469 15.8907 24.0469C16.8091 24.0469 17.5905 24.6338 17.8801 25.4531" stroke="white" stroke-width="1.2" stroke-miterlimit="10" stroke-linecap="round" stroke-linejoin="round"/>
<path d="M15.8906 32.4844C18.2206 32.4844 20.1094 30.5956 20.1094 28.2656V25.4531H18.7031C17.1499 25.4531 15.8906 26.7124 15.8906 28.2656" stroke="white" stroke-width="1.2" stroke-miterlimit="10" stroke-linecap="round" stroke-linejoin="round"/>
<path d="M15.8906 32.4844C13.5607 32.4844 11.6719 30.5956 11.6719 28.2656V25.4531H13.0781C14.6314 25.4531 15.8906 26.7124 15.8906 28.2656" stroke="white" stroke-width="1.2" stroke-miterlimit="10" stroke-linecap="round" stroke-linejoin="round"/>
<path d="M15.8906 28.2656V29.6719" stroke="white" stroke-width="1.2" stroke-miterlimit="10" stroke-linecap="round" stroke-linejoin="round"/>
</svg>
